<svg width="489" height="213" viewBox="0 0 489 213" fill="none" xmlns="http://www.w3.org/2000/svg">
<path d="M30.1093 82.955L7.60513 3.60671H19.6394L35.284 60.7134L36.6078 74.6595H39.6164L42.986 82.1134C40.9 82.5143 38.774 82.7946 36.6078 82.955C34.5218 83.1154 32.3556 83.1154 30.1093 82.955ZM42.986 82.1134L36.1264 77.7854L52.0117 23.6842L60.4357 28.6134L57.1865 37.0292H55.1407L52.8541 50.6146L42.986 82.1134ZM68.3784 82.955L47.198 7.9348L58.6306 4.92918L72.8311 60.9539L74.5159 74.6595H78.1262L81.4958 82.1134C79.4098 82.5143 77.2436 82.7946 74.9973 82.955C72.8311 83.1154 70.6247 83.1154 68.3784 82.955ZM81.4958 82.1134L74.0345 77.7854L94.3725 3.60671H103.639L81.4958 82.1134ZM17.1122 11.1809L0.504883 9.25727L0.625226 3.60671H17.4733L17.1122 11.1809ZM20.3615 11.6618L17.8343 3.60671H31.5534L32.2755 7.4539C30.5105 8.25539 28.585 9.01682 26.499 9.73817C24.413 10.3794 22.3672 11.0206 20.3615 11.6618ZM96.8997 11.1809L80.2924 9.25727L80.4127 3.60671H97.2607L96.8997 11.1809ZM99.1862 11.6618L96.659 3.60671H110.378L111.1 7.4539C109.335 8.25539 107.41 9.01682 105.324 9.73817C103.238 10.3794 101.192 11.0206 99.1862 11.6618ZM122.583 81.7528V3.60671H133.775V81.7528H122.583ZM113.076 81.7528L112.353 77.9056C114.199 77.0239 116.124 76.2626 118.13 75.6213C120.216 74.9 122.262 74.2587 124.267 73.6977L124.388 81.7528H113.076ZM128.479 81.7528L128.84 74.1786L145.448 76.1022L145.327 81.7528H128.479ZM129.924 11.1809L113.316 9.25727L113.437 3.60671H130.285L129.924 11.1809ZM132.09 11.6618L131.969 3.60671H143.282L144.004 7.4539C142.239 8.25539 140.313 9.01682 138.227 9.73817C136.141 10.3794 134.095 11.0206 132.09 11.6618ZM152.149 81.7528L149.622 76.3427L195.714 10.2191L200.888 8.77637L206.665 3.60671L209.192 9.13705L162.018 76.1022L157.565 78.0258L152.149 81.7528ZM152.149 81.7528L158.768 72.8561L206.545 72.6157L207.146 81.7528H152.149ZM207.146 81.7528L198.121 77.5449L203.295 58.5494L210.275 59.5112C209.954 63.198 209.513 66.8851 208.951 70.5719C208.47 74.1786 207.868 77.9056 207.146 81.7528ZM154.075 25.4876C153.674 23.003 153.353 20.3179 153.112 17.4326C152.872 14.5472 152.751 11.8621 152.751 9.3775C152.751 6.81269 152.791 4.8891 152.872 3.60671L162.499 9.01682L160.574 25.4876H154.075ZM154.917 12.5033L152.872 3.60671H206.665L201.49 10.8202L154.917 12.5033ZM208.135 81.7528L239.786 5.16963L246.645 8.17525L217.763 81.7528H208.135ZM269.27 81.7528L238.582 3.96738L248.089 0.721313L281.424 81.7528H269.27ZM225.585 57.5876V50.2539H260.605V57.5876H225.585ZM201.998 81.7528L201.276 77.9056C203.121 77.0239 205.047 76.2626 207.052 75.6213C209.138 74.9 211.184 74.2587 213.19 73.6977L213.31 81.7528H201.998ZM216.198 81.7528L216.559 74.1786L233.167 76.1022L233.046 81.7528H216.198ZM255.069 81.7528L254.347 77.9056C256.193 77.0239 258.119 76.2626 260.124 75.6213C262.21 74.9 264.256 74.2587 266.261 73.6977L272.639 81.7528H255.069ZM270.473 81.7528L270.834 74.1786L287.441 76.1022L287.321 81.7528H270.473ZM304.894 50.6146L305.255 41.9584C307.82 42.5194 310.309 42.9202 312.716 43.1606C315.202 43.4011 317.327 43.5213 319.094 43.5213C323.186 43.5213 326.555 43.0003 329.203 41.9584C331.85 40.8362 333.855 39.3935 335.22 37.6303C336.664 35.7868 337.665 33.8632 338.229 31.8595C338.789 29.7755 339.071 27.7719 339.071 25.8483C339.071 22.3217 338.308 19.1558 336.785 16.3505C335.34 13.4651 332.972 11.261 329.684 9.73817L307.421 11.6618L289.249 3.60671L322.825 2.64491C329.241 2.64491 334.536 3.76699 338.71 6.0112C342.961 8.25539 346.13 11.1408 348.217 14.6674C350.301 18.194 351.346 21.9209 351.346 25.8483C351.346 29.6154 350.342 33.3823 348.337 37.1494C346.33 40.9165 343.283 44.0823 339.191 46.6472C335.179 49.1317 330.084 50.4143 323.908 50.4943L304.894 50.6146ZM288.166 81.7528L287.444 77.9056C289.287 77.0239 291.213 76.2626 293.22 75.6213C295.305 74.9 297.35 74.2587 299.358 73.6977L299.478 81.7528H288.166ZM304.773 81.7528L305.134 74.1786L321.742 76.1022L321.621 81.7528H304.773ZM297.673 81.7528V3.60671H308.865V81.7528H297.673ZM341.839 81.7528L342.2 74.5393L358.807 76.1022L358.687 81.7528H341.839ZM300.682 10.0988L289.129 9.3775L289.249 3.60671H300.441L300.682 10.0988ZM340.395 81.7528L320.538 45.8056L331.73 44.7236L354.595 81.7528H340.395ZM379.858 81.7528L379.376 71.0528C382.185 72.0146 384.833 72.7359 387.319 73.2168C389.808 73.6176 392.174 73.8179 394.419 73.8179C399.154 73.8179 403.245 72.9362 406.694 71.173C410.225 69.4098 413.113 67.0053 415.359 63.9595C417.607 60.9137 419.292 57.5075 420.413 53.7404C421.537 49.9733 422.098 46.1261 422.098 42.1988C422.098 37.3098 421.338 32.7412 419.812 28.4932C418.368 24.1651 416.404 20.358 413.915 17.0719C411.429 13.7857 408.581 11.3412 405.37 9.73817L381.181 11.6618L363.611 3.60671C369.549 3.28609 375.487 3.04564 381.422 2.88536C387.439 2.72505 393.418 2.64491 399.353 2.64491C404.889 2.64491 409.823 3.76699 414.156 6.0112C418.488 8.25539 422.18 11.261 425.227 15.0281C428.277 18.7951 430.604 23.043 432.207 27.7719C433.812 32.4205 434.614 37.2295 434.614 42.1988C434.614 47.0879 433.853 51.8969 432.327 56.6258C430.804 61.3547 428.397 65.6025 425.107 69.3696C421.898 73.1367 417.766 76.1424 412.711 78.3865C407.657 80.6306 401.601 81.7528 394.54 81.7528H379.858ZM362.528 81.7528L361.806 77.9056C363.652 77.0239 365.578 76.2626 367.583 75.6213C369.669 74.9 371.715 74.2587 373.72 73.6977L373.841 81.7528H362.528ZM372.035 81.7528V3.84716H383.227V81.7528H372.035ZM375.044 10.0988L363.491 9.3775L363.611 3.60671H374.803L375.044 10.0988ZM443.033 39.1644L440.52 35.875C442.195 34.7209 443.553 33.2782 444.593 31.5469C445.69 29.8157 446.297 28.1422 446.412 26.5263L441.907 23.0639C442.022 22.0828 442.311 21.1595 442.773 20.2939C443.235 19.3706 443.842 18.5627 444.593 17.8702C445.401 17.12 446.268 16.5429 447.192 16.1389C448.752 16.7737 449.965 17.5528 450.831 18.4761C451.756 19.3417 452.42 20.2939 452.824 21.3326C453.229 22.3714 453.431 23.439 453.431 24.5354C453.431 26.3244 452.997 28.1133 452.131 29.9023C451.322 31.6912 450.138 33.3936 448.578 35.0094C447.019 36.5675 445.17 37.9525 443.033 39.1644ZM473.511 83.484C471.201 83.484 468.774 83.1089 466.233 82.3587C463.691 81.6662 461.005 80.5409 458.175 78.9828L461.381 71.3654C463.576 72.8081 466.175 74.193 469.179 75.5203C472.183 76.7899 475.302 77.6555 478.537 78.1172C479.288 77.4824 479.865 76.761 480.27 75.9531C480.674 75.0875 480.876 74.1353 480.876 73.0966C480.876 71.4231 480.356 70.0381 479.316 68.9416C478.277 67.8452 476.948 66.893 475.331 66.0851C473.713 65.2772 471.98 64.4981 470.132 63.7479C468.283 62.9977 466.551 62.1321 464.933 61.1511C463.316 60.17 461.987 58.9582 460.947 57.5155C459.908 56.0151 459.388 54.1396 459.388 51.889C459.388 49.1767 460.168 46.8972 461.727 45.0506C463.287 43.2039 465.309 41.8189 467.792 40.8956C470.334 39.9723 473.02 39.5106 475.851 39.5106C477.872 39.5106 479.807 39.7414 481.656 40.2031C483.562 40.6648 485.324 41.2996 486.941 42.1075L484.255 49.0324C482.291 47.3589 479.894 46.1759 477.064 45.4834C474.291 44.7909 471.749 44.5601 469.439 44.7909C468.341 45.4834 467.59 46.2913 467.186 47.2146C466.839 48.0802 466.666 48.917 466.666 49.7249C466.666 51.283 467.186 52.5814 468.226 53.6202C469.265 54.6012 470.594 55.4957 472.211 56.3036C473.887 57.0538 475.648 57.8329 477.497 58.6408C479.403 59.391 481.165 60.2854 482.782 61.3242C484.458 62.3052 485.815 63.5748 486.855 65.1329C487.895 66.691 488.414 68.6242 488.414 70.9325C488.414 74.6259 487.028 77.6555 484.255 80.0215C481.483 82.3298 477.901 83.484 473.511 83.484ZM480.789 53.2739L479.836 42.6268L486.941 42.1075C487.057 43.9541 486.999 45.8296 486.768 47.734C486.537 49.6383 486.104 51.485 485.468 53.2739H480.789ZM54.013 211.571C47.0235 211.677 40.7753 210.831 35.2684 209.032C29.7615 207.128 24.9429 204.536 20.8127 201.256C16.7884 197.871 13.4525 193.956 10.8049 189.513C8.15739 185.069 6.14525 180.255 4.76852 175.071C3.4977 169.781 2.86229 164.386 2.86229 158.884C2.86229 152.007 3.86836 145.236 5.88049 138.571C7.89263 131.906 10.9108 125.875 14.9351 120.48C19.0653 115.084 24.2016 110.799 30.3439 107.625C36.4863 104.451 43.6876 102.864 51.9479 102.864C59.3611 102.864 65.6622 103.975 70.8514 106.197C76.0406 108.419 79.959 110.535 82.6066 112.545L78.4764 127.78C72.7577 122.807 66.6154 119.104 60.0494 116.671C53.4835 114.237 46.1233 113.497 37.9689 114.449C33.3092 117.094 29.5497 120.691 26.6903 125.24C23.9369 129.684 21.9776 134.551 20.8127 139.841C19.6478 145.13 19.0653 150.262 19.0653 155.234C19.0653 163.486 20.495 170.998 23.3544 177.769C26.3197 184.54 30.6616 189.83 36.3804 193.639C42.205 197.447 49.3533 199.034 57.8255 198.4L82.2889 189.83L85.1482 197.606L54.013 211.571ZM70.3749 137.143L69.1041 119.686L82.6066 112.545C82.8184 114.237 82.8713 116.459 82.7654 119.21C82.7654 121.961 82.5536 124.87 82.13 127.938C81.7064 131.006 80.9651 134.075 79.9061 137.143H70.3749ZM91.0392 209.191L132.818 108.101L141.872 112.069L103.747 209.191H91.0392ZM171.737 209.191L131.229 106.514L143.778 102.229L187.781 209.191H171.737ZM114.073 177.293V167.612H160.299V177.293H114.073ZM82.9377 209.191L81.9846 204.113C84.4204 202.949 86.962 201.944 89.6096 201.097C92.363 200.145 95.0635 199.299 97.7111 198.558L97.8699 209.191H82.9377ZM101.682 209.191L102.159 199.193L124.081 201.732L123.922 209.191H101.682ZM152.992 209.191L152.039 204.113C154.475 202.949 157.016 201.944 159.664 201.097C162.417 200.145 165.118 199.299 167.765 198.558L176.184 209.191H152.992ZM173.325 209.191L173.802 199.193L195.723 201.732L195.564 209.191H173.325ZM222.372 212.365C218.983 212.365 215.118 211.942 210.776 211.095C206.434 210.355 202.304 209.191 198.386 207.604C194.467 205.911 191.29 203.848 188.854 201.415L192.508 184.752C196.215 189.936 200.451 193.797 205.216 196.337C209.982 198.876 214.8 200.516 219.672 201.256C224.649 201.891 229.15 201.997 233.174 201.574C236.351 199.881 238.681 197.5 240.163 194.432C241.646 191.364 242.387 188.349 242.387 185.386C242.387 181.684 241.381 178.563 239.369 176.023C237.357 173.484 234.551 171.21 230.95 169.199C227.456 167.189 223.325 165.073 218.56 162.852C214.006 160.63 209.505 158.249 205.057 155.71C200.609 153.065 196.903 149.838 193.938 146.03C190.972 142.115 189.49 137.301 189.49 131.588C189.49 125.346 191.237 120.109 194.732 115.877C198.333 111.54 202.939 108.313 208.552 106.197C214.271 103.975 220.254 102.864 226.503 102.864C229.891 102.864 233.174 103.129 236.351 103.658C239.634 104.187 242.652 104.821 245.406 105.562C248.159 106.303 250.595 107.043 252.713 107.784L244.611 123.336C240.269 118.681 235.134 115.719 229.203 114.449C223.273 113.18 217.501 112.968 211.888 113.814C209.346 115.295 207.44 117.411 206.169 120.162C204.899 122.807 204.263 125.505 204.263 128.256C204.263 131.747 205.269 134.709 207.281 137.143C209.399 139.47 212.206 141.639 215.701 143.649C219.301 145.554 223.378 147.564 227.932 149.68C232.91 152.007 237.622 154.546 242.07 157.297C246.623 159.942 250.33 163.222 253.189 167.136C256.049 170.945 257.478 175.865 257.478 181.895C257.478 188.349 255.784 193.85 252.395 198.4C249.112 202.949 244.823 206.44 239.528 208.874C234.233 211.201 228.515 212.365 222.372 212.365ZM202.039 201.415H188.854C188.748 199.616 188.696 197.236 188.696 194.273C188.696 191.311 188.854 188.084 189.172 184.593C189.49 181.102 189.913 177.769 190.443 174.595H199.021L202.039 201.415ZM242.546 134.604L240.005 110.799L252.713 107.784C252.925 109.477 252.978 111.857 252.872 114.925C252.872 117.888 252.713 121.114 252.395 124.606C252.183 127.991 251.76 131.324 251.124 134.604H242.546ZM288.806 209.191V106.038H303.579V209.191H288.806ZM272.444 209.191L271.491 204.113C273.927 202.949 276.892 201.944 280.387 201.097C283.882 200.145 286.953 199.299 289.6 198.558L289.759 209.191H272.444ZM299.29 209.191L299.767 199.193L321.689 201.732L321.53 209.191H299.29ZM252.111 131.906C251.687 129.472 251.317 126.986 250.999 124.447C250.787 121.802 250.628 119.263 250.523 116.83C250.417 114.396 250.364 112.174 250.364 110.164C250.364 108.048 250.417 106.356 250.523 105.086L263.231 112.227L260.689 131.906H252.111ZM253.223 116.353L250.523 105.086C256.347 105.298 262.331 105.456 268.473 105.562C274.615 105.668 280.758 105.774 286.9 105.879C293.148 105.879 299.343 105.879 305.486 105.879C311.734 105.774 317.876 105.668 323.913 105.562C330.055 105.456 336.038 105.298 341.863 105.086L339.321 116.353L296.272 114.766L253.223 116.353ZM331.696 131.906L329.155 112.227L341.863 105.086C341.969 106.356 342.022 108.048 342.022 110.164C342.022 112.174 341.969 114.396 341.863 116.83C341.757 119.263 341.545 121.802 341.228 124.447C341.016 126.986 340.698 129.472 340.274 131.906H331.696ZM347.567 209.191V106.038H362.341V209.191H347.567ZM335.018 209.191L334.065 204.113C336.5 202.949 339.042 201.944 341.69 201.097C344.443 200.145 347.144 199.299 349.791 198.558L349.95 209.191H335.018ZM346.614 209.191L358.528 198.717L409.52 196.654L412.22 209.191H346.614ZM412.22 209.191L399.83 202.843L405.231 176.976L414.127 177.61C414.233 180.89 414.18 184.487 413.968 188.402C413.862 192.316 413.65 196.125 413.332 199.828C413.121 203.531 412.75 206.652 412.22 209.191ZM357.257 116.036L335.336 113.497L335.494 106.038H357.734L357.257 116.036ZM360.117 116.671L359.958 106.038H374.89L375.843 111.116C373.513 112.174 370.972 113.18 368.218 114.132C365.465 114.978 362.764 115.824 360.117 116.671ZM409.337 209.191L408.384 204.113C410.82 202.949 413.361 201.944 416.009 201.097C418.762 200.145 421.463 199.299 424.11 198.558L424.269 209.191H409.337ZM483.362 209.191L471.448 202.843L476.849 180.149L485.269 180.784C485.375 183.535 485.322 186.709 485.11 190.306C485.004 193.903 484.792 197.395 484.474 200.78C484.157 204.06 483.786 206.863 483.362 209.191ZM425.858 114.608L410.608 113.656L410.767 106.038H425.54L425.858 114.608ZM473.196 132.223L470.654 113.18L483.362 106.038C483.574 107.731 483.627 110.058 483.521 113.021C483.521 115.877 483.362 118.998 483.045 122.384C482.833 125.664 482.409 128.943 481.774 132.223H473.196ZM421.886 209.191V106.038H436.66V209.191H421.886ZM473.037 164.121L434.912 162.534V153.171L473.037 150.315V164.121ZM480.662 118.258L432.847 114.925L420.933 106.038H483.362L480.662 118.258ZM420.933 209.191L432.847 199.034L480.662 196.971L483.362 209.191H420.933Z" fill="black"/>
</svg>
