<svg width="836" height="451" viewBox="0 0 836 451" fill="none" xmlns="http://www.w3.org/2000/svg">
<g clip-path="url(#clip0_295_1242)">
<path d="M137.256 88.396C137.256 88.396 137.256 88.7568 136.857 88.7568C136.458 89.4784 135.66 90.2 134.862 90.9216C133.266 92.3648 131.271 93.4472 129.276 94.1688C127.281 94.8904 125.286 95.9728 123.69 97.416C120.498 99.5808 118.104 102.106 116.109 104.993C114.912 106.436 114.114 108.24 113.715 110.044C112.917 111.848 112.917 114.013 112.917 116.178C112.917 119.425 113.715 122.672 115.311 125.558C117.705 129.888 119.7 133.857 121.296 137.465C122.094 138.908 122.493 140.351 122.892 142.155C123.291 143.238 123.291 144.681 123.291 145.763C123.291 146.124 123.291 146.485 123.291 146.846V153.34C123.291 169.937 123.291 198.44 123.291 198.44C122.892 202.048 126.084 205.295 130.074 205.656C134.064 206.017 137.655 203.13 138.054 199.522C138.054 199.162 138.054 198.801 138.054 198.44C138.054 198.44 138.054 195.914 138.054 191.946C138.054 180.4 138.054 155.505 138.054 145.763V145.042C138.054 142.516 138.054 140.351 138.054 138.186C138.054 136.743 138.453 134.939 138.852 133.496C139.251 131.692 139.65 129.888 140.847 128.445C141.246 127.723 141.645 127.362 142.044 127.002C142.443 126.641 143.241 126.28 143.64 125.919C147.63 124.476 151.221 121.95 154.014 118.703C155.211 117.26 156.408 115.456 156.807 113.652C158.004 110.044 155.61 106.436 152.019 105.354C148.428 104.271 144.039 106.436 142.842 109.683C142.443 110.044 142.443 110.405 142.044 110.766C140.847 111.848 139.251 112.93 138.054 113.291C136.059 114.013 134.463 115.095 132.867 116.178C131.271 117.26 130.074 118.703 128.877 120.146L128.478 119.425C127.68 118.342 127.68 116.899 127.68 115.817C127.68 114.734 128.079 114.013 128.478 112.93C129.276 111.487 130.473 110.044 131.67 108.962C132.867 107.879 134.463 107.158 136.059 106.436C141.246 104.632 145.635 101.385 149.226 97.416C150.822 95.612 152.019 93.4472 152.418 91.2824C153.216 87.6744 150.822 84.0664 146.832 83.3448C142.443 82.6232 138.453 84.788 137.256 88.396Z" fill="white"/>
<path d="M221.445 216.48C223.041 219.727 227.829 221.17 231.42 219.727C235.41 217.923 239.799 216.841 244.188 216.841C248.577 216.841 252.966 217.923 256.956 219.727C263.34 222.974 268.926 227.665 272.916 233.077C277.305 239.21 280.497 246.066 281.694 252.921C282.492 258.694 284.088 264.466 285.684 270.239C287.28 274.569 289.275 278.538 291.669 282.146C293.664 285.032 296.457 287.558 299.25 289.722C304.437 293.33 310.422 295.856 316.407 297.299C324.387 299.103 332.766 299.825 341.145 299.825H341.544H342.741C343.14 299.825 343.539 299.464 343.938 299.464C344.337 299.464 344.736 299.103 345.135 298.742C345.534 298.382 345.933 298.382 345.933 298.021C346.332 297.66 346.332 297.299 346.731 296.938C347.13 296.578 347.13 296.217 347.13 295.856C347.13 295.495 347.529 295.134 347.529 294.774C347.529 294.413 347.529 294.052 347.529 293.691C347.529 293.33 347.529 292.97 347.529 292.609C347.529 292.248 347.13 291.887 347.13 291.526C347.13 291.166 346.731 290.805 346.332 290.444C345.933 290.083 345.933 289.722 345.534 289.722C342.342 287.197 339.948 284.31 337.953 280.702C336.756 278.898 336.357 276.734 336.357 274.208C336.357 272.404 336.756 270.6 337.554 269.157C337.953 268.074 338.352 266.992 338.751 266.27V265.91C341.145 263.023 340.347 258.694 337.155 256.529C334.362 254.725 329.973 254.725 327.579 257.25C326.382 258.694 325.185 260.137 324.387 261.58C322.791 264.827 321.594 268.796 321.594 272.404C321.594 276.734 322.791 280.702 324.786 284.31L325.185 284.671C322.392 284.31 319.998 283.589 317.604 282.867C314.013 281.785 310.821 280.342 308.028 278.177C306.432 276.734 304.836 274.93 303.639 273.126C301.644 269.878 300.048 266.631 299.25 263.384C298.053 259.415 297.255 255.086 296.058 250.034C294.861 243.901 292.866 238.128 290.073 232.716C285.684 224.418 279.3 217.202 271.719 211.79C267.729 208.903 263.34 206.738 258.951 205.295C254.163 203.491 249.375 202.77 244.188 202.77C237.405 202.77 231.021 204.213 225.036 206.738C221.445 209.264 219.849 213.233 221.445 216.48Z" fill="white"/>
<path d="M348.726 327.606C348.726 323.998 345.534 320.751 341.145 320.751C328.776 321.112 316.407 319.308 304.836 315.339C298.452 313.174 292.467 309.927 287.28 305.598C280.098 299.825 274.911 292.97 271.32 285.032C267.729 276.734 265.335 268.435 264.537 259.776C263.739 251.478 259.35 243.901 252.966 238.128C246.582 232.716 238.602 229.83 229.824 229.83C225.435 229.83 221.046 230.551 216.657 232.355C212.268 234.159 208.278 236.685 204.687 239.571C203.889 240.293 203.49 240.654 203.091 241.736L202.692 242.097L195.909 237.046L204.288 228.386C210.672 221.892 209.874 211.79 202.692 206.017C201.495 205.295 200.697 204.213 199.899 203.13C199.5 202.77 199.5 202.409 199.5 202.048C199.101 200.966 199.101 199.883 199.5 198.801C199.5 198.44 199.899 198.079 199.899 197.718C200.298 196.997 201.096 196.275 201.894 195.554L204.687 193.389C206.682 191.946 208.278 189.781 209.475 187.977C210.273 186.534 210.672 185.451 211.071 184.008C211.47 182.565 211.869 180.761 211.869 179.318C211.869 177.153 211.47 175.349 210.672 173.184C210.273 171.741 209.475 170.658 208.677 169.215C207.48 167.772 206.283 166.329 205.086 165.246L201.894 162.721C201.495 162.36 201.096 161.999 200.697 161.999C200.298 161.638 199.899 161.638 199.5 161.278C199.101 161.278 198.702 160.917 198.303 160.917C197.904 160.917 197.505 160.917 197.106 160.917H193.515L198.303 150.814C198.303 150.454 198.702 150.093 198.702 149.732L339.948 180.4H340.347H342.741H343.539H343.938H344.337H344.736H345.135H345.534H345.933H346.332L346.731 180.039H347.13L347.529 179.678L347.928 179.318L348.327 178.957L348.726 178.596V178.235L349.125 177.874V177.514V177.153V176.792V176.431V176.07V175.71C349.125 175.71 349.125 175.349 349.125 174.988C349.125 174.627 349.125 174.627 349.125 174.266V173.184V172.823C349.125 172.823 349.125 172.462 349.125 172.102V171.741L347.13 171.019C342.342 162.721 336.357 155.505 328.776 149.371C319.2 141.434 308.427 134.578 297.255 129.527C292.467 127.002 288.078 125.558 285.285 124.476C284.886 123.033 284.886 121.95 284.886 120.507C284.886 118.703 284.886 117.26 285.285 115.456C286.083 111.848 287.28 108.601 289.275 105.354C292.866 99.5809 297.654 94.1688 303.24 89.4785C311.22 82.9841 320.397 77.2113 329.973 72.5209C333.963 70.7169 337.554 68.9129 339.948 68.1913L342.741 67.1089L343.539 66.7481C347.529 65.3049 349.125 61.3361 347.529 58.0889C346.332 55.5633 343.938 54.1201 341.145 53.7593C337.155 53.3985 333.165 53.3985 329.175 53.3985C306.033 53.0377 283.29 57.0065 261.744 64.5833C251.37 68.1913 241.395 73.2425 231.819 79.0153C223.44 84.4273 215.46 90.9217 208.677 97.7769C205.086 101.385 201.894 104.993 199.101 108.962C193.116 109.322 187.53 110.044 181.944 111.848C176.757 113.291 171.57 115.095 166.782 117.621C161.196 120.507 156.009 124.115 151.221 128.445C150.822 128.806 150.423 129.166 150.423 129.527C150.024 129.888 150.024 130.249 149.625 130.61C149.625 130.97 149.625 130.97 149.226 131.331V131.692C149.226 132.053 149.226 132.414 149.226 132.774C149.226 133.135 149.226 133.496 149.226 133.857C149.226 134.218 149.625 134.578 149.625 134.939C149.625 135.3 150.024 135.661 150.423 136.022C150.822 136.382 150.822 136.743 151.221 137.104C151.62 137.465 152.019 137.826 152.418 137.826C152.817 138.186 153.216 138.186 153.615 138.547L154.413 138.908L182.343 145.042L173.565 163.803C171.969 167.05 173.565 171.019 177.555 172.462C178.353 172.823 179.55 172.823 180.348 172.823H192.318L192.717 173.184C193.515 173.906 194.313 174.627 195.111 175.71C195.111 176.07 195.51 176.431 195.51 176.792C195.51 177.153 195.51 177.874 195.51 178.235C195.51 178.596 195.51 179.318 195.111 179.678C195.111 180.039 194.712 180.4 194.712 180.761C194.313 181.482 193.515 182.204 192.717 182.926L189.924 185.09C187.929 186.534 186.333 188.698 185.136 190.502C184.338 191.946 183.939 193.028 183.141 194.471C182.742 195.914 182.343 197.718 182.343 199.162C182.343 200.966 182.742 202.77 183.141 204.574C183.939 206.738 185.136 208.903 186.732 210.707C187.929 212.15 189.126 213.233 190.722 214.315C191.121 214.676 191.121 214.676 191.52 215.037C191.52 215.398 191.919 215.758 191.919 216.119C191.919 216.841 191.52 217.202 191.121 217.923L183.54 226.943L153.615 202.048C150.423 199.522 146.034 199.883 143.241 202.409C142.044 203.491 141.246 205.295 141.246 206.738V212.15C128.478 208.182 114.114 214.676 110.124 226.222C107.73 233.077 108.927 240.654 113.316 246.426L113.715 246.787L118.902 252.921V327.606C119.301 331.214 122.892 334.101 126.882 333.74C130.473 333.379 133.665 330.854 133.665 327.606V251.838C133.665 251.838 133.665 251.838 133.665 251.478C133.665 251.117 133.665 251.117 133.665 251.117V250.756V250.395V250.034V249.674V249.313V248.952V248.591V248.23V247.87L133.266 247.509L126.483 239.932C125.685 238.85 125.286 237.767 124.887 236.685C123.69 231.994 127.281 226.943 132.468 226.222C136.059 225.5 140.049 226.943 142.443 229.469L142.842 230.19C142.842 231.994 143.241 234.159 143.241 236.685C144.039 246.066 145.236 255.446 147.231 264.466C148.827 272.404 150.822 280.342 153.615 287.918C155.61 293.691 158.004 299.464 161.196 304.876C165.186 312.814 171.57 319.669 178.752 325.442C182.742 327.967 186.732 330.132 191.52 331.575C196.308 333.018 201.495 334.101 206.283 334.101C210.273 333.74 213.465 330.493 213.066 326.885C212.667 323.638 209.874 320.751 206.283 320.751C203.49 320.751 201.096 320.39 198.303 319.669C193.515 318.586 189.525 316.061 185.934 313.174C182.742 310.288 179.55 307.041 177.156 303.072C172.368 295.134 168.378 286.475 165.984 277.816C162.393 264.827 159.6 251.478 158.403 237.767C158.004 231.994 157.605 227.304 157.605 224.057V223.696L180.747 242.818L201.096 258.333C205.086 261.58 209.475 264.106 213.864 266.27C217.056 267.714 220.647 268.435 224.238 268.796C226.632 268.796 229.425 268.435 231.42 267.353C232.617 266.631 233.814 265.91 234.612 265.188C237.405 262.662 237.405 258.333 234.612 255.807C231.819 253.282 227.43 253.282 224.238 255.446H223.839C222.243 255.446 221.046 255.086 219.45 254.364C217.056 253.282 215.061 252.199 213.465 250.756C213.864 250.395 214.263 249.674 214.662 249.313L215.46 248.952C217.455 247.148 220.248 245.344 222.642 244.262C225.036 243.54 227.43 242.818 229.824 242.818C234.612 242.818 239.4 244.622 242.592 247.509C246.582 251.117 248.976 255.807 249.774 260.858C250.971 269.878 252.966 278.538 256.158 286.836C258.951 293.33 262.143 299.464 266.931 304.876C271.719 311.01 277.704 316.061 284.487 320.39H243.39L223.839 297.66C221.046 294.774 216.258 294.774 213.465 297.299C210.672 299.464 210.273 303.072 212.268 305.958L232.218 329.41C233.814 332.297 237.006 333.74 240.198 334.101H341.544C345.534 334.101 348.726 330.854 348.726 327.606ZM192.318 123.754C195.909 123.033 199.5 122.672 203.091 122.672H203.889C206.682 122.672 209.475 121.229 210.672 119.064V118.703C213.465 114.374 216.657 110.405 220.248 106.797C226.632 100.302 233.415 94.8905 240.996 90.2001C249.375 84.7881 258.153 80.4585 267.729 77.2113C281.295 72.1601 295.659 69.2737 310.422 67.8305L308.028 69.2737C299.649 74.3249 292.068 80.4585 285.285 87.3137C281.694 90.9217 278.901 94.8905 276.507 99.2201C274.113 103.55 272.118 108.24 271.32 112.93C270.921 115.095 270.921 116.899 270.522 119.064L259.749 115.456C256.158 114.013 251.769 115.456 250.173 119.064C248.577 122.311 250.173 126.28 254.163 127.723C254.562 127.723 254.562 128.084 254.961 128.084L276.906 134.939C285.285 137.826 292.866 141.434 300.447 145.763C307.23 149.371 313.614 154.062 319.599 158.752C321.195 160.195 322.791 161.278 323.988 162.721L173.565 129.888L174.762 129.166C180.348 126.641 185.934 124.837 192.318 123.754Z" fill="white"/>
<path d="M248.178 193.389C251.37 193.028 254.562 192.667 257.355 192.667C260.946 192.667 264.537 193.028 268.128 194.11C274.113 195.914 279.699 198.801 284.088 202.77C291.27 208.903 297.255 216.119 302.442 224.057C304.038 226.582 305.634 228.747 307.23 230.912C308.427 232.716 310.023 234.159 311.619 235.602C314.013 238.128 316.806 239.932 319.998 241.736C323.589 243.179 327.579 244.262 331.17 244.262C335.16 244.262 339.15 243.54 343.14 242.458C347.13 241.375 349.125 237.406 347.928 233.798C346.731 230.19 342.741 228.386 338.751 229.469C336.357 230.19 333.963 230.551 331.569 230.551C329.973 230.551 328.377 230.19 326.781 229.83C325.983 229.469 324.786 229.108 323.988 228.386C322.392 226.943 320.796 225.5 319.599 223.696C318.003 221.892 316.407 219.366 314.412 216.841C310.422 210.707 305.634 204.934 300.447 199.522C294.462 193.028 287.28 187.977 279.3 184.008C275.709 182.565 272.118 181.122 268.128 180.4C264.537 179.678 260.547 179.318 256.956 179.318C252.966 179.318 249.375 179.678 245.385 180.039C241.395 180.4 238.203 183.647 239.001 187.255C239.799 190.863 242.991 193.75 246.981 193.028C247.779 193.75 248.178 193.389 248.178 193.389Z" fill="white"/>
<path d="M112.119 99.5808C116.109 99.22 118.902 96.3336 118.902 93.0864V92.7256C119.301 92.004 119.7 91.2824 120.498 90.5608C122.493 89.1176 124.488 88.0352 126.882 87.3136C130.473 85.8704 134.064 84.0664 137.256 81.9016C140.448 79.7368 143.241 76.4896 144.837 73.2424C145.635 71.4384 146.034 69.6344 146.034 67.8304C146.034 64.2224 142.842 60.9752 138.852 60.9752C134.862 60.9752 131.271 63.8616 131.271 67.4696C131.271 67.8304 131.271 67.8304 131.271 68.1912C130.872 69.2736 130.074 69.9952 128.877 71.0776C126.483 72.8816 124.089 74.3248 121.296 75.4072C118.104 76.4896 115.311 77.9328 112.518 79.7368C109.326 81.9016 106.932 84.4272 105.336 87.6744C104.538 89.4784 104.139 91.2824 103.74 93.4472C103.74 93.808 103.74 93.808 103.74 94.1688C104.538 97.0552 108.129 99.9416 112.119 99.5808Z" fill="white"/>
<path d="M114.513 72.16C114.912 71.4384 115.311 70.7168 116.109 69.9952C117.705 68.552 119.301 67.4696 121.296 66.748C125.286 65.3048 129.276 63.14 132.867 60.2536C136.458 57.3672 139.251 53.3984 141.246 49.0688C142.044 46.5432 142.842 44.0176 142.842 41.492C142.842 41.1312 142.842 40.7704 142.842 40.7704C142.443 37.1624 139.251 34.276 134.862 34.6368C130.872 34.9976 127.68 37.884 128.079 41.8528C128.079 42.5744 128.079 42.9352 128.079 43.296C127.68 45.1 126.882 46.904 125.286 48.3472C122.892 51.2336 119.7 53.0376 116.109 54.4808C113.316 55.5632 110.922 57.0064 108.528 58.8104C106.134 60.6144 104.139 63.14 102.543 65.6656C101.745 67.1088 101.346 68.1912 100.947 69.6344C100.149 73.2424 102.543 76.8504 106.932 77.572C111.321 78.2936 113.715 75.768 114.513 72.16Z" fill="white"/>
</g>
<path d="M377.604 199.234L355.1 119.885H367.135L382.779 176.992L384.103 190.938H387.111L390.481 198.392C388.395 198.793 386.269 199.073 384.103 199.234C382.017 199.394 379.851 199.394 377.604 199.234ZM390.481 198.392L383.622 194.064L399.507 139.963L407.931 144.892L404.682 153.308H402.636L400.349 166.893L390.481 198.392ZM415.874 199.234L394.693 124.213L406.126 121.208L420.326 177.233L422.011 190.938H425.621L428.991 198.392C426.905 198.793 424.739 199.073 422.492 199.234C420.326 199.394 418.12 199.394 415.874 199.234ZM428.991 198.392L421.53 194.064L441.868 119.885H451.134L428.991 198.392ZM364.607 127.46L348 125.536L348.12 119.885H364.968L364.607 127.46ZM367.857 127.94L365.329 119.885H379.049L379.771 123.733C378.006 124.534 376.08 125.296 373.994 126.017C371.908 126.658 369.862 127.299 367.857 127.94ZM444.395 127.46L427.787 125.536L427.908 119.885H444.756L444.395 127.46ZM446.681 127.94L444.154 119.885H457.873L458.595 123.733C456.83 124.534 454.905 125.296 452.819 126.017C450.733 126.658 448.687 127.299 446.681 127.94ZM470.078 198.031V119.885H481.27V198.031H470.078ZM460.571 198.031L459.849 194.184C461.694 193.303 463.619 192.541 465.625 191.9C467.711 191.179 469.757 190.537 471.763 189.976L471.883 198.031H460.571ZM475.975 198.031L476.336 190.457L492.943 192.381L492.823 198.031H475.975ZM477.419 127.46L460.811 125.536L460.932 119.885H477.78L477.419 127.46ZM479.585 127.94L479.465 119.885H490.777L491.499 123.733C489.734 124.534 487.808 125.296 485.722 126.017C483.636 126.658 481.59 127.299 479.585 127.94ZM499.645 198.031L497.117 192.621L543.209 126.498L548.384 125.055L554.16 119.885L556.687 125.416L509.513 192.381L505.06 194.304L499.645 198.031ZM499.645 198.031L506.263 189.135L554.04 188.894L554.641 198.031H499.645ZM554.641 198.031L545.616 193.824L550.79 174.828L557.77 175.79C557.45 179.477 557.008 183.164 556.447 186.851C555.965 190.457 555.363 194.184 554.641 198.031ZM501.57 141.766C501.169 139.282 500.848 136.597 500.607 133.711C500.367 130.826 500.246 128.141 500.246 125.656C500.246 123.091 500.287 121.168 500.367 119.885L509.994 125.296L508.069 141.766H501.57ZM502.412 128.782L500.367 119.885H554.16L548.985 127.099L502.412 128.782ZM555.63 198.031L587.281 121.448L594.14 124.454L565.258 198.031H555.63ZM616.765 198.031L586.077 120.246L595.584 117L628.919 198.031H616.765ZM573.08 173.866V166.533H608.1V173.866H573.08ZM549.493 198.031L548.771 194.184C550.616 193.303 552.542 192.541 554.547 191.9C556.633 191.179 558.679 190.537 560.685 189.976L560.805 198.031H549.493ZM563.693 198.031L564.054 190.457L580.662 192.381L580.541 198.031H563.693ZM602.564 198.031L601.842 194.184C603.688 193.303 605.614 192.541 607.619 191.9C609.705 191.179 611.751 190.537 613.756 189.976L620.134 198.031H602.564ZM617.968 198.031L618.329 190.457L634.937 192.381L634.816 198.031H617.968ZM652.389 166.893L652.75 158.237C655.315 158.798 657.804 159.199 660.211 159.439C662.697 159.68 664.823 159.8 666.589 159.8C670.681 159.8 674.05 159.279 676.698 158.237C679.346 157.115 681.35 155.672 682.715 153.909C684.159 152.065 685.161 150.142 685.724 148.138C686.285 146.054 686.566 144.051 686.566 142.127C686.566 138.6 685.803 135.434 684.28 132.629C682.836 129.744 680.467 127.54 677.179 126.017L654.916 127.94L636.744 119.885L670.32 118.924C676.737 118.924 682.032 120.046 686.205 122.29C690.456 124.534 693.625 127.419 695.712 130.946C697.797 134.473 698.841 138.2 698.841 142.127C698.841 145.894 697.837 149.661 695.833 153.428C693.825 157.195 690.778 160.361 686.686 162.926C682.674 165.41 677.579 166.693 671.403 166.773L652.389 166.893ZM635.661 198.031L634.939 194.184C636.783 193.303 638.708 192.541 640.715 191.9C642.8 191.179 644.846 190.537 646.853 189.976L646.973 198.031H635.661ZM652.268 198.031L652.629 190.457L669.237 192.381L669.116 198.031H652.268ZM645.168 198.031V119.885H656.36V198.031H645.168ZM689.334 198.031L689.695 190.818L706.302 192.381L706.182 198.031H689.334ZM648.177 126.378L636.624 125.656L636.744 119.885H647.936L648.177 126.378ZM687.89 198.031L668.033 162.084L679.225 161.002L702.09 198.031H687.89ZM727.353 198.031L726.871 187.331C729.68 188.293 732.328 189.015 734.814 189.496C737.303 189.896 739.669 190.097 741.914 190.097C746.649 190.097 750.74 189.215 754.189 187.452C757.72 185.688 760.608 183.284 762.854 180.238C765.102 177.192 766.787 173.786 767.908 170.019C769.033 166.252 769.593 162.405 769.593 158.478C769.593 153.588 768.833 149.02 767.307 144.772C765.863 140.444 763.899 136.637 761.41 133.351C758.924 130.064 756.076 127.62 752.866 126.017L728.677 127.94L711.107 119.885C717.044 119.565 722.982 119.324 728.917 119.164C734.934 119.004 740.913 118.924 746.848 118.924C752.384 118.924 757.318 120.046 761.651 122.29C765.983 124.534 769.675 127.54 772.722 131.307C775.772 135.074 778.099 139.322 779.702 144.051C781.307 148.699 782.109 153.508 782.109 158.478C782.109 163.367 781.348 168.176 779.822 172.904C778.299 177.633 775.892 181.881 772.602 185.648C769.394 189.415 765.261 192.421 760.206 194.665C755.152 196.909 749.096 198.031 742.035 198.031H727.353ZM710.023 198.031L709.301 194.184C711.147 193.303 713.073 192.541 715.078 191.9C717.165 191.179 719.21 190.537 721.215 189.976L721.336 198.031H710.023ZM719.531 198.031V120.126H730.722V198.031H719.531ZM722.539 126.378L710.986 125.656L711.107 119.885H722.298L722.539 126.378ZM790.528 155.443L788.015 152.154C789.691 151 791.048 149.557 792.088 147.826C793.185 146.094 793.792 144.421 793.907 142.805L789.402 139.343C789.517 138.362 789.806 137.438 790.268 136.573C790.73 135.649 791.337 134.841 792.088 134.149C792.897 133.399 793.763 132.822 794.687 132.418C796.247 133.052 797.46 133.831 798.326 134.755C799.251 135.62 799.915 136.573 800.319 137.611C800.724 138.65 800.926 139.718 800.926 140.814C800.926 142.603 800.493 144.392 799.626 146.181C798.817 147.97 797.633 149.672 796.074 151.288C794.514 152.846 792.665 154.231 790.528 155.443ZM821.006 199.763C818.696 199.763 816.27 199.388 813.728 198.637C811.186 197.945 808.5 196.82 805.67 195.261L808.876 187.644C811.071 189.087 813.67 190.472 816.674 191.799C819.678 193.069 822.797 193.934 826.032 194.396C826.783 193.761 827.36 193.04 827.765 192.232C828.169 191.366 828.371 190.414 828.371 189.375C828.371 187.702 827.851 186.317 826.812 185.22C825.772 184.124 824.443 183.172 822.826 182.364C821.208 181.556 819.476 180.777 817.627 180.027C815.779 179.276 814.046 178.411 812.428 177.43C810.811 176.449 809.482 175.237 808.442 173.794C807.403 172.294 806.883 170.418 806.883 168.168C806.883 165.455 807.663 163.176 809.222 161.329C810.782 159.483 812.804 158.098 815.288 157.174C817.829 156.251 820.515 155.789 823.346 155.789C825.367 155.789 827.303 156.02 829.151 156.482C831.057 156.943 832.819 157.578 834.437 158.386L831.751 165.311C829.786 163.638 827.389 162.455 824.559 161.762C821.786 161.07 819.244 160.839 816.934 161.07C815.836 161.762 815.085 162.57 814.681 163.493C814.334 164.359 814.161 165.196 814.161 166.004C814.161 167.562 814.681 168.86 815.721 169.899C816.761 170.88 818.089 171.774 819.707 172.582C821.382 173.332 823.144 174.112 824.992 174.919C826.898 175.67 828.66 176.564 830.277 177.603C831.953 178.584 833.31 179.853 834.35 181.412C835.39 182.97 835.91 184.903 835.91 187.211C835.91 190.905 834.523 193.934 831.751 196.3C828.978 198.609 825.396 199.763 821.006 199.763ZM828.285 169.553L827.332 158.906L834.437 158.386C834.552 160.233 834.494 162.108 834.263 164.013C834.032 165.917 833.599 167.764 832.964 169.553H828.285ZM401.508 327.85C394.519 327.956 388.27 327.11 382.764 325.311C377.257 323.407 372.438 320.815 368.308 317.535C364.284 314.149 360.948 310.235 358.3 305.791C355.653 301.348 353.64 296.534 352.264 291.35C350.993 286.06 350.357 280.664 350.357 275.163C350.357 268.286 351.363 261.515 353.376 254.85C355.388 248.184 358.406 242.154 362.43 236.758C366.56 231.363 371.697 227.078 377.839 223.904C383.981 220.73 391.183 219.143 399.443 219.143C406.856 219.143 413.157 220.254 418.347 222.476C423.536 224.697 427.454 226.813 430.102 228.823L425.972 244.058C420.253 239.086 414.11 235.383 407.545 232.95C400.979 230.516 393.618 229.776 385.464 230.728C380.804 233.373 377.045 236.97 374.185 241.519C371.432 245.963 369.473 250.829 368.308 256.119C367.143 261.409 366.56 266.54 366.56 271.513C366.56 279.765 367.99 287.277 370.85 294.048C373.815 300.819 378.157 306.109 383.875 309.917C389.7 313.726 396.848 315.313 405.321 314.678L429.784 306.109L432.643 313.885L401.508 327.85ZM417.87 253.421L416.599 235.965L430.102 228.823C430.313 230.516 430.366 232.738 430.261 235.489C430.261 238.239 430.049 241.149 429.625 244.217C429.202 247.285 428.46 250.353 427.401 253.421H417.87ZM438.534 325.47L480.313 224.38L489.367 228.347L451.243 325.47H438.534ZM519.232 325.47L478.724 222.793L491.274 218.508L535.276 325.47H519.232ZM461.568 293.572V283.891H507.794V293.572H461.568ZM430.433 325.47L429.48 320.391C431.915 319.228 434.457 318.223 437.105 317.376C439.858 316.424 442.559 315.578 445.206 314.837L445.365 325.47H430.433ZM449.178 325.47L449.654 315.472L471.576 318.011L471.417 325.47H449.178ZM500.487 325.47L499.534 320.391C501.97 319.228 504.511 318.223 507.159 317.376C509.912 316.424 512.613 315.578 515.26 314.837L523.68 325.47H500.487ZM520.82 325.47L521.297 315.472L543.218 318.011L543.06 325.47H520.82ZM569.867 328.644C566.479 328.644 562.613 328.22 558.271 327.374C553.929 326.633 549.799 325.47 545.881 323.883C541.962 322.19 538.785 320.127 536.35 317.694L540.003 301.03C543.71 306.214 547.946 310.076 552.711 312.615C557.477 315.154 562.295 316.794 567.167 317.535C572.144 318.17 576.645 318.275 580.669 317.852C583.847 316.159 586.176 313.779 587.659 310.711C589.141 307.643 589.882 304.628 589.882 301.665C589.882 297.962 588.876 294.841 586.864 292.302C584.853 289.763 582.046 287.488 578.446 285.478C574.951 283.468 570.821 281.352 566.055 279.13C561.501 276.908 557 274.528 552.553 271.989C548.105 269.344 544.398 266.117 541.433 262.308C538.468 258.394 536.985 253.58 536.985 247.867C536.985 241.625 538.732 236.388 542.227 232.156C545.828 227.818 550.434 224.592 556.047 222.476C561.766 220.254 567.749 219.143 573.998 219.143C577.387 219.143 580.669 219.407 583.847 219.936C587.129 220.465 590.147 221.1 592.901 221.841C595.654 222.581 598.09 223.322 600.208 224.063L592.106 239.615C587.764 234.96 582.629 231.997 576.698 230.728C570.768 229.458 564.996 229.247 559.383 230.093C556.842 231.574 554.935 233.69 553.664 236.441C552.394 239.086 551.758 241.784 551.758 244.534C551.758 248.026 552.764 250.988 554.776 253.421C556.894 255.749 559.701 257.918 563.196 259.928C566.796 261.832 570.874 263.842 575.427 265.958C580.405 268.286 585.117 270.825 589.565 273.576C594.119 276.221 597.825 279.501 600.684 283.415C603.544 287.224 604.973 292.143 604.973 298.174C604.973 304.628 603.279 310.129 599.89 314.678C596.607 319.228 592.318 322.719 587.023 325.152C581.728 327.48 576.01 328.644 569.867 328.644ZM549.534 317.694H536.35C536.244 315.895 536.191 313.515 536.191 310.552C536.191 307.59 536.35 304.363 536.667 300.872C536.985 297.38 537.409 294.048 537.938 290.874H546.516L549.534 317.694ZM590.041 250.882L587.5 227.078L600.208 224.063C600.42 225.755 600.473 228.136 600.367 231.204C600.367 234.166 600.208 237.393 599.89 240.884C599.678 244.27 599.255 247.603 598.619 250.882H590.041ZM636.301 325.47V222.317H651.075V325.47H636.301ZM619.939 325.47L618.986 320.391C621.422 319.228 624.387 318.223 627.882 317.376C631.377 316.424 634.448 315.578 637.095 314.837L637.254 325.47H619.939ZM646.786 325.47L647.262 315.472L669.184 318.011L669.025 325.47H646.786ZM599.606 248.184C599.183 245.751 598.812 243.265 598.494 240.726C598.282 238.081 598.124 235.542 598.018 233.108C597.912 230.675 597.859 228.453 597.859 226.443C597.859 224.327 597.912 222.634 598.018 221.365L610.726 228.506L608.184 248.184H599.606ZM600.718 232.632L598.018 221.365C603.842 221.576 609.826 221.735 615.968 221.841C622.11 221.947 628.253 222.052 634.395 222.158C640.643 222.158 646.838 222.158 652.981 222.158C659.229 222.052 665.371 221.947 671.408 221.841C677.55 221.735 683.534 221.576 689.358 221.365L686.816 232.632L643.767 231.045L600.718 232.632ZM679.192 248.184L676.65 228.506L689.358 221.365C689.464 222.634 689.517 224.327 689.517 226.443C689.517 228.453 689.464 230.675 689.358 233.108C689.252 235.542 689.04 238.081 688.723 240.726C688.511 243.265 688.193 245.751 687.77 248.184H679.192ZM695.062 325.47V222.317H709.836V325.47H695.062ZM682.513 325.47L681.56 320.391C683.996 319.228 686.537 318.223 689.185 317.376C691.938 316.424 694.639 315.578 697.286 314.837L697.445 325.47H682.513ZM694.109 325.47L706.023 314.996L757.015 312.933L759.716 325.47H694.109ZM759.716 325.47L747.325 319.122L752.726 293.254L761.622 293.889C761.728 297.169 761.675 300.766 761.463 304.68C761.357 308.595 761.145 312.404 760.827 316.107C760.616 319.809 760.245 322.931 759.716 325.47ZM704.752 232.315L682.831 229.776L682.99 222.317H705.229L704.752 232.315ZM707.612 232.95L707.453 222.317H722.385L723.338 227.395C721.008 228.453 718.467 229.458 715.713 230.41C712.96 231.257 710.259 232.103 707.612 232.95ZM756.832 325.47L755.879 320.391C758.315 319.228 760.856 318.223 763.504 317.376C766.257 316.424 768.958 315.578 771.605 314.837L771.764 325.47H756.832ZM830.858 325.47L818.944 319.122L824.345 296.428L832.764 297.063C832.87 299.814 832.817 302.988 832.605 306.585C832.499 310.182 832.287 313.673 831.97 317.059C831.652 320.338 831.281 323.142 830.858 325.47ZM773.353 230.886L758.103 229.934L758.262 222.317H773.035L773.353 230.886ZM820.691 248.502L818.149 229.458L830.858 222.317C831.069 224.01 831.122 226.337 831.016 229.3C831.016 232.156 830.858 235.277 830.54 238.663C830.328 241.942 829.904 245.222 829.269 248.502H820.691ZM769.382 325.47V222.317H784.155V325.47H769.382ZM820.532 280.4L782.407 278.813V269.45L820.532 266.593V280.4ZM828.157 234.536L780.342 231.204L768.428 222.317H830.858L828.157 234.536ZM768.428 325.47L780.342 315.313L828.157 313.25L830.858 325.47H768.428Z" fill="white"/>
<defs>
<clipPath id="clip0_295_1242">
<rect width="399" height="451" fill="white"/>
</clipPath>
</defs>
</svg>
