<svg width="750" height="459" viewBox="0 0 750 459" fill="none" xmlns="http://www.w3.org/2000/svg">
<path d="M51.256 92.396C51.256 92.396 51.256 92.7568 50.857 92.7568C50.458 93.4784 49.66 94.2 48.862 94.9216C47.266 96.3648 45.271 97.4472 43.276 98.1688C41.281 98.8904 39.286 99.9728 37.69 101.416C34.498 103.581 32.104 106.106 30.109 108.993C28.912 110.436 28.114 112.24 27.715 114.044C26.917 115.848 26.917 118.013 26.917 120.178C26.917 123.425 27.715 126.672 29.311 129.558C31.705 133.888 33.7 137.857 35.296 141.465C36.094 142.908 36.493 144.351 36.892 146.155C37.291 147.238 37.291 148.681 37.291 149.763C37.291 150.124 37.291 150.485 37.291 150.846V157.34C37.291 173.937 37.291 202.44 37.291 202.44C36.892 206.048 40.084 209.295 44.074 209.656C48.064 210.017 51.655 207.13 52.054 203.522C52.054 203.162 52.054 202.801 52.054 202.44C52.054 202.44 52.054 199.914 52.054 195.946C52.054 184.4 52.054 159.505 52.054 149.763V149.042C52.054 146.516 52.054 144.351 52.054 142.186C52.054 140.743 52.453 138.939 52.852 137.496C53.251 135.692 53.65 133.888 54.847 132.445C55.246 131.723 55.645 131.362 56.044 131.002C56.443 130.641 57.241 130.28 57.64 129.919C61.63 128.476 65.221 125.95 68.014 122.703C69.211 121.26 70.408 119.456 70.807 117.652C72.004 114.044 69.61 110.436 66.019 109.354C62.428 108.271 58.039 110.436 56.842 113.683C56.443 114.044 56.443 114.405 56.044 114.766C54.847 115.848 53.251 116.93 52.054 117.291C50.059 118.013 48.463 119.095 46.867 120.178C45.271 121.26 44.074 122.703 42.877 124.146L42.478 123.425C41.68 122.342 41.68 120.899 41.68 119.817C41.68 118.734 42.079 118.013 42.478 116.93C43.276 115.487 44.473 114.044 45.67 112.962C46.867 111.879 48.463 111.158 50.059 110.436C55.246 108.632 59.635 105.385 63.226 101.416C64.822 99.612 66.019 97.4472 66.418 95.2824C67.216 91.6744 64.822 88.0664 60.832 87.3448C56.443 86.6232 52.453 88.788 51.256 92.396Z" fill="white"/>
<path d="M135.445 220.48C137.041 223.727 141.829 225.17 145.42 223.727C149.41 221.923 153.799 220.841 158.188 220.841C162.577 220.841 166.966 221.923 170.956 223.727C177.34 226.974 182.926 231.665 186.916 237.077C191.305 243.21 194.497 250.066 195.694 256.921C196.492 262.694 198.088 268.466 199.684 274.239C201.28 278.569 203.275 282.538 205.669 286.146C207.664 289.032 210.457 291.558 213.25 293.722C218.437 297.33 224.422 299.856 230.407 301.299C238.387 303.103 246.766 303.825 255.145 303.825H255.544H256.741C257.14 303.825 257.539 303.464 257.938 303.464C258.337 303.464 258.736 303.103 259.135 302.742C259.534 302.382 259.933 302.382 259.933 302.021C260.332 301.66 260.332 301.299 260.731 300.938C261.13 300.578 261.13 300.217 261.13 299.856C261.13 299.495 261.529 299.134 261.529 298.774C261.529 298.413 261.529 298.052 261.529 297.691C261.529 297.33 261.529 296.97 261.529 296.609C261.529 296.248 261.13 295.887 261.13 295.526C261.13 295.166 260.731 294.805 260.332 294.444C259.933 294.083 259.933 293.722 259.534 293.722C256.342 291.197 253.948 288.31 251.953 284.702C250.756 282.898 250.357 280.734 250.357 278.208C250.357 276.404 250.756 274.6 251.554 273.157C251.953 272.074 252.352 270.992 252.751 270.27V269.91C255.145 267.023 254.347 262.694 251.155 260.529C248.362 258.725 243.973 258.725 241.579 261.25C240.382 262.694 239.185 264.137 238.387 265.58C236.791 268.827 235.594 272.796 235.594 276.404C235.594 280.734 236.791 284.702 238.786 288.31L239.185 288.671C236.392 288.31 233.998 287.589 231.604 286.867C228.013 285.785 224.821 284.342 222.028 282.177C220.432 280.734 218.836 278.93 217.639 277.126C215.644 273.878 214.048 270.631 213.25 267.384C212.053 263.415 211.255 259.086 210.058 254.034C208.861 247.901 206.866 242.128 204.073 236.716C199.684 228.418 193.3 221.202 185.719 215.79C181.729 212.903 177.34 210.738 172.951 209.295C168.163 207.491 163.375 206.77 158.188 206.77C151.405 206.77 145.021 208.213 139.036 210.738C135.445 213.264 133.849 217.233 135.445 220.48Z" fill="white"/>
<path d="M262.726 331.606C262.726 327.998 259.534 324.751 255.145 324.751C242.776 325.112 230.407 323.308 218.836 319.339C212.452 317.174 206.467 313.927 201.28 309.597C194.098 303.825 188.911 296.969 185.32 289.032C181.729 280.733 179.335 272.435 178.537 263.776C177.739 255.478 173.35 247.901 166.966 242.128C160.582 236.716 152.602 233.83 143.824 233.83C139.435 233.83 135.046 234.551 130.657 236.355C126.268 238.159 122.278 240.685 118.687 243.571C117.889 244.293 117.49 244.654 117.091 245.736L116.692 246.097L109.909 241.046L118.288 232.386C124.672 225.892 123.874 215.79 116.692 210.017C115.495 209.295 114.697 208.213 113.899 207.13C113.5 206.77 113.5 206.409 113.5 206.048C113.101 204.966 113.101 203.883 113.5 202.801C113.5 202.44 113.899 202.079 113.899 201.718C114.298 200.997 115.096 200.275 115.894 199.554L118.687 197.389C120.682 195.946 122.278 193.781 123.475 191.977C124.273 190.534 124.672 189.451 125.071 188.008C125.47 186.565 125.869 184.761 125.869 183.318C125.869 181.153 125.47 179.349 124.672 177.184C124.273 175.741 123.475 174.658 122.677 173.215C121.48 171.772 120.283 170.329 119.086 169.246L115.894 166.721C115.495 166.36 115.096 165.999 114.697 165.999C114.298 165.638 113.899 165.638 113.5 165.278C113.101 165.278 112.702 164.917 112.303 164.917C111.904 164.917 111.505 164.917 111.106 164.917H107.515L112.303 154.814C112.303 154.454 112.702 154.093 112.702 153.732L253.948 184.4H254.347H256.741H257.539H257.938H258.337H258.736H259.135H259.534H259.933H260.332L260.731 184.039H261.13L261.529 183.678L261.928 183.318L262.327 182.957L262.726 182.596V182.235L263.125 181.874V181.514V181.153V180.792V180.431V180.07V179.71C263.125 179.71 263.125 179.349 263.125 178.988C263.125 178.627 263.125 178.627 263.125 178.266V177.184V176.823C263.125 176.823 263.125 176.462 263.125 176.102V175.741L261.13 175.019C256.342 166.721 250.357 159.505 242.776 153.371C233.2 145.434 222.427 138.578 211.255 133.527C206.467 131.002 202.078 129.558 199.285 128.476C198.886 127.033 198.886 125.95 198.886 124.507C198.886 122.703 198.886 121.26 199.285 119.456C200.083 115.848 201.28 112.601 203.275 109.354C206.866 103.581 211.654 98.1687 217.24 93.4783C225.22 86.9839 234.397 81.2111 243.973 76.5207C247.963 74.7167 251.554 72.9127 253.948 72.1911L256.741 71.1087L257.539 70.7479C261.529 69.3047 263.125 65.3359 261.529 62.0887C260.332 59.5631 257.938 58.1199 255.145 57.7591C251.155 57.3983 247.165 57.3983 243.175 57.3983C220.033 57.0375 197.29 61.0063 175.744 68.5831C165.37 72.1911 155.395 77.2423 145.819 83.0151C137.44 88.4271 129.46 94.9215 122.677 101.777C119.086 105.385 115.894 108.993 113.101 112.962C107.116 113.322 101.53 114.044 95.9441 115.848C90.7571 117.291 85.5701 119.095 80.7821 121.621C75.1961 124.507 70.0091 128.115 65.2211 132.445C64.8221 132.806 64.4231 133.166 64.4231 133.527C64.0241 133.888 64.0241 134.249 63.6251 134.61C63.6251 134.97 63.6251 134.97 63.2261 135.331V135.692C63.2261 136.053 63.2261 136.414 63.2261 136.774C63.2261 137.135 63.2261 137.496 63.2261 137.857C63.2261 138.218 63.6251 138.578 63.6251 138.939C63.6251 139.3 64.0241 139.661 64.4231 140.022C64.8221 140.382 64.8221 140.743 65.2211 141.104C65.6201 141.465 66.0191 141.826 66.4181 141.826C66.8171 142.186 67.2161 142.186 67.6151 142.547L68.4131 142.908L96.3431 149.042L87.5651 167.803C85.9691 171.05 87.5651 175.019 91.5551 176.462C92.3531 176.823 93.5501 176.823 94.3481 176.823H106.318L106.717 177.184C107.515 177.906 108.313 178.627 109.111 179.71C109.111 180.07 109.51 180.431 109.51 180.792C109.51 181.153 109.51 181.874 109.51 182.235C109.51 182.596 109.51 183.318 109.111 183.678C109.111 184.039 108.712 184.4 108.712 184.761C108.313 185.482 107.515 186.204 106.717 186.926L103.924 189.09C101.929 190.534 100.333 192.698 99.1361 194.502C98.3381 195.946 97.9391 197.028 97.1411 198.471C96.7421 199.914 96.3431 201.718 96.3431 203.162C96.3431 204.966 96.7421 206.77 97.1411 208.574C97.9391 210.738 99.1361 212.903 100.732 214.707C101.929 216.15 103.126 217.233 104.722 218.315C105.121 218.676 105.121 218.676 105.52 219.037C105.52 219.398 105.919 219.758 105.919 220.119C105.919 220.841 105.52 221.202 105.121 221.923L97.5401 230.943L67.6151 206.048C64.4231 203.522 60.0341 203.883 57.2411 206.409C56.0441 207.491 55.2461 209.295 55.2461 210.738V216.15C42.4781 212.182 28.1141 218.676 24.1241 230.222C21.7301 237.077 22.9271 244.654 27.3161 250.426L27.7151 250.787L32.9021 256.921V331.606C33.3011 335.214 36.8921 338.101 40.8821 337.74C44.4731 337.379 47.6651 334.853 47.6651 331.606V255.838C47.6651 255.838 47.6651 255.838 47.6651 255.477C47.6651 255.117 47.6651 255.117 47.6651 255.117V254.756V254.395V254.034V253.673V253.313V252.952V252.591V252.23V251.87L47.2661 251.509L40.4831 243.932C39.6851 242.85 39.2861 241.767 38.8871 240.685C37.6901 235.994 41.2811 230.943 46.4681 230.222C50.0591 229.5 54.0491 230.943 56.4431 233.469L56.8421 234.19C56.8421 235.994 57.2411 238.159 57.2411 240.685C58.0391 250.066 59.2361 259.446 61.2311 268.466C62.8271 276.404 64.8221 284.342 67.6151 291.918C69.6101 297.691 72.0041 303.464 75.1961 308.876C79.1861 316.813 85.5701 323.669 92.7521 329.441C96.7421 331.967 100.732 334.132 105.52 335.575C110.308 337.018 115.495 338.101 120.283 338.101C124.273 337.74 127.465 334.493 127.066 330.885C126.667 327.637 123.874 324.751 120.283 324.751C117.49 324.751 115.096 324.39 112.303 323.669C107.515 322.586 103.525 320.061 99.9341 317.174C96.7421 314.288 93.5501 311.041 91.1561 307.072C86.3681 299.134 82.3781 290.475 79.9841 281.816C76.3931 268.827 73.6001 255.478 72.4031 241.767C72.0041 235.994 71.6051 231.304 71.6051 228.057V227.696L94.7471 246.818L115.096 262.333C119.086 265.58 123.475 268.106 127.864 270.27C131.056 271.714 134.647 272.435 138.238 272.796C140.632 272.796 143.425 272.435 145.42 271.353C146.617 270.631 147.814 269.91 148.612 269.188C151.405 266.662 151.405 262.333 148.612 259.807C145.819 257.282 141.43 257.282 138.238 259.446H137.839C136.243 259.446 135.046 259.086 133.45 258.364C131.056 257.282 129.061 256.199 127.465 254.756C127.864 254.395 128.263 253.674 128.662 253.313L129.46 252.952C131.455 251.148 134.248 249.344 136.642 248.262C139.036 247.54 141.43 246.818 143.824 246.818C148.612 246.818 153.4 248.622 156.592 251.509C160.582 255.117 162.976 259.807 163.774 264.858C164.971 273.878 166.966 282.537 170.158 290.836C172.951 297.33 176.143 303.464 180.931 308.876C185.719 315.009 191.704 320.061 198.487 324.39H157.39L137.839 301.66C135.046 298.773 130.258 298.773 127.465 301.299C124.672 303.464 124.273 307.072 126.268 309.958L146.218 333.41C147.814 336.297 151.006 337.74 154.198 338.101H255.544C259.534 338.101 262.726 334.853 262.726 331.606ZM106.318 127.754C109.909 127.033 113.5 126.672 117.091 126.672H117.889C120.682 126.672 123.475 125.229 124.672 123.064V122.703C127.465 118.374 130.657 114.405 134.248 110.797C140.632 104.302 147.415 98.8903 154.996 94.1999C163.375 88.7879 172.153 84.4583 181.729 81.2111C195.295 76.1599 209.659 73.2735 224.422 71.8303L222.028 73.2735C213.649 78.3247 206.068 84.4583 199.285 91.3135C195.694 94.9215 192.901 98.8903 190.507 103.22C188.113 107.55 186.118 112.24 185.32 116.93C184.921 119.095 184.921 120.899 184.522 123.064L173.749 119.456C170.158 118.013 165.769 119.456 164.173 123.064C162.577 126.311 164.173 130.28 168.163 131.723C168.562 131.723 168.562 132.084 168.961 132.084L190.906 138.939C199.285 141.826 206.866 145.434 214.447 149.763C221.23 153.371 227.614 158.062 233.599 162.752C235.195 164.195 236.791 165.278 237.988 166.721L87.5651 133.888L88.7621 133.166C94.3481 130.641 99.9341 128.837 106.318 127.754Z" fill="white"/>
<path d="M162.178 197.389C165.37 197.028 168.562 196.667 171.355 196.667C174.946 196.667 178.537 197.028 182.128 198.11C188.113 199.914 193.699 202.801 198.088 206.77C205.27 212.903 211.255 220.119 216.442 228.057C218.038 230.582 219.634 232.747 221.23 234.912C222.427 236.716 224.023 238.159 225.619 239.602C228.013 242.128 230.806 243.932 233.998 245.736C237.589 247.179 241.579 248.262 245.17 248.262C249.16 248.262 253.15 247.54 257.14 246.458C261.13 245.375 263.125 241.406 261.928 237.798C260.731 234.19 256.741 232.386 252.751 233.469C250.357 234.19 247.963 234.551 245.569 234.551C243.973 234.551 242.377 234.19 240.781 233.83C239.983 233.469 238.786 233.108 237.988 232.386C236.392 230.943 234.796 229.5 233.599 227.696C232.003 225.892 230.407 223.366 228.412 220.841C224.422 214.707 219.634 208.934 214.447 203.522C208.462 197.028 201.28 191.977 193.3 188.008C189.709 186.565 186.118 185.122 182.128 184.4C178.537 183.678 174.547 183.318 170.956 183.318C166.966 183.318 163.375 183.678 159.385 184.039C155.395 184.4 152.203 187.647 153.001 191.255C153.799 194.863 156.991 197.75 160.981 197.028C161.779 197.75 162.178 197.389 162.178 197.389Z" fill="white"/>
<path d="M26.119 103.581C30.109 103.22 32.902 100.334 32.902 97.0864V96.7256C33.301 96.004 33.7 95.2824 34.498 94.5608C36.493 93.1176 38.488 92.0352 40.882 91.3136C44.473 89.8704 48.064 88.0664 51.256 85.9016C54.448 83.7368 57.241 80.4896 58.837 77.2424C59.635 75.4384 60.034 73.6344 60.034 71.8304C60.034 68.2224 56.842 64.9752 52.852 64.9752C48.862 64.9752 45.271 67.8616 45.271 71.4696C45.271 71.8304 45.271 71.8304 45.271 72.1912C44.872 73.2736 44.074 73.9952 42.877 75.0776C40.483 76.8816 38.089 78.3248 35.296 79.4072C32.104 80.4896 29.311 81.9328 26.518 83.7368C23.326 85.9016 20.932 88.4272 19.336 91.6744C18.538 93.4784 18.139 95.2824 17.74 97.4472C17.74 97.808 17.74 97.808 17.74 98.1688C18.538 101.055 22.129 103.942 26.119 103.581Z" fill="white"/>
<path d="M28.513 76.1599C28.912 75.4383 29.311 74.7167 30.109 73.9951C31.705 72.5519 33.301 71.4695 35.296 70.7479C39.286 69.3047 43.276 67.1399 46.867 64.2535C50.458 61.3671 53.251 57.3983 55.246 53.0687C56.044 50.5431 56.842 48.0175 56.842 45.4919C56.842 45.1311 56.842 44.7703 56.842 44.7703C56.443 41.1623 53.251 38.2759 48.862 38.6367C44.872 38.9975 41.68 41.8839 42.079 45.8527C42.079 46.5743 42.079 46.9351 42.079 47.2959C41.68 49.0999 40.882 50.9039 39.286 52.3471C36.892 55.2335 33.7 57.0375 30.109 58.4807C27.316 59.5631 24.922 61.0063 22.528 62.8103C20.134 64.6143 18.139 67.1399 16.543 69.6655C15.745 71.1087 15.346 72.1911 14.947 73.6343C14.149 77.2423 16.543 80.8503 20.932 81.5719C25.321 82.2935 27.715 79.7679 28.513 76.1599Z" fill="white"/>
<path d="M291.604 203.234L269.1 123.885H281.135L296.779 180.992L298.103 194.938H301.111L304.481 202.392C302.395 202.793 300.269 203.073 298.103 203.234C296.017 203.394 293.851 203.394 291.604 203.234ZM304.481 202.392L297.622 198.064L313.507 143.963L321.931 148.892L318.682 157.308H316.636L314.349 170.893L304.481 202.392ZM329.874 203.234L308.693 128.213L320.126 125.208L334.326 181.233L336.011 194.938H339.621L342.991 202.392C340.905 202.793 338.739 203.073 336.492 203.234C334.326 203.394 332.12 203.394 329.874 203.234ZM342.991 202.392L335.53 198.064L355.868 123.885H365.134L342.991 202.392ZM278.607 131.46L262 129.536L262.12 123.885H278.968L278.607 131.46ZM281.857 131.94L279.329 123.885H293.049L293.771 127.733C292.006 128.534 290.08 129.296 287.994 130.017C285.908 130.658 283.862 131.299 281.857 131.94ZM358.395 131.46L341.787 129.536L341.908 123.885H358.756L358.395 131.46ZM360.681 131.94L358.154 123.885H371.873L372.595 127.733C370.83 128.534 368.905 129.296 366.819 130.017C364.733 130.658 362.687 131.299 360.681 131.94ZM384.078 202.031V123.885H395.27V202.031H384.078ZM374.571 202.031L373.849 198.184C375.694 197.303 377.619 196.541 379.625 195.9C381.711 195.179 383.757 194.537 385.763 193.976L385.883 202.031H374.571ZM389.975 202.031L390.336 194.457L406.943 196.381L406.823 202.031H389.975ZM391.419 131.46L374.811 129.536L374.932 123.885H391.78L391.419 131.46ZM393.585 131.94L393.465 123.885H404.777L405.499 127.733C403.734 128.534 401.808 129.296 399.722 130.017C397.636 130.658 395.59 131.299 393.585 131.94ZM413.645 202.031L411.117 196.621L457.209 130.498L462.384 129.055L468.16 123.885L470.687 129.416L423.513 196.381L419.06 198.304L413.645 202.031ZM413.645 202.031L420.263 193.135L468.04 192.894L468.641 202.031H413.645ZM468.641 202.031L459.616 197.824L464.79 178.828L471.77 179.79C471.45 183.477 471.008 187.164 470.447 190.851C469.965 194.457 469.363 198.184 468.641 202.031ZM415.57 145.766C415.169 143.282 414.848 140.597 414.607 137.711C414.367 134.826 414.246 132.141 414.246 129.656C414.246 127.091 414.287 125.168 414.367 123.885L423.994 129.296L422.069 145.766H415.57ZM416.412 132.782L414.367 123.885H468.16L462.985 131.099L416.412 132.782ZM469.63 202.031L501.281 125.448L508.14 128.454L479.258 202.031H469.63ZM530.765 202.031L500.077 124.246L509.584 121L542.919 202.031H530.765ZM487.08 177.866V170.533H522.1V177.866H487.08ZM463.493 202.031L462.771 198.184C464.616 197.303 466.542 196.541 468.547 195.9C470.633 195.179 472.679 194.537 474.685 193.976L474.805 202.031H463.493ZM477.693 202.031L478.054 194.457L494.662 196.381L494.541 202.031H477.693ZM516.564 202.031L515.842 198.184C517.688 197.303 519.614 196.541 521.619 195.9C523.705 195.179 525.751 194.537 527.756 193.976L534.134 202.031H516.564ZM531.968 202.031L532.329 194.457L548.937 196.381L548.816 202.031H531.968ZM566.389 170.893L566.75 162.237C569.315 162.798 571.804 163.199 574.211 163.439C576.697 163.68 578.823 163.8 580.589 163.8C584.681 163.8 588.05 163.279 590.698 162.237C593.346 161.115 595.35 159.672 596.715 157.909C598.159 156.065 599.161 154.142 599.724 152.138C600.285 150.054 600.566 148.051 600.566 146.127C600.566 142.6 599.803 139.434 598.28 136.629C596.836 133.744 594.467 131.54 591.179 130.017L568.916 131.94L550.744 123.885L584.32 122.924C590.737 122.924 596.032 124.046 600.205 126.29C604.456 128.534 607.625 131.419 609.712 134.946C611.797 138.473 612.841 142.2 612.841 146.127C612.841 149.894 611.837 153.661 609.833 157.428C607.825 161.195 604.778 164.361 600.686 166.926C596.674 169.41 591.579 170.693 585.403 170.773L566.389 170.893ZM549.661 202.031L548.939 198.184C550.783 197.303 552.708 196.541 554.715 195.9C556.8 195.179 558.846 194.537 560.853 193.976L560.973 202.031H549.661ZM566.268 202.031L566.629 194.457L583.237 196.381L583.116 202.031H566.268ZM559.168 202.031V123.885H570.36V202.031H559.168ZM603.334 202.031L603.695 194.818L620.302 196.381L620.182 202.031H603.334ZM562.177 130.378L550.624 129.656L550.744 123.885H561.936L562.177 130.378ZM601.89 202.031L582.033 166.084L593.225 165.002L616.09 202.031H601.89ZM641.353 202.031L640.871 191.331C643.68 192.293 646.328 193.015 648.814 193.496C651.303 193.896 653.669 194.097 655.914 194.097C660.649 194.097 664.74 193.215 668.189 191.452C671.72 189.688 674.608 187.284 676.854 184.238C679.102 181.192 680.787 177.786 681.908 174.019C683.032 170.252 683.593 166.405 683.593 162.478C683.593 157.588 682.833 153.02 681.307 148.772C679.863 144.444 677.899 140.637 675.41 137.351C672.924 134.064 670.076 131.62 666.866 130.017L642.677 131.94L625.107 123.885C631.044 123.565 636.982 123.324 642.917 123.164C648.934 123.004 654.913 122.924 660.848 122.924C666.384 122.924 671.318 124.046 675.651 126.29C679.983 128.534 683.675 131.54 686.722 135.307C689.772 139.074 692.099 143.322 693.702 148.051C695.307 152.699 696.109 157.508 696.109 162.478C696.109 167.367 695.348 172.176 693.822 176.904C692.299 181.633 689.892 185.881 686.602 189.648C683.394 193.415 679.261 196.421 674.206 198.665C669.152 200.909 663.096 202.031 656.035 202.031H641.353ZM624.023 202.031L623.301 198.184C625.147 197.303 627.073 196.541 629.078 195.9C631.165 195.179 633.21 194.537 635.215 193.976L635.336 202.031H624.023ZM633.531 202.031V124.126H644.722V202.031H633.531ZM636.539 130.378L624.986 129.656L625.107 123.885H636.298L636.539 130.378ZM704.528 159.443L702.015 156.154C703.691 155 705.048 153.557 706.088 151.826C707.185 150.094 707.792 148.421 707.907 146.805L703.402 143.343C703.517 142.362 703.806 141.438 704.268 140.573C704.73 139.649 705.337 138.841 706.088 138.149C706.897 137.399 707.763 136.822 708.687 136.418C710.247 137.052 711.46 137.831 712.326 138.755C713.251 139.62 713.915 140.573 714.319 141.611C714.724 142.65 714.926 143.718 714.926 144.814C714.926 146.603 714.493 148.392 713.626 150.181C712.817 151.97 711.633 153.672 710.074 155.288C708.514 156.846 706.665 158.231 704.528 159.443ZM735.006 203.763C732.696 203.763 730.27 203.388 727.728 202.637C725.186 201.945 722.5 200.82 719.67 199.261L722.876 191.644C725.071 193.087 727.67 194.472 730.674 195.799C733.678 197.069 736.797 197.934 740.032 198.396C740.783 197.761 741.36 197.04 741.765 196.232C742.169 195.366 742.371 194.414 742.371 193.375C742.371 191.702 741.851 190.317 740.812 189.22C739.772 188.124 738.443 187.172 736.826 186.364C735.208 185.556 733.476 184.777 731.627 184.027C729.779 183.276 728.046 182.411 726.428 181.43C724.811 180.449 723.482 179.237 722.442 177.794C721.403 176.294 720.883 174.418 720.883 172.168C720.883 169.455 721.663 167.176 723.222 165.329C724.782 163.483 726.804 162.098 729.288 161.174C731.829 160.251 734.515 159.789 737.346 159.789C739.367 159.789 741.303 160.02 743.151 160.482C745.057 160.943 746.819 161.578 748.437 162.386L745.751 169.311C743.787 167.638 741.389 166.455 738.559 165.762C735.786 165.07 733.244 164.839 730.934 165.07C729.836 165.762 729.085 166.57 728.681 167.493C728.334 168.359 728.161 169.196 728.161 170.004C728.161 171.562 728.681 172.86 729.721 173.899C730.761 174.88 732.089 175.774 733.707 176.582C735.382 177.332 737.144 178.112 738.992 178.919C740.898 179.67 742.66 180.564 744.277 181.603C745.953 182.584 747.31 183.853 748.35 185.412C749.39 186.97 749.91 188.903 749.91 191.211C749.91 194.905 748.523 197.934 745.751 200.3C742.978 202.609 739.396 203.763 735.006 203.763ZM742.285 173.553L741.332 162.906L748.437 162.386C748.552 164.233 748.494 166.108 748.263 168.013C748.032 169.917 747.599 171.764 746.964 173.553H742.285ZM315.508 331.85C308.519 331.956 302.27 331.11 296.764 329.311C291.257 327.407 286.438 324.815 282.308 321.535C278.284 318.149 274.948 314.235 272.3 309.791C269.653 305.348 267.64 300.534 266.264 295.35C264.993 290.06 264.357 284.664 264.357 279.163C264.357 272.286 265.363 265.515 267.376 258.85C269.388 252.184 272.406 246.154 276.43 240.758C280.56 235.363 285.697 231.078 291.839 227.904C297.981 224.73 305.183 223.143 313.443 223.143C320.856 223.143 327.157 224.254 332.347 226.476C337.536 228.697 341.454 230.813 344.102 232.823L339.972 248.058C334.253 243.086 328.11 239.383 321.545 236.95C314.979 234.516 307.618 233.776 299.464 234.728C294.804 237.373 291.045 240.97 288.185 245.519C285.432 249.963 283.473 254.829 282.308 260.119C281.143 265.409 280.56 270.54 280.56 275.513C280.56 283.765 281.99 291.277 284.85 298.048C287.815 304.819 292.157 310.109 297.875 313.917C303.7 317.726 310.848 319.313 319.321 318.678L343.784 310.109L346.643 317.885L315.508 331.85ZM331.87 257.421L330.599 239.965L344.102 232.823C344.313 234.516 344.366 236.738 344.261 239.489C344.261 242.239 344.049 245.149 343.625 248.217C343.202 251.285 342.46 254.353 341.401 257.421H331.87ZM352.534 329.47L394.313 228.38L403.367 232.347L365.243 329.47H352.534ZM433.232 329.47L392.724 226.793L405.274 222.508L449.276 329.47H433.232ZM375.568 297.572V287.891H421.794V297.572H375.568ZM344.433 329.47L343.48 324.391C345.915 323.228 348.457 322.223 351.105 321.376C353.858 320.424 356.559 319.578 359.206 318.837L359.365 329.47H344.433ZM363.178 329.47L363.654 319.472L385.576 322.011L385.417 329.47H363.178ZM414.487 329.47L413.534 324.391C415.97 323.228 418.511 322.223 421.159 321.376C423.912 320.424 426.613 319.578 429.26 318.837L437.68 329.47H414.487ZM434.82 329.47L435.297 319.472L457.218 322.011L457.06 329.47H434.82ZM483.867 332.644C480.479 332.644 476.613 332.22 472.271 331.374C467.929 330.633 463.799 329.47 459.881 327.883C455.962 326.19 452.785 324.127 450.35 321.694L454.003 305.03C457.71 310.214 461.946 314.076 466.711 316.615C471.477 319.154 476.295 320.794 481.167 321.535C486.144 322.17 490.645 322.275 494.669 321.852C497.847 320.159 500.176 317.779 501.659 314.711C503.141 311.643 503.882 308.627 503.882 305.665C503.882 301.962 502.876 298.841 500.864 296.302C498.853 293.763 496.046 291.488 492.446 289.478C488.951 287.468 484.821 285.352 480.055 283.13C475.501 280.908 471 278.528 466.553 275.989C462.105 273.344 458.398 270.117 455.433 266.308C452.468 262.394 450.985 257.58 450.985 251.867C450.985 245.625 452.732 240.388 456.227 236.156C459.828 231.818 464.434 228.592 470.047 226.476C475.766 224.254 481.749 223.143 487.998 223.143C491.387 223.143 494.669 223.407 497.847 223.936C501.129 224.465 504.147 225.1 506.901 225.841C509.654 226.581 512.09 227.322 514.208 228.063L506.106 243.615C501.764 238.96 496.629 235.997 490.698 234.728C484.768 233.458 478.996 233.247 473.383 234.093C470.842 235.574 468.935 237.69 467.664 240.441C466.394 243.086 465.758 245.784 465.758 248.534C465.758 252.026 466.764 254.988 468.776 257.421C470.894 259.749 473.701 261.918 477.196 263.928C480.796 265.832 484.874 267.842 489.427 269.958C494.405 272.286 499.117 274.825 503.565 277.576C508.119 280.221 511.825 283.501 514.684 287.415C517.544 291.224 518.973 296.143 518.973 302.174C518.973 308.628 517.279 314.129 513.89 318.678C510.607 323.228 506.318 326.719 501.023 329.152C495.728 331.48 490.01 332.644 483.867 332.644ZM463.534 321.694H450.35C450.244 319.895 450.191 317.515 450.191 314.552C450.191 311.59 450.349 308.363 450.667 304.872C450.985 301.38 451.409 298.048 451.938 294.874H460.516L463.534 321.694ZM504.041 254.882L501.5 231.078L514.208 228.063C514.42 229.755 514.473 232.136 514.367 235.204C514.367 238.166 514.208 241.393 513.89 244.884C513.678 248.27 513.255 251.603 512.619 254.882H504.041ZM550.301 329.47V226.317H565.075V329.47H550.301ZM533.939 329.47L532.986 324.391C535.422 323.228 538.387 322.223 541.882 321.376C545.377 320.424 548.448 319.578 551.095 318.837L551.254 329.47H533.939ZM560.786 329.47L561.262 319.472L583.184 322.011L583.025 329.47H560.786ZM513.606 252.184C513.183 249.751 512.812 247.265 512.494 244.726C512.282 242.081 512.124 239.542 512.018 237.108C511.912 234.675 511.859 232.453 511.859 230.443C511.859 228.327 511.912 226.634 512.018 225.365L524.726 232.506L522.184 252.184H513.606ZM514.718 236.632L512.018 225.365C517.842 225.576 523.826 225.735 529.968 225.841C536.11 225.947 542.253 226.052 548.395 226.158C554.643 226.158 560.838 226.158 566.981 226.158C573.229 226.052 579.371 225.947 585.408 225.841C591.55 225.735 597.534 225.576 603.358 225.365L600.816 236.632L557.767 235.045L514.718 236.632ZM593.192 252.184L590.65 232.506L603.358 225.365C603.464 226.634 603.517 228.327 603.517 230.443C603.517 232.453 603.464 234.675 603.358 237.108C603.252 239.542 603.04 242.081 602.723 244.726C602.511 247.265 602.193 249.751 601.77 252.184H593.192ZM609.062 329.47V226.317H623.836V329.47H609.062ZM596.513 329.47L595.56 324.391C597.996 323.228 600.537 322.223 603.185 321.376C605.938 320.424 608.639 319.578 611.286 318.837L611.445 329.47H596.513ZM608.109 329.47L620.023 318.996L671.015 316.933L673.716 329.47H608.109ZM673.716 329.47L661.325 323.122L666.726 297.254L675.622 297.889C675.728 301.169 675.675 304.766 675.463 308.68C675.357 312.595 675.145 316.404 674.827 320.107C674.616 323.809 674.245 326.931 673.716 329.47ZM618.752 236.315L596.831 233.776L596.99 226.317H619.229L618.752 236.315ZM621.612 236.95L621.453 226.317H636.385L637.338 231.395C635.008 232.453 632.467 233.458 629.713 234.41C626.96 235.257 624.259 236.103 621.612 236.95ZM670.832 329.47L669.879 324.391C672.315 323.228 674.856 322.223 677.504 321.376C680.257 320.424 682.958 319.578 685.605 318.837L685.764 329.47H670.832ZM744.858 329.47L732.944 323.122L738.345 300.428L746.764 301.063C746.87 303.814 746.817 306.988 746.605 310.585C746.499 314.182 746.287 317.673 745.97 321.059C745.652 324.338 745.281 327.142 744.858 329.47ZM687.353 234.886L672.103 233.934L672.262 226.317H687.035L687.353 234.886ZM734.691 252.502L732.149 233.458L744.858 226.317C745.069 228.01 745.122 230.337 745.016 233.3C745.016 236.156 744.858 239.277 744.54 242.663C744.328 245.942 743.904 249.222 743.269 252.502H734.691ZM683.382 329.47V226.317H698.155V329.47H683.382ZM734.532 284.4L696.407 282.813V273.45L734.532 270.593V284.4ZM742.157 238.536L694.342 235.204L682.428 226.317H744.858L742.157 238.536ZM682.428 329.47L694.342 319.313L742.157 317.25L744.858 329.47H682.428Z" fill="white"/>
</svg>
