<svg width="65" height="65" viewBox="0 0 65 65" fill="none" xmlns="http://www.w3.org/2000/svg">
<path d="M22 17.8C20.8421 17.8 19.9 16.8579 19.9 15.7C19.9 14.5421 20.8421 13.6 22 13.6C23.1579 13.6 24.1 14.5421 24.1 15.7C24.1 16.8579 23.1579 17.8 22 17.8ZM32.5 9.4C33.6579 9.4 34.6 8.45789 34.6 7.3C34.6 6.14211 33.6579 5.2 32.5 5.2C31.3421 5.2 30.4 6.14211 30.4 7.3C30.4 8.45789 31.3421 9.4 32.5 9.4ZM43 11.5C41.8421 11.5 40.9 12.4421 40.9 13.6C40.9 14.7579 41.8421 15.7 43 15.7C44.1579 15.7 45.1 14.7579 45.1 13.6C45.1 12.4421 44.1579 11.5 43 11.5ZM41.95 41.95C41.95 45.4827 37.7991 48.25 32.5 48.25C27.2009 48.25 23.05 45.4827 23.05 41.95C23.05 38.4173 27.2009 35.65 32.5 35.65C37.7991 35.65 41.95 38.4173 41.95 41.95ZM32.5 37.75C32.145 37.75 31.7952 37.766 31.452 37.7954C31.4669 38.1086 31.5931 39.85 32.5 39.85C33.4069 39.85 33.5331 38.1086 33.548 37.7954C33.2048 37.766 32.855 37.75 32.5 37.75ZM27.9964 45.2404C27.7011 44.3256 27.3605 43.506 27.1067 43.1151C26.8713 43.315 26.5499 43.7249 26.2887 44.1591C26.7468 44.5717 27.3264 44.9379 27.9964 45.2404ZM32.5 46.15C33.237 46.15 33.9525 46.0838 34.6298 45.9622L34.6314 45.8954C34.6427 45.8501 34.9132 44.7748 35.3232 43.6813C35.8387 42.3059 36.5306 40.9 37.75 40.9C38.5891 40.9 39.3069 41.4813 39.8421 42.1198C39.8463 42.0634 39.85 42.0068 39.85 41.95C39.85 40.3092 38.1014 38.8521 35.6332 38.1661C35.5181 39.6703 34.77 41.95 32.5 41.95C30.23 41.95 29.482 39.6703 29.3668 38.1661C26.8986 38.8521 25.15 40.3092 25.15 41.95C25.15 42.007 25.1537 42.0634 25.1579 42.1198C25.6932 41.4813 26.4109 40.9 27.25 40.9C28.4696 40.9 29.1611 42.3059 29.6769 43.6813C30.087 44.7748 30.3573 45.8501 30.3688 45.8954L30.3703 45.9622C31.0475 46.0838 31.763 46.15 32.5 46.15ZM37.8929 43.1155C37.6386 43.5068 37.298 44.3264 37.0031 45.2407C37.673 44.9383 38.2524 44.5721 38.7106 44.1597C38.4481 43.7253 38.1271 43.3157 37.8929 43.1155ZM64 25.15V28.3C64 28.8799 63.5299 29.35 62.95 29.35C61.2132 29.35 59.8 30.763 59.8 32.5C59.8 36.5194 56.9617 39.8867 53.1845 40.7073C54.6673 42.053 55.6 43.9946 55.6 46.15C55.6 47.887 57.0132 49.3 58.75 49.3H62.95C63.5299 49.3 64 49.7701 64 50.35V54.55C64 55.1299 63.5299 55.6 62.95 55.6H57.7C53.0682 55.6 49.3 51.8318 49.3 47.2C49.3 45.7009 48.2471 44.4439 46.8422 44.1276C46.1252 47.3159 44.3693 50.1151 41.95 52.1504V57.7H47.2C50.0948 57.7 52.45 60.0551 52.45 62.95C52.45 63.5299 51.9799 64 51.4 64H36.7C36.1201 64 35.65 63.5299 35.65 62.95V55.2591C34.6348 55.4817 33.581 55.6 32.5 55.6C31.419 55.6 30.3652 55.4816 29.35 55.2591V62.95C29.35 63.5299 28.8799 64 28.3 64H13.6C13.0201 64 12.55 63.5299 12.55 62.95C12.55 60.0551 14.9051 57.7 17.8 57.7H23.05V52.1504C19.8424 49.4516 17.8 45.4101 17.8 40.9V37.9306C16.5779 38.364 15.7 39.5312 15.7 40.9C15.7 45.5318 11.9318 49.3 7.3 49.3H2.05C1.47014 49.3 1 48.8299 1 48.25V44.05C1 43.4701 1.47014 43 2.05 43H6.25C7.98696 43 9.4 41.587 9.4 39.85C9.4 37.6946 10.3327 35.753 11.8155 34.4073C8.03841 33.5868 5.2 30.2194 5.2 26.2C5.2 24.463 3.78696 23.05 2.05 23.05C1.47014 23.05 1 22.5799 1 22V18.85C1 18.2701 1.47014 17.8 2.05 17.8H4.15C8.20274 17.8 11.5 21.0973 11.5 25.15C11.5 26.887 12.913 28.3 14.65 28.3H17.8V20.3964C16.459 19.2017 15.7 17.5183 15.7 15.7C15.7 12.2262 18.5262 9.4 22 9.4C25.4738 9.4 28.3 12.2262 28.3 15.7C28.3 17.5183 27.541 19.2017 26.2 20.3964V27.4916C26.8608 27.0996 27.5612 26.733 28.3 26.4689V15.7V11.9964C26.959 10.8017 26.2 9.11834 26.2 7.3C26.2 3.82621 29.0262 1 32.5 1C35.9739 1 38.8 3.82621 38.8 7.3C38.8 7.94759 38.7038 8.57824 38.5191 9.17569C39.662 8.0182 41.2486 7.3 43 7.3C46.4739 7.3 49.3 10.1262 49.3 13.6C49.3 15.4183 48.541 17.1017 47.2 18.2964V34.6H50.35C52.0868 34.6 53.5 33.187 53.5 31.45C53.5 27.3973 56.7971 24.1 60.85 24.1H62.95C63.5299 24.1 64 24.5701 64 25.15ZM36.7 11.9964V13.6V26.4659C37.4374 26.7242 38.1374 27.079 38.8 27.4624V18.2964C37.459 17.1017 36.7 15.4183 36.7 13.6C36.7 12.9482 36.7996 12.319 36.9842 11.7272C36.8925 11.8195 36.7979 11.9092 36.7 11.9964ZM17.8 32.5V30.4H14.65C11.7551 30.4 9.4 28.0448 9.4 25.15C9.4 22.2551 7.04485 19.9 4.15 19.9H3.1V21.0555C5.49334 21.5434 7.3 23.6648 7.3 26.2C7.3 29.6738 10.1262 32.5 13.6 32.5H17.8ZM17.8 35.7557V34.6H16.75C13.8551 34.6 11.5 36.9551 11.5 39.85C11.5 42.7448 9.14485 45.1 6.25 45.1H3.1V47.2H7.3C10.7738 47.2 13.6 44.3738 13.6 40.9C13.6 38.3646 15.4065 36.2434 17.8 35.7557ZM27.25 54.6301C26.5205 54.3501 25.8186 54.0142 25.15 53.6267V58.75C25.15 59.3299 24.6799 59.8 24.1 59.8H17.8C16.4311 59.8 15.2633 60.6778 14.8299 61.9H27.25V54.6301ZM39.85 58.75V53.6267C39.1814 54.0142 38.4795 54.3501 37.75 54.6301V61.9H50.1701C49.7367 60.6778 48.5689 59.8 47.2 59.8H40.9C40.3201 59.8 39.85 59.3299 39.85 58.75ZM47.2 13.6C47.2 11.2841 45.3159 9.4 43 9.4C40.6841 9.4 38.8 11.2841 38.8 13.6C38.8 14.9335 39.4125 16.1583 40.4807 16.9605C40.7447 17.1588 40.9 17.4698 40.9 17.8V29.35C40.9 29.7336 40.6907 30.0868 40.3541 30.2711C40.0176 30.4553 39.6073 30.4413 39.2842 30.2345L39.1447 30.1451C37.9394 29.3731 36.693 28.5748 35.409 28.272C34.9349 28.1602 34.6 27.7371 34.6 27.25V11.5C34.6 11.1698 34.7554 10.8587 35.0193 10.6605C36.0875 9.85832 36.7 8.6335 36.7 7.3C36.7 4.98409 34.8159 3.1 32.5 3.1C30.1841 3.1 28.3 4.98409 28.3 7.3C28.3 8.6335 28.9125 9.85832 29.9805 10.6605C30.2446 10.8587 30.4 11.1698 30.4 11.5V27.25C30.4 27.7371 30.065 28.1602 29.591 28.2719C28.3911 28.555 27.2106 29.316 26.069 30.0519C25.9501 30.1286 25.8324 30.2044 25.7158 30.279C25.3927 30.4858 24.9824 30.4997 24.6457 30.3156C24.3092 30.1313 24.0999 29.7783 24.0999 29.3945V19.9C24.0999 19.5698 24.2553 19.2587 24.5193 19.0605C25.5875 18.2583 26.2 17.0335 26.2 15.7C26.2 13.3841 24.3159 11.5 22 11.5C19.6841 11.5 17.8 13.3841 17.8 15.7C17.8 17.0335 18.4125 18.2583 19.4805 19.0605C19.7446 19.2588 19.9 19.5698 19.9 19.9V40.9C19.9 47.8477 25.5523 53.5 32.5 53.5C39.4477 53.5 45.1 47.8477 45.1 40.9V17.8C45.1 17.4698 45.2554 17.1587 45.5193 16.9605C46.5875 16.1583 47.2 14.9335 47.2 13.6ZM48.25 40.9H47.2C47.2 41.2861 47.1848 41.6689 47.1554 42.0476C49.5708 42.5182 51.4 44.649 51.4 47.2C51.4 50.6738 54.2261 53.5 57.7 53.5H61.9V51.4H58.75C55.8551 51.4 53.5 49.0448 53.5 46.15C53.5 43.2551 51.1448 40.9 48.25 40.9ZM61.9 26.2H60.85C57.9551 26.2 55.6 28.5551 55.6 31.45C55.6 34.3448 53.2448 36.7 50.35 36.7H47.2V38.8H51.4C54.8739 38.8 57.7 35.9738 57.7 32.5C57.7 29.9648 59.5067 27.8434 61.9 27.3555V26.2ZM30.4 32.5C30.9799 32.5 31.45 32.0299 31.45 31.45C31.45 30.8701 30.9799 30.4 30.4 30.4C29.8201 30.4 29.35 30.8701 29.35 31.45C29.35 32.0299 29.8201 32.5 30.4 32.5ZM33.55 31.45C33.55 32.0299 34.0201 32.5 34.6 32.5C35.1799 32.5 35.65 32.0299 35.65 31.45C35.65 30.8701 35.1799 30.4 34.6 30.4C34.0201 30.4 33.55 30.8701 33.55 31.45Z" fill="#772E25"/>
<path d="M28.3 15.7C28.3 12.2262 25.4738 9.4 22 9.4C18.5262 9.4 15.7 12.2262 15.7 15.7C15.7 17.5183 16.459 19.2017 17.8 20.3964V28.3H14.65C12.913 28.3 11.5 26.887 11.5 25.15C11.5 21.0973 8.20274 17.8 4.15 17.8H2.05C1.47014 17.8 1 18.2701 1 18.85V22C1 22.5799 1.47014 23.05 2.05 23.05C3.78696 23.05 5.2 24.463 5.2 26.2C5.2 30.2194 8.03841 33.5868 11.8155 34.4073C10.3327 35.753 9.4 37.6946 9.4 39.85C9.4 41.587 7.98696 43 6.25 43H2.05C1.47014 43 1 43.4701 1 44.05V48.25C1 48.8299 1.47014 49.3 2.05 49.3H7.3C11.9318 49.3 15.7 45.5318 15.7 40.9C15.7 39.5312 16.5779 38.364 17.8 37.9306V40.9C17.8 45.4101 19.8424 49.4516 23.05 52.1504V57.7H17.8C14.9051 57.7 12.55 60.0551 12.55 62.95C12.55 63.5299 13.0201 64 13.6 64H28.3C28.8799 64 29.35 63.5299 29.35 62.95V55.2591C30.3652 55.4816 31.419 55.6 32.5 55.6C33.581 55.6 34.6348 55.4817 35.65 55.2591V62.95C35.65 63.5299 36.1201 64 36.7 64H51.4C51.9799 64 52.45 63.5299 52.45 62.95C52.45 60.0551 50.0948 57.7 47.2 57.7H41.95V52.1504C44.3693 50.1151 46.1252 47.3159 46.8422 44.1276C48.2471 44.4439 49.3 45.7009 49.3 47.2C49.3 51.8318 53.0682 55.6 57.7 55.6H62.95C63.5299 55.6 64 55.1299 64 54.55V50.35C64 49.7701 63.5299 49.3 62.95 49.3H58.75C57.0132 49.3 55.6 47.887 55.6 46.15C55.6 43.9946 54.6673 42.053 53.1845 40.7073C56.9617 39.8867 59.8 36.5194 59.8 32.5C59.8 30.763 61.2132 29.35 62.95 29.35C63.5299 29.35 64 28.8799 64 28.3V25.15C64 24.5701 63.5299 24.1 62.95 24.1H60.85C56.7971 24.1 53.5 27.3973 53.5 31.45C53.5 33.187 52.0868 34.6 50.35 34.6H47.2V18.2964C48.541 17.1017 49.3 15.4183 49.3 13.6C49.3 10.1262 46.4739 7.3 43 7.3C41.2486 7.3 39.662 8.0182 38.5191 9.17569C38.7038 8.57824 38.8 7.94759 38.8 7.3C38.8 3.82621 35.9739 1 32.5 1C29.0262 1 26.2 3.82621 26.2 7.3C26.2 9.11834 26.959 10.8017 28.3 11.9964V15.7ZM28.3 15.7C28.3 17.5183 27.541 19.2017 26.2 20.3964V27.4916C26.8608 27.0996 27.5612 26.733 28.3 26.4689V15.7ZM36.7 13.6V11.9964C36.7979 11.9092 36.8925 11.8195 36.9842 11.7272C36.7996 12.319 36.7 12.9482 36.7 13.6ZM36.7 13.6V26.4659C37.4374 26.7242 38.1374 27.079 38.8 27.4624V18.2964C37.459 17.1017 36.7 15.4183 36.7 13.6ZM22 17.8C20.8421 17.8 19.9 16.8579 19.9 15.7C19.9 14.5421 20.8421 13.6 22 13.6C23.1579 13.6 24.1 14.5421 24.1 15.7C24.1 16.8579 23.1579 17.8 22 17.8ZM32.5 9.4C33.6579 9.4 34.6 8.45789 34.6 7.3C34.6 6.14211 33.6579 5.2 32.5 5.2C31.3421 5.2 30.4 6.14211 30.4 7.3C30.4 8.45789 31.3421 9.4 32.5 9.4ZM43 11.5C41.8421 11.5 40.9 12.4421 40.9 13.6C40.9 14.7579 41.8421 15.7 43 15.7C44.1579 15.7 45.1 14.7579 45.1 13.6C45.1 12.4421 44.1579 11.5 43 11.5ZM41.95 41.95C41.95 45.4827 37.7991 48.25 32.5 48.25C27.2009 48.25 23.05 45.4827 23.05 41.95C23.05 38.4173 27.2009 35.65 32.5 35.65C37.7991 35.65 41.95 38.4173 41.95 41.95ZM32.5 37.75C32.145 37.75 31.7952 37.766 31.452 37.7954C31.4669 38.1086 31.5931 39.85 32.5 39.85C33.4069 39.85 33.5331 38.1086 33.548 37.7954C33.2048 37.766 32.855 37.75 32.5 37.75ZM27.9964 45.2404C27.7011 44.3256 27.3605 43.506 27.1067 43.1151C26.8713 43.315 26.5499 43.7249 26.2887 44.1591C26.7468 44.5717 27.3264 44.9379 27.9964 45.2404ZM32.5 46.15C33.237 46.15 33.9525 46.0838 34.6298 45.9622L34.6314 45.8954C34.6427 45.8501 34.9132 44.7748 35.3232 43.6813C35.8387 42.3059 36.5306 40.9 37.75 40.9C38.5891 40.9 39.3069 41.4813 39.8421 42.1198C39.8463 42.0634 39.85 42.0068 39.85 41.95C39.85 40.3092 38.1014 38.8521 35.6332 38.1661C35.5181 39.6703 34.77 41.95 32.5 41.95C30.23 41.95 29.482 39.6703 29.3668 38.1661C26.8986 38.8521 25.15 40.3092 25.15 41.95C25.15 42.007 25.1537 42.0634 25.1579 42.1198C25.6932 41.4813 26.4109 40.9 27.25 40.9C28.4696 40.9 29.1611 42.3059 29.6769 43.6813C30.087 44.7748 30.3573 45.8501 30.3688 45.8954L30.3703 45.9622C31.0475 46.0838 31.763 46.15 32.5 46.15ZM37.8929 43.1155C37.6386 43.5068 37.298 44.3264 37.0031 45.2407C37.673 44.9383 38.2524 44.5721 38.7106 44.1597C38.4481 43.7253 38.1271 43.3157 37.8929 43.1155ZM17.8 32.5V30.4H14.65C11.7551 30.4 9.4 28.0448 9.4 25.15C9.4 22.2551 7.04485 19.9 4.15 19.9H3.1V21.0555C5.49334 21.5434 7.3 23.6648 7.3 26.2C7.3 29.6738 10.1262 32.5 13.6 32.5H17.8ZM17.8 35.7557V34.6H16.75C13.8551 34.6 11.5 36.9551 11.5 39.85C11.5 42.7448 9.14485 45.1 6.25 45.1H3.1V47.2H7.3C10.7738 47.2 13.6 44.3738 13.6 40.9C13.6 38.3646 15.4065 36.2434 17.8 35.7557ZM27.25 54.6301C26.5205 54.3501 25.8186 54.0142 25.15 53.6267V58.75C25.15 59.3299 24.6799 59.8 24.1 59.8H17.8C16.4311 59.8 15.2633 60.6778 14.8299 61.9H27.25V54.6301ZM39.85 58.75V53.6267C39.1814 54.0142 38.4795 54.3501 37.75 54.6301V61.9H50.1701C49.7367 60.6778 48.5689 59.8 47.2 59.8H40.9C40.3201 59.8 39.85 59.3299 39.85 58.75ZM47.2 13.6C47.2 11.2841 45.3159 9.4 43 9.4C40.6841 9.4 38.8 11.2841 38.8 13.6C38.8 14.9335 39.4125 16.1583 40.4807 16.9605C40.7447 17.1588 40.9 17.4698 40.9 17.8V29.35C40.9 29.7336 40.6907 30.0868 40.3541 30.2711C40.0176 30.4553 39.6073 30.4413 39.2842 30.2345L39.1447 30.1451C37.9394 29.3731 36.693 28.5748 35.409 28.272C34.9349 28.1602 34.6 27.7371 34.6 27.25V11.5C34.6 11.1698 34.7554 10.8587 35.0193 10.6605C36.0875 9.85832 36.7 8.6335 36.7 7.3C36.7 4.98409 34.8159 3.1 32.5 3.1C30.1841 3.1 28.3 4.98409 28.3 7.3C28.3 8.6335 28.9125 9.85832 29.9805 10.6605C30.2446 10.8587 30.4 11.1698 30.4 11.5V27.25C30.4 27.7371 30.065 28.1602 29.591 28.2719C28.3911 28.555 27.2106 29.316 26.069 30.0519C25.9501 30.1286 25.8324 30.2044 25.7158 30.279C25.3927 30.4858 24.9824 30.4997 24.6457 30.3156C24.3092 30.1313 24.0999 29.7783 24.0999 29.3945V19.9C24.0999 19.5698 24.2553 19.2587 24.5193 19.0605C25.5875 18.2583 26.2 17.0335 26.2 15.7C26.2 13.3841 24.3159 11.5 22 11.5C19.6841 11.5 17.8 13.3841 17.8 15.7C17.8 17.0335 18.4125 18.2583 19.4805 19.0605C19.7446 19.2588 19.9 19.5698 19.9 19.9V40.9C19.9 47.8477 25.5523 53.5 32.5 53.5C39.4477 53.5 45.1 47.8477 45.1 40.9V17.8C45.1 17.4698 45.2554 17.1587 45.5193 16.9605C46.5875 16.1583 47.2 14.9335 47.2 13.6ZM48.25 40.9H47.2C47.2 41.2861 47.1848 41.6689 47.1554 42.0476C49.5708 42.5182 51.4 44.649 51.4 47.2C51.4 50.6738 54.2261 53.5 57.7 53.5H61.9V51.4H58.75C55.8551 51.4 53.5 49.0448 53.5 46.15C53.5 43.2551 51.1448 40.9 48.25 40.9ZM61.9 26.2H60.85C57.9551 26.2 55.6 28.5551 55.6 31.45C55.6 34.3448 53.2448 36.7 50.35 36.7H47.2V38.8H51.4C54.8739 38.8 57.7 35.9738 57.7 32.5C57.7 29.9648 59.5067 27.8434 61.9 27.3555V26.2ZM30.4 32.5C30.9799 32.5 31.45 32.0299 31.45 31.45C31.45 30.8701 30.9799 30.4 30.4 30.4C29.8201 30.4 29.35 30.8701 29.35 31.45C29.35 32.0299 29.8201 32.5 30.4 32.5ZM33.55 31.45C33.55 32.0299 34.0201 32.5 34.6 32.5C35.1799 32.5 35.65 32.0299 35.65 31.45C35.65 30.8701 35.1799 30.4 34.6 30.4C34.0201 30.4 33.55 30.8701 33.55 31.45Z" stroke="#772E25" stroke-width="0.4"/>
</svg>
