<svg width="63" height="63" viewBox="0 0 63 63" fill="none" xmlns="http://www.w3.org/2000/svg">
<path d="M21 16.8C19.8421 16.8 18.9 15.8579 18.9 14.7C18.9 13.5421 19.8421 12.6 21 12.6C22.1579 12.6 23.1 13.5421 23.1 14.7C23.1 15.8579 22.1579 16.8 21 16.8ZM31.5 8.4C32.6579 8.4 33.6 7.45789 33.6 6.3C33.6 5.14211 32.6579 4.2 31.5 4.2C30.3421 4.2 29.4 5.14211 29.4 6.3C29.4 7.45789 30.3421 8.4 31.5 8.4ZM42 10.5C40.8421 10.5 39.9 11.4421 39.9 12.6C39.9 13.7579 40.8421 14.7 42 14.7C43.1579 14.7 44.1 13.7579 44.1 12.6C44.1 11.4421 43.1579 10.5 42 10.5ZM40.95 40.95C40.95 44.4827 36.7991 47.25 31.5 47.25C26.2009 47.25 22.05 44.4827 22.05 40.95C22.05 37.4173 26.2009 34.65 31.5 34.65C36.7991 34.65 40.95 37.4173 40.95 40.95ZM31.5 36.75C31.145 36.75 30.7952 36.766 30.452 36.7954C30.4669 37.1086 30.5931 38.85 31.5 38.85C32.4069 38.85 32.5331 37.1086 32.548 36.7954C32.2048 36.766 31.855 36.75 31.5 36.75ZM26.9964 44.2404C26.7011 43.3256 26.3605 42.506 26.1067 42.1151C25.8713 42.315 25.5499 42.7249 25.2887 43.1591C25.7468 43.5717 26.3264 43.9379 26.9964 44.2404ZM31.5 45.15C32.237 45.15 32.9525 45.0838 33.6298 44.9622L33.6314 44.8954C33.6427 44.8501 33.9132 43.7748 34.3232 42.6813C34.8387 41.3059 35.5306 39.9 36.75 39.9C37.5891 39.9 38.3069 40.4813 38.8421 41.1198C38.8463 41.0634 38.85 41.0068 38.85 40.95C38.85 39.3092 37.1014 37.8521 34.6332 37.1661C34.5181 38.6703 33.77 40.95 31.5 40.95C29.23 40.95 28.482 38.6703 28.3668 37.1661C25.8986 37.8521 24.15 39.3092 24.15 40.95C24.15 41.007 24.1537 41.0634 24.1579 41.1198C24.6932 40.4813 25.4109 39.9 26.25 39.9C27.4696 39.9 28.1611 41.3059 28.6769 42.6813C29.087 43.7748 29.3573 44.8501 29.3688 44.8954L29.3703 44.9622C30.0475 45.0838 30.763 45.15 31.5 45.15ZM36.8929 42.1155C36.6386 42.5068 36.298 43.3264 36.0031 44.2407C36.673 43.9383 37.2524 43.5721 37.7106 43.1597C37.4481 42.7253 37.1271 42.3157 36.8929 42.1155ZM63 24.15V27.3C63 27.8799 62.5299 28.35 61.95 28.35C60.2132 28.35 58.8 29.763 58.8 31.5C58.8 35.5194 55.9617 38.8867 52.1845 39.7073C53.6673 41.053 54.6 42.9946 54.6 45.15C54.6 46.887 56.0132 48.3 57.75 48.3H61.95C62.5299 48.3 63 48.7701 63 49.35V53.55C63 54.1299 62.5299 54.6 61.95 54.6H56.7C52.0682 54.6 48.3 50.8318 48.3 46.2C48.3 44.7009 47.2471 43.4439 45.8422 43.1276C45.1252 46.3159 43.3693 49.1151 40.95 51.1504V56.7H46.2C49.0948 56.7 51.45 59.0551 51.45 61.95C51.45 62.5299 50.9799 63 50.4 63H35.7C35.1201 63 34.65 62.5299 34.65 61.95V54.2591C33.6348 54.4817 32.581 54.6 31.5 54.6C30.419 54.6 29.3652 54.4816 28.35 54.2591V61.95C28.35 62.5299 27.8799 63 27.3 63H12.6C12.0201 63 11.55 62.5299 11.55 61.95C11.55 59.0551 13.9051 56.7 16.8 56.7H22.05V51.1504C18.8424 48.4516 16.8 44.4101 16.8 39.9V36.9306C15.5779 37.364 14.7 38.5312 14.7 39.9C14.7 44.5318 10.9318 48.3 6.3 48.3H1.05C0.470137 48.3 0 47.8299 0 47.25V43.05C0 42.4701 0.470137 42 1.05 42H5.25C6.98696 42 8.4 40.587 8.4 38.85C8.4 36.6946 9.33266 34.753 10.8155 33.4073C7.03841 32.5868 4.2 29.2194 4.2 25.2C4.2 23.463 2.78696 22.05 1.05 22.05C0.470137 22.05 0 21.5799 0 21V17.85C0 17.2701 0.470137 16.8 1.05 16.8H3.15C7.20274 16.8 10.5 20.0973 10.5 24.15C10.5 25.887 11.913 27.3 13.65 27.3H16.8V19.3964C15.459 18.2017 14.7 16.5183 14.7 14.7C14.7 11.2262 17.5262 8.4 21 8.4C24.4738 8.4 27.3 11.2262 27.3 14.7C27.3 16.5183 26.541 18.2017 25.2 19.3964V26.4916C25.8608 26.0996 26.5612 25.733 27.3 25.4689V14.7V10.9964C25.959 9.80175 25.2 8.11834 25.2 6.3C25.2 2.82621 28.0262 0 31.5 0C34.9739 0 37.8 2.82621 37.8 6.3C37.8 6.94759 37.7038 7.57824 37.5191 8.17569C38.662 7.0182 40.2486 6.3 42 6.3C45.4739 6.3 48.3 9.12621 48.3 12.6C48.3 14.4183 47.541 16.1017 46.2 17.2964V33.6H49.35C51.0868 33.6 52.5 32.187 52.5 30.45C52.5 26.3973 55.7971 23.1 59.85 23.1H61.95C62.5299 23.1 63 23.5701 63 24.15ZM35.7 10.9964V12.6V25.4659C36.4374 25.7242 37.1374 26.079 37.8 26.4624V17.2964C36.459 16.1017 35.7 14.4183 35.7 12.6C35.7 11.9482 35.7996 11.319 35.9842 10.7272C35.8925 10.8195 35.7979 10.9092 35.7 10.9964ZM16.8 31.5V29.4H13.65C10.7551 29.4 8.4 27.0448 8.4 24.15C8.4 21.2551 6.04485 18.9 3.15 18.9H2.1V20.0555C4.49334 20.5434 6.3 22.6648 6.3 25.2C6.3 28.6738 9.12621 31.5 12.6 31.5H16.8ZM16.8 34.7557V33.6H15.75C12.8551 33.6 10.5 35.9551 10.5 38.85C10.5 41.7448 8.14485 44.1 5.25 44.1H2.1V46.2H6.3C9.77379 46.2 12.6 43.3738 12.6 39.9C12.6 37.3646 14.4065 35.2434 16.8 34.7557ZM26.25 53.6301C25.5205 53.3501 24.8186 53.0142 24.15 52.6267V57.75C24.15 58.3299 23.6799 58.8 23.1 58.8H16.8C15.4311 58.8 14.2633 59.6778 13.8299 60.9H26.25V53.6301ZM38.85 57.75V52.6267C38.1814 53.0142 37.4795 53.3501 36.75 53.6301V60.9H49.1701C48.7367 59.6778 47.5689 58.8 46.2 58.8H39.9C39.3201 58.8 38.85 58.3299 38.85 57.75ZM46.2 12.6C46.2 10.2841 44.3159 8.4 42 8.4C39.6841 8.4 37.8 10.2841 37.8 12.6C37.8 13.9335 38.4125 15.1583 39.4807 15.9605C39.7447 16.1588 39.9 16.4698 39.9 16.8V28.35C39.9 28.7336 39.6907 29.0868 39.3541 29.2711C39.0176 29.4553 38.6073 29.4413 38.2842 29.2345L38.1447 29.1451C36.9394 28.3731 35.693 27.5748 34.409 27.272C33.9349 27.1602 33.6 26.7371 33.6 26.25V10.5C33.6 10.1698 33.7554 9.85871 34.0193 9.66052C35.0875 8.85832 35.7 7.6335 35.7 6.3C35.7 3.98409 33.8159 2.1 31.5 2.1C29.1841 2.1 27.3 3.98409 27.3 6.3C27.3 7.6335 27.9125 8.85832 28.9805 9.66052C29.2446 9.85871 29.4 10.1698 29.4 10.5V26.25C29.4 26.7371 29.065 27.1602 28.591 27.2719C27.3911 27.555 26.2106 28.316 25.069 29.0519C24.9501 29.1286 24.8324 29.2044 24.7158 29.279C24.3927 29.4858 23.9824 29.4997 23.6457 29.3156C23.3092 29.1313 23.0999 28.7783 23.0999 28.3945V18.9C23.0999 18.5698 23.2553 18.2587 23.5193 18.0605C24.5875 17.2583 25.2 16.0335 25.2 14.7C25.2 12.3841 23.3159 10.5 21 10.5C18.6841 10.5 16.8 12.3841 16.8 14.7C16.8 16.0335 17.4125 17.2583 18.4805 18.0605C18.7446 18.2588 18.9 18.5698 18.9 18.9V39.9C18.9 46.8477 24.5523 52.5 31.5 52.5C38.4477 52.5 44.1 46.8477 44.1 39.9V16.8C44.1 16.4698 44.2554 16.1587 44.5193 15.9605C45.5875 15.1583 46.2 13.9335 46.2 12.6ZM47.25 39.9H46.2C46.2 40.2861 46.1848 40.6689 46.1554 41.0476C48.5708 41.5182 50.4 43.649 50.4 46.2C50.4 49.6738 53.2261 52.5 56.7 52.5H60.9V50.4H57.75C54.8551 50.4 52.5 48.0448 52.5 45.15C52.5 42.2551 50.1448 39.9 47.25 39.9ZM60.9 25.2H59.85C56.9551 25.2 54.6 27.5551 54.6 30.45C54.6 33.3448 52.2448 35.7 49.35 35.7H46.2V37.8H50.4C53.8739 37.8 56.7 34.9738 56.7 31.5C56.7 28.9648 58.5067 26.8434 60.9 26.3555V25.2ZM29.4 31.5C29.9799 31.5 30.45 31.0299 30.45 30.45C30.45 29.8701 29.9799 29.4 29.4 29.4C28.8201 29.4 28.35 29.8701 28.35 30.45C28.35 31.0299 28.8201 31.5 29.4 31.5ZM32.55 30.45C32.55 31.0299 33.0201 31.5 33.6 31.5C34.1799 31.5 34.65 31.0299 34.65 30.45C34.65 29.8701 34.1799 29.4 33.6 29.4C33.0201 29.4 32.55 29.8701 32.55 30.45Z" fill="#772e25"/>
</svg>
