<svg width="58" height="61" viewBox="0 0 58 61" fill="none" xmlns="http://www.w3.org/2000/svg">
<path d="M10.6136 16.3535C10.8078 15.7909 10.8178 15.181 10.6419 14.6123C10.6116 14.5163 10.6195 14.4123 10.6639 14.322C10.7083 14.2316 10.7857 14.1618 10.8802 14.127C10.9252 14.1106 10.973 14.1034 11.0208 14.1057C11.0686 14.108 11.1155 14.1198 11.1586 14.1405C11.2018 14.1611 11.2405 14.1901 11.2723 14.2259C11.3042 14.2616 11.3285 14.3034 11.3441 14.3487L11.3558 14.3838C11.5814 15.1064 11.5698 15.8822 11.3226 16.5977C11.2973 16.6716 11.2495 16.7357 11.186 16.7811C11.1224 16.8265 11.0462 16.8508 10.9681 16.8506C10.9266 16.8504 10.8853 16.8435 10.846 16.8301C10.752 16.7977 10.6748 16.7293 10.6312 16.6399C10.5876 16.5506 10.5813 16.4476 10.6136 16.3535ZM7.11559 12.7364C7.67704 12.5643 8.27814 12.5715 8.83532 12.7569C8.87333 12.77 8.91328 12.7766 8.95348 12.7764C9.04247 12.7763 9.12853 12.7446 9.19627 12.6869C9.264 12.6292 9.309 12.5493 9.32321 12.4614C9.33742 12.3736 9.31992 12.2835 9.27383 12.2074C9.22774 12.1313 9.15607 12.0741 9.07164 12.0459C8.373 11.8135 7.61969 11.8023 6.91442 12.0137L6.86168 12.0303C6.81601 12.0457 6.77385 12.07 6.73767 12.1019C6.70148 12.1337 6.67199 12.1724 6.65091 12.2158C6.62983 12.2591 6.61758 12.3062 6.61487 12.3544C6.61215 12.4025 6.61904 12.4507 6.63512 12.4961C6.66816 12.5908 6.73683 12.6689 6.82655 12.7138C6.91627 12.7587 7.01999 12.7667 7.11559 12.7364ZM5.02667 14.0616C4.98 14.0458 4.93066 14.0394 4.88151 14.0427C4.83235 14.0461 4.78434 14.0591 4.74023 14.081C4.69613 14.103 4.6568 14.1335 4.6245 14.1707C4.59221 14.2079 4.56759 14.2511 4.55206 14.2979C4.42827 14.6648 4.36494 15.0493 4.36456 15.4366C4.36237 15.7715 4.41144 16.1048 4.51007 16.4248C4.51436 16.4534 4.52123 16.4815 4.53058 16.5088C4.55467 16.5818 4.60132 16.6453 4.66381 16.69C4.72629 16.7348 4.80138 16.7585 4.87824 16.7578C4.91904 16.7575 4.95954 16.7509 4.99835 16.7383C5.09262 16.7058 5.17053 16.6379 5.21556 16.5489C5.26058 16.46 5.26919 16.3569 5.23956 16.2617C5.06523 15.6985 5.07343 15.0945 5.263 14.5361C5.27867 14.4895 5.28499 14.4402 5.2816 14.391C5.2782 14.3419 5.26515 14.2939 5.24321 14.2499C5.22126 14.2058 5.19084 14.1665 5.15368 14.1342C5.11653 14.1018 5.07337 14.0772 5.02667 14.0616ZM7.93878 19.0127C8.29946 19.0115 8.65781 18.9548 9.00128 18.8447L9.00228 18.8486C9.09541 18.8174 9.17236 18.7505 9.21629 18.6627C9.26022 18.5748 9.26754 18.4731 9.23665 18.3799C9.206 18.2858 9.13949 18.2076 9.05155 18.1623C8.96361 18.1169 8.86134 18.1081 8.76693 18.1377C8.20053 18.3123 7.59339 18.3031 7.03255 18.1113C6.93827 18.0792 6.8351 18.0859 6.74573 18.1298C6.65635 18.1738 6.5881 18.2514 6.55598 18.3457C6.52387 18.44 6.53052 18.5432 6.57447 18.6325C6.61843 18.7219 6.69608 18.7902 6.79036 18.8223C7.1602 18.948 7.54814 19.0124 7.93878 19.0127ZM21.4886 8.0303C21.5079 8.07563 21.536 8.11671 21.5712 8.15118C21.6064 8.18566 21.6481 8.21286 21.6938 8.23122C21.7395 8.24958 21.7884 8.25875 21.8377 8.25819C21.887 8.25764 21.9357 8.24738 21.981 8.228C22.0263 8.20862 22.0673 8.1805 22.1017 8.14525C22.1362 8.10999 22.1633 8.0683 22.1816 8.02254C22.1999 7.97679 22.209 7.92788 22.2084 7.87861C22.2078 7.82933 22.1975 7.78066 22.178 7.73538C22.1387 7.64448 22.1041 7.55158 22.0745 7.45706C21.9662 7.12469 21.9108 6.77734 21.9105 6.42776L21.9153 6.26076C21.92 6.16146 21.8851 6.06436 21.8183 5.99076C21.7514 5.91717 21.6581 5.87308 21.5588 5.86816C21.4596 5.86325 21.3624 5.89792 21.2886 5.96456C21.2148 6.0312 21.1705 6.12437 21.1653 6.22365C21.1624 6.29006 21.1605 6.3594 21.1605 6.42775C21.1603 6.85497 21.2279 7.2795 21.3607 7.68557C21.3978 7.80276 21.4407 7.91803 21.4886 8.0303ZM23.3372 10.0352C23.8855 10.3252 24.4927 10.4865 25.1126 10.5069H25.1243C25.2228 10.5069 25.3173 10.4682 25.3875 10.3991C25.4577 10.33 25.4979 10.2361 25.4994 10.1376C25.501 10.0392 25.4637 9.94405 25.3957 9.8728C25.3277 9.80156 25.2344 9.75992 25.136 9.75687C24.6302 9.74001 24.1347 9.6088 23.6868 9.37308C23.6433 9.35012 23.5957 9.33596 23.5468 9.33139C23.4978 9.32681 23.4485 9.33193 23.4015 9.34644C23.3545 9.36095 23.3109 9.38457 23.273 9.41595C23.2352 9.44733 23.2039 9.48586 23.1809 9.52933C23.158 9.57281 23.1438 9.62038 23.1392 9.66933C23.1347 9.71828 23.1398 9.76765 23.1543 9.81462C23.1688 9.86159 23.1924 9.90525 23.2238 9.9431C23.2552 9.98094 23.2937 10.0122 23.3372 10.0352ZM56.4681 48.8428C56.3992 48.8962 56.3452 48.9666 56.3115 49.047C56.2778 49.1274 56.2655 49.2152 56.2757 49.3018C56.5428 50.7479 56.5145 52.2331 56.1927 53.668L54.8626 59.5977C54.7747 59.9964 54.5529 60.353 54.2342 60.6081C53.9154 60.8632 53.5189 61.0016 53.1107 61H4.63702C4.04496 61.0007 3.46781 60.8143 2.98786 60.4677C2.50791 60.121 2.14965 59.6316 1.96417 59.0694L0.4046 54.3682C0.128752 53.5268 0.0728698 52.6289 0.242274 51.7598C0.411678 50.8907 0.800729 50.0795 1.37238 49.4034C2.92943 47.5683 5.01211 46.2553 7.33917 45.6416L9.00031 45.2002C9.20453 45.146 9.42067 45.1579 9.61773 45.2341C9.81479 45.3103 9.98266 45.447 10.0973 45.6245C10.2119 45.802 10.2674 46.0112 10.2557 46.2222C10.2441 46.4332 10.166 46.635 10.0325 46.7989L7.81281 49.5244C7.47694 49.9395 7.2531 50.4338 7.16265 50.96C7.07221 51.4863 7.11819 52.0269 7.2962 52.5303L7.42999 52.9043C9.08477 50.6794 11.4553 49.0924 14.1429 48.4102C14.331 48.3626 14.529 48.3707 14.7126 48.4336C14.8962 48.4965 15.0575 48.6115 15.1769 48.7644C15.2964 48.9174 15.3688 49.1018 15.3853 49.2952C15.4018 49.4885 15.3617 49.6825 15.2699 49.8535L12.6107 54.793L14.2911 59H14.5759L14.8401 55.7881C15.0553 53.2474 16.1204 50.8534 17.8635 48.9925L17.1946 48.5489C17.0849 48.4762 16.9907 48.3825 16.9173 48.2733C16.8439 48.164 16.7928 48.0414 16.767 47.9124C16.7411 47.7833 16.741 47.6505 16.7666 47.5214C16.7922 47.3923 16.8431 47.2696 16.9163 47.1602L17.1566 46.8008C17.1907 46.7488 17.2299 46.7004 17.2737 46.6563C18.913 44.7482 19.8406 42.3312 19.8987 39.8164C19.9258 39.5153 19.8691 39.2125 19.7348 38.9416C19.6006 38.6707 19.394 38.4422 19.138 38.2813C18.889 38.1201 18.6003 38.0308 18.3037 38.0232C18.0072 38.0156 17.7143 38.09 17.4573 38.2383L16.136 38.9785C15.7695 39.184 15.3657 39.3145 14.9483 39.3625C14.5308 39.4105 14.108 39.3751 13.7043 39.2582C13.3007 39.1413 12.9243 38.9454 12.5971 38.6818C12.2698 38.4182 11.9983 38.0922 11.7982 37.7227C11.7435 37.6279 11.6829 37.5137 11.6243 37.4014C11.5765 37.3106 11.5306 37.2217 11.4818 37.1367C11.3519 36.907 11.2709 36.6529 11.2439 36.3904C11.2168 36.128 11.2443 35.8627 11.3245 35.6113C11.4437 35.2445 11.6731 34.9233 11.9813 34.6915L11.3981 32.792C11.2154 32.8459 11.0429 32.896 10.888 32.9394C10.7698 32.9673 10.649 32.983 10.5277 32.9863C10.2448 32.9881 9.96831 32.9025 9.736 32.7412C9.50368 32.5798 9.32689 32.3506 9.2298 32.085C9.17804 31.9395 8.9837 31.4844 8.7337 30.8945C8.47949 30.2941 8.17761 29.5802 7.90118 28.9076C5.5285 27.5806 3.54837 25.6505 2.16108 23.3126C0.773798 20.9746 0.028578 18.3118 0.000805698 15.5934C-0.0269666 12.875 0.663694 10.1975 2.00292 7.83167C3.34215 5.46588 5.28244 3.49574 7.62751 2.12056C9.97259 0.745372 12.6393 0.0139219 15.3578 0.000196779C18.0763 -0.0135284 20.7502 0.690959 23.109 2.04239C25.4679 3.39383 27.428 5.34427 28.791 7.69642C30.1541 10.0486 30.8717 12.719 30.8714 15.4375C30.8714 15.7705 30.848 16.1029 30.8266 16.4353C30.8561 16.4021 30.8914 16.3756 30.9193 16.3409L34.8343 11.378C34.9502 11.2308 35.1052 11.1192 35.2816 11.0558C35.4579 10.9925 35.6485 10.9799 35.8316 11.0196C36.0148 11.0593 36.183 11.1497 36.3173 11.2804C36.4516 11.4111 36.5465 11.5768 36.5911 11.7588L37.8889 17.0576C38.5095 19.0518 38.4594 21.1943 37.7464 23.1573C37.6692 23.3646 37.6396 23.5866 37.6599 23.8068C37.6802 24.0271 37.7498 24.24 37.8635 24.4297C39.5161 27.1829 40.8813 30.0986 41.9378 33.1309C42.972 35.1201 44.7991 37.5225 46.6008 37.8418C46.8616 37.8876 47.0935 38.0349 47.2456 38.2516C47.3978 38.4682 47.4578 38.7363 47.4124 38.9971C47.3498 39.3379 47.2439 39.6693 47.0974 39.9832L49.9651 41.2666C50.3611 41.444 50.7466 41.6442 51.1194 41.8662C51.3594 42.0048 51.6424 42.0494 51.9134 41.9912L52.4104 41.8936C52.7104 41.8347 53.0199 41.8463 53.3147 41.9273C53.6094 42.0084 53.8813 42.1568 54.109 42.3608C54.3367 42.5648 54.5139 42.8188 54.6267 43.1029C54.7395 43.3871 54.7848 43.6935 54.7591 43.9981L54.7102 44.5811C54.7022 44.6792 54.7243 44.7775 54.7737 44.8627C54.8231 44.9479 54.8974 45.0159 54.9866 45.0577L56.0257 45.5381C56.3272 45.6779 56.5887 45.8914 56.7858 46.159C56.983 46.4266 57.1095 46.7396 57.1536 47.0691C57.1977 47.3985 57.158 47.7338 57.0381 48.0438C56.9183 48.3538 56.7223 48.6286 56.4681 48.8428ZM10.6283 54.2569L12.2142 51.3116C10.8764 52.0562 9.72614 53.0963 8.85094 54.3526L7.96029 55.6338C7.85533 55.7846 7.71086 55.9036 7.54272 55.9777C7.37458 56.0518 7.18928 56.0781 7.00715 56.0538C6.82503 56.0295 6.65313 55.9555 6.51032 55.8399C6.3675 55.7243 6.2593 55.5715 6.19759 55.3985L5.41339 53.2032C5.12047 52.3755 5.04468 51.4866 5.19325 50.6213C5.34182 49.756 5.7098 48.9433 6.26202 48.2608L6.41046 48.0791C5.05536 48.6751 3.85352 49.5714 2.89581 50.7002C2.54585 51.1141 2.30765 51.6106 2.20389 52.1426C2.10013 52.6746 2.13426 53.2242 2.30304 53.7393L3.86261 58.4405C3.91632 58.6034 4.0201 58.7452 4.15916 58.8457C4.29822 58.9462 4.46546 59.0002 4.63702 59H12.137L10.5804 55.1016C10.5264 54.9658 10.5027 54.8198 10.5109 54.6739C10.5192 54.528 10.5593 54.3857 10.6283 54.2569ZM7.23395 26.0752C7.35143 25.6469 7.61859 25.2749 7.98694 25.0267C8.3553 24.7785 8.80042 24.6707 9.24152 24.7227L10.6145 24.8672C11.972 25.002 16.636 24.2549 17.2239 23.5557L17.9221 22.2305C18.7489 20.6484 19.9856 18.3233 21.8369 17.9475L22.7747 14.042C22.8133 13.8807 22.8914 13.7315 23.0021 13.6079C23.1127 13.4843 23.2523 13.3902 23.4084 13.334C23.5644 13.2778 23.732 13.2613 23.896 13.2861C24.0601 13.3108 24.2153 13.3759 24.3479 13.4756L24.5091 13.5967C25.8312 14.5973 26.8784 15.9164 27.5529 17.4311L28.7252 17.3339C28.8181 16.706 28.8669 16.0723 28.8714 15.4375C28.8692 13.4596 28.427 11.5071 27.5769 9.72124C27.5456 9.72936 27.5175 9.75194 27.4856 9.75194C27.4071 9.75194 27.3305 9.72728 27.2667 9.68145C27.203 9.63561 27.1552 9.5709 27.1302 9.49646C27.1051 9.42201 27.1041 9.34159 27.1272 9.26653C27.1504 9.19148 27.1965 9.12557 27.2591 9.07812L27.2641 9.07305C26.1943 7.09913 24.6501 5.42246 22.7707 4.19418C22.7378 4.23063 22.698 4.26023 22.6536 4.2813C22.6092 4.30236 22.5611 4.31447 22.5121 4.31694C22.463 4.3194 22.414 4.31218 22.3677 4.29567C22.3215 4.27916 22.2789 4.2537 22.2425 4.22073C22.1914 4.17056 22.1568 4.106 22.1433 4.03566C22.1298 3.96532 22.138 3.89253 22.1669 3.827C19.2183 2.11411 15.7283 1.58744 12.4055 2.3539C9.08265 3.12036 6.17599 5.12252 4.27554 7.95394C2.3751 10.7854 1.62329 14.2338 2.17272 17.5994C2.72216 20.9649 4.53169 23.9952 7.23395 26.0752ZM24.3343 16.1162L23.9467 17.7299L25.4197 17.6079C25.1182 17.0695 24.7539 16.5688 24.3343 16.1162ZM15.3548 32.8907C17.1326 31.957 19.186 31.6913 21.1429 32.1417L24.2728 32.8643C24.4425 32.9036 24.6198 32.8963 24.7857 32.843C24.9516 32.7897 25.1 32.6924 25.2151 32.5616L27.0237 30.5079C27.2104 30.2942 27.3238 30.0265 27.3474 29.7437C27.3709 29.461 27.3034 29.1782 27.1546 28.9366L25.9329 26.9698C25.841 26.8221 25.7196 26.6949 25.5763 26.5961C25.4331 26.4973 25.2711 26.4291 25.1003 26.3956C24.9295 26.3622 24.7537 26.3643 24.5838 26.4017C24.4139 26.4392 24.2535 26.5112 24.1126 26.6133L21.2855 28.6612C19.7506 29.7722 18.0549 30.642 16.2571 31.2403C15.1338 31.6134 14.1546 31.9327 13.3095 32.2018L13.7761 33.7214L15.3548 32.8907ZM19.2142 47.4883L19.9788 47.9961C20.3822 48.2613 20.8636 48.3816 21.3443 48.3372C21.8249 48.2929 22.2763 48.0865 22.6243 47.752L23.6516 46.7579C23.8139 46.6073 24.0218 46.5155 24.2424 46.4969C24.3269 46.2008 24.4264 45.846 24.5335 45.4503C24.5464 45.4027 24.5686 45.3582 24.5988 45.3192C24.629 45.2802 24.6665 45.2475 24.7093 45.223C24.7521 45.1985 24.7993 45.1827 24.8482 45.1765C24.8972 45.1702 24.9468 45.1737 24.9944 45.1866C25.042 45.1996 25.0865 45.2218 25.1255 45.252C25.1645 45.2821 25.1972 45.3197 25.2217 45.3625C25.2462 45.4053 25.262 45.4525 25.2682 45.5014C25.2745 45.5503 25.271 45.6 25.2581 45.6476C25.1503 46.0437 25.0506 46.3989 24.9656 46.6965C25.0853 46.7905 25.1818 46.9107 25.2479 47.0478C25.314 47.1848 25.3479 47.3352 25.3469 47.4874L25.3284 49.2296C25.3192 49.937 25.4878 50.6354 25.8186 51.2607C26.1494 51.886 26.632 52.4183 27.2219 52.8087L30.7174 55.132C30.701 55.0438 30.7173 54.9526 30.7633 54.8755C30.8092 54.7983 30.8817 54.7406 30.9671 54.713C31.0619 54.6835 31.1645 54.6926 31.2526 54.7383C31.3407 54.784 31.4073 54.8626 31.4378 54.9571L31.6964 55.7701L35.3978 53.3145C36.2668 52.7385 36.9639 51.9382 37.4152 50.9983C37.8665 50.0584 38.0552 49.014 37.9613 47.9756L37.891 47.1963C37.8768 47.035 37.9021 46.8726 37.9647 46.7232C38.0273 46.5738 38.1253 46.4419 38.2503 46.3388L37.9252 45.3135C37.8951 45.2187 37.904 45.1159 37.9497 45.0276C37.9955 44.9393 38.0745 44.8728 38.1693 44.8428C38.2641 44.8128 38.3669 44.8216 38.4552 44.8674C38.5435 44.9132 38.61 44.9921 38.64 45.0869L38.9674 46.1195C39.1175 46.1302 39.2633 46.1748 39.3937 46.25C39.5241 46.3253 39.6357 46.4291 39.7201 46.5537L40.4105 47.5937C40.6604 47.9467 41.0143 48.2127 41.4228 48.3547C41.8313 48.4967 42.2739 48.5075 42.6888 48.3857L42.3109 44.2881C42.2113 43.2314 42.1 42.3193 41.9701 41.5029C41.9634 41.4081 41.9706 41.3128 41.9914 41.2201C41.7164 41.0482 41.3893 40.8313 41.0414 40.5742C41.0017 40.545 40.9683 40.5082 40.9428 40.466C40.9174 40.4239 40.9006 40.3771 40.8932 40.3284C40.8859 40.2797 40.8882 40.23 40.9 40.1822C40.9119 40.1344 40.933 40.0894 40.9623 40.0498C40.9915 40.0102 41.0283 39.9767 41.0704 39.9513C41.1126 39.9259 41.1594 39.909 41.2081 39.9016C41.2568 39.8943 41.3065 39.8966 41.3543 39.9085C41.4021 39.9203 41.4471 39.9415 41.4867 39.9707C41.801 40.2029 42.0969 40.3995 42.3504 40.5589C42.4537 40.476 42.5729 40.4151 42.7007 40.3801C42.8284 40.3451 42.962 40.3367 43.0931 40.3555C43.4805 40.405 43.874 40.3476 44.2311 40.1894C44.5881 40.0312 44.895 39.7782 45.1185 39.458C42.5179 38.2969 40.6791 35.0576 40.1273 33.9834C40.1058 33.9411 40.0872 33.8974 40.0716 33.8525C39.0575 30.9272 37.7432 28.1147 36.1497 25.46C35.8814 25.0154 35.7167 24.5161 35.6678 23.9991C35.619 23.4821 35.6872 22.9607 35.8675 22.4737C36.4341 20.9034 36.468 19.1902 35.9642 17.5987L35.1361 14.2247L32.4847 17.586C32.0973 18.0717 31.6152 18.4735 31.0678 18.7671C30.5204 19.0607 29.919 19.24 29.3001 19.294L22.2913 19.874C21.3704 19.9512 20.1956 22.1973 19.6946 23.1572L18.971 24.5244C17.8714 26.6006 11.2112 26.9453 10.4065 26.8555L9.18875 26.7285C9.50614 27.5898 10.1448 29.0976 10.5755 30.1142C10.6946 30.3955 10.802 30.6494 10.889 30.8574C11.9983 30.5283 13.5771 30.0231 15.6253 29.3418C17.2293 28.8086 18.7423 28.0331 20.1116 27.042L22.9388 24.9942C23.3019 24.7307 23.7154 24.5449 24.1535 24.4484C24.5917 24.3518 25.045 24.3465 25.4852 24.4328C25.9255 24.5191 26.3432 24.6951 26.7124 24.95C27.0816 25.2049 27.3944 25.5331 27.6312 25.9141L28.8538 27.8819C29.2336 28.487 29.4067 29.1991 29.3472 29.911C29.2877 30.623 28.9987 31.2964 28.5237 31.8301L26.7151 33.8838C26.3617 34.285 25.9064 34.5832 25.3974 34.7469C24.8884 34.9106 24.3446 34.9336 23.8235 34.8135L20.6937 34.0909C19.2038 33.7467 17.6399 33.9487 16.2864 34.6602L13.2611 36.251C13.3142 36.3196 13.3594 36.394 13.3958 36.4727C13.4437 36.5635 13.4915 36.6563 13.5452 36.75C13.6188 36.8912 13.7201 37.0161 13.8431 37.1171C13.9661 37.2181 14.1083 37.2932 14.2611 37.3379C14.4097 37.3814 14.5655 37.3946 14.7193 37.3768C14.8731 37.359 15.0218 37.3106 15.1566 37.2344L16.4778 36.4942C17.0494 36.1661 17.7004 36.0019 18.3592 36.0196C19.018 36.0374 19.6591 36.2364 20.2122 36.5948C20.7714 36.9509 21.2233 37.4523 21.5196 38.0454C21.8158 38.6385 21.9451 39.301 21.8939 39.962C21.8081 42.6889 20.8711 45.3207 19.2142 47.4883ZM55.18 47.3125L54.1468 46.8721C53.6861 46.6577 53.3022 46.3072 53.0467 45.8679C52.7913 45.4286 52.6766 44.9216 52.7181 44.4151L52.7669 43.8311L52.2982 43.9541C51.5437 44.1061 50.7597 43.9747 50.096 43.585C49.7902 43.4024 49.4739 43.2381 49.1487 43.0928L45.7997 41.594C45.2977 41.9606 44.7181 42.2071 44.1057 42.3144C44.177 42.8672 44.2415 43.459 44.302 44.1025L44.7434 48.8848C44.7599 49.0642 44.7275 49.2448 44.6498 49.4074C44.5721 49.57 44.452 49.7086 44.302 49.8086C43.641 50.2315 42.8729 50.4568 42.0882 50.458C41.3035 50.4592 40.5347 50.2363 39.8723 49.8154C39.6924 50.8605 39.3008 51.8578 38.7214 52.746C38.142 53.6342 37.3872 54.3946 36.5032 54.9804L32.2395 57.8095C32.0756 57.9184 31.8831 57.9765 31.6863 57.9765C31.4895 57.9765 31.297 57.9184 31.1331 57.8095L26.1155 54.4745C25.3186 53.9476 24.6539 53.2441 24.1731 52.4186C23.6923 51.5931 23.4082 50.6679 23.3431 49.7148C22.7915 50.0567 22.1673 50.2645 21.5208 50.3214C20.8743 50.3782 20.2235 50.2826 19.6207 50.0422C18.0104 51.6132 17.0207 53.7123 16.8333 55.9541L16.5833 59H18.8631L19.2757 56.2676C19.2949 56.1374 19.3397 56.0122 19.4074 55.8993C19.4751 55.7864 19.5645 55.688 19.6703 55.6097C19.7761 55.5314 19.8963 55.4747 20.0241 55.443C20.1519 55.4112 20.2846 55.405 20.4148 55.4246C20.545 55.4443 20.67 55.4895 20.7827 55.5575C20.8954 55.6256 20.9935 55.7152 21.0715 55.8213C21.1495 55.9274 21.2058 56.0478 21.2371 56.1757C21.2685 56.3035 21.2743 56.4363 21.2542 56.5664L20.8868 59H42.0636L41.7122 56.5596C41.6751 56.2973 41.7435 56.031 41.9025 55.8191C42.0615 55.6071 42.298 55.4669 42.5602 55.4292C42.8224 55.3914 43.0889 55.4592 43.3012 55.6177C43.5135 55.7761 43.6543 56.0123 43.6927 56.2744L44.0851 59H52.9476L54.2415 53.2315C54.504 52.0587 54.5269 50.845 54.3089 49.6631C54.234 49.2293 54.2751 48.7834 54.4281 48.3706C54.5811 47.9578 54.8405 47.5928 55.18 47.3125ZM37.0179 42.4541C37.0419 42.5301 37.0895 42.5964 37.1538 42.6435C37.218 42.6905 37.2956 42.7159 37.3753 42.7159C37.4137 42.7157 37.4519 42.7097 37.4886 42.6983C37.5834 42.6682 37.6623 42.6017 37.7081 42.5134C37.7539 42.4252 37.7627 42.3224 37.7327 42.2276L37.1283 40.3203C37.1135 40.2733 37.0896 40.2296 37.0579 40.1917C37.0263 40.1539 36.9874 40.1227 36.9437 40.0999C36.8999 40.0771 36.8521 40.0632 36.8029 40.059C36.7538 40.0547 36.7043 40.0602 36.6572 40.0751C36.6102 40.09 36.5666 40.114 36.5288 40.1458C36.4911 40.1776 36.46 40.2166 36.4374 40.2604C36.4147 40.3042 36.401 40.3521 36.3969 40.4013C36.3928 40.4504 36.3984 40.4999 36.4134 40.5469L37.0179 42.4541ZM39.1233 38.5586C39.192 38.5586 39.2594 38.5398 39.3181 38.5041C39.3768 38.4684 39.4245 38.4173 39.4562 38.3564C39.4878 38.2954 39.5021 38.2269 39.4975 38.1584C39.4929 38.0899 39.4695 38.024 39.43 37.9678C39.0652 37.4793 38.8222 36.9108 38.721 36.3096C38.7159 36.2602 38.7007 36.2124 38.6764 36.1691C38.652 36.1258 38.6191 36.088 38.5795 36.058C38.54 36.0279 38.4947 36.0063 38.4464 35.9945C38.3982 35.9827 38.3481 35.9809 38.2991 35.9893C38.2503 35.9959 38.2033 36.012 38.1608 36.0368C38.1183 36.0616 38.0811 36.0945 38.0513 36.1337C38.0216 36.1729 37.9999 36.2176 37.9874 36.2652C37.975 36.3128 37.972 36.3624 37.9788 36.4112C38.0948 37.1315 38.3822 37.8134 38.8167 38.3994C38.8513 38.4486 38.8973 38.4887 38.9506 38.5164C39.004 38.5441 39.0632 38.5586 39.1233 38.5586ZM25.5364 42.999C25.5627 43.0048 25.5896 43.0077 25.6165 43.0078C25.702 43.0077 25.7849 42.9784 25.8515 42.9248C25.9181 42.8712 25.9644 42.7964 25.9827 42.7129C26.0823 42.2569 26.1692 41.8135 26.2357 41.4063C26.2436 41.3577 26.2419 41.308 26.2307 41.26C26.2194 41.2121 26.1988 41.1668 26.1701 41.1268C26.1413 41.0868 26.105 41.0529 26.0631 41.0269C26.0213 41.001 25.9747 40.9835 25.9261 40.9756C25.8774 40.9668 25.8274 40.9679 25.7792 40.9788C25.7309 40.9897 25.6853 41.0102 25.6451 41.0391C25.605 41.068 25.571 41.1047 25.5453 41.1469C25.5196 41.1892 25.5026 41.2362 25.4954 41.2852C25.431 41.6807 25.346 42.1104 25.2503 42.5527C25.2398 42.6008 25.2388 42.6505 25.2475 42.699C25.2561 42.7475 25.2743 42.7938 25.3008 42.8352C25.3274 42.8767 25.3619 42.9125 25.4023 42.9406C25.4428 42.9687 25.4883 42.9885 25.5364 42.999ZM28.9886 47.7412C29.0003 47.7412 29.013 47.7402 29.0247 47.7392C29.0737 47.7346 29.1214 47.7203 29.1648 47.6972C29.2083 47.6741 29.2468 47.6426 29.2781 47.6046C29.3094 47.5666 29.3329 47.5227 29.3472 47.4756C29.3616 47.4285 29.3665 47.379 29.3616 47.33C29.3148 46.8486 29.2903 46.3544 29.2894 45.8632C29.2894 45.7021 29.2923 45.541 29.2972 45.3798C29.3 45.2804 29.2632 45.1839 29.1949 45.1116C29.1266 45.0392 29.0324 44.997 28.9329 44.9941C28.8359 44.9994 28.7439 45.0389 28.6733 45.1056C28.6027 45.1722 28.558 45.2618 28.5472 45.3584C28.5423 45.5254 28.5394 45.6943 28.5394 45.8642C28.5404 46.3798 28.5657 46.8974 28.6155 47.4023C28.6243 47.4951 28.6675 47.5813 28.7365 47.644C28.8055 47.7067 28.8954 47.7413 28.9886 47.7412ZM29.4583 49.9453C29.4111 49.9593 29.3671 49.9826 29.3288 50.0136C29.2905 50.0447 29.2588 50.083 29.2354 50.1264C29.212 50.1698 29.1974 50.2173 29.1924 50.2664C29.1874 50.3154 29.1921 50.3649 29.2063 50.4121L29.8128 52.3252C29.8368 52.4012 29.8844 52.4675 29.9487 52.5145C30.0129 52.5616 30.0905 52.587 30.1702 52.5869C30.2086 52.5868 30.2468 52.5809 30.2835 52.5694C30.3782 52.5393 30.4572 52.4728 30.5029 52.3845C30.5487 52.2963 30.5576 52.1934 30.5276 52.0986L29.9251 50.1973C29.911 50.1501 29.8877 50.1061 29.8567 50.0679C29.8256 50.0296 29.7873 49.9979 29.7439 49.9745C29.7006 49.9511 29.653 49.9365 29.604 49.9315C29.555 49.9265 29.5055 49.9312 29.4583 49.9453ZM29.1858 42.7588C29.2347 42.765 29.2843 42.7614 29.3319 42.7483C29.3794 42.7352 29.4238 42.7129 29.4627 42.6826C29.5015 42.6523 29.534 42.6146 29.5582 42.5717C29.5824 42.5288 29.5979 42.4815 29.6039 42.4326L29.8509 40.4473C29.857 40.3984 29.8533 40.3488 29.8402 40.3014C29.8271 40.2539 29.8048 40.2095 29.7745 40.1707C29.7442 40.1319 29.7065 40.0994 29.6637 40.0751C29.6208 40.0509 29.5736 40.0353 29.5247 40.0293C29.4758 40.0227 29.426 40.026 29.3784 40.0389C29.3307 40.0518 29.2861 40.0741 29.2472 40.1045C29.2083 40.1349 29.1758 40.1727 29.1517 40.2158C29.1275 40.2589 29.1123 40.3064 29.1068 40.3554L28.8597 42.3408C28.8536 42.3897 28.8573 42.4393 28.8704 42.4867C28.8835 42.5342 28.9058 42.5786 28.9361 42.6174C28.9664 42.6562 29.0041 42.6887 29.0469 42.713C29.0898 42.7372 29.137 42.7528 29.1858 42.7588Z" fill="#772e25"/>
</svg>
