<svg width="59" height="63" viewBox="0 0 59 63" fill="none" xmlns="http://www.w3.org/2000/svg">
<path d="M57.4681 49.8428C57.3992 49.8962 57.3452 49.9666 57.3115 50.047C57.2778 50.1274 57.2655 50.2152 57.2757 50.3018C57.5428 51.7479 57.5145 53.2331 57.1927 54.668L55.8626 60.5977C55.7747 60.9964 55.5529 61.353 55.2342 61.6081C54.9154 61.8632 54.5189 62.0016 54.1107 62H5.63702C5.04496 62.0007 4.46781 61.8143 3.98786 61.4677C3.50791 61.121 3.14965 60.6316 2.96417 60.0694L1.4046 55.3682C1.12875 54.5268 1.07287 53.6289 1.24227 52.7598C1.41168 51.8907 1.80073 51.0795 2.37238 50.4034C3.92943 48.5683 6.01211 47.2553 8.33917 46.6416L10.0003 46.2002C10.2045 46.146 10.4207 46.1579 10.6177 46.2341C10.8148 46.3103 10.9827 46.447 11.0973 46.6245C11.2119 46.802 11.2674 47.0112 11.2557 47.2222C11.2441 47.4332 11.166 47.635 11.0325 47.7989L8.81281 50.5244C8.47694 50.9395 8.2531 51.4338 8.16265 51.96C8.07221 52.4863 8.11819 53.0269 8.2962 53.5303L8.42999 53.9043C10.0848 51.6794 12.4553 50.0924 15.1429 49.4102C15.331 49.3626 15.529 49.3707 15.7126 49.4336C15.8962 49.4965 16.0575 49.6115 16.1769 49.7644C16.2964 49.9174 16.3688 50.1018 16.3853 50.2952C16.4018 50.4885 16.3617 50.6825 16.2699 50.8535L13.6107 55.793L15.2911 60H15.5759L15.8401 56.7881C16.0553 54.2474 17.1204 51.8534 18.8635 49.9925L18.1946 49.5489C18.0849 49.4762 17.9907 49.3825 17.9173 49.2733C17.8439 49.164 17.7928 49.0414 17.767 48.9124C17.7411 48.7833 17.741 48.6505 17.7666 48.5214C17.7922 48.3923 17.8431 48.2696 17.9163 48.1602L18.1566 47.8008C18.1907 47.7488 18.2299 47.7004 18.2737 47.6563C19.913 45.7482 20.8406 43.3312 20.8987 40.8164C20.9258 40.5153 20.8691 40.2125 20.7348 39.9416C20.6006 39.6707 20.394 39.4422 20.138 39.2813C19.889 39.1201 19.6003 39.0308 19.3037 39.0232C19.0072 39.0156 18.7143 39.09 18.4573 39.2383L17.136 39.9785C16.7695 40.184 16.3657 40.3145 15.9483 40.3625C15.5308 40.4105 15.108 40.3751 14.7043 40.2582C14.3007 40.1413 13.9243 39.9454 13.5971 39.6818C13.2698 39.4182 12.9983 39.0922 12.7982 38.7227C12.7435 38.6279 12.6829 38.5137 12.6243 38.4014C12.5765 38.3106 12.5306 38.2217 12.4818 38.1367C12.3519 37.907 12.2709 37.6529 12.2439 37.3904C12.2168 37.128 12.2443 36.8627 12.3245 36.6113C12.4437 36.2445 12.6731 35.9233 12.9813 35.6915L12.3981 33.792C12.2154 33.8459 12.0429 33.896 11.888 33.9394C11.7698 33.9673 11.649 33.983 11.5277 33.9863C11.2448 33.9881 10.9683 33.9025 10.736 33.7412C10.5037 33.5798 10.3269 33.3506 10.2298 33.085C10.178 32.9395 9.9837 32.4844 9.7337 31.8945C9.47949 31.2941 9.17761 30.5802 8.90118 29.9076C6.5285 28.5806 4.54837 26.6505 3.16108 24.3126C1.7738 21.9746 1.02858 19.3118 1.00081 16.5934C0.973033 13.875 1.66369 11.1975 3.00292 8.83167C4.34215 6.46588 6.28244 4.49574 8.62751 3.12056C10.9726 1.74537 13.6393 1.01392 16.3578 1.0002C19.0763 0.986472 21.7502 1.69096 24.109 3.04239C26.4679 4.39383 28.428 6.34427 29.791 8.69642C31.1541 11.0486 31.8717 13.719 31.8714 16.4375C31.8714 16.7705 31.848 17.1029 31.8266 17.4353C31.8561 17.4021 31.8914 17.3756 31.9193 17.3409L35.8343 12.378C35.9502 12.2308 36.1052 12.1192 36.2816 12.0558C36.4579 11.9925 36.6485 11.9799 36.8316 12.0196C37.0148 12.0593 37.183 12.1497 37.3173 12.2804C37.4516 12.4111 37.5465 12.5768 37.5911 12.7588L38.8889 18.0576C39.5095 20.0518 39.4594 22.1943 38.7464 24.1573C38.6692 24.3646 38.6396 24.5866 38.6599 24.8068C38.6802 25.0271 38.7498 25.24 38.8635 25.4297C40.5161 28.1829 41.8813 31.0986 42.9378 34.1309C43.972 36.1201 45.7991 38.5225 47.6008 38.8418C47.8616 38.8876 48.0935 39.0349 48.2456 39.2516C48.3978 39.4682 48.4578 39.7363 48.4124 39.9971C48.3498 40.3379 48.2439 40.6693 48.0974 40.9832L50.9651 42.2666C51.3611 42.444 51.7466 42.6442 52.1194 42.8662C52.3594 43.0048 52.6424 43.0494 52.9134 42.9912L53.4104 42.8936C53.7104 42.8347 54.0199 42.8463 54.3147 42.9273C54.6094 43.0084 54.8813 43.1568 55.109 43.3608C55.3367 43.5648 55.5139 43.8188 55.6267 44.1029C55.7395 44.3871 55.7848 44.6935 55.7591 44.9981L55.7102 45.5811C55.7022 45.6792 55.7243 45.7775 55.7737 45.8627C55.8231 45.9479 55.8974 46.0159 55.9866 46.0577L57.0257 46.5381C57.3272 46.6779 57.5887 46.8914 57.7858 47.159C57.983 47.4266 58.1095 47.7396 58.1536 48.0691C58.1977 48.3985 58.158 48.7338 58.0381 49.0438C57.9183 49.3538 57.7223 49.6286 57.4681 49.8428ZM11.6283 55.2569L13.2142 52.3116C11.8764 53.0562 10.7261 54.0963 9.85094 55.3526L8.96029 56.6338C8.85533 56.7846 8.71086 56.9036 8.54272 56.9777C8.37458 57.0518 8.18928 57.0781 8.00715 57.0538C7.82503 57.0295 7.65313 56.9555 7.51032 56.8399C7.3675 56.7243 7.2593 56.5715 7.19759 56.3985L6.41339 54.2032C6.12047 53.3755 6.04468 52.4866 6.19325 51.6213C6.34182 50.756 6.7098 49.9433 7.26202 49.2608L7.41046 49.0791C6.05536 49.6751 4.85352 50.5714 3.89581 51.7002C3.54585 52.1141 3.30765 52.6106 3.20389 53.1426C3.10013 53.6746 3.13426 54.2242 3.30304 54.7393L4.86261 59.4405C4.91632 59.6034 5.0201 59.7452 5.15916 59.8457C5.29822 59.9462 5.46546 60.0002 5.63702 60H13.137L11.5804 56.1016C11.5264 55.9658 11.5027 55.8198 11.5109 55.6739C11.5192 55.528 11.5593 55.3857 11.6283 55.2569ZM8.23395 27.0752C8.35143 26.6469 8.61859 26.2749 8.98694 26.0267C9.3553 25.7785 9.80042 25.6707 10.2415 25.7227L11.6145 25.8672C12.972 26.002 17.636 25.2549 18.2239 24.5557L18.9221 23.2305C19.7489 21.6484 20.9856 19.3233 22.8369 18.9475L23.7747 15.042C23.8133 14.8807 23.8914 14.7315 24.0021 14.6079C24.1127 14.4843 24.2523 14.3902 24.4084 14.334C24.5644 14.2778 24.732 14.2613 24.896 14.2861C25.0601 14.3108 25.2153 14.3759 25.3479 14.4756L25.5091 14.5967C26.8312 15.5973 27.8784 16.9164 28.5529 18.4311L29.7252 18.3339C29.8181 17.706 29.8669 17.0723 29.8714 16.4375C29.8692 14.4596 29.427 12.5071 28.5769 10.7212C28.5456 10.7294 28.5175 10.7519 28.4856 10.7519C28.4071 10.7519 28.3305 10.7273 28.2667 10.6814C28.203 10.6356 28.1552 10.5709 28.1302 10.4965C28.1051 10.422 28.1041 10.3416 28.1272 10.2665C28.1504 10.1915 28.1965 10.1256 28.2591 10.0781L28.2641 10.0731C27.1943 8.09913 25.5068 6.3868 23.6274 5.15852C23.5945 5.19497 23.5547 5.22458 23.5104 5.24564C23.466 5.2667 23.4179 5.27881 23.3688 5.28128C23.3198 5.28374 23.2707 5.27652 23.2245 5.26001C23.1782 5.2435 23.1356 5.21804 23.0992 5.18507C23.0481 5.1349 23.0135 5.07034 23 5C22.9865 4.92966 22.9948 4.85687 23.0237 4.79134C20.075 3.07845 16.7283 2.58744 13.4055 3.3539C10.0826 4.12036 7.17599 6.12252 5.27554 8.95394C3.3751 11.7854 2.62329 15.2338 3.17272 18.5994C3.72216 21.9649 5.53169 24.9952 8.23395 27.0752ZM25.3343 17.1162L24.9467 18.7299L26.4197 18.6079C26.1182 18.0695 25.7539 17.5688 25.3343 17.1162ZM16.3548 33.8907C18.1326 32.957 20.186 32.6913 22.1429 33.1417L25.2728 33.8643C25.4425 33.9036 25.6198 33.8963 25.7857 33.843C25.9516 33.7897 26.1 33.6924 26.2151 33.5616L28.0237 31.5079C28.2104 31.2942 28.3238 31.0265 28.3474 30.7437C28.3709 30.461 28.3034 30.1782 28.1546 29.9366L26.9329 27.9698C26.841 27.8221 26.7196 27.6949 26.5763 27.5961C26.4331 27.4973 26.2711 27.4291 26.1003 27.3956C25.9295 27.3622 25.7537 27.3643 25.5838 27.4017C25.4139 27.4392 25.2535 27.5112 25.1126 27.6133L22.2855 29.6612C20.7506 30.7722 19.0549 31.642 17.2571 32.2403C16.1338 32.6134 15.1546 32.9327 14.3095 33.2018L14.7761 34.7214L16.3548 33.8907ZM20.2142 48.4883L20.9788 48.9961C21.3822 49.2613 21.8636 49.3816 22.3443 49.3372C22.8249 49.2929 23.2763 49.0865 23.6243 48.752L24.6516 47.7579C24.8139 47.6073 25.0218 47.5155 25.2424 47.4969C25.3269 47.2008 25.4264 46.846 25.5335 46.4503C25.5464 46.4027 25.5686 46.3582 25.5988 46.3192C25.629 46.2802 25.6665 46.2475 25.7093 46.223C25.7521 46.1985 25.7993 46.1827 25.8482 46.1765C25.8972 46.1702 25.9468 46.1737 25.9944 46.1866C26.042 46.1996 26.0865 46.2218 26.1255 46.252C26.1645 46.2821 26.1972 46.3197 26.2217 46.3625C26.2462 46.4053 26.262 46.4525 26.2682 46.5014C26.2745 46.5503 26.271 46.6 26.2581 46.6476C26.1503 47.0437 26.0506 47.3989 25.9656 47.6965C26.0853 47.7905 26.1818 47.9107 26.2479 48.0478C26.314 48.1848 26.3479 48.3352 26.3469 48.4874L26.3284 50.2296C26.3192 50.937 26.4878 51.6354 26.8186 52.2607C27.1494 52.886 27.632 53.4183 28.2219 53.8087L31.7174 56.132C31.701 56.0438 31.7173 55.9526 31.7633 55.8755C31.8092 55.7983 31.8817 55.7406 31.9671 55.713C32.0619 55.6835 32.1645 55.6926 32.2526 55.7383C32.3407 55.784 32.4073 55.8626 32.4378 55.9571L32.6964 56.7701L36.3978 54.3145C37.2668 53.7385 37.9639 52.9382 38.4152 51.9983C38.8665 51.0584 39.0552 50.014 38.9613 48.9756L38.891 48.1963C38.8768 48.035 38.9021 47.8726 38.9647 47.7232C39.0273 47.5738 39.1253 47.4419 39.2503 47.3388L38.9252 46.3135C38.8951 46.2187 38.904 46.1159 38.9497 46.0276C38.9955 45.9393 39.0745 45.8728 39.1693 45.8428C39.2641 45.8128 39.3669 45.8216 39.4552 45.8674C39.5435 45.9132 39.61 45.9921 39.64 46.0869L39.9674 47.1195C40.1175 47.1302 40.2633 47.1748 40.3937 47.25C40.5241 47.3253 40.6357 47.4291 40.7201 47.5537L41.4105 48.5937C41.6604 48.9467 42.0143 49.2127 42.4228 49.3547C42.8313 49.4967 43.2739 49.5075 43.6888 49.3857L43.3109 45.2881C43.2113 44.2314 43.1 43.3193 42.9701 42.5029C42.9634 42.4081 42.9706 42.3128 42.9914 42.2201C42.7164 42.0482 42.3893 41.8313 42.0414 41.5742C42.0017 41.545 41.9683 41.5082 41.9428 41.466C41.9174 41.4239 41.9006 41.3771 41.8932 41.3284C41.8859 41.2797 41.8882 41.23 41.9 41.1822C41.9119 41.1344 41.933 41.0894 41.9623 41.0498C41.9915 41.0102 42.0283 40.9767 42.0704 40.9513C42.1126 40.9259 42.1594 40.909 42.2081 40.9016C42.2568 40.8943 42.3065 40.8966 42.3543 40.9085C42.4021 40.9203 42.4471 40.9415 42.4867 40.9707C42.801 41.2029 43.0969 41.3995 43.3504 41.5589C43.4537 41.476 43.5729 41.4151 43.7007 41.3801C43.8284 41.3451 43.962 41.3367 44.0931 41.3555C44.4805 41.405 44.874 41.3476 45.2311 41.1894C45.5881 41.0312 45.895 40.7782 46.1185 40.458C43.5179 39.2969 41.6791 36.0576 41.1273 34.9834C41.1058 34.9411 41.0872 34.8974 41.0716 34.8525C40.0575 31.9272 38.7432 29.1147 37.1497 26.46C36.8814 26.0154 36.7167 25.5161 36.6678 24.9991C36.619 24.4821 36.6872 23.9607 36.8675 23.4737C37.4341 21.9034 37.468 20.1902 36.9642 18.5987L36.1361 15.2247L33.4847 18.586C33.0973 19.0717 32.6152 19.4735 32.0678 19.7671C31.5204 20.0607 30.919 20.24 30.3001 20.294L23.2913 20.874C22.3704 20.9512 21.1956 23.1973 20.6946 24.1572L19.971 25.5244C18.8714 27.6006 12.2112 27.9453 11.4065 27.8555L10.1888 27.7285C10.5061 28.5898 11.1448 30.0976 11.5755 31.1142C11.6946 31.3955 11.802 31.6494 11.889 31.8574C12.9983 31.5283 14.5771 31.0231 16.6253 30.3418C18.2293 29.8086 19.7423 29.0331 21.1116 28.042L23.9388 25.9942C24.3019 25.7307 24.7154 25.5449 25.1535 25.4484C25.5917 25.3518 26.045 25.3465 26.4852 25.4328C26.9255 25.5191 27.3432 25.6951 27.7124 25.95C28.0816 26.2049 28.3944 26.5331 28.6312 26.9141L29.8538 28.8819C30.2336 29.487 30.4067 30.1991 30.3472 30.911C30.2877 31.623 29.9987 32.2964 29.5237 32.8301L27.7151 34.8838C27.3617 35.285 26.9064 35.5832 26.3974 35.7469C25.8884 35.9106 25.3446 35.9336 24.8235 35.8135L21.6937 35.0909C20.2038 34.7467 18.6399 34.9487 17.2864 35.6602L14.2611 37.251C14.3142 37.3196 14.3594 37.394 14.3958 37.4727C14.4437 37.5635 14.4915 37.6563 14.5452 37.75C14.6188 37.8912 14.7201 38.0161 14.8431 38.1171C14.9661 38.2181 15.1083 38.2932 15.2611 38.3379C15.4097 38.3814 15.5655 38.3946 15.7193 38.3768C15.8731 38.359 16.0218 38.3106 16.1566 38.2344L17.4778 37.4942C18.0494 37.1661 18.7004 37.0019 19.3592 37.0196C20.018 37.0374 20.6591 37.2364 21.2122 37.5948C21.7714 37.9509 22.2233 38.4523 22.5196 39.0454C22.8158 39.6385 22.9451 40.301 22.8939 40.962C22.8081 43.6889 21.8711 46.3207 20.2142 48.4883ZM56.18 48.3125L55.1468 47.8721C54.6861 47.6577 54.3022 47.3072 54.0467 46.8679C53.7913 46.4286 53.6766 45.9216 53.7181 45.4151L53.7669 44.8311L53.2982 44.9541C52.5437 45.1061 51.7597 44.9747 51.096 44.585C50.7902 44.4024 50.4739 44.2381 50.1487 44.0928L46.7997 42.594C46.2977 42.9606 45.7181 43.2071 45.1057 43.3144C45.177 43.8672 45.2415 44.459 45.302 45.1025L45.7434 49.8848C45.7599 50.0642 45.7275 50.2448 45.6498 50.4074C45.5721 50.57 45.452 50.7086 45.302 50.8086C44.641 51.2315 43.8729 51.4568 43.0882 51.458C42.3035 51.4592 41.5347 51.2363 40.8723 50.8154C40.6924 51.8605 40.3008 52.8578 39.7214 53.746C39.142 54.6342 38.3872 55.3946 37.5032 55.9804L33.2395 58.8095C33.0756 58.9184 32.8831 58.9765 32.6863 58.9765C32.4895 58.9765 32.297 58.9184 32.1331 58.8095L27.1155 55.4745C26.3186 54.9476 25.6539 54.2441 25.1731 53.4186C24.6923 52.5931 24.4082 51.6679 24.3431 50.7148C23.7915 51.0567 23.1673 51.2645 22.5208 51.3214C21.8743 51.3782 21.2235 51.2826 20.6207 51.0422C19.0104 52.6132 18.0207 54.7123 17.8333 56.9541L17.5833 60H19.8631L20.2757 57.2676C20.2949 57.1374 20.3397 57.0122 20.4074 56.8993C20.4751 56.7864 20.5645 56.688 20.6703 56.6097C20.7761 56.5314 20.8963 56.4747 21.0241 56.443C21.1519 56.4112 21.2846 56.405 21.4148 56.4246C21.545 56.4443 21.67 56.4895 21.7827 56.5575C21.8954 56.6256 21.9935 56.7152 22.0715 56.8213C22.1495 56.9274 22.2058 57.0478 22.2371 57.1757C22.2685 57.3035 22.2743 57.4363 22.2542 57.5664L21.8868 60H43.0636L42.7122 57.5596C42.6751 57.2973 42.7435 57.031 42.9025 56.8191C43.0615 56.6071 43.298 56.4669 43.5602 56.4292C43.8224 56.3914 44.0889 56.4592 44.3012 56.6177C44.5135 56.7761 44.6543 57.0123 44.6927 57.2744L45.0851 60H53.9476L55.2415 54.2315C55.504 53.0587 55.5269 51.845 55.3089 50.6631C55.234 50.2293 55.2751 49.7834 55.4281 49.3706C55.5811 48.9578 55.8405 48.5928 56.18 48.3125ZM38.0179 43.4541C38.0419 43.5301 38.0895 43.5964 38.1538 43.6435C38.218 43.6905 38.2956 43.7159 38.3753 43.7159C38.4137 43.7157 38.4519 43.7097 38.4886 43.6983C38.5834 43.6682 38.6623 43.6017 38.7081 43.5134C38.7539 43.4252 38.7627 43.3224 38.7327 43.2276L38.1283 41.3203C38.1135 41.2733 38.0896 41.2296 38.0579 41.1917C38.0263 41.1539 37.9874 41.1227 37.9437 41.0999C37.8999 41.0771 37.8521 41.0632 37.8029 41.059C37.7538 41.0547 37.7043 41.0602 37.6572 41.0751C37.6102 41.09 37.5666 41.114 37.5288 41.1458C37.4911 41.1776 37.46 41.2166 37.4374 41.2604C37.4147 41.3042 37.401 41.3521 37.3969 41.4013C37.3928 41.4504 37.3984 41.4999 37.4134 41.5469L38.0179 43.4541ZM40.1233 39.5586C40.192 39.5586 40.2594 39.5398 40.3181 39.5041C40.3768 39.4684 40.4245 39.4173 40.4562 39.3564C40.4878 39.2954 40.5021 39.2269 40.4975 39.1584C40.4929 39.0899 40.4695 39.024 40.43 38.9678C40.0652 38.4793 39.8222 37.9108 39.721 37.3096C39.7159 37.2602 39.7007 37.2124 39.6764 37.1691C39.652 37.1258 39.6191 37.088 39.5795 37.058C39.54 37.0279 39.4947 37.0063 39.4464 36.9945C39.3982 36.9827 39.3481 36.9809 39.2991 36.9893C39.2503 36.9959 39.2033 37.012 39.1608 37.0368C39.1183 37.0616 39.0811 37.0945 39.0513 37.1337C39.0216 37.1729 38.9999 37.2176 38.9874 37.2652C38.975 37.3128 38.972 37.3624 38.9788 37.4112C39.0948 38.1315 39.3822 38.8134 39.8167 39.3994C39.8513 39.4486 39.8973 39.4887 39.9506 39.5164C40.004 39.5441 40.0632 39.5586 40.1233 39.5586ZM26.5364 43.999C26.5627 44.0048 26.5896 44.0077 26.6165 44.0078C26.702 44.0077 26.7849 43.9784 26.8515 43.9248C26.9181 43.8712 26.9644 43.7964 26.9827 43.7129C27.0823 43.2569 27.1692 42.8135 27.2357 42.4063C27.2436 42.3577 27.2419 42.308 27.2307 42.26C27.2194 42.2121 27.1988 42.1668 27.1701 42.1268C27.1413 42.0868 27.105 42.0529 27.0631 42.0269C27.0213 42.001 26.9747 41.9835 26.9261 41.9756C26.8774 41.9668 26.8274 41.9679 26.7792 41.9788C26.7309 41.9897 26.6853 42.0102 26.6451 42.0391C26.605 42.068 26.571 42.1047 26.5453 42.1469C26.5196 42.1892 26.5026 42.2362 26.4954 42.2852C26.431 42.6807 26.346 43.1104 26.2503 43.5527C26.2398 43.6008 26.2388 43.6505 26.2475 43.699C26.2561 43.7475 26.2743 43.7938 26.3008 43.8352C26.3274 43.8767 26.3619 43.9125 26.4023 43.9406C26.4428 43.9687 26.4883 43.9885 26.5364 43.999ZM29.9886 48.7412C30.0003 48.7412 30.013 48.7402 30.0247 48.7392C30.0737 48.7346 30.1214 48.7203 30.1648 48.6972C30.2083 48.6741 30.2468 48.6426 30.2781 48.6046C30.3094 48.5666 30.3329 48.5227 30.3472 48.4756C30.3616 48.4285 30.3665 48.379 30.3616 48.33C30.3148 47.8486 30.2903 47.3544 30.2894 46.8632C30.2894 46.7021 30.2923 46.541 30.2972 46.3798C30.3 46.2804 30.2632 46.1839 30.1949 46.1116C30.1266 46.0392 30.0324 45.997 29.9329 45.9941C29.8359 45.9994 29.7439 46.0389 29.6733 46.1056C29.6027 46.1722 29.558 46.2618 29.5472 46.3584C29.5423 46.5254 29.5394 46.6943 29.5394 46.8642C29.5404 47.3798 29.5657 47.8974 29.6155 48.4023C29.6243 48.4951 29.6675 48.5813 29.7365 48.644C29.8055 48.7067 29.8954 48.7413 29.9886 48.7412ZM30.4583 50.9453C30.4111 50.9593 30.3671 50.9826 30.3288 51.0136C30.2905 51.0447 30.2588 51.083 30.2354 51.1264C30.212 51.1698 30.1974 51.2173 30.1924 51.2664C30.1874 51.3154 30.1921 51.3649 30.2063 51.4121L30.8128 53.3252C30.8368 53.4012 30.8844 53.4675 30.9487 53.5145C31.0129 53.5616 31.0905 53.587 31.1702 53.5869C31.2086 53.5868 31.2468 53.5809 31.2835 53.5694C31.3782 53.5393 31.4572 53.4728 31.5029 53.3845C31.5487 53.2963 31.5576 53.1934 31.5276 53.0986L30.9251 51.1973C30.911 51.1501 30.8877 51.1061 30.8567 51.0679C30.8256 51.0296 30.7873 50.9979 30.7439 50.9745C30.7006 50.9511 30.653 50.9365 30.604 50.9315C30.555 50.9265 30.5055 50.9312 30.4583 50.9453ZM30.1858 43.7588C30.2347 43.765 30.2843 43.7614 30.3319 43.7483C30.3794 43.7352 30.4238 43.7129 30.4627 43.6826C30.5015 43.6523 30.534 43.6146 30.5582 43.5717C30.5824 43.5288 30.5979 43.4815 30.6039 43.4326L30.8509 41.4473C30.857 41.3984 30.8533 41.3488 30.8402 41.3014C30.8271 41.2539 30.8048 41.2095 30.7745 41.1707C30.7442 41.1319 30.7065 41.0994 30.6637 41.0751C30.6208 41.0509 30.5736 41.0353 30.5247 41.0293C30.4758 41.0227 30.426 41.026 30.3784 41.0389C30.3307 41.0518 30.2861 41.0741 30.2472 41.1045C30.2083 41.1349 30.1758 41.1727 30.1517 41.2158C30.1275 41.2589 30.1123 41.3064 30.1068 41.3554L29.8597 43.3408C29.8536 43.3897 29.8573 43.4393 29.8704 43.4867C29.8835 43.5342 29.9058 43.5786 29.9361 43.6174C29.9664 43.6562 30.0041 43.6887 30.0469 43.713C30.0898 43.7372 30.137 43.7528 30.1858 43.7588Z" fill="#772E25" stroke="#772E25" stroke-width="0.4"/>
</svg>
