<svg width="64" height="63" viewBox="0 0 64 63" fill="none" xmlns="http://www.w3.org/2000/svg">
<path d="M1.00763 56.3991C2.10771 56.3991 9.37073 55.2961 11.9334 26.9586C11.9959 26.2611 11.6209 25.6447 11.0834 25.5636C10.5458 25.4825 10.0708 25.9692 10.0083 26.6666C8.30816 45.4826 4.55789 51.2896 2.47023 53.0901C3.60782 48.0617 5.93298 36.4153 5.20793 28.678C4.38287 19.9026 8.55817 15.961 12.371 17.3398C17.3463 19.1403 21.0716 26.1151 22.2592 28.5807C22.2592 28.6942 22.2592 28.8078 22.2717 28.9213C22.5967 34.1281 13.8711 45.515 13.5835 61.1355C13.571 61.833 13.9961 62.4007 14.5336 62.417C15.1086 62.417 15.5087 61.8492 15.5212 61.1842C15.8087 45.8881 24.6218 35.2636 24.2093 28.6942C23.6593 20.0162 27.222 17.0802 30.3097 16.1394C31.4223 15.7988 32.5974 15.815 33.71 16.1394C36.7977 17.0802 40.3605 20.0324 39.8104 28.7104C39.3979 35.296 48.211 45.8719 48.4986 61.2004C48.5111 61.8979 48.9486 62.417 49.4861 62.4332C50.0237 62.417 50.4487 61.833 50.4362 61.1517C50.1487 45.5313 41.4106 34.1444 41.7481 28.9375C41.7606 28.824 41.7481 28.7104 41.7606 28.5969C42.9482 26.1151 46.6734 19.1403 51.6488 17.356C55.4741 15.9772 59.6369 19.9189 58.8118 28.6942C58.0868 36.4477 60.4119 48.0617 61.537 53.1063C59.4494 51.3058 55.7116 45.4826 53.999 26.6991C53.9365 26.0016 53.4489 25.515 52.9239 25.5961C52.3863 25.6772 52.0113 26.3098 52.0738 26.9911C54.649 55.3285 61.8995 56.4315 62.9996 56.4315C63.7372 56.4315 64.1497 55.5556 63.9497 54.777C63.9122 54.6148 59.8494 38.3617 60.7245 29.0024C61.7245 18.2643 56.1616 13.1224 51.1113 14.9391C46.9235 16.4476 43.6107 21.0219 41.6356 24.3958C40.7855 16.6909 36.2852 14.3876 34.135 13.7388C32.7349 13.3171 31.2598 13.3171 29.8597 13.7388C27.7096 14.3876 23.2092 16.6909 22.3592 24.3958C20.384 21.0219 17.0713 16.4476 12.8835 14.9391C7.83312 13.1062 2.27022 18.2643 3.27029 29.0024C4.14535 38.3617 0.0825611 54.6148 0.0450584 54.777C-0.142455 55.507 0.270075 56.3991 1.00763 56.3991Z" fill="#772e25"/>
<path d="M42.9928 60C43.5724 60 43.9975 59.4568 43.9975 58.8382C44.0103 57.3898 44.0619 44.535 41.5761 40.2954C40.3267 38.168 38.0213 37.1119 35.9863 36.5838C37.2356 35.2259 37.9955 33.174 37.9955 31.0164V25.9318C37.9955 25.2982 37.5447 24.7701 37.0038 24.755C36.9007 24.755 34.5309 24.6645 32.8436 21.5413C32.3928 20.6964 31.2981 20.8774 31.0405 21.828C30.0487 25.5697 27.7433 24.9662 27.3053 24.8154C26.6614 24.5739 26.0045 25.1322 26.0045 25.9318V30.941C26.0045 33.1287 26.7773 35.1806 28.0524 36.5687C26.0045 37.0968 23.6733 38.1529 22.4239 40.2954C19.9381 44.535 19.9897 57.3898 20.0025 58.8382C20.0025 59.4719 20.4533 60 21.0072 60C21.561 60 22.0118 59.4719 22.0118 58.8232C21.9731 55.0814 22.2823 44.7161 24.0854 41.6382C25.5022 39.2242 29.5207 38.4245 32.0322 38.4245C34.4665 38.4245 38.5236 39.2392 39.9275 41.6382C41.7306 44.7161 42.0269 55.0965 42.0011 58.8232C42.0011 59.4719 42.4519 60 42.9928 60ZM28.0266 27.2747C29.5979 27.3501 31.2465 26.4448 32.264 24.4382C33.6035 26.0827 35.0718 26.7164 36.0249 26.9578V31.0164C36.0249 35.2259 32.4443 37.2628 29.9457 35.3315C29.9328 35.3164 29.8813 35.2712 29.8555 35.2561C28.7221 34.381 28.0266 32.7213 28.0266 30.941V27.2747Z" fill="#772e25"/>
<path d="M36.5228 49.8946C35.9977 49.9919 35.6227 50.6408 35.7102 51.322L36.8728 61.3464C36.9478 62.0114 37.4103 62.498 37.9729 62.4007C38.4979 62.3034 38.8729 61.6546 38.7854 60.9733L37.6228 50.949C37.5478 50.2677 37.0478 49.8135 36.5228 49.8946Z" fill="#772e25"/>
<path d="M26.397 50.9654L25.2344 60.9898C25.1594 61.671 25.522 62.3198 26.047 62.4172C26.6095 62.5145 27.0721 62.0117 27.1471 61.3628L28.3097 51.3385C28.3847 50.6572 28.0221 50.0084 27.4971 49.9111C26.9721 49.8137 26.472 50.2679 26.397 50.9654Z" fill="#772e25"/>
<path d="M7.65801 56.1559C8.09554 56.5614 8.69558 56.4317 9.0081 55.8802C15.8836 43.6011 17.4837 31.9223 17.5462 31.4356C17.6337 30.7544 17.2837 30.1055 16.7587 29.992C16.2211 29.8785 15.7336 30.3326 15.6336 31.0139C15.6211 31.1274 14.046 42.6279 7.44549 54.4041C7.13297 54.9556 7.22047 55.7504 7.65801 56.1559Z" fill="#772e25"/>
<path d="M55.799 56.3992C56.5741 56.3992 57.0491 55.2476 56.5866 54.4041C49.9861 42.6117 48.411 31.1275 48.3985 31.0139C48.311 30.3327 47.811 29.8623 47.2734 29.992C46.7484 30.1056 46.3858 30.7544 46.4859 31.4357C46.5484 31.9223 48.136 43.6011 55.024 55.8802C55.199 56.2208 55.4865 56.3992 55.799 56.3992Z" fill="#772e25"/>
<path d="M32.0099 11.1274C36.4352 11.1274 39.773 8.74293 39.773 5.56368C39.773 2.38444 36.4352 0 32.0099 0C27.5846 0 24.2468 2.40066 24.2468 5.56368C24.2468 8.72671 27.5846 11.1274 32.0099 11.1274ZM32.0099 2.5142C35.5601 2.5142 37.8228 4.31469 37.8228 5.56368C37.8228 6.81267 35.5601 8.61316 32.0099 8.61316C28.4596 8.61316 26.197 6.81267 26.197 5.56368C26.197 4.31469 28.4596 2.5142 32.0099 2.5142Z" fill="#772e25"/>
<path d="M12.5584 21.2813C12.3834 20.6325 11.8209 20.2919 11.3208 20.5189C10.8333 20.746 10.4833 20.2108 10.4083 20.0972C10.0958 19.5457 9.49572 19.4159 9.05818 19.8215C8.62065 20.227 8.52064 21.0218 8.84567 21.5733C9.18319 22.1735 9.99575 23.0818 11.0833 23.0818C11.3584 23.0818 11.6584 23.0169 11.9709 22.8709C12.4709 22.6601 12.7335 21.9464 12.5584 21.2813Z" fill="#772e25"/>
<path d="M16.4963 27.0883C16.6713 27.0883 16.8588 27.0721 17.0463 27.0072C17.5714 26.8612 17.9089 26.1961 17.7964 25.5149C17.6839 24.8336 17.1714 24.3957 16.6463 24.5416C16.1338 24.6714 15.8463 24.0875 15.7963 23.9739C15.5462 23.3738 14.9587 23.1467 14.4962 23.4549C14.0211 23.7793 13.8461 24.5416 14.0961 25.158C14.3962 25.888 15.2337 27.0883 16.4963 27.0883Z" fill="#772e25"/>
<path d="M52.7989 23.0982C53.8739 23.0982 54.699 22.1899 55.0365 21.5897C55.349 21.0382 55.249 20.2596 54.824 19.8541C54.399 19.4486 53.7989 19.5621 53.4739 20.0974C53.4114 20.211 53.0614 20.7462 52.5613 20.5192C52.0613 20.2921 51.4988 20.6327 51.3238 21.2815C51.1487 21.9303 51.4113 22.6603 51.9113 22.8874C52.2238 23.0334 52.5238 23.0982 52.7989 23.0982Z" fill="#772e25"/>
<path d="M47.386 27.0886C48.6486 27.0886 49.4986 25.8883 49.7862 25.1583C50.0362 24.5582 49.8612 23.812 49.3861 23.4714C48.9236 23.147 48.3361 23.3578 48.0735 23.958C48.0235 24.0715 47.7235 24.6555 47.2235 24.5419C46.6984 24.396 46.1859 24.8339 46.0734 25.5152C45.9609 26.1964 46.2984 26.8615 46.8235 27.0075C47.0235 27.0561 47.1985 27.0886 47.386 27.0886Z" fill="#772e25"/>
</svg>
