<svg width="64" height="61" viewBox="0 0 64 61" fill="none" xmlns="http://www.w3.org/2000/svg">
<path fill-rule="evenodd" clip-rule="evenodd" d="M24.3517 11.0516C24.3517 11.0516 24.3601 11.1382 24.5242 11.3318C24.7338 11.578 24.7392 11.9373 24.5397 12.1909C24.0732 12.7825 22.6533 14.5827 27.057 18.3649C27.3471 18.5938 29.1485 18.9345 32.0901 18.9345C35.0317 18.9345 36.8332 18.5939 37.1244 18.3637C41.5269 14.5827 40.107 12.7826 39.6403 12.1909C39.4412 11.9373 39.4466 11.5782 39.6559 11.3318C39.8214 11.1364 39.8284 11.0501 39.8284 11.0493C39.8115 10.9605 39.5583 10.7193 39.407 10.5752C39.3012 10.4742 39.1906 10.3699 39.0789 10.2528C38.7383 9.89577 38.3421 9.22428 38.2643 8.87097C38.0707 7.99264 38.1964 6.67367 38.929 5.85314C39.2006 5.54833 39.3292 5.28519 39.2911 5.11183C39.2375 4.87262 38.8526 4.57682 38.2586 4.32059C37.9874 4.20336 37.8485 4.20702 37.6378 4.21185C36.9351 4.22879 36.3721 4.13508 34.9693 2.73486C34.4138 2.17025 34.1689 2.29507 33.4774 2.77548C33.0803 3.05182 32.6317 3.3622 32.0901 3.31979C31.5472 3.36269 31.0987 3.05182 30.7027 2.77548C30.0113 2.29531 29.7666 2.1702 29.215 2.7308C27.8081 4.13492 27.2437 4.22997 26.5423 4.21185C26.3318 4.20698 26.1915 4.2034 25.92 4.32059C25.3275 4.5767 24.9414 4.8727 24.8891 5.11183C24.8509 5.28499 24.9796 5.54841 25.251 5.85314C25.9836 6.67408 26.1095 7.99293 25.9158 8.87097C25.8382 9.22449 25.442 9.89614 25.0998 10.2529C24.9896 10.3697 24.8791 10.4742 24.7731 10.5751C24.6218 10.7192 24.3686 10.9605 24.3517 11.0516ZM32.0903 20.2921C30.6251 20.2921 27.115 20.2046 26.1717 19.3949C22.8104 16.5068 21.8061 13.9423 23.1807 11.7632C22.6363 10.7353 23.4014 10.0067 23.8369 9.59177C23.9319 9.50184 24.0293 9.40894 24.1183 9.31535C24.3052 9.12034 24.5455 8.70073 24.5921 8.56624C24.7293 7.92631 24.5751 7.13398 24.2386 6.75694C23.6519 6.09975 23.4254 5.44784 23.564 4.8194C23.721 4.10583 24.3163 3.53516 25.3826 3.07429C25.9273 2.8391 26.3004 2.84799 26.5747 2.85465C26.886 2.86217 27.1545 2.86895 28.252 1.77396C29.6282 0.375368 30.8314 1.21165 31.4777 1.66083C31.6433 1.77631 31.892 1.9496 31.991 1.96503C32.0563 1.95532 32.1239 1.95541 32.189 1.96503C32.2882 1.9496 32.5369 1.77635 32.7024 1.66095C33.3488 1.21169 34.5507 0.375774 35.9323 1.77822C37.0258 2.86855 37.2928 2.86217 37.6054 2.85465C37.8798 2.84799 38.253 2.8391 38.7975 3.07429C39.864 3.53512 40.4591 4.10591 40.6161 4.8194C40.755 5.44776 40.5284 6.09979 39.9416 6.75706C39.605 7.13369 39.4508 7.92623 39.588 8.56624C39.6333 8.70045 39.8751 9.12046 40.0617 9.31519C40.151 9.4089 40.2484 9.50188 40.3432 9.59177C40.7788 10.0068 41.5438 10.7353 40.9994 11.7632C42.3739 13.9422 41.3698 16.5068 38.0084 19.3947C37.0639 20.2046 33.5551 20.2922 32.0903 20.2921Z" fill="#772E25" stroke="#772E25" stroke-width="0.8"/>
<path fill-rule="evenodd" clip-rule="evenodd" d="M26.7981 19.6774C26.5591 19.6774 26.3257 19.5498 26.2027 19.3241C25.5565 18.1425 25.2722 15.6611 25.9665 14.443C25.722 13.3919 26.3074 12.4713 27.0993 12.0579C27.7075 11.7397 28.4937 11.6923 29.1527 12.0525C29.5218 11.6105 30.0747 11.3383 30.7054 11.329C31.2346 11.3197 31.7222 11.5032 32.0899 11.8207C32.4564 11.5033 32.9384 11.3213 33.4744 11.329C34.1053 11.3383 34.6581 11.6106 35.0272 12.0526C35.6864 11.6921 36.4724 11.7397 37.0806 12.0579C37.8711 12.4712 38.4579 13.392 38.2119 14.443C38.9077 15.6611 38.6234 18.1424 37.9771 19.3241C37.7976 19.6531 37.3846 19.7739 37.0565 19.5943C36.7272 19.4144 36.6068 19.0022 36.7864 18.6733C37.4243 17.505 37.3294 15.3778 36.9914 15.0549C36.788 14.8599 36.7255 14.5593 36.8359 14.2995C37.1119 13.6465 36.5644 13.3198 36.4512 13.2609C36.3396 13.2019 35.7583 12.9389 35.3793 13.5387C35.2282 13.7793 34.9408 13.8997 34.6637 13.8404C34.3866 13.7812 34.1744 13.555 34.1334 13.2735C34.0544 12.7231 33.5536 12.6879 33.4546 12.6865C33.3528 12.6868 32.8536 12.7057 32.7589 13.253C32.7024 13.5779 32.4194 13.8151 32.0899 13.8151C31.7606 13.8151 31.4776 13.578 31.421 13.253C31.3262 12.7057 30.8285 12.6846 30.7252 12.6865C30.6265 12.6879 30.1256 12.7233 30.0464 13.2735C30.0054 13.5548 29.7933 13.7813 29.5147 13.8404C29.2376 13.8994 28.9519 13.7794 28.8005 13.5387C28.4218 12.9388 27.8403 13.202 27.7272 13.2609C27.6155 13.3197 27.0668 13.6466 27.3439 14.2995C27.4545 14.5592 27.392 14.86 27.1884 15.0549C26.8506 15.3777 26.7557 17.505 27.3934 18.6732C27.5732 19.0021 27.4528 19.4146 27.1234 19.5943C27.0202 19.6507 26.9084 19.6775 26.7981 19.6774Z" fill="#772E25" stroke="#772E25" stroke-width="0.8"/>
<path fill-rule="evenodd" clip-rule="evenodd" d="M12.2875 48.8232C10.8168 48.8234 7.38438 48.098 6.99406 46.8185C6.68446 45.8004 6.65464 45.7861 5.90378 45.4204C5.7595 45.3505 5.59832 45.2722 5.41439 45.1779C4.72316 44.821 4.35238 44.1099 4.31281 43.0637C4.30152 42.7426 4.19396 42.4845 3.97335 42.2512C3.91685 42.1903 3.85876 42.1316 3.80368 42.0734C3.35272 41.6069 2.84062 41.0782 2.75861 40.1601C2.71344 39.6529 2.52667 39.5021 2.2184 39.252C1.93296 39.0201 1.5764 38.7319 1.40661 38.1843C1.14668 37.3513 1.1083 35.715 1.07714 34.4003C1.06459 33.85 1.05175 33.3306 1.02482 33.1236C0.904912 32.1983 1.24255 31.1928 1.5424 30.3054C1.71947 29.7826 1.88463 29.2892 1.93699 28.8898C2.08281 27.7585 2.02603 25.9633 1.82666 25.3972C1.03916 23.153 2.02749 21.2139 2.97775 19.7752C3.55346 18.9031 4.73278 17.3079 6.16249 16.4194C6.66475 16.1072 6.6858 15.8678 6.73243 15.3434C6.79328 14.6756 6.87387 13.7609 8.13528 12.9023C8.51597 12.6438 8.70945 12.249 8.68113 11.7903C8.58503 10.2241 9.60317 8.61656 11.4049 7.48992C13.0766 6.44529 15.6078 5.76353 17.968 6.75202C18.9625 4.86282 20.3014 4.53741 22.2035 4.64769C22.2799 4.65407 22.7338 4.63344 24.206 3.81787C24.5342 3.63601 24.947 3.75462 25.1294 4.08275C25.3107 4.41068 25.1916 4.82374 24.8636 5.00552C23.5571 5.72973 22.7111 6.03702 22.1243 6.00306C20.358 5.89981 19.6467 6.16303 18.9184 7.92447C18.845 8.10422 18.6964 8.24354 18.5125 8.30691C18.3289 8.37003 18.1264 8.35172 17.9568 8.25601C15.9362 7.11256 13.5515 7.74887 12.1247 8.64105C10.7716 9.48676 9.9709 10.6617 10.0359 11.707C10.0942 12.6491 9.67953 13.4937 8.9004 14.0245C8.16948 14.5218 8.13528 14.8965 8.08577 15.464C8.03073 16.0711 7.95704 16.9028 6.87951 17.5726C5.99432 18.1216 4.98593 19.1972 4.11057 20.5233C2.92572 22.3187 2.63415 23.6005 3.10794 24.9472C3.4275 25.8569 3.4247 27.9576 3.28326 29.0629C3.21558 29.5955 3.02731 30.1511 2.82933 30.7394C2.56485 31.5234 2.2905 32.3344 2.37113 32.9482C2.40676 33.2267 2.41923 33.7305 2.43336 34.3683C2.4605 35.4676 2.4984 37.1289 2.70202 37.78C2.74878 37.9289 2.85476 38.0206 3.0739 38.1974C3.44882 38.5009 4.01438 38.9599 4.11057 40.0391C4.14879 40.4606 4.35376 40.6905 4.77946 41.1298C4.83896 41.1918 4.90107 41.2549 4.96192 41.3201C5.40756 41.7935 5.64633 42.3632 5.67033 43.0135C5.68886 43.5333 5.8132 43.8555 6.03665 43.9708C6.20944 44.0596 6.36193 44.1338 6.49764 44.1997C7.46371 44.6696 7.82698 44.9104 8.27956 46.3792C8.73073 46.9025 11.7315 47.6183 12.4612 47.4596C12.8052 47.3855 13.5784 47.0135 13.8768 46.748C13.5997 46.4505 13.1669 46.1728 12.5885 45.9203C12.2451 45.7702 12.0893 45.37 12.2392 45.0265C12.3893 44.683 12.7894 44.526 13.133 44.6761C14.0537 45.0783 14.7014 45.549 15.1115 46.1152C15.3278 46.412 15.3745 46.7807 15.2429 47.1262C14.8626 48.1202 13.0142 48.7291 12.7483 48.7865C12.6353 48.8112 12.4782 48.8233 12.2875 48.8232Z" fill="#772E25"/>
<path d="M14.0127 46.9122H14.0143M12.2875 48.8232C10.8168 48.8234 7.38438 48.098 6.99406 46.8185C6.68446 45.8004 6.65464 45.7861 5.90378 45.4204C5.7595 45.3505 5.59832 45.2722 5.41439 45.1779C4.72316 44.821 4.35238 44.1099 4.31281 43.0637C4.30152 42.7426 4.19396 42.4845 3.97335 42.2512C3.91685 42.1903 3.85876 42.1316 3.80368 42.0734C3.35272 41.6069 2.84062 41.0782 2.75861 40.1601C2.71344 39.6529 2.52667 39.5021 2.2184 39.252C1.93296 39.0201 1.5764 38.7319 1.40661 38.1843C1.14668 37.3513 1.1083 35.715 1.07714 34.4003C1.06459 33.85 1.05175 33.3306 1.02482 33.1236C0.904912 32.1983 1.24255 31.1928 1.5424 30.3054C1.71947 29.7826 1.88463 29.2892 1.93699 28.8898C2.08281 27.7585 2.02603 25.9633 1.82666 25.3972C1.03916 23.153 2.02749 21.2139 2.97775 19.7752C3.55346 18.9031 4.73278 17.3079 6.16249 16.4194C6.66475 16.1072 6.6858 15.8678 6.73243 15.3434C6.79328 14.6756 6.87387 13.7609 8.13528 12.9023C8.51597 12.6438 8.70945 12.249 8.68113 11.7903C8.58503 10.2241 9.60317 8.61656 11.4049 7.48992C13.0766 6.44529 15.6078 5.76353 17.968 6.75202C18.9625 4.86282 20.3014 4.53741 22.2035 4.64769C22.2799 4.65407 22.7338 4.63344 24.206 3.81787C24.5342 3.63601 24.947 3.75462 25.1294 4.08275C25.3107 4.41068 25.1916 4.82374 24.8636 5.00552C23.5571 5.72973 22.7111 6.03702 22.1243 6.00306C20.358 5.89981 19.6467 6.16303 18.9184 7.92447C18.845 8.10422 18.6964 8.24354 18.5125 8.30691C18.3289 8.37003 18.1264 8.35172 17.9568 8.25601C15.9362 7.11256 13.5515 7.74887 12.1247 8.64105C10.7716 9.48676 9.9709 10.6617 10.0359 11.707C10.0942 12.6491 9.67953 13.4937 8.9004 14.0245C8.16948 14.5218 8.13528 14.8965 8.08577 15.464C8.03073 16.0711 7.95704 16.9028 6.87951 17.5726C5.99432 18.1216 4.98593 19.1972 4.11057 20.5233C2.92572 22.3187 2.63415 23.6005 3.10794 24.9472C3.4275 25.8569 3.4247 27.9576 3.28326 29.0629C3.21558 29.5955 3.02731 30.1511 2.82933 30.7394C2.56485 31.5234 2.2905 32.3344 2.37113 32.9482C2.40676 33.2267 2.41923 33.7305 2.43336 34.3683C2.4605 35.4676 2.4984 37.1289 2.70202 37.78C2.74878 37.9289 2.85476 38.0206 3.0739 38.1974C3.44882 38.5009 4.01438 38.9599 4.11057 40.0391C4.14879 40.4606 4.35376 40.6905 4.77946 41.1298C4.83896 41.1918 4.90107 41.2549 4.96192 41.3201C5.40756 41.7935 5.64633 42.3632 5.67033 43.0135C5.68886 43.5333 5.8132 43.8555 6.03665 43.9708C6.20944 44.0596 6.36193 44.1338 6.49764 44.1997C7.46371 44.6696 7.82698 44.9104 8.27956 46.3792C8.73073 46.9025 11.7315 47.6183 12.4612 47.4596C12.8052 47.3855 13.5784 47.0135 13.8768 46.748C13.5997 46.4505 13.1669 46.1728 12.5885 45.9203C12.2451 45.7702 12.0893 45.37 12.2392 45.0265C12.3893 44.683 12.7894 44.526 13.133 44.6761C14.0537 45.0783 14.7014 45.549 15.1115 46.1152C15.3278 46.412 15.3745 46.7807 15.2429 47.1262C14.8626 48.1202 13.0142 48.7291 12.7483 48.7865C12.6353 48.8112 12.4782 48.8233 12.2875 48.8232Z" stroke="#772E25" stroke-width="0.8"/>
<path fill-rule="evenodd" clip-rule="evenodd" d="M14.6281 47.3266C14.3535 47.3266 14.0948 47.1593 13.9915 46.8876C13.86 46.5369 14.0367 46.1452 14.3874 46.0127C15.9289 45.4305 16.5921 44.788 16.5298 44.5917C16.4835 44.4427 16.3418 43.989 15.3575 43.7207C14.9957 43.6221 14.782 43.2491 14.881 42.8873C14.9801 42.5254 15.3533 42.3125 15.7139 42.411C16.8424 42.7185 17.5523 43.3154 17.8253 44.1851C18.1845 45.3268 17.1337 46.4269 14.8669 47.2827C14.7879 47.3125 14.707 47.3267 14.6281 47.3266Z" fill="#772E25" stroke="#772E25" stroke-width="0.8"/>
<path fill-rule="evenodd" clip-rule="evenodd" d="M19.7545 36.8816C19.6597 36.8816 19.5634 36.8618 19.4728 36.8198C19.1321 36.6635 18.9821 36.2605 19.1376 35.9197C19.4462 35.2487 20.1516 34.7845 21.2377 34.5391C21.5109 34.4325 21.7072 34.2297 21.8401 33.9206C22.1329 33.2376 22.0027 32.3223 21.8232 31.9189C21.7626 31.7825 21.2985 31.5415 20.9902 31.3822C20.1544 30.9488 19.0089 30.3553 18.76 29.0123C18.6838 28.6044 18.4164 28.2731 18.0459 27.8143C17.4154 27.0346 16.6077 26.0359 16.1015 24.0163C16.0393 24.0856 15.977 24.1512 15.9105 24.2127C15.5445 24.5553 15.5371 24.7922 15.5258 25.2226C15.5105 25.8108 15.4876 26.6128 14.3761 27.3602C14.2107 27.5264 14.2277 27.5902 14.6448 28.2449C15.1131 28.9792 15.82 30.0893 15.7097 31.8568C15.6817 32.3132 15.8738 32.7073 16.2499 32.9663C16.6092 33.2133 16.8721 33.5041 17.0305 33.7045C17.2627 33.9991 17.2101 34.426 16.916 34.6577C16.6207 34.8894 16.1947 34.8382 15.9628 34.5435C15.8824 34.4402 15.711 34.2431 15.4806 34.0851C14.707 33.553 14.2969 32.7101 14.3549 31.7723C14.4372 30.4459 13.9391 29.6641 13.4994 28.9742C13.0582 28.2815 12.4543 27.3329 13.4739 26.3427C13.5065 26.3118 13.5404 26.2842 13.5785 26.2601C14.1499 25.89 14.1555 25.6695 14.1683 25.1858C14.1824 24.6644 14.2022 23.9508 14.9842 23.2206C15.3253 22.9013 15.5781 22.349 15.7365 21.5789C15.8045 21.2502 16.1057 21.0219 16.4366 21.0376C16.7718 21.0549 17.0447 21.3146 17.0772 21.6487C17.3942 24.848 18.34 26.0196 19.1009 26.961C19.5406 27.5049 19.9564 28.0185 20.095 28.7645C20.214 29.4072 20.7739 29.741 21.6153 30.1768C22.229 30.4949 22.8088 30.7955 23.0634 31.3657C23.4057 32.1324 23.523 33.4402 23.0874 34.4559C22.8005 35.1261 22.3054 35.6018 21.6577 35.8316C21.6296 35.8411 21.6025 35.8489 21.5742 35.855C20.921 35.9975 20.4938 36.2215 20.3722 36.4856C20.2578 36.7347 20.0116 36.8817 19.7545 36.8816Z" fill="#772E25" stroke="#772E25" stroke-width="0.8"/>
<path fill-rule="evenodd" clip-rule="evenodd" d="M51.8927 48.8232C51.7018 48.8232 51.5447 48.8113 51.4301 48.7866C51.1644 48.7289 49.3174 48.1202 48.937 47.126C48.8041 46.7807 48.8521 46.4122 49.0685 46.1152C49.4786 45.5489 50.1263 45.0781 51.0469 44.6761C51.3906 44.5259 51.7908 44.6831 51.9407 45.0265C52.0906 45.3701 51.9336 45.7703 51.5914 45.9203C51.0133 46.1727 50.5802 46.4505 50.3031 46.748C50.6015 47.0134 51.375 47.3855 51.7173 47.4597C52.4486 47.6178 55.4493 46.9026 55.899 46.3792C56.3531 44.9103 56.7163 44.6696 57.6822 44.1995C57.818 44.1336 57.9707 44.0597 58.1433 43.9707C58.3669 43.8554 58.4897 43.5334 58.5095 43.0135C58.5337 42.3631 58.7725 41.7934 59.2181 41.3201C59.2788 41.2548 59.3411 41.1919 59.4004 41.1296C59.8248 40.6903 60.0312 40.4606 60.0693 40.0391C60.1656 38.9599 60.7312 38.5009 61.106 38.1974C61.3238 38.0205 61.4312 37.9289 61.4779 37.78C61.6802 37.129 61.7197 35.4683 61.7451 34.3692C61.7607 33.7309 61.772 33.2269 61.8088 32.9483C61.8896 32.3345 61.6151 31.5237 61.3506 30.7396C61.1526 30.1513 60.9645 29.5956 60.8966 29.0629C60.754 27.9574 60.7524 25.8569 61.072 24.9472C61.546 23.6004 61.2544 22.3187 60.0693 20.5231C59.1942 19.1971 58.1842 18.1217 57.3004 17.5726C56.223 16.9028 56.1478 16.0712 56.0941 15.464C56.0435 14.8964 56.0107 14.5218 55.2795 14.0246C54.5006 13.4936 54.086 12.649 54.1439 11.707C54.2079 10.6615 53.4072 9.48677 52.0552 8.64094C50.6285 7.7488 48.244 7.11261 46.2232 8.25603C46.0536 8.35161 45.8513 8.37013 45.6674 8.30692C45.4837 8.24344 45.335 8.10427 45.2615 7.92449C44.5333 6.16312 43.8205 5.9001 42.0556 6.00308C41.4704 6.0374 40.6231 5.72999 39.3163 5.00553C38.9882 4.82367 38.8694 4.41073 39.0505 4.08276C39.2329 3.75455 39.6458 3.63631 39.9739 3.81788C41.4462 4.63341 41.9 4.65339 41.9764 4.64771C43.8772 4.53714 45.2177 4.86299 46.2118 6.75203C48.5737 5.76313 51.1034 6.44539 52.7751 7.48977C54.577 8.61637 55.5949 10.2243 55.4987 11.7903C55.4707 12.2489 55.6642 12.6439 56.0432 12.9023C57.3061 13.7608 57.3867 14.6756 57.446 15.3434C57.4928 15.8677 57.5139 16.1072 58.0174 16.4194C59.4472 17.3079 60.6266 18.9032 61.2021 19.7752C62.1527 21.2138 63.1409 23.1531 62.3533 25.3972C62.154 25.9632 62.0973 27.7585 62.2429 28.8898C62.294 29.2891 62.4607 29.7829 62.6375 30.3056C62.9361 31.1927 63.2753 32.1984 63.1551 33.1239C63.1283 33.3307 63.1155 33.8508 63.1028 34.4013C63.0716 35.7156 63.0335 37.3515 62.7732 38.1844C62.6036 38.7319 62.2472 39.0202 61.9615 39.2521C61.6519 39.502 61.4666 39.653 61.4213 40.1601C61.3394 41.0779 60.8273 41.6068 60.3763 42.0733C60.3213 42.1312 60.2631 42.1903 60.2065 42.2511C59.9862 42.4846 59.8785 42.7428 59.8657 43.0637C59.8277 44.1098 59.457 44.8212 58.7655 45.1777C58.5817 45.2721 58.4204 45.3507 58.2762 45.4204C57.5253 45.786 57.4956 45.8004 57.1844 46.8188C56.7957 48.0978 53.3633 48.8233 51.8927 48.8232Z" fill="#772E25" stroke="#772E25" stroke-width="0.8"/>
<path fill-rule="evenodd" clip-rule="evenodd" d="M49.5526 47.3266C49.4734 47.3266 49.3925 47.3126 49.3133 47.2827C47.0465 46.4268 45.9957 45.3268 46.3534 44.1853C46.6278 43.3152 47.3377 42.7185 48.4649 42.4111C48.8269 42.3124 49.2002 42.5256 49.2992 42.8873C49.3983 43.249 49.1846 43.6221 48.8226 43.7207C47.8386 43.989 47.6969 44.4428 47.6489 44.592C47.5881 44.788 48.2513 45.4307 49.7927 46.0127C50.1435 46.145 50.3202 46.5369 50.1873 46.8876C50.0856 47.1593 49.8267 47.3267 49.5526 47.3266Z" fill="#772E25" stroke="#772E25" stroke-width="0.8"/>
<path fill-rule="evenodd" clip-rule="evenodd" d="M46.939 34.4342C46.748 34.4461 46.311 34.7588 45.3168 36.1438C45.1841 36.3299 45.0778 36.4771 44.9873 36.5865L44.9621 36.6175C44.6085 37.0473 44.0172 37.7668 44.1219 38.2362C44.1557 38.3866 44.2717 38.5214 44.4174 38.6368C44.8303 38.1568 45.3111 37.7883 45.8316 37.6595C46.2094 37.5664 46.871 37.5345 47.5131 38.1519C48.0914 37.6762 48.4577 36.7444 48.2527 36.0879C48.0323 35.3859 47.5908 34.8294 46.939 34.4342ZM46.6306 45.3045C45.7467 45.3045 44.8756 44.6981 44.4966 44.3959C43.6848 43.7498 42.8533 42.7311 42.9509 41.8102C43.0077 41.274 43.2621 40.5007 43.6566 39.7635C43.1929 39.4213 42.9042 39.0094 42.7968 38.5329C42.5467 37.4164 43.402 36.3764 43.9139 35.755L43.9397 35.7244C44.0005 35.6492 44.0992 35.5115 44.2138 35.352C44.9916 34.27 46.2912 32.4591 47.6304 33.2657C48.5795 33.8376 49.2256 34.6507 49.548 35.6825C50.0133 37.1705 49.0658 39.1022 47.5964 39.6576C47.3023 39.769 46.9686 39.6627 46.7932 39.4005C46.4598 38.9024 46.2403 38.9573 46.1583 38.9774C45.4244 39.1589 44.4089 40.9328 44.3014 41.9529C44.2817 42.1355 44.614 42.7532 45.3423 43.3344C45.9577 43.8238 46.5245 44.0067 46.748 43.9302C47.1015 43.8085 47.4876 43.9976 47.6092 44.3521C47.7309 44.7066 47.5428 45.0928 47.1877 45.2145C47.0042 45.2773 46.8172 45.3045 46.6306 45.3045Z" fill="#772E25" stroke="#772E25" stroke-width="0.8"/>
<path fill-rule="evenodd" clip-rule="evenodd" d="M44.4244 36.8816C44.167 36.8816 43.9222 36.7346 43.8076 36.4855C43.6862 36.2214 43.259 35.9976 42.6056 35.855C42.5773 35.8489 42.5491 35.8412 42.5222 35.8315C41.8747 35.6016 41.3795 35.126 41.0924 34.4557C40.6554 33.4399 40.7742 32.1323 41.1165 31.3657C41.371 30.7954 41.9509 30.495 42.5646 30.1768C43.4062 29.7408 43.9661 29.4071 44.0848 28.7645C44.2236 28.0184 44.6392 27.5047 45.079 26.961C45.84 26.0196 46.7859 24.8479 47.1027 21.6486C47.1354 21.3145 47.4081 21.055 47.7433 21.0375C48.0743 21.0202 48.3754 21.2501 48.4433 21.5789C48.6003 22.3489 48.8548 22.9013 49.1957 23.2206C49.9777 23.9507 49.9975 24.6645 50.0117 25.1858C50.0245 25.6694 50.03 25.89 50.6013 26.2601C50.6383 26.2841 50.6734 26.3119 50.7046 26.3427C51.7259 27.3329 51.1203 28.2815 50.6791 28.9743C50.2409 29.6641 49.7429 30.446 49.8249 31.7723C49.8829 32.7099 49.4729 33.553 48.6993 34.085C48.4689 34.2428 48.2977 34.4402 48.2171 34.5438C47.9853 34.8383 47.558 34.8891 47.2638 34.6575C46.9686 34.4255 46.9174 33.9989 47.1493 33.7042C47.3078 33.5036 47.5708 33.2131 47.93 32.9663C48.3063 32.7072 48.4984 32.3132 48.4702 31.8566C48.3601 30.0892 49.067 28.9795 49.5351 28.2449C49.9523 27.59 49.9692 27.5264 49.8038 27.3602C48.6922 26.6128 48.6695 25.8108 48.654 25.2225C48.643 24.7921 48.6357 24.5552 48.2693 24.2127C48.2032 24.1512 48.1393 24.0857 48.0784 24.0163C47.5722 26.0356 46.7647 27.0345 46.134 27.8141C45.7636 28.2728 45.4962 28.6044 45.4198 29.0122C45.1712 30.3552 44.0255 30.9488 43.1896 31.3821C42.8815 31.5414 42.4175 31.7825 42.3567 31.9189C42.1757 32.3222 42.047 33.2374 42.3398 33.9206C42.4729 34.2296 42.6693 34.4325 42.9421 34.5391C44.0286 34.7844 44.7339 35.2488 45.0408 35.9198C45.1979 36.2605 45.0479 36.6635 44.7071 36.8198C44.6153 36.8615 44.519 36.8816 44.4244 36.8816Z" fill="#772E25" stroke="#772E25" stroke-width="0.8"/>
<path fill-rule="evenodd" clip-rule="evenodd" d="M22.5302 60C22.0227 60 21.5543 59.9137 21.1598 59.8416C20.8346 59.7821 20.5291 59.727 20.3254 59.7426C20.0015 59.7665 18.3046 59.8811 16.7065 59.7299C15.916 59.6548 13.5119 59.4258 13.2446 57.8758C13.1401 57.2635 13.1047 55.7601 13.4143 55.1903C13.5474 54.9458 13.7976 54.6351 14.1129 54.2419C14.3861 53.9017 14.8639 53.3068 15.0236 52.9948C14.5641 52.2153 14.4255 50.5263 15.9655 45.3908C16.0732 45.0315 16.4505 44.8277 16.8097 44.9353C17.1691 45.043 17.3726 45.4213 17.2651 45.7805C15.6249 51.255 16.1083 52.21 16.2229 52.3459C16.8127 53.0503 16.0518 53.9966 15.1707 55.0922C14.9487 55.3693 14.6969 55.6823 14.6136 55.8266C14.536 56.0472 14.4735 57.0062 14.5824 57.6467C14.6773 58.1912 17.1082 58.6239 20.2236 58.3878C20.6014 58.3595 20.9915 58.4316 21.4044 58.5066C22.4186 58.6931 23.3786 58.8686 24.377 57.7868C24.8536 57.2705 25.4023 57.1645 25.8421 57.0797C26.036 57.0429 26.2183 57.0076 26.3851 56.9411C26.7615 56.7926 26.7726 56.7176 26.8065 56.4928C26.8407 56.2693 26.9042 55.8522 27.3128 55.5768C28.0823 55.0589 28.0129 54.6908 27.8588 53.8842C27.7896 53.5119 27.7089 53.0902 27.7399 52.6334C27.8109 51.625 27.5462 50.8115 26.9551 50.2151C26.1079 49.3616 26.0288 47.6306 26.7585 45.9074C27.7358 43.5977 29.7353 42.2322 32.0899 42.2565C32.1099 42.2564 32.1295 42.2563 32.1493 42.2563C34.4843 42.2563 36.4526 43.617 37.4213 45.9073C38.1511 47.6303 38.0719 49.3617 37.2248 50.215C36.6339 50.8116 36.3692 51.6252 36.4385 52.6334C36.471 53.0901 36.3904 53.512 36.3197 53.8841C36.1672 54.6906 36.0977 55.059 36.867 55.5768C37.2757 55.8522 37.3393 56.2694 37.3733 56.4928C37.4075 56.7176 37.4185 56.7926 37.7947 56.9411C37.9618 57.0075 38.1441 57.0429 38.3364 57.0797C38.7776 57.1644 39.3263 57.2706 39.8028 57.7868C40.8029 58.8671 41.7601 58.6918 42.7755 58.5066C43.1887 58.4316 43.5773 58.3595 43.9562 58.3878C47.0718 58.6239 49.5027 58.1912 49.596 57.6467C49.7065 57.0061 49.6441 56.0473 49.5663 55.8266C49.4831 55.6821 49.2312 55.3692 49.0091 55.0922C48.1282 53.9965 47.3672 53.0506 47.9569 52.3459C48.0716 52.2098 48.5551 51.255 46.9148 45.7805C46.8074 45.4213 47.0109 45.043 47.3701 44.9353C47.7279 44.8277 48.1068 45.0316 48.2144 45.3908C49.7545 50.5262 49.6158 52.2152 49.1562 52.9948C49.316 53.3067 49.794 53.9017 50.0669 54.2419C50.3823 54.6351 50.6326 54.9458 50.7656 55.1905C51.0753 55.7602 51.0399 57.2635 50.9352 57.8758C50.6681 59.4258 48.2624 59.6549 47.4733 59.7299C45.8739 59.8811 44.1783 59.7666 43.8545 59.7426C43.6523 59.7269 43.3439 59.7822 43.0201 59.8416C41.941 60.0396 40.3119 60.338 38.8058 58.7074C38.6392 58.5277 38.4523 58.4854 38.0803 58.4133C37.8456 58.368 37.5797 58.3171 37.2955 58.204C36.1939 57.7683 36.0878 57.0712 36.0312 56.6979C36.0284 56.6807 36.0256 56.6611 36.0227 56.6441C34.6058 55.6393 34.8249 54.4813 34.9862 53.6312C35.0472 53.3113 35.105 53.0093 35.0851 52.7273C34.9877 51.332 35.3948 50.1326 36.2618 49.259C36.6339 48.8838 36.7044 47.6979 36.1712 46.4363C35.8872 45.7668 34.7599 43.5838 32.097 43.6144C32.0927 43.6143 32.0871 43.6144 32.0828 43.6144C32.0644 43.614 32.0475 43.6141 32.0291 43.6141C29.4072 43.614 28.29 45.7714 28.0086 46.4365C27.4755 47.6978 27.5462 48.8838 27.9181 49.259C28.7852 50.1324 29.1923 51.3319 29.0947 52.7273C29.075 53.0093 29.1329 53.3115 29.1937 53.6313C29.3551 54.4814 29.5741 55.6395 28.1571 56.6441C28.1546 56.661 28.1515 56.6808 28.1486 56.6979C28.0922 57.0712 27.986 57.7684 26.8844 58.204C26.5989 58.3171 26.3342 58.368 26.0995 58.4133C25.7277 58.4853 25.5409 58.5278 25.374 58.7074C24.418 59.7425 23.4139 60 22.5302 60Z" fill="#772E25"/>
<path d="M49.5735 55.8393H49.575M22.5302 60C22.0227 60 21.5543 59.9137 21.1598 59.8416C20.8346 59.7821 20.5291 59.727 20.3254 59.7426C20.0015 59.7665 18.3046 59.8811 16.7065 59.7299C15.916 59.6548 13.5119 59.4258 13.2446 57.8758C13.1401 57.2635 13.1047 55.7601 13.4143 55.1903C13.5474 54.9458 13.7976 54.6351 14.1129 54.2419C14.3861 53.9017 14.8639 53.3068 15.0236 52.9948C14.5641 52.2153 14.4255 50.5263 15.9655 45.3908C16.0732 45.0315 16.4505 44.8277 16.8097 44.9353C17.1691 45.043 17.3726 45.4213 17.2651 45.7805C15.6249 51.255 16.1083 52.21 16.2229 52.3459C16.8127 53.0503 16.0518 53.9966 15.1707 55.0922C14.9487 55.3693 14.6969 55.6823 14.6136 55.8266C14.536 56.0472 14.4735 57.0062 14.5824 57.6467C14.6773 58.1912 17.1082 58.6239 20.2236 58.3878C20.6014 58.3595 20.9915 58.4316 21.4044 58.5066C22.4186 58.6931 23.3786 58.8686 24.377 57.7868C24.8536 57.2705 25.4023 57.1645 25.8421 57.0797C26.036 57.0429 26.2183 57.0076 26.3851 56.9411C26.7615 56.7926 26.7726 56.7176 26.8065 56.4928C26.8407 56.2693 26.9042 55.8522 27.3128 55.5768C28.0823 55.0589 28.0129 54.6908 27.8588 53.8842C27.7896 53.5119 27.7089 53.0902 27.7399 52.6334C27.8109 51.625 27.5462 50.8115 26.9551 50.2151C26.1079 49.3616 26.0288 47.6306 26.7585 45.9074C27.7358 43.5977 29.7353 42.2322 32.0899 42.2565C32.1099 42.2564 32.1295 42.2563 32.1493 42.2563C34.4843 42.2563 36.4526 43.617 37.4213 45.9073C38.1511 47.6303 38.0719 49.3617 37.2248 50.215C36.6339 50.8116 36.3692 51.6252 36.4385 52.6334C36.471 53.0901 36.3904 53.512 36.3197 53.8841C36.1672 54.6906 36.0977 55.059 36.867 55.5768C37.2757 55.8522 37.3393 56.2694 37.3733 56.4928C37.4075 56.7176 37.4185 56.7926 37.7947 56.9411C37.9618 57.0075 38.1441 57.0429 38.3364 57.0797C38.7776 57.1644 39.3263 57.2706 39.8028 57.7868C40.8029 58.8671 41.7601 58.6918 42.7755 58.5066C43.1887 58.4316 43.5773 58.3595 43.9562 58.3878C47.0718 58.6239 49.5027 58.1912 49.596 57.6467C49.7065 57.0061 49.6441 56.0473 49.5663 55.8266C49.4831 55.6821 49.2312 55.3692 49.0091 55.0922C48.1282 53.9965 47.3672 53.0506 47.9569 52.3459C48.0716 52.2098 48.5551 51.255 46.9148 45.7805C46.8074 45.4213 47.0109 45.043 47.3701 44.9353C47.7279 44.8277 48.1068 45.0316 48.2144 45.3908C49.7545 50.5262 49.6158 52.2152 49.1562 52.9948C49.316 53.3067 49.794 53.9017 50.0669 54.2419C50.3823 54.6351 50.6326 54.9458 50.7656 55.1905C51.0753 55.7602 51.0399 57.2635 50.9352 57.8758C50.6681 59.4258 48.2624 59.6549 47.4733 59.7299C45.8739 59.8811 44.1783 59.7666 43.8545 59.7426C43.6523 59.7269 43.3439 59.7822 43.0201 59.8416C41.941 60.0396 40.3119 60.338 38.8058 58.7074C38.6392 58.5277 38.4523 58.4854 38.0803 58.4133C37.8456 58.368 37.5797 58.3171 37.2955 58.204C36.1939 57.7683 36.0878 57.0712 36.0312 56.6979C36.0284 56.6807 36.0256 56.6611 36.0227 56.6441C34.6058 55.6393 34.8249 54.4813 34.9862 53.6312C35.0472 53.3113 35.105 53.0093 35.0851 52.7273C34.9877 51.332 35.3948 50.1326 36.2618 49.259C36.6339 48.8838 36.7044 47.6979 36.1712 46.4363C35.8872 45.7668 34.7599 43.5838 32.097 43.6144C32.0927 43.6143 32.0871 43.6144 32.0828 43.6144C32.0644 43.614 32.0475 43.6141 32.0291 43.6141C29.4072 43.614 28.29 45.7714 28.0086 46.4365C27.4755 47.6978 27.5462 48.8838 27.9181 49.259C28.7852 50.1324 29.1923 51.3319 29.0947 52.7273C29.075 53.0093 29.1329 53.3115 29.1937 53.6313C29.3551 54.4814 29.5741 55.6395 28.1571 56.6441C28.1546 56.661 28.1515 56.6808 28.1486 56.6979C28.0922 57.0712 27.986 57.7684 26.8844 58.204C26.5989 58.3171 26.3342 58.368 26.0995 58.4133C25.7277 58.4853 25.5409 58.5278 25.374 58.7074C24.418 59.7425 23.4139 60 22.5302 60Z" stroke="#772E25" stroke-width="0.8"/>
<path fill-rule="evenodd" clip-rule="evenodd" d="M44.0939 14.7213C43.9215 14.7213 43.7487 14.656 43.6158 14.5252C43.35 14.2615 43.3471 13.8317 43.6115 13.5652C44.1789 12.9918 44.9168 11.4937 45.2124 7.61378C45.2407 7.23979 45.5674 6.96073 45.9407 6.98847C46.3142 7.01675 46.5941 7.34301 46.5658 7.71675C46.2999 11.2102 45.6494 13.4355 44.576 14.52C44.4433 14.6541 44.2691 14.7213 44.0939 14.7213Z" fill="#772E25" stroke="#772E25" stroke-width="0.8"/>
<path fill-rule="evenodd" clip-rule="evenodd" d="M47.8006 18.4085C47.6026 18.4085 47.4058 18.3928 47.2107 18.3616C46.8403 18.302 46.5884 17.954 46.6478 17.5839C46.7073 17.2136 47.0551 16.9618 47.4256 17.0211C49.2273 17.3094 51.5917 15.3567 54.2575 11.3714C54.4653 11.06 54.8868 10.9762 55.1993 11.1846C55.5106 11.393 55.5938 11.8146 55.386 12.1262C52.5648 16.3445 50.0757 18.4085 47.8006 18.4085Z" fill="#772E25" stroke="#772E25" stroke-width="0.8"/>
<path fill-rule="evenodd" clip-rule="evenodd" d="M61.4864 27.7452C61.4453 27.7452 61.4043 27.7416 61.3633 27.734C56.0164 26.7497 52.8966 24.7142 52.0919 21.684C51.9958 21.3214 52.2121 20.9498 52.5741 20.8537C52.9363 20.7569 53.3081 20.9732 53.4043 21.3355C54.0634 23.8143 56.8223 25.5179 61.6079 26.3987C61.977 26.4666 62.2216 26.8205 62.1538 27.1892C62.0932 27.5163 61.8073 27.7453 61.4864 27.7452Z" fill="#772E25" stroke="#772E25" stroke-width="0.8"/>
<path fill-rule="evenodd" clip-rule="evenodd" d="M62.1259 38.6611C62.0609 38.6611 61.9942 38.6516 61.9278 38.6314C56.7096 37.0375 53.768 34.7182 53.1853 31.7377C53.1135 31.3696 53.3536 31.0132 53.7213 30.9411C54.0906 30.8691 54.4454 31.1091 54.5175 31.4769C54.9972 33.9269 57.623 35.8972 62.3237 37.3331C62.683 37.4425 62.8851 37.8219 62.7748 38.1806C62.6858 38.4729 62.417 38.6612 62.1259 38.6611Z" fill="#772E25" stroke="#772E25" stroke-width="0.8"/>
<path fill-rule="evenodd" clip-rule="evenodd" d="M57.1678 45.9776C57.0689 45.9776 56.9682 45.9557 56.872 45.9095C53.0962 44.0793 52.8628 41.9033 53.3309 40.4001C53.4427 40.0421 53.823 39.8424 54.1809 39.954C54.5389 40.0655 54.738 40.4461 54.6263 40.8039C54.4597 41.3429 53.9476 42.9833 57.4645 44.6878C57.8025 44.8514 57.9426 45.2574 57.7799 45.5947C57.6626 45.8366 57.4193 45.9776 57.1678 45.9776Z" fill="#772E25" stroke="#772E25" stroke-width="0.8"/>
<path fill-rule="evenodd" clip-rule="evenodd" d="M35.7345 32.4134C35.4262 32.4134 35.1474 32.2021 35.0739 31.889C34.9893 31.5237 35.2153 31.1589 35.5801 31.0736C36.8418 30.7789 38.8724 30.7436 41.7884 30.9657C42.162 30.9939 42.4417 31.3202 42.4135 31.6941C42.3853 32.0679 42.0585 32.3475 41.6851 32.3193C38.9476 32.1111 36.9986 32.1366 35.8885 32.3955C35.8376 32.4077 35.7852 32.4135 35.7345 32.4134Z" fill="#772E25" stroke="#772E25" stroke-width="0.8"/>
<path fill-rule="evenodd" clip-rule="evenodd" d="M43.9056 59.7441C43.7895 59.7441 43.6721 59.7145 43.5646 59.6523C43.241 59.4641 43.1305 59.0484 43.3186 58.7246C44.1303 57.3259 43.7499 56.674 43.3935 56.3063C43.1321 56.0361 43.139 55.6066 43.4091 55.346C43.6778 55.0849 44.1077 55.092 44.3679 55.3614C45.0737 56.0899 45.6675 57.3825 44.4923 59.4062C44.3667 59.6224 44.1388 59.7442 43.9056 59.7441Z" fill="#772E25" stroke="#772E25" stroke-width="0.8"/>
<path fill-rule="evenodd" clip-rule="evenodd" d="M39.0861 58.4216C38.8077 58.4216 38.5458 58.2491 38.4467 57.9719C38.3212 57.6183 38.5048 57.2295 38.8569 57.1036C39.2897 56.9479 39.7789 56.6101 39.7238 55.3542C39.7069 54.9796 39.9967 54.6626 40.3715 54.646C40.7394 54.6316 41.063 54.9194 41.08 55.294C41.1677 57.2915 40.1693 58.0766 39.3151 58.382C39.2388 58.4088 39.1624 58.4216 39.0861 58.4216Z" fill="#772E25" stroke="#772E25" stroke-width="0.8"/>
<path fill-rule="evenodd" clip-rule="evenodd" d="M37.1867 48.18C36.9436 48.18 36.7072 48.0483 36.5856 47.8176C36.4119 47.486 36.5375 47.0755 36.8698 46.9006C39.0974 45.7261 40.1833 44.1161 40.1889 41.9789C40.1904 41.6039 40.4901 41.3031 40.8692 41.3018C41.2439 41.3028 41.5479 41.6076 41.5465 41.9823C41.5395 44.6317 40.179 46.6906 37.5034 48.1016C37.4018 48.1547 37.2941 48.1801 37.1867 48.18Z" fill="#772E25" stroke="#772E25" stroke-width="0.8"/>
<path fill-rule="evenodd" clip-rule="evenodd" d="M14.6281 47.3266C14.3535 47.3266 14.0948 47.1593 13.9915 46.8876C13.86 46.5369 14.0367 46.1452 14.3874 46.0127C15.9289 45.4305 16.5921 44.788 16.5298 44.5917C16.4835 44.4427 16.3418 43.989 15.3575 43.7207C14.9957 43.6221 14.782 43.2491 14.881 42.8873C14.9801 42.5254 15.3533 42.3125 15.7139 42.411C16.8424 42.7185 17.5523 43.3154 17.8253 44.1851C18.1845 45.3268 17.1337 46.4269 14.8669 47.2827C14.7879 47.3125 14.707 47.3267 14.6281 47.3266Z" fill="#772E25" stroke="#772E25" stroke-width="0.8"/>
<path fill-rule="evenodd" clip-rule="evenodd" d="M17.9286 37.6078C18.0899 37.6078 18.2324 37.6307 18.3484 37.6594C18.8688 37.7881 19.3496 38.1567 19.7626 38.6367C19.9084 38.5212 20.0242 38.3865 20.0581 38.2361C20.1629 37.7666 19.5717 37.0473 19.2181 36.6174L19.1915 36.5863C19.1024 36.4768 18.9961 36.3299 18.8631 36.1436C17.8691 34.7589 17.432 34.4462 17.2411 34.4341C16.5893 34.8295 16.1465 35.3858 15.9273 36.0879C15.7223 36.7441 16.0885 37.6762 16.6669 38.1517C17.1111 37.7241 17.5664 37.6079 17.9286 37.6078ZM17.5496 45.3044C17.3628 45.3044 17.1746 45.2772 16.9922 45.2143C16.6373 45.0926 16.4492 44.7066 16.5708 44.3519C16.6911 43.9972 17.0771 43.8083 17.432 43.9301C17.6543 44.0063 18.2225 43.8236 18.8377 43.3339C19.5663 42.7528 19.8984 42.1353 19.8785 41.953C19.7712 40.9326 18.7557 39.1588 18.0217 38.9772C17.9397 38.9569 17.7205 38.9027 17.3867 39.4004C17.2117 39.6626 16.8776 39.7687 16.5835 39.6574C15.1142 39.1019 14.1667 37.1703 14.6319 35.6825C14.9545 34.6506 15.6006 33.8375 16.5496 33.2655C17.8888 32.4589 19.1885 34.2699 19.9648 35.3518C20.0795 35.5113 20.1784 35.6491 20.2406 35.7243L20.266 35.7548C20.7767 36.3763 21.6321 37.4164 21.3818 38.5327C21.2759 39.0091 20.9872 39.4213 20.5234 39.7634C20.9179 40.5005 21.1725 41.2738 21.229 41.8101C21.3268 42.7308 20.4951 43.7495 19.6834 44.3956C19.3044 44.6977 18.4332 45.3044 17.5496 45.3044Z" fill="#772E25" stroke="#772E25" stroke-width="0.8"/>
<path fill-rule="evenodd" clip-rule="evenodd" d="M20.0867 14.7212C19.9113 14.7212 19.7372 14.6541 19.6043 14.5199C18.531 13.4353 17.8804 11.2101 17.6145 7.71673C17.5863 7.3429 17.8663 7.01684 18.2396 6.98845C18.6131 6.96042 18.9396 7.23985 18.9679 7.61375C19.2635 11.4935 20.0017 12.9916 20.5688 13.5652C20.8334 13.8316 20.8304 14.2615 20.5645 14.5251C20.4319 14.6558 20.2591 14.7213 20.0867 14.7212Z" fill="#772E25" stroke="#772E25" stroke-width="0.8"/>
<path fill-rule="evenodd" clip-rule="evenodd" d="M16.3801 18.4085C14.1047 18.4085 11.6157 16.3449 8.7944 12.1262C8.58513 11.8146 8.6699 11.3931 8.98105 11.1846C9.29374 10.976 9.71363 11.06 9.92295 11.3714C12.5889 15.3567 14.9517 17.3093 16.7548 17.0211C17.1253 16.9623 17.4732 17.2137 17.5326 17.5839C17.5921 17.9539 17.3403 18.3022 16.9698 18.3616C16.7747 18.3927 16.578 18.4085 16.3801 18.4085Z" fill="#772E25" stroke="#772E25" stroke-width="0.8"/>
<path fill-rule="evenodd" clip-rule="evenodd" d="M2.69384 27.7453C2.37278 27.7453 2.08698 27.5165 2.02613 27.1893C1.95854 26.8206 2.20295 26.4666 2.5706 26.3988C7.35787 25.5179 10.1166 23.8145 10.7756 21.3356C10.872 20.9732 11.2438 20.7572 11.6058 20.8538C11.9681 20.9498 12.1841 21.3215 12.088 21.684C11.2834 24.7142 8.16374 26.7499 2.81672 27.734C2.77593 27.7416 2.7347 27.7453 2.69384 27.7453Z" fill="#772E25" stroke="#772E25" stroke-width="0.8"/>
<path fill-rule="evenodd" clip-rule="evenodd" d="M2.05459 38.6611C1.76315 38.6611 1.49444 38.473 1.40536 38.1806C1.29508 37.8218 1.49725 37.4425 1.85503 37.3331C6.55603 35.8971 9.18329 33.927 9.66265 31.4769C9.73345 31.109 10.0912 30.8698 10.4589 30.9411C10.8268 31.0131 11.067 31.3697 10.9949 31.7377C10.4109 34.7181 7.46929 37.0376 2.25241 38.6313C2.186 38.6515 2.11946 38.6612 2.05459 38.6611Z" fill="#772E25" stroke="#772E25" stroke-width="0.8"/>
<path fill-rule="evenodd" clip-rule="evenodd" d="M7.0126 45.9776C6.75965 45.9776 6.51756 45.8367 6.40013 45.5947C6.23777 45.2574 6.37754 44.8515 6.7155 44.6878C10.2326 42.9833 9.72065 41.343 9.55375 40.804C9.44228 40.446 9.6414 40.0656 9.99927 39.954C10.3571 39.8423 10.7374 40.0424 10.8491 40.4001C11.3173 41.9032 11.0839 44.0795 7.30807 45.9095C7.21208 45.9557 7.11142 45.9777 7.0126 45.9776Z" fill="#772E25" stroke="#772E25" stroke-width="0.8"/>
<path fill-rule="evenodd" clip-rule="evenodd" d="M28.4456 32.4134C28.3947 32.4134 28.3423 32.4078 28.2899 32.3956C27.1814 32.1366 25.2325 32.1111 22.4947 32.3194C22.12 32.3471 21.7946 32.068 21.7664 31.6941C21.7382 31.3201 22.0181 30.9941 22.3915 30.9657C25.3076 30.7436 27.3382 30.7789 28.5997 31.0736C28.9646 31.1588 29.1908 31.5239 29.1059 31.889C29.0327 32.202 28.7537 32.4135 28.4456 32.4134Z" fill="#772E25" stroke="#772E25" stroke-width="0.8"/>
<path fill-rule="evenodd" clip-rule="evenodd" d="M20.2748 59.7441C20.0415 59.7441 19.8137 59.6225 19.6878 59.4062C18.5126 57.3824 19.1066 56.09 19.8122 55.3613C20.0727 55.0917 20.5024 55.0852 20.771 55.3459C21.0413 55.6066 21.0483 56.0362 20.7866 56.3063C20.4303 56.6739 20.0499 57.3259 20.8616 58.7246C21.0499 59.0483 20.9393 59.4642 20.6155 59.6522C20.508 59.7144 20.3907 59.7442 20.2748 59.7441Z" fill="#772E25" stroke="#772E25" stroke-width="0.8"/>
<path fill-rule="evenodd" clip-rule="evenodd" d="M25.0943 58.4216C25.0179 58.4216 24.94 58.4089 24.865 58.382C24.0109 58.0765 23.0125 57.2931 23.1001 55.2941C23.1171 54.9194 23.4381 54.632 23.8086 54.6459C24.1837 54.6625 24.4733 54.9795 24.4563 55.3541C24.4013 56.61 24.8905 56.948 25.3217 57.1036C25.6753 57.2293 25.8592 57.6183 25.7334 57.9719C25.633 58.249 25.3727 58.4216 25.0943 58.4216Z" fill="#772E25" stroke="#772E25" stroke-width="0.8"/>
<path fill-rule="evenodd" clip-rule="evenodd" d="M26.9937 48.18C26.8861 48.18 26.7785 48.1548 26.6766 48.1016C24.0011 46.6905 22.6406 44.6316 22.6335 41.9823C22.6322 41.6074 22.9362 41.3028 23.3109 41.3018H23.3123C23.6858 41.3018 23.9897 41.6048 23.9912 41.9791C23.997 44.1161 25.0815 45.7259 27.3102 46.9006C27.6412 47.0754 27.7684 47.486 27.5945 47.8176C27.4729 48.0482 27.2366 48.1801 26.9937 48.18Z" fill="#772E25" stroke="#772E25" stroke-width="0.8"/>
<path fill-rule="evenodd" clip-rule="evenodd" d="M39.0891 27.2694C37.1997 27.2695 35.9283 26.5269 34.7899 25.8627C33.8778 25.3295 33.0901 24.8718 32.1058 24.8924C32.0959 24.8926 32.0846 24.8927 32.0747 24.8924C31.0933 24.8678 30.3027 25.3296 29.3892 25.8627C27.0262 27.2434 24.0832 28.9616 16.2147 23.6493C15.9036 23.4393 15.8216 23.0175 16.0309 22.7067C16.2419 22.3958 16.663 22.3142 16.9741 22.524C24.1358 27.3588 26.5622 25.9412 28.7047 24.6903C29.7003 24.1086 30.7355 23.505 32.0903 23.5349C33.4549 23.5079 34.4788 24.1089 35.4758 24.6903C37.6168 25.9411 40.045 27.3589 47.2063 22.524C47.5176 22.3143 47.9389 22.396 48.1496 22.7067C48.3589 23.0175 48.2769 23.4394 47.9658 23.6493C43.8833 26.4057 41.1268 27.2694 39.0891 27.2694Z" fill="#772E25" stroke="#772E25" stroke-width="0.8"/>
<path fill-rule="evenodd" clip-rule="evenodd" d="M27.8858 8.09337C27.9777 8.77266 28.252 9.14604 28.5418 9.22241C28.8629 9.30645 29.3338 9.08694 29.7722 8.53723C29.1502 8.39786 28.5192 8.2496 27.8858 8.09337ZM28.6962 10.6C28.5291 10.6 28.3622 10.5789 28.1968 10.5354C27.2933 10.2978 26.374 9.29028 26.5082 7.17499C26.5211 6.97319 26.6228 6.7876 26.7869 6.66871C26.9497 6.54997 27.1588 6.51017 27.3539 6.56021C28.5858 6.87534 29.8089 7.16269 30.9912 7.41351C31.1949 7.45682 31.3674 7.59159 31.4593 7.77897C31.5513 7.96611 31.5512 8.18542 31.4607 8.37304C30.7819 9.77577 29.7368 10.6001 28.6962 10.6Z" fill="#772E25" stroke="#772E25" stroke-width="0.2"/>
<path fill-rule="evenodd" clip-rule="evenodd" d="M34.408 8.53727C34.8449 9.08723 35.3172 9.30686 35.6382 9.22245C35.9283 9.14597 36.2025 8.77275 36.2944 8.09354C35.6595 8.24981 35.0301 8.39799 34.408 8.53727ZM35.4842 10.6001C34.4433 10.6001 33.3982 9.77598 32.7193 8.37325C32.6274 8.18538 32.6289 7.96624 32.7208 7.77902C32.8129 7.5916 32.9852 7.45686 33.1889 7.41356C34.3711 7.16285 35.5944 6.87579 36.8261 6.56026C37.0213 6.51009 37.2291 6.55006 37.3932 6.66875C37.5575 6.78736 37.659 6.97324 37.6718 7.17504C37.8063 9.29029 36.8869 10.2979 35.9832 10.5355C35.8179 10.5789 35.6509 10.6002 35.4842 10.6001Z" fill="#772E25" stroke="#772E25" stroke-width="0.2"/>
</svg>
