<svg width="63" height="59" viewBox="0 0 63 59" fill="none" xmlns="http://www.w3.org/2000/svg">
<path fill-rule="evenodd" clip-rule="evenodd" d="M23.3517 10.0516C23.3517 10.0516 23.3601 10.1382 23.5242 10.3318C23.7338 10.578 23.7392 10.9373 23.5397 11.1909C23.0732 11.7825 21.6533 13.5827 26.057 17.3649C26.3471 17.5938 28.1485 17.9345 31.0901 17.9345C34.0317 17.9345 35.8332 17.5939 36.1244 17.3637C40.5269 13.5827 39.107 11.7826 38.6403 11.1909C38.4412 10.9373 38.4466 10.5782 38.6559 10.3318C38.8214 10.1364 38.8284 10.0501 38.8284 10.0493C38.8115 9.96055 38.5583 9.7193 38.407 9.57522C38.3012 9.4742 38.1906 9.36989 38.0789 9.25282C37.7383 8.89577 37.3421 8.22428 37.2643 7.87097C37.0707 6.99264 37.1964 5.67367 37.929 4.85314C38.2006 4.54833 38.3292 4.28519 38.2911 4.11183C38.2375 3.87262 37.8526 3.57682 37.2586 3.32059C36.9874 3.20336 36.8485 3.20702 36.6378 3.21185C35.9351 3.22879 35.3721 3.13508 33.9693 1.73486C33.4138 1.17025 33.1689 1.29507 32.4774 1.77548C32.0803 2.05182 31.6317 2.3622 31.0901 2.31979C30.5472 2.36269 30.0987 2.05182 29.7027 1.77548C29.0113 1.29531 28.7666 1.1702 28.215 1.7308C26.8081 3.13492 26.2437 3.22997 25.5423 3.21185C25.3318 3.20698 25.1915 3.2034 24.92 3.32059C24.3275 3.5767 23.9414 3.8727 23.8891 4.11183C23.8509 4.28499 23.9796 4.54841 24.251 4.85314C24.9836 5.67408 25.1095 6.99293 24.9158 7.87097C24.8382 8.22449 24.442 8.89614 24.0998 9.25295C23.9896 9.36969 23.8791 9.47424 23.7731 9.57506C23.6218 9.71922 23.3686 9.96051 23.3517 10.0516ZM31.0903 19.2921C29.6251 19.2921 26.115 19.2046 25.1717 18.3949C21.8104 15.5068 20.8061 12.9423 22.1807 10.7632C21.6363 9.73531 22.4014 9.00671 22.8369 8.59177C22.9319 8.50184 23.0293 8.40894 23.1183 8.31535C23.3052 8.12034 23.5455 7.70073 23.5921 7.56624C23.7293 6.92631 23.5751 6.13398 23.2386 5.75694C22.6519 5.09975 22.4254 4.44784 22.564 3.8194C22.721 3.10583 23.3163 2.53516 24.3826 2.07429C24.9273 1.8391 25.3004 1.84799 25.5747 1.85465C25.886 1.86217 26.1545 1.86895 27.252 0.773957C28.6282 -0.624632 29.8314 0.211653 30.4777 0.660829C30.6433 0.776312 30.892 0.949597 30.991 0.965033C31.0563 0.955325 31.1239 0.955406 31.189 0.965033C31.2882 0.949597 31.5369 0.776353 31.7024 0.660951C32.3488 0.211694 33.5507 -0.624226 34.9323 0.778222C36.0258 1.86855 36.2928 1.86217 36.6054 1.85465C36.8798 1.84799 37.253 1.8391 37.7975 2.07429C38.864 2.53512 39.4591 3.10591 39.6161 3.8194C39.755 4.44776 39.5284 5.09979 38.9416 5.75706C38.605 6.13369 38.4508 6.92623 38.588 7.56624C38.6333 7.70045 38.8751 8.12046 39.0617 8.31519C39.151 8.4089 39.2484 8.50188 39.3432 8.59177C39.7788 9.00679 40.5438 9.73531 39.9994 10.7632C41.3739 12.9422 40.3698 15.5068 37.0084 18.3947C36.0639 19.2046 32.5551 19.2922 31.0903 19.2921Z" fill="#772e25"/>
<path fill-rule="evenodd" clip-rule="evenodd" d="M25.7981 18.6774C25.5591 18.6774 25.3257 18.5498 25.2027 18.3241C24.5565 17.1425 24.2722 14.6611 24.9665 13.443C24.722 12.3919 25.3074 11.4713 26.0993 11.0579C26.7075 10.7397 27.4937 10.6923 28.1527 11.0525C28.5218 10.6105 29.0747 10.3383 29.7054 10.329C30.2346 10.3197 30.7222 10.5032 31.0899 10.8207C31.4564 10.5033 31.9384 10.3213 32.4744 10.329C33.1053 10.3383 33.6581 10.6106 34.0272 11.0526C34.6864 10.6921 35.4724 10.7397 36.0806 11.0579C36.8711 11.4712 37.4579 12.392 37.2119 13.443C37.9077 14.6611 37.6234 17.1424 36.9771 18.3241C36.7976 18.6531 36.3846 18.7739 36.0565 18.5943C35.7272 18.4144 35.6068 18.0022 35.7864 17.6733C36.4243 16.505 36.3294 14.3778 35.9914 14.0549C35.788 13.8599 35.7255 13.5593 35.8359 13.2995C36.1119 12.6465 35.5644 12.3198 35.4512 12.2609C35.3396 12.2019 34.7583 11.9389 34.3793 12.5387C34.2282 12.7793 33.9408 12.8997 33.6637 12.8404C33.3866 12.7812 33.1744 12.555 33.1334 12.2735C33.0544 11.7231 32.5536 11.6879 32.4546 11.6865C32.3528 11.6868 31.8536 11.7057 31.7589 12.253C31.7024 12.5779 31.4194 12.8151 31.0899 12.8151C30.7606 12.8151 30.4776 12.578 30.421 12.253C30.3262 11.7057 29.8285 11.6846 29.7252 11.6865C29.6265 11.6879 29.1256 11.7233 29.0464 12.2735C29.0054 12.5548 28.7933 12.7813 28.5147 12.8404C28.2376 12.8994 27.9519 12.7794 27.8005 12.5387C27.4218 11.9388 26.8403 12.202 26.7272 12.2609C26.6155 12.3197 26.0668 12.6466 26.3439 13.2995C26.4545 13.5592 26.392 13.86 26.1884 14.0549C25.8506 14.3777 25.7557 16.505 26.3934 17.6732C26.5732 18.0021 26.4528 18.4146 26.1234 18.5943C26.0202 18.6507 25.9084 18.6775 25.7981 18.6774Z" fill="#772e25"/>
<path fill-rule="evenodd" clip-rule="evenodd" d="M11.2875 47.8232C9.81681 47.8234 6.38438 47.098 5.99406 45.8185C5.68446 44.8004 5.65464 44.7861 4.90378 44.4204C4.7595 44.3505 4.59832 44.2722 4.41439 44.1779C3.72316 43.821 3.35238 43.1099 3.31281 42.0637C3.30152 41.7426 3.19396 41.4845 2.97335 41.2512C2.91685 41.1903 2.85876 41.1316 2.80368 41.0734C2.35272 40.6069 1.84062 40.0782 1.75861 39.1601C1.71344 38.6529 1.52667 38.5021 1.2184 38.252C0.932965 38.0201 0.576402 37.7319 0.40661 37.1843C0.146683 36.3513 0.108297 34.715 0.0771411 33.4003C0.0645895 32.85 0.0517534 32.3306 0.0248223 32.1236C-0.0950881 31.1983 0.242546 30.1928 0.542403 29.3054C0.719466 28.7826 0.884627 28.2892 0.936986 27.8898C1.08281 26.7585 1.02603 24.9633 0.826662 24.3972C0.0391612 22.153 1.02749 20.2139 1.97775 18.7752C2.55346 17.9031 3.73278 16.3079 5.16249 15.4194C5.66475 15.1072 5.6858 14.8678 5.73243 14.3434C5.79328 13.6756 5.87387 12.7609 7.13528 11.9023C7.51597 11.6438 7.70945 11.249 7.68113 10.7903C7.58503 9.22414 8.60317 7.61656 10.4049 6.48992C12.0766 5.44529 14.6078 4.76353 16.968 5.75202C17.9625 3.86282 19.3014 3.53741 21.2035 3.64769C21.2799 3.65407 21.7338 3.63344 23.206 2.81787C23.5342 2.63601 23.947 2.75462 24.1294 3.08275C24.3107 3.41068 24.1916 3.82374 23.8636 4.00552C22.5571 4.72973 21.7111 5.03702 21.1243 5.00306C19.358 4.89981 18.6467 5.16303 17.9184 6.92447C17.845 7.10422 17.6964 7.24354 17.5125 7.30691C17.3289 7.37003 17.1264 7.35172 16.9568 7.25601C14.9362 6.11256 12.5515 6.74887 11.1247 7.64105C9.7716 8.48676 8.9709 9.66166 9.03593 10.707C9.09422 11.6491 8.67953 12.4937 7.9004 13.0245C7.16948 13.5218 7.13528 13.8965 7.08577 14.464C7.03073 15.0711 6.95704 15.9028 5.87951 16.5726C4.99432 17.1216 3.98593 18.1972 3.11057 19.5233C1.92572 21.3187 1.63415 22.6005 2.10794 23.9472C2.4275 24.8569 2.4247 26.9576 2.28326 28.0629C2.21558 28.5955 2.02731 29.1511 1.82933 29.7394C1.56485 30.5234 1.2905 31.3344 1.37113 31.9482C1.40676 32.2267 1.41923 32.7305 1.43336 33.3683C1.4605 34.4676 1.4984 36.1289 1.70202 36.78C1.74878 36.9289 1.85476 37.0206 2.0739 37.1974C2.44882 37.5009 3.01438 37.9599 3.11057 39.0391C3.14879 39.4606 3.35376 39.6905 3.77946 40.1298C3.83896 40.1918 3.90107 40.2549 3.96192 40.3201C4.40756 40.7935 4.64633 41.3632 4.67033 42.0135C4.68886 42.5333 4.8132 42.8555 5.03665 42.9708C5.20944 43.0596 5.36193 43.1338 5.49764 43.1997C6.46371 43.6696 6.82698 43.9104 7.27956 45.3792C7.73073 45.9025 10.7315 46.6183 11.4612 46.4596C11.8052 46.3855 12.5784 46.0135 12.8768 45.748C12.5997 45.4505 12.1669 45.1728 11.5885 44.9203C11.2451 44.7702 11.0893 44.37 11.2392 44.0265C11.3893 43.683 11.7894 43.526 12.133 43.6761C13.0537 44.0783 13.7014 44.549 14.1115 45.1152C14.3278 45.412 14.3745 45.7807 14.2429 46.1262C13.8626 47.1202 12.0142 47.7291 11.7483 47.7865C11.6353 47.8112 11.4782 47.8233 11.2875 47.8232Z" fill="#772e25"/>
<path fill-rule="evenodd" clip-rule="evenodd" d="M13.6281 46.3266C13.3535 46.3266 13.0948 46.1593 12.9915 45.8876C12.86 45.5369 13.0367 45.1452 13.3874 45.0127C14.9289 44.4305 15.5921 43.788 15.5298 43.5917C15.4835 43.4427 15.3418 42.989 14.3575 42.7207C13.9957 42.6221 13.782 42.2491 13.881 41.8873C13.9801 41.5254 14.3533 41.3125 14.7139 41.411C15.8424 41.7185 16.5523 42.3154 16.8253 43.1851C17.1845 44.3268 16.1337 45.4269 13.8669 46.2827C13.7879 46.3125 13.707 46.3267 13.6281 46.3266Z" fill="#772e25"/>
<path fill-rule="evenodd" clip-rule="evenodd" d="M18.7545 35.8816C18.6597 35.8816 18.5634 35.8618 18.4728 35.8198C18.1321 35.6635 17.9821 35.2605 18.1376 34.9197C18.4462 34.2487 19.1516 33.7845 20.2377 33.5391C20.5109 33.4325 20.7072 33.2297 20.8401 32.9206C21.1329 32.2376 21.0027 31.3223 20.8232 30.9189C20.7626 30.7825 20.2985 30.5415 19.9902 30.3822C19.1544 29.9488 18.0089 29.3553 17.76 28.0123C17.6838 27.6044 17.4164 27.2731 17.0459 26.8143C16.4154 26.0346 15.6077 25.0359 15.1015 23.0163C15.0393 23.0856 14.977 23.1512 14.9105 23.2127C14.5445 23.5553 14.5371 23.7922 14.5258 24.2226C14.5105 24.8108 14.4876 25.6128 13.3761 26.3602C13.2107 26.5264 13.2277 26.5902 13.6448 27.2449C14.1131 27.9792 14.82 29.0893 14.7097 30.8568C14.6817 31.3132 14.8738 31.7073 15.2499 31.9663C15.6092 32.2133 15.8721 32.5041 16.0305 32.7045C16.2627 32.9991 16.2101 33.426 15.916 33.6577C15.6207 33.8894 15.1947 33.8382 14.9628 33.5435C14.8824 33.4402 14.711 33.2431 14.4806 33.0851C13.707 32.553 13.2969 31.7101 13.3549 30.7723C13.4372 29.4459 12.9391 28.6641 12.4994 27.9742C12.0582 27.2815 11.4543 26.3329 12.4739 25.3427C12.5065 25.3118 12.5404 25.2842 12.5785 25.2601C13.1499 24.89 13.1555 24.6695 13.1683 24.1858C13.1824 23.6644 13.2022 22.9508 13.9842 22.2206C14.3253 21.9013 14.5781 21.349 14.7365 20.5789C14.8045 20.2502 15.1057 20.0219 15.4366 20.0376C15.7718 20.0549 16.0447 20.3146 16.0772 20.6487C16.3942 23.848 17.34 25.0196 18.1009 25.961C18.5406 26.5049 18.9564 27.0185 19.095 27.7645C19.214 28.4072 19.7739 28.741 20.6153 29.1768C21.229 29.4949 21.8088 29.7955 22.0634 30.3657C22.4057 31.1324 22.523 32.4402 22.0874 33.4559C21.8005 34.1261 21.3054 34.6018 20.6577 34.8316C20.6296 34.8411 20.6025 34.8489 20.5742 34.855C19.921 34.9975 19.4938 35.2215 19.3722 35.4856C19.2578 35.7347 19.0116 35.8817 18.7545 35.8816Z" fill="#772e25"/>
<path fill-rule="evenodd" clip-rule="evenodd" d="M50.8927 47.8232C50.7018 47.8232 50.5447 47.8113 50.4301 47.7866C50.1644 47.7289 48.3174 47.1202 47.937 46.126C47.8041 45.7807 47.8521 45.4122 48.0685 45.1152C48.4786 44.5489 49.1263 44.0781 50.0469 43.6761C50.3906 43.5259 50.7908 43.6831 50.9407 44.0265C51.0906 44.3701 50.9336 44.7703 50.5914 44.9203C50.0133 45.1727 49.5802 45.4505 49.3031 45.748C49.6015 46.0134 50.375 46.3855 50.7173 46.4597C51.4486 46.6178 54.4493 45.9026 54.899 45.3792C55.3531 43.9103 55.7163 43.6696 56.6822 43.1995C56.818 43.1336 56.9707 43.0597 57.1433 42.9707C57.3669 42.8554 57.4897 42.5334 57.5095 42.0135C57.5337 41.3631 57.7725 40.7934 58.2181 40.3201C58.2788 40.2548 58.3411 40.1919 58.4004 40.1296C58.8248 39.6903 59.0312 39.4606 59.0693 39.0391C59.1656 37.9599 59.7312 37.5009 60.106 37.1974C60.3238 37.0205 60.4312 36.9289 60.4779 36.78C60.6802 36.129 60.7197 34.4683 60.7451 33.3692C60.7607 32.7309 60.772 32.2269 60.8088 31.9483C60.8896 31.3345 60.6151 30.5237 60.3506 29.7396C60.1526 29.1513 59.9645 28.5956 59.8966 28.0629C59.754 26.9574 59.7524 24.8569 60.072 23.9472C60.546 22.6004 60.2544 21.3187 59.0693 19.5231C58.1942 18.1971 57.1842 17.1217 56.3004 16.5726C55.223 15.9028 55.1478 15.0712 55.0941 14.464C55.0435 13.8964 55.0107 13.5218 54.2795 13.0246C53.5006 12.4936 53.086 11.649 53.1439 10.707C53.2079 9.66151 52.4072 8.48677 51.0552 7.64094C49.6285 6.7488 47.244 6.11261 45.2232 7.25603C45.0536 7.35161 44.8513 7.37013 44.6674 7.30692C44.4837 7.24344 44.335 7.10427 44.2615 6.92449C43.5333 5.16312 42.8205 4.9001 41.0556 5.00308C40.4704 5.0374 39.6231 4.72999 38.3163 4.00553C37.9882 3.82367 37.8694 3.41073 38.0505 3.08276C38.2329 2.75455 38.6458 2.63631 38.9739 2.81788C40.4462 3.63341 40.9 3.65339 40.9764 3.64771C42.8772 3.53714 44.2177 3.86299 45.2118 5.75203C47.5737 4.76313 50.1034 5.44539 51.7751 6.48977C53.577 7.61637 54.5949 9.22427 54.4987 10.7903C54.4707 11.2489 54.6642 11.6439 55.0432 11.9023C56.3061 12.7608 56.3867 13.6756 56.446 14.3434C56.4928 14.8677 56.5139 15.1072 57.0174 15.4194C58.4472 16.3079 59.6266 17.9032 60.2021 18.7752C61.1527 20.2138 62.1409 22.1531 61.3533 24.3972C61.154 24.9632 61.0973 26.7585 61.2429 27.8898C61.294 28.2891 61.4607 28.7829 61.6375 29.3056C61.9361 30.1927 62.2753 31.1984 62.1551 32.1239C62.1283 32.3307 62.1155 32.8508 62.1028 33.4013C62.0716 34.7156 62.0335 36.3515 61.7732 37.1844C61.6036 37.7319 61.2472 38.0202 60.9615 38.2521C60.6519 38.502 60.4666 38.653 60.4213 39.1601C60.3394 40.0779 59.8273 40.6068 59.3763 41.0733C59.3213 41.1312 59.2631 41.1903 59.2065 41.2511C58.9862 41.4846 58.8785 41.7428 58.8657 42.0637C58.8277 43.1098 58.457 43.8212 57.7655 44.1777C57.5817 44.2721 57.4204 44.3507 57.2762 44.4204C56.5253 44.786 56.4956 44.8004 56.1844 45.8188C55.7957 47.0978 52.3633 47.8233 50.8927 47.8232Z" fill="#772e25"/>
<path fill-rule="evenodd" clip-rule="evenodd" d="M48.5526 46.3266C48.4734 46.3266 48.3925 46.3126 48.3133 46.2827C46.0465 45.4268 44.9957 44.3268 45.3534 43.1853C45.6278 42.3152 46.3377 41.7185 47.4649 41.4111C47.8269 41.3124 48.2002 41.5256 48.2992 41.8873C48.3983 42.249 48.1846 42.6221 47.8226 42.7207C46.8386 42.989 46.6969 43.4428 46.6489 43.592C46.5881 43.788 47.2513 44.4307 48.7927 45.0127C49.1435 45.145 49.3202 45.5369 49.1873 45.8876C49.0856 46.1593 48.8267 46.3267 48.5526 46.3266Z" fill="#772e25"/>
<path fill-rule="evenodd" clip-rule="evenodd" d="M45.939 33.4342C45.748 33.4461 45.311 33.7588 44.3168 35.1438C44.1841 35.3299 44.0778 35.4771 43.9873 35.5865L43.9621 35.6175C43.6085 36.0473 43.0172 36.7668 43.1219 37.2362C43.1557 37.3866 43.2717 37.5214 43.4174 37.6368C43.8303 37.1568 44.3111 36.7883 44.8316 36.6595C45.2094 36.5664 45.871 36.5345 46.5131 37.1519C47.0914 36.6762 47.4577 35.7444 47.2527 35.0879C47.0323 34.3859 46.5908 33.8294 45.939 33.4342ZM45.6306 44.3045C44.7467 44.3045 43.8756 43.6981 43.4966 43.3959C42.6848 42.7498 41.8533 41.7311 41.9509 40.8102C42.0077 40.274 42.2621 39.5007 42.6566 38.7635C42.1929 38.4213 41.9042 38.0094 41.7968 37.5329C41.5467 36.4164 42.402 35.3764 42.9139 34.755L42.9397 34.7244C43.0005 34.6492 43.0992 34.5115 43.2138 34.352C43.9916 33.27 45.2912 31.4591 46.6304 32.2657C47.5795 32.8376 48.2256 33.6507 48.548 34.6825C49.0133 36.1705 48.0658 38.1022 46.5964 38.6576C46.3023 38.769 45.9686 38.6627 45.7932 38.4005C45.4598 37.9024 45.2403 37.9573 45.1583 37.9774C44.4244 38.1589 43.4089 39.9328 43.3014 40.9529C43.2817 41.1355 43.614 41.7532 44.3423 42.3344C44.9577 42.8238 45.5245 43.0067 45.748 42.9302C46.1015 42.8085 46.4876 42.9976 46.6092 43.3521C46.7309 43.7066 46.5428 44.0928 46.1877 44.2145C46.0042 44.2773 45.8172 44.3045 45.6306 44.3045Z" fill="#772e25"/>
<path fill-rule="evenodd" clip-rule="evenodd" d="M43.4244 35.8816C43.167 35.8816 42.9222 35.7346 42.8076 35.4855C42.6862 35.2214 42.259 34.9976 41.6056 34.855C41.5773 34.8489 41.5491 34.8412 41.5222 34.8315C40.8747 34.6016 40.3795 34.126 40.0924 33.4557C39.6554 32.4399 39.7742 31.1323 40.1165 30.3657C40.371 29.7954 40.9509 29.495 41.5646 29.1768C42.4062 28.7408 42.9661 28.4071 43.0848 27.7645C43.2236 27.0184 43.6392 26.5047 44.079 25.961C44.84 25.0196 45.7859 23.8479 46.1027 20.6486C46.1354 20.3145 46.4081 20.055 46.7433 20.0375C47.0743 20.0202 47.3754 20.2501 47.4433 20.5789C47.6003 21.3489 47.8548 21.9013 48.1957 22.2206C48.9777 22.9507 48.9975 23.6645 49.0117 24.1858C49.0245 24.6694 49.03 24.89 49.6013 25.2601C49.6383 25.2841 49.6734 25.3119 49.7046 25.3427C50.7259 26.3329 50.1203 27.2815 49.6791 27.9743C49.2409 28.6641 48.7429 29.446 48.8249 30.7723C48.8829 31.7099 48.4729 32.553 47.6993 33.085C47.4689 33.2428 47.2977 33.4402 47.2171 33.5438C46.9853 33.8383 46.558 33.8891 46.2638 33.6575C45.9686 33.4255 45.9174 32.9989 46.1493 32.7042C46.3078 32.5036 46.5708 32.2131 46.93 31.9663C47.3063 31.7072 47.4984 31.3132 47.4702 30.8566C47.3601 29.0892 48.067 27.9795 48.5351 27.2449C48.9523 26.59 48.9692 26.5264 48.8038 26.3602C47.6922 25.6128 47.6695 24.8108 47.654 24.2225C47.643 23.7921 47.6357 23.5552 47.2693 23.2127C47.2032 23.1512 47.1393 23.0857 47.0784 23.0163C46.5722 25.0356 45.7647 26.0345 45.134 26.8141C44.7636 27.2728 44.4962 27.6044 44.4198 28.0122C44.1712 29.3552 43.0255 29.9488 42.1896 30.3821C41.8815 30.5414 41.4175 30.7825 41.3567 30.9189C41.1757 31.3222 41.047 32.2374 41.3398 32.9206C41.4729 33.2296 41.6693 33.4325 41.9421 33.5391C43.0286 33.7844 43.7339 34.2488 44.0408 34.9198C44.1979 35.2605 44.0479 35.6635 43.7071 35.8198C43.6153 35.8615 43.519 35.8816 43.4244 35.8816Z" fill="#772e25"/>
<path fill-rule="evenodd" clip-rule="evenodd" d="M21.5302 59C21.0227 59 20.5543 58.9137 20.1598 58.8416C19.8346 58.7821 19.5291 58.727 19.3254 58.7426C19.0015 58.7665 17.3046 58.8811 15.7065 58.7299C14.916 58.6548 12.5119 58.4258 12.2446 56.8758C12.1401 56.2635 12.1047 54.7601 12.4143 54.1903C12.5474 53.9458 12.7976 53.6351 13.1129 53.2419C13.3861 52.9017 13.8639 52.3068 14.0236 51.9948C13.5641 51.2153 13.4255 49.5263 14.9655 44.3908C15.0732 44.0315 15.4505 43.8277 15.8097 43.9353C16.1691 44.043 16.3726 44.4213 16.2651 44.7805C14.6249 50.255 15.1083 51.21 15.2229 51.3459C15.8127 52.0503 15.0518 52.9966 14.1707 54.0922C13.9487 54.3693 13.6969 54.6823 13.6136 54.8266C13.536 55.0472 13.4735 56.0062 13.5824 56.6467C13.6773 57.1912 16.1082 57.6239 19.2236 57.3878C19.6014 57.3595 19.9915 57.4316 20.4044 57.5066C21.4186 57.6931 22.3786 57.8686 23.377 56.7868C23.8536 56.2705 24.4023 56.1645 24.8421 56.0797C25.036 56.0429 25.2183 56.0076 25.3851 55.9411C25.7615 55.7926 25.7726 55.7176 25.8065 55.4928C25.8407 55.2693 25.9042 54.8522 26.3128 54.5768C27.0823 54.0589 27.0129 53.6908 26.8588 52.8842C26.7896 52.5119 26.7089 52.0902 26.7399 51.6334C26.8109 50.625 26.5462 49.8115 25.9551 49.2151C25.1079 48.3616 25.0288 46.6306 25.7585 44.9074C26.7358 42.5977 28.7353 41.2322 31.0899 41.2565C31.1099 41.2564 31.1295 41.2563 31.1493 41.2563C33.4843 41.2563 35.4526 42.617 36.4213 44.9073C37.1511 46.6303 37.0719 48.3617 36.2248 49.215C35.6339 49.8116 35.3692 50.6252 35.4385 51.6334C35.471 52.0901 35.3904 52.512 35.3197 52.8841C35.1672 53.6906 35.0977 54.059 35.867 54.5768C36.2757 54.8522 36.3393 55.2694 36.3733 55.4928C36.4075 55.7176 36.4185 55.7926 36.7947 55.9411C36.9618 56.0075 37.1441 56.0429 37.3364 56.0797C37.7776 56.1644 38.3263 56.2706 38.8028 56.7868C39.8029 57.8671 40.7601 57.6918 41.7755 57.5066C42.1887 57.4316 42.5773 57.3595 42.9562 57.3878C46.0718 57.6239 48.5027 57.1912 48.596 56.6467C48.7065 56.0061 48.6441 55.0473 48.5663 54.8266C48.4831 54.6821 48.2312 54.3692 48.0091 54.0922C47.1282 52.9965 46.3672 52.0506 46.9569 51.3459C47.0716 51.2098 47.5551 50.255 45.9148 44.7805C45.8074 44.4213 46.0109 44.043 46.3701 43.9353C46.7279 43.8277 47.1068 44.0316 47.2144 44.3908C48.7545 49.5262 48.6158 51.2152 48.1562 51.9948C48.316 52.3067 48.794 52.9017 49.0669 53.2419C49.3823 53.6351 49.6326 53.9458 49.7656 54.1905C50.0753 54.7602 50.0399 56.2635 49.9352 56.8758C49.6681 58.4258 47.2624 58.6549 46.4733 58.7299C44.8739 58.8811 43.1783 58.7666 42.8545 58.7426C42.6523 58.7269 42.3439 58.7822 42.0201 58.8416C40.941 59.0396 39.3119 59.338 37.8058 57.7074C37.6392 57.5277 37.4523 57.4854 37.0803 57.4133C36.8456 57.368 36.5797 57.3171 36.2955 57.204C35.1939 56.7683 35.0878 56.0712 35.0312 55.6979C35.0284 55.6807 35.0256 55.6611 35.0227 55.6441C33.6058 54.6393 33.8249 53.4813 33.9862 52.6312C34.0472 52.3113 34.105 52.0093 34.0851 51.7273C33.9877 50.332 34.3948 49.1326 35.2618 48.259C35.6339 47.8838 35.7044 46.6979 35.1712 45.4363C34.8872 44.7668 33.7599 42.5838 31.097 42.6144C31.0927 42.6143 31.0871 42.6144 31.0828 42.6144C31.0644 42.614 31.0475 42.6141 31.0291 42.6141C28.4072 42.614 27.29 44.7714 27.0086 45.4365C26.4755 46.6978 26.5462 47.8838 26.9181 48.259C27.7852 49.1324 28.1923 50.3319 28.0947 51.7273C28.075 52.0093 28.1329 52.3115 28.1937 52.6313C28.3551 53.4814 28.5741 54.6395 27.1571 55.6441C27.1546 55.661 27.1515 55.6808 27.1486 55.6979C27.0922 56.0712 26.986 56.7684 25.8844 57.204C25.5989 57.3171 25.3342 57.368 25.0995 57.4133C24.7277 57.4853 24.5409 57.5278 24.374 57.7074C23.418 58.7425 22.4139 59 21.5302 59Z" fill="#772e25"/>
<path fill-rule="evenodd" clip-rule="evenodd" d="M43.0939 13.7213C42.9215 13.7213 42.7487 13.656 42.6158 13.5252C42.35 13.2615 42.3471 12.8317 42.6115 12.5652C43.1789 11.9918 43.9168 10.4937 44.2124 6.61378C44.2407 6.23979 44.5674 5.96073 44.9407 5.98847C45.3142 6.01675 45.5941 6.34301 45.5658 6.71675C45.2999 10.2102 44.6494 12.4355 43.576 13.52C43.4433 13.6541 43.2691 13.7213 43.0939 13.7213Z" fill="#772e25"/>
<path fill-rule="evenodd" clip-rule="evenodd" d="M46.8006 17.4085C46.6026 17.4085 46.4058 17.3928 46.2107 17.3616C45.8403 17.302 45.5884 16.954 45.6478 16.5839C45.7073 16.2136 46.0551 15.9618 46.4256 16.0211C48.2273 16.3094 50.5917 14.3567 53.2575 10.3714C53.4653 10.06 53.8868 9.97617 54.1993 10.1846C54.5106 10.393 54.5938 10.8146 54.386 11.1262C51.5648 15.3445 49.0757 17.4085 46.8006 17.4085Z" fill="#772e25"/>
<path fill-rule="evenodd" clip-rule="evenodd" d="M60.4864 26.7452C60.4453 26.7452 60.4043 26.7416 60.3633 26.734C55.0164 25.7497 51.8966 23.7142 51.0919 20.684C50.9958 20.3214 51.2121 19.9498 51.5741 19.8537C51.9363 19.7569 52.3081 19.9732 52.4043 20.3355C53.0634 22.8143 55.8223 24.5179 60.6079 25.3987C60.977 25.4666 61.2216 25.8205 61.1538 26.1892C61.0932 26.5163 60.8073 26.7453 60.4864 26.7452Z" fill="#772e25"/>
<path fill-rule="evenodd" clip-rule="evenodd" d="M61.1259 37.6611C61.0609 37.6611 60.9942 37.6516 60.9278 37.6314C55.7096 36.0375 52.768 33.7182 52.1853 30.7377C52.1135 30.3696 52.3536 30.0132 52.7213 29.9411C53.0906 29.8691 53.4454 30.1091 53.5175 30.4769C53.9972 32.9269 56.623 34.8972 61.3237 36.3331C61.683 36.4425 61.8851 36.8219 61.7748 37.1806C61.6858 37.4729 61.417 37.6612 61.1259 37.6611Z" fill="#772e25"/>
<path fill-rule="evenodd" clip-rule="evenodd" d="M56.1678 44.9776C56.0689 44.9776 55.9682 44.9557 55.872 44.9095C52.0962 43.0793 51.8628 40.9033 52.3309 39.4001C52.4427 39.0421 52.823 38.8424 53.1809 38.954C53.5389 39.0655 53.738 39.4461 53.6263 39.8039C53.4597 40.3429 52.9476 41.9833 56.4645 43.6878C56.8025 43.8514 56.9426 44.2574 56.7799 44.5947C56.6626 44.8366 56.4193 44.9776 56.1678 44.9776Z" fill="#772e25"/>
<path fill-rule="evenodd" clip-rule="evenodd" d="M34.7345 31.4134C34.4262 31.4134 34.1474 31.2021 34.0739 30.889C33.9893 30.5237 34.2153 30.1589 34.5801 30.0736C35.8418 29.7789 37.8724 29.7436 40.7884 29.9657C41.162 29.9939 41.4417 30.3202 41.4135 30.6941C41.3853 31.0679 41.0585 31.3475 40.6851 31.3193C37.9476 31.1111 35.9986 31.1366 34.8885 31.3955C34.8376 31.4077 34.7852 31.4135 34.7345 31.4134Z" fill="#772e25"/>
<path fill-rule="evenodd" clip-rule="evenodd" d="M42.9056 58.7441C42.7895 58.7441 42.6721 58.7145 42.5646 58.6523C42.241 58.4641 42.1305 58.0484 42.3186 57.7246C43.1303 56.3259 42.7499 55.674 42.3935 55.3063C42.1321 55.0361 42.139 54.6066 42.4091 54.346C42.6778 54.0849 43.1077 54.092 43.3679 54.3614C44.0737 55.0899 44.6675 56.3825 43.4923 58.4062C43.3667 58.6224 43.1388 58.7442 42.9056 58.7441Z" fill="#772e25"/>
<path fill-rule="evenodd" clip-rule="evenodd" d="M38.0861 57.4216C37.8077 57.4216 37.5458 57.2491 37.4467 56.9719C37.3212 56.6183 37.5048 56.2295 37.8569 56.1036C38.2897 55.9479 38.7789 55.6101 38.7238 54.3542C38.7069 53.9796 38.9967 53.6626 39.3715 53.646C39.7394 53.6316 40.063 53.9194 40.08 54.294C40.1677 56.2915 39.1693 57.0766 38.3151 57.382C38.2388 57.4088 38.1624 57.4216 38.0861 57.4216Z" fill="#772e25"/>
<path fill-rule="evenodd" clip-rule="evenodd" d="M36.1867 47.18C35.9436 47.18 35.7072 47.0483 35.5856 46.8176C35.4119 46.486 35.5375 46.0755 35.8698 45.9006C38.0974 44.7261 39.1833 43.1161 39.1889 40.9789C39.1904 40.6039 39.4901 40.3031 39.8692 40.3018C40.2439 40.3028 40.5479 40.6076 40.5465 40.9823C40.5395 43.6317 39.179 45.6906 36.5034 47.1016C36.4018 47.1547 36.2941 47.1801 36.1867 47.18Z" fill="#772e25"/>
<path fill-rule="evenodd" clip-rule="evenodd" d="M13.6281 46.3266C13.3535 46.3266 13.0948 46.1593 12.9915 45.8876C12.86 45.5369 13.0367 45.1452 13.3874 45.0127C14.9289 44.4305 15.5921 43.788 15.5298 43.5917C15.4835 43.4427 15.3418 42.989 14.3575 42.7207C13.9957 42.6221 13.782 42.2491 13.881 41.8873C13.9801 41.5254 14.3533 41.3125 14.7139 41.411C15.8424 41.7185 16.5523 42.3154 16.8253 43.1851C17.1845 44.3268 16.1337 45.4269 13.8669 46.2827C13.7879 46.3125 13.707 46.3267 13.6281 46.3266Z" fill="#772e25"/>
<path fill-rule="evenodd" clip-rule="evenodd" d="M16.9286 36.6078C17.0899 36.6078 17.2324 36.6307 17.3484 36.6594C17.8688 36.7881 18.3496 37.1567 18.7626 37.6367C18.9084 37.5212 19.0242 37.3865 19.0581 37.2361C19.1629 36.7666 18.5717 36.0473 18.2181 35.6174L18.1915 35.5863C18.1024 35.4768 17.9961 35.3299 17.8631 35.1436C16.8691 33.7589 16.432 33.4462 16.2411 33.4341C15.5893 33.8295 15.1465 34.3858 14.9273 35.0879C14.7223 35.7441 15.0885 36.6762 15.6669 37.1517C16.1111 36.7241 16.5664 36.6079 16.9286 36.6078ZM16.5496 44.3044C16.3628 44.3044 16.1746 44.2772 15.9922 44.2143C15.6373 44.0926 15.4492 43.7066 15.5708 43.3519C15.6911 42.9972 16.0771 42.8083 16.432 42.9301C16.6543 43.0063 17.2225 42.8236 17.8377 42.3339C18.5663 41.7528 18.8984 41.1353 18.8785 40.953C18.7712 39.9326 17.7557 38.1588 17.0217 37.9772C16.9397 37.9569 16.7205 37.9027 16.3867 38.4004C16.2117 38.6626 15.8776 38.7687 15.5835 38.6574C14.1142 38.1019 13.1667 36.1703 13.6319 34.6825C13.9545 33.6506 14.6006 32.8375 15.5496 32.2655C16.8888 31.4589 18.1885 33.2699 18.9648 34.3518C19.0795 34.5113 19.1784 34.6491 19.2406 34.7243L19.266 34.7548C19.7767 35.3763 20.6321 36.4164 20.3818 37.5327C20.2759 38.0091 19.9872 38.4213 19.5234 38.7634C19.9179 39.5005 20.1725 40.2738 20.229 40.8101C20.3268 41.7308 19.4951 42.7495 18.6834 43.3956C18.3044 43.6977 17.4332 44.3044 16.5496 44.3044Z" fill="#772e25"/>
<path fill-rule="evenodd" clip-rule="evenodd" d="M19.0867 13.7212C18.9113 13.7212 18.7372 13.6541 18.6043 13.5199C17.531 12.4353 16.8804 10.2101 16.6145 6.71673C16.5863 6.3429 16.8663 6.01684 17.2396 5.98845C17.6131 5.96042 17.9396 6.23985 17.9679 6.61375C18.2635 10.4935 19.0017 11.9916 19.5688 12.5652C19.8334 12.8316 19.8304 13.2615 19.5645 13.5251C19.4319 13.6558 19.2591 13.7213 19.0867 13.7212Z" fill="#772e25"/>
<path fill-rule="evenodd" clip-rule="evenodd" d="M15.3801 17.4085C13.1047 17.4085 10.6157 15.3449 7.7944 11.1262C7.58513 10.8146 7.6699 10.3931 7.98105 10.1846C8.29374 9.97602 8.71363 10.06 8.92295 10.3714C11.5889 14.3567 13.9517 16.3093 15.7548 16.0211C16.1253 15.9623 16.4732 16.2137 16.5326 16.5839C16.5921 16.9539 16.3403 17.3022 15.9698 17.3616C15.7747 17.3927 15.578 17.4085 15.3801 17.4085Z" fill="#772e25"/>
<path fill-rule="evenodd" clip-rule="evenodd" d="M1.69384 26.7453C1.37278 26.7453 1.08698 26.5165 1.02613 26.1893C0.958536 25.8206 1.20295 25.4666 1.5706 25.3988C6.35787 24.5179 9.11659 22.8145 9.77565 20.3356C9.87196 19.9732 10.2438 19.7572 10.6058 19.8538C10.9681 19.9498 11.1841 20.3215 11.088 20.684C10.2834 23.7142 7.16374 25.7499 1.81672 26.734C1.77593 26.7416 1.7347 26.7453 1.69384 26.7453Z" fill="#772e25"/>
<path fill-rule="evenodd" clip-rule="evenodd" d="M1.05459 37.6611C0.763145 37.6611 0.494443 37.473 0.405364 37.1806C0.29508 36.8218 0.497246 36.4425 0.855028 36.3331C5.55603 34.8971 8.18329 32.927 8.66265 30.4769C8.73345 30.109 9.09123 29.8698 9.45888 29.9411C9.82678 30.0131 10.067 30.3697 9.9949 30.7377C9.41087 33.7181 6.46929 36.0376 1.25241 37.6313C1.186 37.6515 1.11946 37.6612 1.05459 37.6611Z" fill="#772e25"/>
<path fill-rule="evenodd" clip-rule="evenodd" d="M6.0126 44.9776C5.75965 44.9776 5.51756 44.8367 5.40013 44.5947C5.23777 44.2574 5.37754 43.8515 5.7155 43.6878C9.23263 41.9833 8.72065 40.343 8.55375 39.804C8.44228 39.446 8.6414 39.0656 8.99927 38.954C9.35709 38.8423 9.73741 39.0424 9.84912 39.4001C10.3173 40.9032 10.0839 43.0795 6.30807 44.9095C6.21208 44.9557 6.11142 44.9777 6.0126 44.9776Z" fill="#772e25"/>
<path fill-rule="evenodd" clip-rule="evenodd" d="M27.4456 31.4134C27.3947 31.4134 27.3423 31.4078 27.2899 31.3956C26.1814 31.1366 24.2325 31.1111 21.4947 31.3194C21.12 31.3471 20.7946 31.068 20.7664 30.6941C20.7382 30.3201 21.0181 29.9941 21.3915 29.9657C24.3076 29.7436 26.3382 29.7789 27.5997 30.0736C27.9646 30.1588 28.1908 30.5239 28.1059 30.889C28.0327 31.202 27.7537 31.4135 27.4456 31.4134Z" fill="#772e25"/>
<path fill-rule="evenodd" clip-rule="evenodd" d="M19.2748 58.7441C19.0415 58.7441 18.8137 58.6225 18.6878 58.4062C17.5126 56.3824 18.1066 55.09 18.8122 54.3613C19.0727 54.0917 19.5024 54.0852 19.771 54.3459C20.0413 54.6066 20.0483 55.0362 19.7866 55.3063C19.4303 55.6739 19.0499 56.3259 19.8616 57.7246C20.0499 58.0483 19.9393 58.4642 19.6155 58.6522C19.508 58.7144 19.3907 58.7442 19.2748 58.7441Z" fill="#772e25"/>
<path fill-rule="evenodd" clip-rule="evenodd" d="M24.0943 57.4216C24.0179 57.4216 23.94 57.4089 23.865 57.382C23.0109 57.0765 22.0125 56.2931 22.1001 54.2941C22.1171 53.9194 22.4381 53.632 22.8086 53.6459C23.1837 53.6625 23.4733 53.9795 23.4563 54.3541C23.4013 55.61 23.8905 55.948 24.3217 56.1036C24.6753 56.2293 24.8592 56.6183 24.7334 56.9719C24.633 57.249 24.3727 57.4216 24.0943 57.4216Z" fill="#772e25"/>
<path fill-rule="evenodd" clip-rule="evenodd" d="M25.9937 47.18C25.8861 47.18 25.7785 47.1548 25.6766 47.1016C23.0011 45.6905 21.6406 43.6316 21.6335 40.9823C21.6322 40.6074 21.9362 40.3028 22.3109 40.3018H22.3123C22.6858 40.3018 22.9897 40.6048 22.9912 40.9791C22.997 43.1161 24.0815 44.7259 26.3102 45.9006C26.6412 46.0754 26.7684 46.486 26.5945 46.8176C26.4729 47.0482 26.2366 47.1801 25.9937 47.18Z" fill="#772e25"/>
<path fill-rule="evenodd" clip-rule="evenodd" d="M38.0891 26.2694C36.1997 26.2695 34.9283 25.5269 33.7899 24.8627C32.8778 24.3295 32.0901 23.8718 31.1058 23.8924C31.0959 23.8926 31.0846 23.8927 31.0747 23.8924C30.0933 23.8678 29.3027 24.3296 28.3892 24.8627C26.0262 26.2434 23.0832 27.9616 15.2147 22.6493C14.9036 22.4393 14.8216 22.0175 15.0309 21.7067C15.2419 21.3958 15.663 21.3142 15.9741 21.524C23.1358 26.3588 25.5622 24.9412 27.7047 23.6903C28.7003 23.1086 29.7355 22.505 31.0903 22.5349C32.4549 22.5079 33.4788 23.1089 34.4758 23.6903C36.6168 24.9411 39.045 26.3589 46.2063 21.524C46.5176 21.3143 46.9389 21.396 47.1496 21.7067C47.3589 22.0175 47.2769 22.4394 46.9658 22.6493C42.8833 25.4057 40.1268 26.2694 38.0891 26.2694Z" fill="#772e25"/>
<path fill-rule="evenodd" clip-rule="evenodd" d="M26.8858 7.09337C26.9777 7.77266 27.252 8.14604 27.5418 8.22241C27.8629 8.30645 28.3338 8.08694 28.7722 7.53723C28.1502 7.39786 27.5192 7.2496 26.8858 7.09337ZM27.6962 9.60003C27.5291 9.60003 27.3622 9.57887 27.1968 9.53545C26.2933 9.29778 25.374 8.29028 25.5082 6.17499C25.5211 5.97319 25.6228 5.7876 25.7869 5.66871C25.9497 5.54997 26.1588 5.51017 26.3539 5.56021C27.5858 5.87534 28.8089 6.16269 29.9912 6.41351C30.1949 6.45682 30.3674 6.59159 30.4593 6.77897C30.5513 6.96611 30.5512 7.18542 30.4607 7.37304C29.7819 8.77577 28.7368 9.60012 27.6962 9.60003Z" fill="#772e25"/>
<path fill-rule="evenodd" clip-rule="evenodd" d="M33.408 7.53727C33.8449 8.08723 34.3172 8.30686 34.6382 8.22245C34.9283 8.14597 35.2025 7.77275 35.2944 7.09354C34.6595 7.24981 34.0301 7.39799 33.408 7.53727ZM34.4842 9.60008C33.4433 9.60008 32.3982 8.77598 31.7193 7.37325C31.6274 7.18538 31.6289 6.96624 31.7208 6.77902C31.8129 6.5916 31.9852 6.45686 32.1889 6.41356C33.3711 6.16285 34.5944 5.87579 35.8261 5.56026C36.0213 5.51009 36.2291 5.55006 36.3932 5.66875C36.5575 5.78736 36.659 5.97324 36.6718 6.17504C36.8063 8.29029 35.8869 9.29795 34.9832 9.5355C34.8179 9.57892 34.6509 9.60016 34.4842 9.60008Z" fill="#772e25"/>
</svg>
