<svg width="52" height="56" viewBox="0 0 52 56" fill="none" xmlns="http://www.w3.org/2000/svg">
<path d="M24.0094 0.105642C22.9283 0.668716 18.6715 3.24383 16.9222 4.39998C16.3366 4.7829 15.8411 5.09824 15.8261 5.09824C15.8111 5.09824 15.8937 4.64775 15.9988 4.0997C16.5018 1.6297 16.5393 1.35942 16.4493 1.08164C16.2991 0.623673 15.7059 0.30835 15.248 0.443484C15.1279 0.481023 14.5873 0.893948 14.0618 1.35942C11.3215 3.76936 11.4116 3.70179 11.314 3.5066C11.2164 3.31141 10.7059 2.99608 10.4732 2.99608C10.1428 2.99608 9.85003 3.16873 9.54974 3.54412C9.38454 3.76183 8.58125 4.7979 7.7779 5.84902C6.97461 6.90007 6.11875 8.0187 5.87851 8.32652C2.98051 12.0953 2.43245 12.9061 1.99702 14.0623C1.84688 14.4603 1.71173 14.6555 1.22372 15.1359C0.352862 15.9993 0 16.7876 0 17.9138C0 18.9798 0.330338 19.7832 1.08858 20.5264C1.8844 21.3147 2.89041 21.6901 4.23428 21.6901C5.63074 21.6901 6.7569 21.3297 8.76891 20.2411C10.2329 19.4453 10.4882 19.3477 11.1638 19.3402C11.847 19.3327 12.2975 19.5429 12.6954 20.046C13.1008 20.564 13.1834 20.8492 13.1834 21.7651C13.1834 22.4258 13.1459 22.6511 12.9732 23.1691C12.5978 24.2577 12.1999 24.8433 10.5032 26.7803C8.00315 29.6257 6.79442 31.9155 6.26889 34.7909C6.0737 35.857 6.06617 38.6273 6.26136 39.5958C6.77942 42.1709 7.81542 44.1755 9.63978 46.135L10.2104 46.7431L10.0978 47.1109C9.9176 47.6815 10.0903 49.3257 10.4507 50.557C10.6684 51.2777 11.314 52.6216 11.787 53.3198L12.1774 53.8979H9.51969C8.21333 53.8979 7.16227 53.9279 6.99714 53.9729C6.62175 54.0706 6.34393 54.3333 6.23137 54.7087C6.15627 54.9789 6.1638 55.0465 6.31394 55.3543C6.42656 55.6021 6.56917 55.7522 6.77189 55.8499C7.05718 56 7.31242 56 25.9239 56C38.4992 56 44.8806 55.97 45.0684 55.9249C45.2185 55.8799 45.4437 55.7297 45.5714 55.5796C45.7666 55.3619 45.8041 55.2568 45.8041 54.9489C45.8041 54.6411 45.7666 54.536 45.5714 54.3108C45.4287 54.1531 45.226 54.018 45.0383 53.9729C44.8356 53.9129 42.4932 53.8904 37.6358 53.8979C33.7243 53.9054 30.4359 53.9054 30.3308 53.9054L30.1281 53.8979L30.3384 53.3573C30.4585 53.057 30.5861 52.8018 30.6237 52.7867C30.6687 52.7717 31.0666 52.8168 31.517 52.8843C32.7708 53.072 35.909 53.1171 37.0952 52.9669C40.256 52.554 42.9587 51.2927 44.7981 49.3858C46.3597 47.7566 47.5233 45.4668 47.9813 43.1169C48.4093 40.9097 48.3717 39.1679 47.7936 34.8285C47.5684 33.0942 47.4332 31.7954 47.3507 30.6092L47.3281 30.1813L47.7486 30.0536C48.3567 29.8809 49.2801 29.3779 49.7081 28.9951C50.8718 27.9439 51.5775 25.9694 51.4874 24.0175C51.4048 22.3958 50.5114 16.7576 50.2787 16.3972C50.0008 15.9768 49.3477 15.8867 48.9273 16.217C48.657 16.4272 48.5369 16.69 48.4693 17.1855C48.2891 18.5894 47.4107 20.151 46.202 21.2096C44.9332 22.3283 44.205 23.1241 43.8746 23.7547C43.4467 24.5805 43.3041 25.1736 43.2965 26.0821C43.2965 27.1782 43.6119 28.0866 44.2875 28.9425C44.5804 29.3179 44.5804 29.3254 44.4827 29.6182C44.0248 30.9921 43.7921 32.1407 43.4392 34.6183C43.2965 35.6618 43.1013 36.9532 43.0188 37.4937C42.4932 40.7895 41.1644 43.0043 39.0472 44.0929C37.4781 44.9037 35.7063 44.9938 33.5666 44.3557C32.7858 44.1304 31.8399 43.7325 31.8399 43.635C31.8399 43.6049 31.9975 43.4923 32.2002 43.3872C32.8309 43.0568 34.7228 41.7655 35.1282 41.3826C35.4736 41.0523 35.5186 40.9847 35.5186 40.707C35.5186 40.4517 35.4736 40.3616 35.2859 40.204C35.1583 40.0988 35.0156 40.0087 34.9706 40.0087C31.8099 39.9637 30.5786 39.791 28.5365 39.1078C27.508 38.7625 26.4494 38.2744 25.8187 37.8541C25.3758 37.5537 24.7452 36.8555 24.8428 36.773C24.9479 36.6753 25.9614 36.3225 26.8623 36.0672C27.6506 35.8495 28.5741 35.6468 29.6927 35.4666C30.0756 35.4066 30.3384 35.1363 30.3384 34.8059C30.3384 34.4456 29.9855 34.1002 28.7918 33.3119C27.6731 32.5687 26.2017 31.7879 24.8428 31.2173C24.3097 30.9996 23.8818 30.7894 23.8818 30.7593C23.8818 30.6692 24.9479 29.971 25.5185 29.6857C26.7122 29.0926 27.8683 28.8674 28.8819 29.0401C29.1672 29.0926 29.7302 29.2653 30.1357 29.4305C30.969 29.7608 31.1342 29.7834 31.5246 29.5806C31.9074 29.3854 32.0952 29.0251 32.0426 28.5896C31.9074 27.5836 31.9 26.9755 32.0201 26.495C32.3504 25.2112 33.5066 24.1451 34.8805 23.8673C35.7739 23.6796 36.7949 23.8598 37.8385 24.3929C38.2514 24.5956 38.3866 24.6331 38.7319 24.603C39.0547 24.5731 39.1749 24.5205 39.3551 24.3403C39.6703 24.0325 39.7079 23.6646 39.4977 22.9664C38.8145 20.6916 39.7905 18.4243 41.8926 17.4108C42.4707 17.133 43.1464 16.9603 43.702 16.9603C44.4903 16.9603 45.0008 16.6675 45.0984 16.157C45.1659 15.7891 45.0984 15.6164 44.6404 15.0008C44.1299 14.3176 43.762 13.5819 43.5443 12.7936C43.3341 12.0353 43.319 10.6013 43.5068 9.79048C44.0022 7.66584 45.3836 5.27091 47.3431 3.13874C47.8687 2.56815 47.9813 2.28286 47.8387 1.84742C47.7411 1.55462 47.5083 1.31437 47.208 1.20176C46.69 1.00656 46.3521 1.15671 45.5038 1.98255C44.1749 3.25883 43.1464 3.9195 39.7604 5.66129C36.0592 7.56075 34.3399 8.67185 32.2152 10.5488C30.023 12.4782 28.1161 14.9182 26.6821 17.621C26.2692 18.3867 26.1867 18.4994 25.7512 18.8147C24.9178 19.4228 24.0244 20.2111 23.0785 21.1946L22.155 22.1481V20.6991C22.155 18.3117 21.8022 16.0744 21.0665 13.8296C20.8412 13.1389 20.6535 12.5683 20.6535 12.5608C20.6535 12.5233 24.1521 10.5413 25.4884 9.82054C26.4719 9.29501 26.6596 9.09229 26.6596 8.58928C26.6596 8.05622 26.2166 7.57574 25.7287 7.57574C25.6311 7.57574 25.1431 7.72589 24.6551 7.90608C23.4614 8.35651 20.8787 9.18238 20.8337 9.12981C20.8112 9.11481 21.0139 8.76195 21.2766 8.35651C21.7121 7.68084 23.0484 5.47363 24.6175 2.84593C25.4659 1.41948 25.5635 1.19425 25.5035 0.871424C25.3758 0.195734 24.6025 -0.202171 24.0094 0.105642ZM21.2091 4.54266C21.0514 4.79043 20.7211 5.30843 20.4658 5.69881C20.2106 6.08926 19.7226 6.84749 19.3697 7.38808C18.4688 8.78447 16.6219 11.5323 16.3066 11.9452C16.0663 12.2605 15.8861 12.3731 14.745 12.9437C13.3786 13.6194 13.1759 13.7846 13.0933 14.2876C13.0032 14.8356 13.5888 15.5338 14.1294 15.5338C14.302 15.5338 17.5228 14.0623 18.2736 13.6344L18.6265 13.4467L18.7766 13.7771C19.0318 14.3702 19.4598 15.7741 19.655 16.66C20.0379 18.4768 20.1505 20.9243 19.9403 22.8913C19.7601 24.6256 19.61 25.4664 19.4598 25.6316C19.3847 25.7142 18.694 26.6376 17.9207 27.6887C16.742 29.2953 16.5243 29.6332 16.5243 29.8509C16.5243 30.2188 16.727 30.5942 17.0123 30.7744C17.5979 31.1347 18.0934 30.9696 18.709 30.2038C19.0844 29.7308 19.8727 28.6797 21.7421 26.1572C23.7692 23.4244 25.6386 21.4949 27.478 20.2637C27.8533 20.0159 27.981 19.8733 28.1011 19.5955C28.6642 18.2441 29.7077 16.5474 30.8714 15.0759C31.6597 14.0773 33.3114 12.3881 34.2799 11.5998C36.1492 10.0683 37.6057 9.15233 40.4586 7.71836C41.4947 7.19283 42.3506 6.77992 42.3506 6.79498C42.3506 6.81744 42.268 6.99017 42.1704 7.18536C41.5698 8.37903 41.1494 10.4962 41.2545 11.8401C41.337 12.9662 41.5323 13.6945 42.0953 14.9783C42.1178 15.0233 41.8851 15.1284 41.5698 15.226C40.4436 15.5714 39.1823 16.5173 38.4166 17.5984C37.6883 18.6195 37.2604 19.8057 37.1928 21.0444L37.1478 21.7802L36.8024 21.7427C35.0982 21.5249 34.2498 21.6526 32.9585 22.2982C31.2243 23.1616 30.0981 24.7532 29.7753 26.8028L29.7377 27.0655L29.1897 26.9755C26.0665 26.4199 22.7406 28.1842 19.0544 32.351C18.6339 32.8239 18.2286 33.2819 18.1459 33.3645C18.0709 33.4471 17.9583 33.6273 17.8982 33.7699C17.5904 34.4981 18.3862 35.369 19.152 35.1363C19.4748 35.0387 19.5349 34.9861 20.5709 33.8675C20.9989 33.4095 21.3817 33.0266 21.4118 33.0266C21.4493 33.0266 21.4794 33.0942 21.4794 33.1693C21.4794 33.4471 21.9899 35.3315 22.2677 36.0672C22.8458 37.6138 23.589 38.9427 24.6701 40.3916C26.547 42.9067 28.8368 44.7385 31.5771 45.9022C33.2889 46.6305 35.0006 46.9683 36.5997 46.8932C39.768 46.7355 42.3731 44.9788 43.8896 41.9607C44.265 41.2175 44.7755 39.6408 44.9633 38.6574C45.0533 38.2219 45.226 37.1258 45.3537 36.2174C45.4813 35.3089 45.6014 34.5582 45.6164 34.5432C45.6689 34.4907 45.9767 36.7429 46.1044 38.0943C46.675 44.3481 44.1299 48.7927 39.0622 50.3993C36.9751 51.0525 33.9945 51.2026 31.5621 50.7672L30.8639 50.6471V50.114C30.8639 49.3483 30.6612 47.9819 30.526 47.7641C30.1957 47.2686 29.4225 47.1485 29.017 47.5239C28.6041 47.9068 28.5816 48.0419 28.6867 49.2131C28.9119 51.6456 28.3563 53.545 27.3428 53.8228C26.9449 53.9279 26.6146 53.8378 26.1491 53.5C25.2407 52.8318 24.2797 51.2627 23.8442 49.7311C23.5589 48.7401 23.4839 47.8167 23.589 46.653C23.6716 45.7746 23.664 45.6545 23.5515 45.4368C23.1986 44.7461 22.1925 44.716 21.7796 45.3767C21.5019 45.8272 21.3517 47.689 21.5019 48.8453C21.5544 49.2431 21.5469 49.3182 21.4493 49.3182C21.2015 49.3182 19.4523 48.6951 18.709 48.3347C16.0588 47.0734 13.9192 44.7986 13.0257 42.2911C12.5002 40.827 12.275 39.0853 12.3951 37.4787C12.5153 35.9621 12.7404 34.9937 13.3185 33.5897C13.4987 33.1392 13.6264 32.7263 13.6188 32.5611C13.6038 31.8029 12.7179 31.3524 12.0873 31.7654C11.5843 32.1032 10.7659 34.1303 10.4657 35.7669C10.3606 36.3675 10.3305 36.9006 10.3305 38.3946C10.3305 40.4592 10.4131 41.0523 10.9011 42.5238C11.2014 43.4548 12.0723 45.174 12.6279 45.9398C13.1084 46.6079 13.0858 46.6005 12.1323 45.7145C10.1203 43.8677 8.91159 41.8706 8.40106 39.5583C8.17581 38.5673 8.16082 36.1348 8.36354 35.0162C8.79897 32.6663 9.90254 30.6542 12.0798 28.2368C13.5288 26.6376 14.0693 25.8869 14.6249 24.7232C15.5033 22.8613 15.5633 20.8192 14.7825 19.3402C14.4447 18.7095 13.6789 17.9438 13.0858 17.651C12.4101 17.3207 11.5993 17.1555 10.9161 17.2155C9.80498 17.3056 9.39954 17.4633 6.90704 18.7846C5.83346 19.3552 5.06763 19.588 4.24934 19.588C2.94299 19.588 2.10964 18.9423 2.10964 17.9288C2.10964 17.3732 2.33489 16.9603 2.88294 16.5023C3.46105 16.0219 3.57361 15.8567 4.0241 14.7981C4.6172 13.4092 5.12773 12.726 6.11875 11.9828C7.91305 10.6614 10.1053 10.0608 12.0948 10.3536C12.6729 10.4362 12.6054 10.4812 14.0918 9.18991C15.2105 8.2139 16.3441 7.38055 18.2886 6.08926C19.8277 5.06819 21.4268 4.06218 21.4644 4.09217C21.4794 4.0997 21.3592 4.30242 21.2091 4.54266ZM13.5213 5.69881C13.2585 6.87002 13.2059 7.03522 13.0107 7.20036C12.8981 7.30545 12.5978 7.56075 12.3576 7.77846C11.9447 8.13879 11.8921 8.16132 11.6068 8.1238C11.299 8.08628 9.72987 8.21389 9.39954 8.30399C9.18935 8.35651 9.52722 8.0337 11.1113 6.67483C11.6669 6.20182 12.4927 5.48862 12.9507 5.09071C13.4086 4.6928 13.7916 4.36999 13.799 4.37746C13.8066 4.38499 13.6789 4.97809 13.5213 5.69881ZM49.1826 22.4484C49.3477 23.4844 49.3852 24.9034 49.2501 25.534C49.0699 26.3899 48.4393 27.4109 47.9137 27.6887C47.7636 27.7713 47.7636 27.7638 47.8762 27.4935C48.184 26.7653 47.5158 25.9319 46.7426 26.0745C46.4047 26.1421 45.9693 26.5175 45.8041 26.8929L45.6689 27.1857L45.5413 26.7953C45.4437 26.51 45.4212 26.2547 45.4437 25.8643C45.5038 24.971 45.8942 24.3703 47.0729 23.3943C47.8236 22.7712 48.4618 22.1481 48.7621 21.7427C48.8822 21.585 48.9873 21.4724 49.0024 21.4874C49.0174 21.5024 49.0999 21.9304 49.1826 22.4484ZM12.9732 48.8677C13.9342 49.3933 14.8877 49.7987 16.0889 50.1816L16.9673 50.4669L17.0198 50.8648C17.1249 51.7507 16.7045 53.2372 16.239 53.6051C15.9612 53.8228 15.5558 53.9054 15.233 53.8153C14.5648 53.6351 13.5663 52.5014 12.9582 51.2477C12.5978 50.4969 11.9897 48.4173 12.1323 48.4173C12.1473 48.4173 12.5302 48.62 12.9732 48.8677ZM20.5334 51.2627C21.1941 51.4278 21.8622 51.578 22.0049 51.6005C22.2376 51.638 22.2977 51.6981 22.5304 52.1486C22.6731 52.4264 22.9734 52.9219 23.1911 53.2522C23.4013 53.5825 23.5815 53.8603 23.5815 53.8754C23.5815 53.8904 22.4478 53.8979 21.0665 53.8979H18.5589L18.7015 53.56C18.9343 53.012 19.0844 52.3438 19.1295 51.6306C19.152 51.2702 19.2045 50.9699 19.2496 50.9699C19.2871 50.9699 19.8652 51.105 20.5334 51.2627Z" fill="#772e25"/>
<path d="M6.59176 13.8896C5.58575 14.5352 5.39802 14.6854 5.27041 14.9557C5.01517 15.4887 5.22536 16.0593 5.75089 16.292C6.05123 16.4272 6.10375 16.4272 6.38904 16.3296C6.5617 16.2695 7.16234 15.9166 7.73291 15.5413C8.82902 14.8131 9.01674 14.5953 9.01674 14.0848C9.01674 13.7695 8.78397 13.3941 8.49868 13.244C8.04073 13.0112 7.84554 13.0788 6.59176 13.8896Z" fill="#772e25"/>
</svg>
