<svg width="66" height="66" viewBox="0 0 66 66" fill="none" xmlns="http://www.w3.org/2000/svg">
<path d="M31.5261 28.5095C31.4559 28.5094 31.3861 28.5006 31.3181 28.4833C29.5514 28.0335 27.9647 26.8061 26.8514 25.0264C26.4613 24.403 26.1412 23.7384 25.8971 23.0447C25.0162 20.531 25.0167 17.7925 25.8985 15.2791C26.5709 13.3906 27.7421 11.8025 29.1991 10.81C30.2738 10.0606 31.5504 9.65471 32.8606 9.64575C35.4136 9.64575 37.7836 11.2218 39.1992 13.8618C39.423 14.2755 39.6166 14.7049 39.7785 15.1465C40.7249 17.7432 40.7242 20.5906 39.7765 23.1869C39.7693 23.2059 39.7613 23.2246 39.7525 23.2428C39.5598 23.7574 39.3255 24.2553 39.0518 24.7317C37.9685 26.6089 36.3802 27.9257 34.5791 28.4369C34.4729 28.4671 34.3618 28.4761 34.2522 28.4634C34.1425 28.4507 34.0365 28.4165 33.9401 28.3627C33.8436 28.309 33.7587 28.2368 33.6902 28.1503C33.6217 28.0638 33.5709 27.9646 33.5407 27.8584C33.5105 27.7523 33.5015 27.6412 33.5142 27.5315C33.527 27.4219 33.5612 27.3158 33.6149 27.2194C33.6686 27.123 33.7408 27.0381 33.8273 26.9696C33.9138 26.901 34.013 26.8502 34.1192 26.82C35.4976 26.4281 36.7322 25.3883 37.5958 23.8919C37.8325 23.4797 38.0339 23.0483 38.1978 22.6021C38.2052 22.5819 38.2132 22.5621 38.2218 22.5426C39.0077 20.3389 39.0007 17.9301 38.2019 15.7311C38.0672 15.3629 37.906 15.005 37.7195 14.6602C36.5994 12.5724 34.7837 11.3277 32.8606 11.3277C31.8881 11.3331 30.9408 11.6372 30.1469 12.199C28.8984 13.1052 27.966 14.3807 27.4813 15.8454C26.7301 17.9938 26.7301 20.3336 27.4813 22.482C27.6845 23.0605 27.9511 23.6147 28.2762 24.1345C29.1604 25.5465 30.3883 26.5119 31.7343 26.8551C31.933 26.9054 32.1065 27.0266 32.2221 27.1958C32.3377 27.365 32.3875 27.5707 32.3621 27.7741C32.3367 27.9775 32.2378 28.1646 32.0841 28.3002C31.9304 28.4358 31.7325 28.5105 31.5275 28.5104L31.5261 28.5095Z" fill="#772e25"/>
<path d="M25.6816 23.8265C23.5696 23.8265 21.8513 21.7344 21.8513 19.1627C21.8513 16.5909 23.5696 14.4988 25.6816 14.4988C26.1495 14.4997 26.6118 14.6012 27.037 14.7963C27.1376 14.8419 27.2281 14.9068 27.3036 14.9874C27.379 15.068 27.4379 15.1626 27.4767 15.2659C27.5156 15.3692 27.5338 15.4792 27.5301 15.5895C27.5265 15.6998 27.5012 15.8084 27.4556 15.9089C27.41 16.0095 27.3451 16.1 27.2645 16.1755C27.184 16.2509 27.0893 16.3098 26.986 16.3486C26.8827 16.3875 26.7727 16.4056 26.6624 16.402C26.5521 16.3984 26.4435 16.3731 26.343 16.3275C26.1357 16.2315 25.9101 16.1811 25.6816 16.1798C24.5165 16.1798 23.5323 17.5458 23.5323 19.1627C23.5323 20.7796 24.5169 22.1455 25.6816 22.1455C25.9102 22.1442 26.1358 22.0939 26.3432 21.9978C26.4438 21.9523 26.5523 21.927 26.6627 21.9234C26.773 21.9198 26.883 21.938 26.9863 21.9769C27.0896 22.0158 27.1842 22.0747 27.2647 22.1501C27.3453 22.2256 27.4102 22.3162 27.4557 22.4168C27.5013 22.5173 27.5266 22.6258 27.5301 22.7362C27.5337 22.8465 27.5156 22.9565 27.4767 23.0598C27.4378 23.1631 27.3789 23.2577 27.3034 23.3382C27.2279 23.4188 27.1373 23.4837 27.0368 23.5292C26.6116 23.7242 26.1494 23.8256 25.6816 23.8265Z" fill="#772e25"/>
<path d="M39.6472 23.8266C39.3436 23.8267 39.0416 23.7831 38.7505 23.6971C38.5367 23.634 38.3568 23.4885 38.2503 23.2926C38.1438 23.0968 38.1195 22.8667 38.1827 22.6529C38.2458 22.4391 38.3914 22.2592 38.5872 22.1527C38.783 22.0462 39.0132 22.0219 39.2269 22.0851C39.3634 22.1252 39.5049 22.1455 39.6472 22.1453C40.8124 22.1453 41.7965 20.7794 41.7965 19.1625C41.7965 17.5456 40.8119 16.1796 39.6472 16.1796C39.5049 16.1795 39.3634 16.1999 39.2269 16.2401C39.0132 16.3033 38.783 16.279 38.5872 16.1725C38.3914 16.066 38.2458 15.8861 38.1827 15.6723C38.1195 15.4585 38.1438 15.2284 38.2503 15.0326C38.3568 14.8367 38.5367 14.6912 38.7505 14.628C39.0416 14.542 39.3436 14.4984 39.6472 14.4986C41.7593 14.4986 43.4775 16.5908 43.4775 19.1625C43.4775 21.7342 41.7581 23.8266 39.6472 23.8266Z" fill="#772e25"/>
<path d="M27.0516 42.2118C25.0584 42.2118 22.3496 41.2874 20.6369 39.179C19.5579 37.8509 18.4515 35.5158 19.3019 31.9328C20.986 24.8458 27.1696 23.7918 27.4318 23.75C27.6516 23.7157 27.8761 23.77 28.056 23.9009C28.2359 24.0318 28.3565 24.2287 28.3915 24.4484C28.4264 24.6681 28.3729 24.8928 28.2425 25.073C28.1121 25.2533 27.9156 25.3746 27.696 25.4102C27.4733 25.4469 22.3534 26.3602 20.9368 32.3216C20.3804 34.6635 20.718 36.6142 21.9411 38.1192C23.3339 39.8348 25.6314 40.5687 27.1763 40.5293C29.2593 40.4731 34.2688 37.8185 37.18 36.1346C35.9152 35.6469 33.9458 35.1001 31.9499 35.3849C28.3749 35.8957 26.3014 36.4115 26.281 36.4175C26.0648 36.4719 25.8359 36.4381 25.6446 36.3237C25.4533 36.2092 25.3152 36.0235 25.2609 35.8073C25.2065 35.5911 25.2403 35.3622 25.3547 35.1708C25.4691 34.9795 25.6549 34.8415 25.8711 34.7872C25.958 34.7653 28.0401 34.2461 31.7122 33.7214C35.6249 33.1619 39.2549 35.223 39.4076 35.3112C39.5339 35.3839 39.639 35.4883 39.7127 35.6139C39.7865 35.7396 39.8263 35.8823 39.8282 36.028C39.8302 36.1737 39.7942 36.3174 39.7239 36.445C39.6536 36.5726 39.5513 36.6797 39.4271 36.7559C38.5318 37.3046 30.5832 42.1198 27.2219 42.2106C27.1655 42.2108 27.1088 42.2118 27.0516 42.2118Z" fill="#772e25"/>
<path d="M39.2692 43.0074C35.0724 43.0074 32.3713 40.1088 32.2399 39.965C32.0895 39.8004 32.0106 39.5829 32.0206 39.3602C32.0306 39.1375 32.1287 38.9279 32.2932 38.7775C32.4578 38.6271 32.6753 38.5482 32.898 38.5582C33.1207 38.5682 33.3303 38.6662 33.4807 38.8308C33.6179 38.9792 36.6608 42.1957 41.1342 41.0956C43.0109 40.6338 44.5368 38.1838 44.7623 35.2701C44.8918 33.5987 44.7863 27.9248 37.9969 25.0879C37.8951 25.0454 37.8026 24.9831 37.7248 24.9048C37.647 24.8265 37.5854 24.7337 37.5435 24.6315C37.5016 24.5294 37.4802 24.42 37.4805 24.3097C37.4809 24.1993 37.503 24.09 37.5456 23.9882C37.5882 23.8863 37.6504 23.7939 37.7287 23.7161C37.807 23.6383 37.8998 23.5767 38.002 23.5347C38.1041 23.4928 38.2135 23.4714 38.3239 23.4718C38.4342 23.4722 38.5435 23.4943 38.6453 23.5368C44.8673 26.1369 46.7505 31.3697 46.4385 35.4C46.154 39.0743 44.1379 42.0876 41.536 42.7279C40.7944 42.9122 40.0333 43.0061 39.2692 43.0074Z" fill="#772e25"/>
<path d="M29.9956 61C29.9741 61 29.9525 60.9992 29.9307 60.9976C23.6389 60.5134 20.1275 56.2818 19.3031 53.5554C18.8521 52.0641 19.0869 50.8214 19.9515 50.1454C20.7026 49.6076 21.5172 49.1647 22.3769 48.8267C24.0366 48.0938 25.47 47.461 25.8675 45.5658C26.4352 42.8581 24.1082 41.6459 24.0087 41.5957C23.812 41.495 23.6629 41.3209 23.5936 41.111C23.5243 40.9011 23.5405 40.6725 23.6386 40.4744C23.7367 40.2764 23.9088 40.125 24.1178 40.0529C24.3267 39.9809 24.5556 39.994 24.7549 40.0895C26.0022 40.7033 28.1839 42.7097 27.5125 45.9109C26.938 48.6505 24.7854 49.601 23.0556 50.3646C22.3246 50.6493 21.6301 51.0201 20.987 51.4693C20.7168 51.6806 20.6868 52.3233 20.912 53.0682C21.48 54.9459 23.807 57.8788 27.8523 58.9503C26.6561 57.3173 25.4395 54.9202 26.7853 53.1037C27.8885 51.6148 30.2689 51.2969 32.7889 50.9609C34.9503 50.6727 37.1865 50.3745 38.4658 49.3618C40.579 47.6894 40.2813 43.6187 39.9883 42.1915C39.9653 42.0831 39.964 41.9712 39.9845 41.8623C40.005 41.7534 40.0468 41.6496 40.1075 41.5569C40.1682 41.4642 40.2466 41.3844 40.3383 41.3221C40.43 41.2599 40.5331 41.2163 40.6416 41.1941C40.7502 41.1718 40.8621 41.1712 40.9709 41.1923C41.0796 41.2135 41.1832 41.2559 41.2755 41.3172C41.3678 41.3785 41.4471 41.4575 41.5088 41.5495C41.5705 41.6416 41.6134 41.7449 41.635 41.8536C41.6864 42.1046 42.8575 48.0297 39.509 50.6802C37.8668 51.9798 35.3984 52.3091 33.0111 52.6273C30.9487 52.9025 28.816 53.1868 28.1361 54.1047C27.0687 55.5455 29.6097 58.6021 30.5839 59.5591C30.7032 59.676 30.785 59.8257 30.8188 59.9892C30.8526 60.1527 30.837 60.3226 30.7738 60.4772C30.7107 60.6318 30.603 60.7641 30.4644 60.8572C30.3258 60.9503 30.1626 61 29.9956 61Z" fill="#772e25"/>
<path d="M39.9057 15.2685C39.3552 15.2658 38.8067 15.2014 38.2705 15.0764C38.055 15.0251 37.8684 14.8909 37.7514 14.7028C37.6343 14.5147 37.5962 14.288 37.6454 14.072C37.6946 13.856 37.8271 13.6682 38.014 13.5493C38.201 13.4305 38.4273 13.3902 38.6437 13.4374C41.3605 14.0553 43.0672 12.6156 44.0631 11.156C43.919 11.1944 43.7684 11.228 43.6121 11.2542C41.6093 11.5976 39.349 10.8246 36.8935 8.95672C35.413 7.83044 34.1467 7.44885 33.1293 7.82347C31.2295 8.52326 30.4987 11.6514 30.492 11.6829C30.4445 11.9007 30.3124 12.0907 30.1248 12.2112C29.9372 12.3316 29.7095 12.3726 29.4916 12.3251C29.2738 12.2776 29.0838 12.1456 28.9633 11.958C28.8429 11.7704 28.8019 11.5426 28.8494 11.3248C28.8854 11.1598 29.7619 7.2721 32.5476 6.2462C34.1388 5.66 35.9433 6.1218 37.9106 7.61887C39.9518 9.17141 41.8249 9.85583 43.3268 9.59743C44.1262 9.47278 44.849 9.05109 45.351 8.41663C45.461 8.25005 45.6268 8.12808 45.8186 8.07256C46.0103 8.01704 46.2156 8.0316 46.3976 8.11362C46.5796 8.19564 46.7265 8.33978 46.812 8.52022C46.8974 8.70066 46.9158 8.90563 46.8639 9.09841C46.2398 11.3976 44.034 15.2685 39.9057 15.2685Z" fill="#772e25"/>
<path d="M32.9023 33.3018H32.8975C32.7159 33.3008 32.5395 33.241 32.3948 33.1313C32.25 33.0217 32.1447 32.8681 32.0945 32.6935L30.3109 26.4881C30.2361 26.2278 30.2228 25.9536 30.2721 25.6872C30.3214 25.4208 30.4319 25.1695 30.5949 24.9531C30.7579 24.7367 30.9689 24.5611 31.2114 24.4402C31.4538 24.3193 31.721 24.2564 31.9919 24.2565H33.8891C34.1617 24.2565 34.4305 24.3202 34.674 24.4425C34.9176 24.5648 35.1292 24.7424 35.292 24.9611C35.4547 25.1797 35.5641 25.4334 35.6114 25.7018C35.6587 25.9702 35.6426 26.246 35.5644 26.5071L33.7088 32.7029C33.6567 32.8762 33.5502 33.0282 33.4049 33.1361C33.2596 33.244 33.0833 33.3021 32.9023 33.3018ZM31.9917 25.9373C31.9812 25.9373 31.9709 25.9397 31.9615 25.9444C31.9521 25.9491 31.9439 25.9559 31.9376 25.9642C31.9313 25.9726 31.927 25.9824 31.9251 25.9927C31.9232 26.003 31.9237 26.0136 31.9266 26.0237L32.9192 29.4763L33.953 26.0242C33.956 26.0141 33.9566 26.0034 33.9548 25.993C33.953 25.9826 33.9488 25.9728 33.9425 25.9643C33.9362 25.9558 33.928 25.949 33.9185 25.9442C33.9091 25.9395 33.8987 25.937 33.8881 25.937L31.9917 25.9373Z" fill="#772e25"/>
</svg>
