<svg width="59" height="61" viewBox="0 0 59 61" fill="none" xmlns="http://www.w3.org/2000/svg">
<path d="M12.7436 50.5161C12.5534 50.6586 12.4053 50.8496 12.315 51.0689C12.2246 51.2883 12.1953 51.5278 12.2301 51.7623C12.2649 51.9969 12.3626 52.2177 12.5128 52.4016C12.663 52.5855 12.8603 52.7256 13.0838 52.8072C13.2068 52.852 15.683 53.7195 18.4331 53.2396C18.9215 54.6106 20.286 56.149 23.3723 56.9729C26.9456 57.9234 28.4781 58.7302 28.4887 58.7354C28.6416 58.8362 28.8139 58.9042 28.9946 58.9351C29.1753 58.9661 29.3605 58.9593 29.5384 58.9152C29.7163 58.8711 29.8831 58.7906 30.0281 58.6789C30.1732 58.5672 30.2934 58.4268 30.3811 58.2664C30.4688 58.106 30.522 57.9292 30.5375 57.7472C30.553 57.5653 30.5304 57.3821 30.471 57.2093C30.4117 57.0365 30.3169 56.8778 30.1928 56.7434C30.0687 56.609 29.9179 56.5018 29.75 56.4285C29.6798 56.3903 27.9765 55.4793 24.0591 54.434C21.3553 53.7142 20.7756 52.4895 20.8577 51.8594C20.9261 51.6309 20.9271 51.3877 20.8607 51.1587C20.7943 50.9297 20.6633 50.7245 20.4832 50.5675C20.2954 50.4036 20.0649 50.296 19.8183 50.257C19.5717 50.2181 19.3191 50.2494 19.0896 50.3474C18.2438 50.6593 17.3434 50.7974 16.4427 50.7534C19.3926 47.6331 20.0822 44.3559 20.1152 44.1898C20.1549 43.9869 20.1461 43.7776 20.0895 43.5788C20.033 43.3799 19.9303 43.1971 19.7898 43.0451C19.6493 42.893 19.4748 42.776 19.2805 42.7035C19.0863 42.631 18.8776 42.605 18.6714 42.6276C17.924 42.7148 17.1689 42.7148 16.4215 42.6276C19.0525 40.0069 19.3688 36.8471 19.3834 36.6849C19.3978 36.523 19.3821 36.3599 19.3371 36.2037C18.4358 33.0966 15.2913 31.4369 15.1576 31.3671C14.9813 31.2767 14.7869 31.2269 14.5887 31.2215C14.3906 31.216 14.1937 31.2549 14.0126 31.3354C13.8316 31.4159 13.671 31.5359 13.5428 31.6865C13.4145 31.837 13.3219 32.0144 13.2717 32.2055C11.1912 40.2337 1.76959 39.2872 1.36196 39.2463C1.03045 39.2367 0.707397 39.3514 0.456754 39.5677C0.206112 39.7841 0.0461526 40.0863 0.00854131 40.4145C-0.0290699 40.7427 0.0584088 41.073 0.25366 41.3401C0.448912 41.6071 0.737704 41.7914 1.06287 41.8564C3.17142 42.0336 5.29482 41.8399 7.33602 41.2843C11.1396 40.2297 13.8342 37.9425 15.2238 34.635C15.7902 35.1412 16.3977 35.8373 16.7127 36.6902C16.4989 37.8054 16.0451 38.8613 15.3825 39.7852C14.72 40.7091 13.8644 41.4792 12.8747 42.0423C12.6741 42.1591 12.5079 42.3263 12.3928 42.5273C12.2777 42.7283 12.2177 42.956 12.2189 43.1874C12.2201 43.4187 12.2825 43.6457 12.3997 43.8455C12.5169 44.0453 12.6848 44.2109 12.8866 44.3255C12.9646 44.369 14.4747 45.1982 16.9509 45.309C16.0236 47.3775 14.5741 49.1715 12.7436 50.5161Z" fill="#772E25"/>
<path d="M27.479 47.3891C29.2246 48.9961 32.5981 51.4981 37.9342 53.0932C45.3058 55.296 49.4747 60.3687 49.5144 60.4175C49.7423 60.6588 50.0531 60.8058 50.3849 60.8293C50.7167 60.8527 51.0451 60.7508 51.3049 60.5439C51.5647 60.337 51.7368 60.0402 51.7868 59.7126C51.8368 59.3851 51.7612 59.0508 51.575 58.7762C51.3871 58.5429 46.8834 53.0247 38.6926 50.5767C31.3646 48.387 28.15 44.3044 28.1208 44.2675C27.9982 44.1046 27.8394 43.9723 27.6569 43.8808C27.4744 43.7893 27.273 43.7412 27.0687 43.7402H27.0568C26.8502 43.7417 26.6468 43.7914 26.463 43.8852C26.2791 43.9791 26.1199 44.1145 25.998 44.2807C25.8802 44.4415 24.8413 45.9285 24.5647 48.5953C24.4567 49.6776 24.7052 50.7655 25.2727 51.6947C25.8403 52.6239 26.696 53.3438 27.7106 53.7458C28.3278 53.9875 28.9662 54.1715 29.6177 54.2955C29.8546 54.3495 34.3 55.4358 37.823 60.3595C37.917 60.5156 38.0424 60.6507 38.1914 60.7562C38.3403 60.8616 38.5096 60.9352 38.6885 60.9723C38.8675 61.0094 39.0522 61.0092 39.231 60.9717C39.4098 60.9342 39.5789 60.8602 39.7276 60.7543C39.8763 60.6485 40.0014 60.5131 40.095 60.3567C40.1886 60.2004 40.2486 60.0264 40.2714 59.8458C40.2941 59.6651 40.279 59.4818 40.2271 59.3072C40.1752 59.1327 40.0875 58.9707 39.9697 58.8316C35.7743 52.9825 30.3839 51.7763 30.1563 51.7288L30.1259 51.7222C29.6285 51.6293 29.1411 51.4898 28.6701 51.3057C28.1896 51.1156 27.7842 50.775 27.5152 50.3353C27.2461 49.8956 27.128 49.3807 27.1785 48.8682C27.236 48.3675 27.3365 47.8727 27.479 47.3891Z" fill="#772E25"/>
<path d="M28.0441 29.2287C28.0889 28.8837 27.9949 28.535 27.7827 28.2587C27.5705 27.9824 27.2572 27.8008 26.9112 27.7536C25.0247 27.4784 23.1967 26.8949 21.5009 26.0267C21.2814 25.9068 21.0321 25.8514 20.7822 25.8669C20.5323 25.8825 20.2919 25.9683 20.089 26.1145C19.8862 26.2607 19.7291 26.4612 19.636 26.6928C19.543 26.9244 19.5178 27.1775 19.5634 27.4227C19.8741 28.7795 20.39 30.0814 21.0933 31.2839C21.4689 31.9328 21.9784 32.495 22.5882 32.9334C23.198 33.3717 23.8942 33.6762 24.6309 33.8268C26.5982 34.221 28.6135 34.3201 30.6102 34.1208C30.2563 35.0317 29.705 35.8536 28.9956 36.528C28.828 36.685 28.7045 36.8828 28.6371 37.1019C28.5697 37.3211 28.5608 37.5539 28.6113 37.7775C28.6618 38.0011 28.7699 38.2077 28.9251 38.3769C29.0802 38.5462 29.2769 38.6722 29.4959 38.7426C29.6468 38.7901 32.2751 39.6008 35.2079 39.4347C34.5194 40.1749 33.6714 40.75 32.7277 41.1168C32.541 41.1866 32.3725 41.2976 32.2348 41.4414C32.0972 41.5852 31.994 41.7582 31.9329 41.9473C31.8718 42.1364 31.8544 42.3369 31.8821 42.5337C31.9097 42.7305 31.9816 42.9185 32.0925 43.0837L33.3114 44.8818C33.746 45.5223 34.3246 46.0532 35.0011 46.4321C35.6777 46.8111 36.4336 47.0277 37.2089 47.0648C39.2193 47.1544 42.1057 47.948 44.4442 51.2213C44.5362 51.3805 44.6606 51.5189 44.8094 51.6274C44.9582 51.736 45.1282 51.8124 45.3084 51.8517C45.4886 51.891 45.675 51.8923 45.8557 51.8556C46.0365 51.8189 46.2075 51.745 46.3579 51.6386C46.5082 51.5322 46.6346 51.3956 46.7289 51.2377C46.8232 51.0798 46.8833 50.904 46.9054 50.7216C46.9274 50.5392 46.911 50.3542 46.857 50.1785C46.8031 50.0028 46.7129 49.8403 46.5922 49.7013C43.4808 45.3511 39.4522 44.539 37.3281 44.4441C36.9643 44.4261 36.6098 44.3238 36.2927 44.1453C35.9756 43.9668 35.7048 43.717 35.5017 43.4159L35.1285 42.8661C37.9792 41.1287 39.2735 38.152 39.3357 38.007C39.4355 37.7669 39.4618 37.5028 39.4113 37.2478C39.3608 36.9928 39.2357 36.7584 39.0519 36.574C38.8681 36.3896 38.6336 36.2635 38.378 36.2114C38.1224 36.1594 37.857 36.1837 37.6152 36.2814C35.8855 36.9999 33.7772 36.8944 32.2685 36.6677C33.0292 35.4496 33.5185 34.0829 33.7031 32.6602C33.7218 32.4566 33.6927 32.2515 33.6182 32.0611C33.5436 31.8707 33.4256 31.7002 33.2735 31.563C33.1214 31.4258 32.9393 31.3257 32.7417 31.2706C32.5441 31.2156 32.3363 31.207 32.1348 31.2457C29.834 31.7055 27.4646 31.7077 25.1629 31.2523C24.7914 31.1766 24.4403 31.0233 24.1328 30.8024C23.8252 30.5815 23.5683 30.2981 23.3789 29.9709C23.2982 29.8325 23.2227 29.6941 23.1513 29.5583C24.2607 29.9296 25.4025 30.197 26.5618 30.3572C26.9084 30.4022 27.2588 30.3088 27.5365 30.0974C27.8142 29.8859 27.9967 29.5737 28.0441 29.2287Z" fill="#772E25"/>
<path d="M45.4778 29.3592C45.5628 29.343 45.6457 29.3178 45.7253 29.2841C45.8051 29.252 45.8814 29.2118 45.953 29.1641C46.1331 29.0438 46.2808 28.8812 46.383 28.6906C46.4853 28.5 46.5389 28.2874 46.5392 28.0713C46.5394 27.985 46.531 27.8989 46.5141 27.8142C46.4976 27.7301 46.4723 27.6479 46.4387 27.569C46.4055 27.4898 46.3647 27.4138 46.3169 27.3423C46.2692 27.2705 46.2142 27.2038 46.1528 27.1433C46.0923 27.0817 46.0253 27.0269 45.953 26.9798C45.8812 26.9317 45.805 26.8907 45.7253 26.8572C45.6455 26.8245 45.5626 26.7997 45.4778 26.7834C45.222 26.7333 44.957 26.7597 44.7161 26.8591C44.4753 26.9586 44.2692 27.1267 44.1239 27.3423C44.0761 27.4136 44.0357 27.4895 44.0035 27.569C43.9698 27.6479 43.9446 27.7301 43.9281 27.8142C43.9108 27.8989 43.9019 27.985 43.9016 28.0713C43.9016 28.4209 44.041 28.7562 44.2892 29.0035C44.5374 29.2507 44.8741 29.3896 45.2251 29.3896C45.3101 29.3878 45.3948 29.3776 45.4778 29.3592Z" fill="#772E25"/>
<path d="M51.223 11.6194C47.5517 12.0373 42.9567 11.7248 40.5454 11.5021C38.3154 11.2891 36.0664 11.3934 33.8659 11.8119C25.0319 13.515 19.926 18.8329 18.5139 20.4965L18.3816 20.5058C18.1702 20.5258 17.9575 20.4856 17.7682 20.3899C17.5789 20.2942 17.4208 20.147 17.3122 19.9653C17.2166 19.807 17.1633 19.627 17.1572 19.4424C17.1512 19.2578 17.1927 19.0748 17.2778 18.9107C17.4451 18.6032 17.5931 18.2858 17.7212 17.9602C17.9829 17.2891 18.101 16.5709 18.0677 15.8516C18.0345 15.1324 17.8507 14.428 17.5281 13.7837C17.2055 13.1394 16.7513 12.5693 16.1946 12.1101C15.6379 11.6509 14.9909 11.3127 14.2952 11.1172C13.5996 10.9216 12.8706 10.8731 12.155 10.9746C11.4394 11.0762 10.753 11.3256 10.1398 11.7069C9.52669 12.0883 9.00033 12.593 8.59453 13.1888C8.18872 13.7847 7.91243 14.4584 7.78337 15.1668C7.48607 16.8386 7.3531 18.5354 7.38633 20.2329C7.40084 21.0887 7.75102 21.9048 8.36194 22.5067C8.97286 23.1085 9.79601 23.4484 10.6553 23.4534H10.9424C10.9623 23.4533 10.9818 23.4591 10.9983 23.4702C11.0149 23.4812 11.0277 23.497 11.0351 23.5154C11.0421 23.531 11.0447 23.5482 11.0426 23.5651C11.0405 23.5821 11.0338 23.5982 11.0232 23.6116C10.3006 24.3208 9.39666 25.6799 9.18623 28.1253C9.18623 28.1609 9.18623 28.1991 9.18623 28.2347C9.18623 28.2703 9.16505 31.0031 8.07982 32.7445C7.9701 32.8909 7.89215 33.0585 7.85091 33.2366C7.80966 33.4146 7.80604 33.5993 7.84026 33.7788C7.87447 33.9583 7.94579 34.1288 8.04967 34.2794C8.15356 34.43 8.28775 34.5575 8.44372 34.6537C8.59969 34.7499 8.77403 34.8128 8.95569 34.8383C9.13734 34.8638 9.32234 34.8514 9.49894 34.8019C9.67553 34.7524 9.83987 34.6669 9.98152 34.5508C10.1232 34.4346 10.239 34.2904 10.3217 34.1273C11.714 31.8863 11.8159 28.8003 11.8239 28.302C11.98 26.6001 12.5518 25.8052 12.8826 25.4822C13.2644 25.1007 13.5242 24.6152 13.6291 24.0868C13.7341 23.5584 13.6796 23.0108 13.4725 22.5133C13.2653 22.0157 12.9148 21.5904 12.4653 21.2911C12.0157 20.9918 11.4872 20.8318 10.9464 20.8314H10.6592C10.4921 20.829 10.3325 20.7616 10.2146 20.6436C10.0966 20.5257 10.0297 20.3664 10.0279 20.1999C9.99661 18.6736 10.1141 17.1478 10.3787 15.644C10.4863 15.0584 10.797 14.529 11.2566 14.1483C11.7162 13.7676 12.2955 13.5598 12.8932 13.5612C13.3071 13.5602 13.7151 13.6597 14.0817 13.8511C14.4483 14.0425 14.7626 14.3201 14.9972 14.6598C15.2319 14.9995 15.3798 15.391 15.4283 15.8005C15.4768 16.2099 15.4243 16.625 15.2754 17.0097C15.1874 17.2356 15.0853 17.4557 14.9697 17.6689C14.6539 18.2633 14.5053 18.9317 14.5397 19.6033C14.5741 20.2749 14.7902 20.9248 15.165 21.4841C15.5399 22.0434 16.0597 22.4913 16.6692 22.7804C17.2788 23.0696 17.9555 23.1891 18.6277 23.1265C19.5885 23.0421 21.3249 23.021 22.6245 23.75C22.7291 23.8199 22.8376 23.8818 22.9501 23.953C25.3892 25.6206 34.1756 30.2029 40.0226 29.7534C40.2058 29.7547 40.3873 29.7182 40.5556 29.6461C40.7239 29.574 40.8753 29.4679 41.0003 29.3344C41.1252 29.201 41.221 29.0432 41.2816 28.871C41.3422 28.6987 41.3662 28.5159 41.3521 28.3339C41.3381 28.152 41.2862 27.9749 41.1999 27.814C41.1136 27.653 40.9947 27.5117 40.8506 27.3989C40.7066 27.2861 40.5407 27.2043 40.3633 27.1587C40.1859 27.1131 40.0009 27.1047 39.8201 27.134C34.9988 27.5031 26.8503 23.4429 24.4125 21.766C24.2802 21.6777 24.1478 21.596 24.0155 21.5182C23.6449 21.2625 23.281 20.9171 23.1949 20.5045C23.1049 20.0721 23.3207 19.6318 23.4358 19.4367C26.6168 16.8978 30.3698 15.1674 34.3715 14.3943C36.3261 14.0233 38.3238 13.931 40.3045 14.1201C42.8191 14.3535 47.6192 14.6777 51.5273 14.2322C51.7241 14.2099 51.9231 14.2463 52.0991 14.3368C52.275 14.4272 52.4201 14.5677 52.5159 14.7403C52.6117 14.9129 52.6539 15.11 52.6372 15.3066C52.6205 15.5031 52.5456 15.6903 52.422 15.8444C49.9419 18.9252 45.2132 22.4832 36.7854 21.9532C36.6043 21.9265 36.4195 21.9375 36.2429 21.9856C36.0662 22.0336 35.9015 22.1177 35.7591 22.2324C35.6168 22.3472 35.4998 22.4901 35.4158 22.6521C35.3317 22.8142 35.2823 22.9919 35.2708 23.1739C35.2592 23.356 35.2857 23.5384 35.3485 23.7098C35.4114 23.8811 35.5092 24.0376 35.6359 24.1693C35.7626 24.301 35.9154 24.4051 36.0846 24.4749C36.2537 24.5448 36.4356 24.579 36.6187 24.5752C37.2513 24.6161 37.8667 24.6346 38.4636 24.6346C46.8847 24.6346 51.7987 20.8116 54.4773 17.4883C54.928 16.9279 55.2014 16.2469 55.2629 15.5315C55.3244 14.8162 55.1712 14.0987 54.8227 13.4702C54.4742 12.8418 53.9461 12.3306 53.3054 12.0015C52.6648 11.6724 51.9404 11.5404 51.2243 11.622L51.223 11.6194Z" fill="#772E25"/>
<path d="M35.487 7.39843C35.311 7.67934 35.2476 8.01594 35.3093 8.3413C35.3711 8.66667 35.5535 8.95696 35.8203 9.15447C36.0872 9.35197 36.4188 9.44222 36.7494 9.40727C37.08 9.37232 37.3852 9.21474 37.6045 8.96584C38.6518 7.55228 39.3694 5.92378 39.7048 4.19902C39.8335 3.5583 39.78 2.89453 39.5506 2.28241C39.3211 1.67029 38.9246 1.13411 38.4058 0.734223C37.8871 0.334332 37.2665 0.0865963 36.6141 0.0188959C35.9616 -0.0488045 35.3032 0.0662172 34.7128 0.351017C33.3708 0.998283 32.2326 1.45308 32.2207 1.45308L32.1929 1.46495C22.4907 5.60164 19.8848 13.7564 19.771 14.1005C19.6704 14.4328 19.7053 14.7912 19.8684 15.098C20.0314 15.4048 20.3094 15.6351 20.6418 15.7391C20.7682 15.7787 20.8998 15.7987 21.0323 15.7984C21.3135 15.7978 21.5872 15.7081 21.8137 15.5422C22.0402 15.3763 22.2078 15.1428 22.2922 14.8756C22.3147 14.8018 24.6929 7.5263 33.2173 3.88527C33.3681 3.82463 34.5023 3.35797 35.8642 2.7107C36.0126 2.63946 36.1781 2.61083 36.3419 2.62802C36.5058 2.64521 36.6616 2.70755 36.7919 2.80803C36.9222 2.90851 37.0218 3.04316 37.0795 3.19688C37.1373 3.35061 37.1509 3.51731 37.1188 3.6783C36.8609 5.02425 36.3032 6.29547 35.487 7.39843Z" fill="#772E25"/>
<path d="M53.2186 46.7339C53.2279 46.6786 54.2774 41.2895 57.0977 41.2895C57.2801 41.3048 57.4638 41.2821 57.6371 41.223C57.8103 41.1639 57.9694 41.0697 58.1041 40.9462C58.2389 40.8227 58.3465 40.6727 58.4201 40.5057C58.4937 40.3387 58.5317 40.1583 58.5317 39.9759C58.5317 39.7935 58.4937 39.613 58.4201 39.446C58.3465 39.279 58.2389 39.129 58.1041 39.0055C57.9694 38.8821 57.8103 38.7878 57.6371 38.7287C57.4638 38.6696 57.2801 38.647 57.0977 38.6622C54.5752 38.6622 52.9764 40.4432 51.9997 42.2848C51.405 41.3943 50.6552 40.617 49.7856 39.9897C50.7806 39.2081 51.5865 38.2138 52.144 37.0803C52.4206 37.4252 52.7309 37.7418 53.0704 38.0255C53.3422 38.2152 53.6756 38.2963 54.0046 38.2527C54.3336 38.209 54.6341 38.0439 54.8466 37.7899C55.059 37.536 55.168 37.2118 55.1518 36.8816C55.1356 36.5514 54.9954 36.2393 54.7591 36.0072C53.4449 34.9157 53.2252 33.3009 53.2239 33.2943C53.187 32.9736 53.0332 32.6775 52.7917 32.4622C52.5502 32.2469 52.2378 32.1274 51.9137 32.1263H51.9177C51.5924 32.1287 51.2795 32.2503 51.0386 32.468C50.7976 32.6856 50.6456 32.9839 50.6114 33.3061C50.6114 33.3496 50.131 37.6142 46.6477 38.6925C46.3866 38.7764 46.1581 38.939 45.9939 39.1579C45.8296 39.3768 45.7377 39.6411 45.7309 39.9143C45.724 40.1875 45.8026 40.4561 45.9557 40.6828C46.1088 40.9096 46.3289 41.0834 46.5855 41.1801C46.7496 41.2407 50.6048 42.7106 50.6048 46.5125C50.6059 46.8415 50.7304 47.1582 50.954 47.4005C51.1776 47.6427 51.484 47.7929 51.8131 47.8215C51.8506 47.8235 51.8881 47.8235 51.9256 47.8215C52.2347 47.8191 52.5333 47.7091 52.7694 47.5105C53.0056 47.3118 53.1645 47.0371 53.2186 46.7339Z" fill="#772E25"/>
</svg>
