<svg width="64" height="64" viewBox="0 0 64 64" fill="none" xmlns="http://www.w3.org/2000/svg">
<path d="M11.2671 35.665L12.0791 44.606C12.1291 45.157 11.7241 45.643 11.1741 45.693C11.1431 45.696 11.1121 45.697 11.0821 45.697C10.5701 45.697 10.1341 45.306 10.0871 44.788L9.47411 38.024L6.93811 40.654C6.55411 41.052 5.92111 41.064 5.52411 40.679C5.12711 40.296 5.11511 39.662 5.49911 39.265L9.55311 35.061C9.82411 34.78 10.2381 34.683 10.6051 34.812C10.9721 34.942 11.2311 35.275 11.2671 35.665ZM62.2061 26.095C62.9191 26.652 63.1801 27.565 62.8701 28.42C61.8911 31.056 61.5541 33.743 61.8631 36.415C61.9881 37.554 62.2381 38.674 62.6291 39.844C63.1161 41.262 62.5811 42.798 61.3241 43.572C59.8241 44.504 58.5311 45.696 57.4841 47.114C56.0431 49.085 55.4131 51.079 55.1391 52.403C54.9841 53.112 54.5251 53.678 53.8771 53.969C53.5821 54.101 53.2711 54.166 52.9591 54.166C52.6381 54.166 52.3221 54.08 52.0211 53.942L53.9311 61.763C54.0031 62.061 53.9361 62.376 53.7451 62.617C53.5571 62.859 53.2671 63 52.9601 63H11.0401C10.7331 63 10.4431 62.859 10.2541 62.617C10.0641 62.376 9.99611 62.06 10.0681 61.763L11.9771 53.943C11.6791 54.082 11.3631 54.167 11.0411 54.167C10.7291 54.167 10.4171 54.101 10.1211 53.969C9.47411 53.678 9.01511 53.112 8.86211 52.414C8.58511 51.076 7.95411 49.082 6.50411 47.112C5.46611 45.696 4.17711 44.505 2.67211 43.569C1.41811 42.798 0.883112 41.261 1.37411 39.835C1.76111 38.674 2.01111 37.554 2.13511 36.421C2.44611 33.743 2.10811 31.056 1.13211 28.429C0.820112 27.565 1.08011 26.652 1.79311 26.095C2.50611 25.537 3.45411 25.504 4.20611 26.009L12.8041 31.738C13.7631 32.385 14.4421 33.346 14.7191 34.445L16.0531 39.693C16.7821 38.677 17.7411 37.836 18.8821 37.265L20.5351 36.435L17.7761 30.969C17.2861 29.995 17.2311 28.857 17.6251 27.844C18.0191 26.832 18.8281 26.031 19.8451 25.645L20.5881 25.361C20.5401 24.933 20.5101 24.5 20.5101 24.06V22.85H18.5571L17.3051 24.247C15.9801 25.712 14.1001 26.55 12.1401 26.55C8.32511 26.55 5.22011 23.442 5.22011 19.62V18.77C5.22011 14.949 8.32411 11.84 12.1401 11.84H12.8631C13.3491 9.17499 14.1691 7.08699 15.3561 5.47699C15.8991 4.74799 16.8061 4.46799 17.6681 4.75399C18.5441 5.04499 19.1101 5.82399 19.1101 6.73999V11.84H21.0231C22.0681 8.43099 24.6561 5.66499 28.1301 4.42899C28.9731 2.64499 30.0401 1.41999 30.1141 1.33699C30.4611 0.943986 31.0531 0.889986 31.4681 1.20399C32.1281 1.70699 32.6861 2.33299 33.0951 2.85999C33.2741 2.71399 33.4741 2.57799 33.6891 2.46799C34.1471 2.23999 34.6961 2.38799 34.9741 2.81199C35.0101 2.86699 35.4161 3.49299 35.8461 4.42199C39.3331 5.65599 41.9301 8.42399 42.9771 11.839H44.8901V6.73899C44.8901 5.82299 45.4561 5.04399 46.3321 4.75299C47.1901 4.46399 48.1011 4.74699 48.6411 5.47099C49.8321 7.08599 50.6521 9.17399 51.1381 11.839H51.8611C55.6761 11.839 58.7811 14.947 58.7811 18.769V19.62C58.7811 23.441 55.6771 26.55 51.8611 26.55C49.9011 26.55 48.0201 25.712 46.6991 24.251L45.4441 22.85H43.4901V24.05C43.4901 24.492 43.4591 24.928 43.4101 25.361L44.1571 25.647C45.1711 26.032 45.9801 26.834 46.3741 27.845C46.7681 28.858 46.7131 29.996 46.2241 30.969L43.4641 36.438L45.1101 37.268C46.2531 37.836 47.2151 38.677 47.9461 39.695L49.2811 34.445C49.5601 33.337 50.2401 32.376 51.1951 31.739L59.7951 26.009C60.5461 25.505 61.4911 25.536 62.2061 26.095ZM22.5101 24.06C22.5101 29.293 26.7671 33.55 32.0001 33.55C34.5371 33.55 36.9221 32.564 38.7131 30.774C40.5041 28.983 41.4901 26.595 41.4901 24.05V23.328C40.5521 24.097 39.3541 24.56 38.0501 24.56H37.8601V24.89C37.8601 26.588 36.4781 27.97 34.7801 27.97H29.2201C27.5221 27.97 26.1401 26.588 26.1401 24.89V24.56H25.9501C24.6461 24.56 23.4481 24.097 22.5101 23.328V24.06ZM43.3971 13.84C43.4521 14.301 43.4901 14.766 43.4901 15.24V19.11V20.849H45.8891C46.1731 20.849 46.4441 20.97 46.6341 21.182L48.1851 22.912C49.1241 23.951 50.4641 24.549 51.8601 24.549C54.5731 24.549 56.7801 22.337 56.7801 19.619V18.77C56.7801 16.052 54.5731 13.84 51.8601 13.84H51.4271C51.5571 14.992 51.6371 16.241 51.6721 17.624C51.6791 17.939 51.9451 18.195 52.2661 18.195C52.8191 18.195 53.2661 18.642 53.2661 19.195C53.2661 19.748 52.8191 20.195 52.2661 20.195C50.8701 20.195 49.7051 19.063 49.6721 17.672C49.6291 15.901 49.5071 14.369 49.2991 12.989C49.2991 12.986 49.3001 12.983 49.2991 12.979C48.8931 10.275 48.1311 8.14999 47.0351 6.66299C46.8901 6.67599 46.8901 6.71799 46.8901 6.73999V12.84C46.8901 12.845 46.8871 12.849 46.8871 12.855V18.283C46.8871 18.836 46.4401 19.283 45.8871 19.283C45.3341 19.283 44.8871 18.836 44.8871 18.283V13.84H43.3971ZM29.1041 8.57899C29.1041 10.176 30.4041 11.475 32.0001 11.475C33.5961 11.475 34.8961 10.176 34.8961 8.57899C34.8961 7.31199 34.3541 5.90199 33.8711 4.92499C33.8481 4.95599 33.8281 4.98499 33.8121 5.00799C33.6211 5.29599 33.2881 5.45299 32.9481 5.45499C32.6021 5.44399 32.2851 5.25499 32.1121 4.95499C32.1061 4.94499 31.6661 4.19199 30.9941 3.47199C30.2511 4.53699 29.1041 6.51699 29.1041 8.57899ZM22.5101 19.11C22.5101 21.012 24.0531 22.559 25.9501 22.559H27.1391C27.6921 22.559 28.1391 23.006 28.1391 23.559V24.889C28.1391 25.485 28.6231 25.969 29.2191 25.969H29.3431V24.834C29.3431 24.281 29.7901 23.834 30.3431 23.834C30.8961 23.834 31.3431 24.281 31.3431 24.834V25.969H32.6551V24.834C32.6551 24.281 33.1021 23.834 33.6551 23.834C34.2081 23.834 34.6551 24.281 34.6551 24.834V25.969H34.7791C35.3751 25.969 35.8591 25.485 35.8591 24.889V23.559C35.8591 23.006 36.3061 22.559 36.8591 22.559H38.0481C39.9451 22.559 41.4881 21.012 41.4881 19.11V15.24C41.4881 11.766 39.6361 8.67199 36.7241 7.01299C36.8301 7.52399 36.8941 8.05199 36.8941 8.57899C36.8941 11.278 34.6981 13.475 31.9981 13.475C29.2981 13.475 27.1021 11.279 27.1021 8.57899C27.1021 8.04499 27.1631 7.52299 27.2621 7.01699C24.3571 8.67699 22.5091 11.771 22.5091 15.241L22.5101 19.11ZM20.5101 20.85V19.11V15.24C20.5101 14.766 20.5471 14.3 20.6031 13.84H19.1131V18.282C19.1131 18.835 18.6661 19.282 18.1131 19.282C17.5601 19.282 17.1131 18.835 17.1131 18.282V12.854C17.1131 12.849 17.1101 12.845 17.1101 12.839V6.73899C17.1101 6.71699 17.1101 6.67499 17.0381 6.64999C15.8681 8.14899 15.1061 10.274 14.7011 12.978C14.7011 12.981 14.7021 12.984 14.7011 12.988C14.4931 14.368 14.3711 15.9 14.3281 17.672C14.2951 19.063 13.1311 20.194 11.7341 20.194C11.1811 20.194 10.7341 19.747 10.7341 19.194C10.7341 18.641 11.1811 18.194 11.7341 18.194C12.0541 18.194 12.3211 17.938 12.3281 17.624C12.3621 16.24 12.4431 14.991 12.5731 13.839H12.1401C9.42711 13.839 7.22011 16.051 7.22011 18.769V19.62C7.22011 22.338 9.42711 24.55 12.1401 24.55C13.5361 24.55 14.8751 23.952 15.8181 22.909L17.3661 21.182C17.5561 20.97 17.8271 20.849 18.1111 20.849L20.5101 20.85ZM12.5751 51.497L14.7391 42.633L12.7811 34.936C12.6231 34.313 12.2361 33.767 11.6901 33.399L3.09511 27.671L3.00711 27.731C4.09411 30.658 4.46911 33.657 4.12211 36.645C3.98411 37.897 3.69711 39.187 3.26811 40.476C3.08311 41.011 3.27611 41.593 3.72311 41.868C5.45111 42.941 6.92611 44.306 8.11511 45.929C9.77911 48.188 10.5041 50.476 10.8181 51.998C10.8321 52.06 10.8741 52.114 10.9391 52.144C10.9831 52.164 11.0671 52.187 11.1691 52.128C11.6281 51.878 12.0991 51.676 12.5751 51.497ZM51.6871 61L47.2591 42.867C46.8471 41.202 45.7381 39.811 44.2151 39.055L41.6701 37.772C41.4341 37.653 41.2531 37.444 41.1701 37.192C41.0871 36.94 41.1081 36.666 41.2281 36.429L44.4381 30.069C44.6761 29.595 44.7021 29.062 44.5101 28.569C44.3191 28.077 43.9411 27.703 43.4461 27.514L43.0131 27.348C42.4761 29.159 41.4981 30.817 40.1281 32.187C37.9581 34.355 35.0711 35.55 32.0001 35.55C26.8071 35.55 22.4131 32.085 20.9951 27.347L20.5581 27.514C20.0601 27.703 19.6821 28.077 19.4911 28.57C19.3001 29.063 19.3251 29.596 19.5641 30.071L22.7731 36.43C22.8931 36.666 22.9141 36.942 22.8301 37.194C22.7471 37.446 22.5671 37.655 22.3291 37.774L19.7791 39.054C18.2601 39.813 17.1541 41.203 16.7411 42.87L12.3131 61H51.6871ZM60.9921 27.731L60.9041 27.671L52.3041 33.401C51.7631 33.762 51.3771 34.306 51.2191 34.934L49.2601 42.632L51.4241 51.495C51.8991 51.673 52.3681 51.874 52.8181 52.121C52.9321 52.183 53.0161 52.159 53.0581 52.142C53.1231 52.113 53.1651 52.059 53.1821 51.985C53.4941 50.477 54.2151 48.192 55.8701 45.927C57.0711 44.301 58.5511 42.937 60.2701 41.868C60.7201 41.592 60.9131 41.01 60.7321 40.483C60.2991 39.185 60.0121 37.895 59.8741 36.637C59.5301 33.657 59.9051 30.658 60.9921 27.731ZM54.4491 35.062C54.1781 34.782 53.7651 34.685 53.3971 34.813C53.0281 34.943 52.7681 35.276 52.7331 35.666L51.9211 44.607C51.8711 45.158 52.2761 45.644 52.8261 45.694C52.8571 45.697 52.8881 45.698 52.9181 45.698C53.4301 45.698 53.8651 45.307 53.9131 44.789L54.5271 38.025L57.0631 40.655C57.4481 41.053 58.0811 41.065 58.4771 40.68C58.8741 40.297 58.8861 39.663 58.5021 39.266L54.4491 35.062ZM33.3721 18.052C33.3721 16.291 34.8041 14.86 36.5641 14.86C38.3241 14.86 39.7571 16.292 39.7571 18.052C39.7571 19.812 38.3241 21.244 36.5641 21.244C34.8041 21.244 33.3721 19.812 33.3721 18.052ZM35.3721 18.052C35.3721 18.709 35.9071 19.244 36.5641 19.244C37.2221 19.244 37.7571 18.709 37.7571 18.052C37.7571 17.395 37.2221 16.86 36.5641 16.86C35.9071 16.859 35.3721 17.395 35.3721 18.052ZM24.2421 18.052C24.2421 16.291 25.6741 14.86 27.4341 14.86C29.1941 14.86 30.6261 16.292 30.6261 18.052C30.6261 19.812 29.1941 21.244 27.4341 21.244C25.6741 21.244 24.2421 19.812 24.2421 18.052ZM26.2421 18.052C26.2421 18.709 26.7771 19.244 27.4341 19.244C28.0911 19.244 28.6261 18.709 28.6261 18.052C28.6261 17.395 28.0911 16.86 27.4341 16.86C26.7771 16.86 26.2421 17.395 26.2421 18.052ZM32.0001 22.244C32.5521 22.244 33.0001 21.796 33.0001 21.244C33.0001 20.692 32.5521 20.244 32.0001 20.244C31.4481 20.244 31.0001 20.692 31.0001 21.244C31.0001 21.797 31.4471 22.244 32.0001 22.244Z" fill="#772E25" stroke="#772E25" stroke-width="0.3"/>
</svg>
