<svg width="62" height="62" viewBox="0 0 62 62" fill="none" xmlns="http://www.w3.org/2000/svg">
<path d="M10.2671 34.665L11.0791 43.606C11.1291 44.157 10.7241 44.643 10.1741 44.693C10.1431 44.696 10.1121 44.697 10.0821 44.697C9.57011 44.697 9.13411 44.306 9.08711 43.788L8.47411 37.024L5.93811 39.654C5.55411 40.052 4.92111 40.064 4.52411 39.679C4.12711 39.296 4.11511 38.662 4.49911 38.265L8.55311 34.061C8.82411 33.78 9.23811 33.683 9.60511 33.812C9.97211 33.942 10.2311 34.275 10.2671 34.665ZM61.2061 25.095C61.9191 25.652 62.1801 26.565 61.8701 27.42C60.8911 30.056 60.5541 32.743 60.8631 35.415C60.9881 36.554 61.2381 37.674 61.6291 38.844C62.1161 40.262 61.5811 41.798 60.3241 42.572C58.8241 43.504 57.5311 44.696 56.4841 46.114C55.0431 48.085 54.4131 50.079 54.1391 51.403C53.9841 52.112 53.5251 52.678 52.8771 52.969C52.5821 53.101 52.2711 53.166 51.9591 53.166C51.6381 53.166 51.3221 53.08 51.0211 52.942L52.9311 60.763C53.0031 61.061 52.9361 61.376 52.7451 61.617C52.5571 61.859 52.2671 62 51.9601 62H10.0401C9.73311 62 9.44311 61.859 9.25411 61.617C9.06411 61.376 8.99611 61.06 9.06811 60.763L10.9771 52.943C10.6791 53.082 10.3631 53.167 10.0411 53.167C9.72911 53.167 9.41711 53.101 9.12111 52.969C8.47411 52.678 8.01511 52.112 7.86211 51.414C7.58511 50.076 6.95411 48.082 5.50411 46.112C4.46611 44.696 3.17711 43.505 1.67211 42.569C0.418112 41.798 -0.116888 40.261 0.374112 38.835C0.761112 37.674 1.01111 36.554 1.13511 35.421C1.44611 32.743 1.10811 30.056 0.132112 27.429C-0.179888 26.565 0.0801125 25.652 0.793112 25.095C1.50611 24.537 2.45411 24.504 3.20611 25.009L11.8041 30.738C12.7631 31.385 13.4421 32.346 13.7191 33.445L15.0531 38.693C15.7821 37.677 16.7411 36.836 17.8821 36.265L19.5351 35.435L16.7761 29.969C16.2861 28.995 16.2311 27.857 16.6251 26.844C17.0191 25.832 17.8281 25.031 18.8451 24.645L19.5881 24.361C19.5401 23.933 19.5101 23.5 19.5101 23.06V21.85H17.5571L16.3051 23.247C14.9801 24.712 13.1001 25.55 11.1401 25.55C7.32511 25.55 4.22011 22.442 4.22011 18.62V17.77C4.22011 13.949 7.32411 10.84 11.1401 10.84H11.8631C12.3491 8.17499 13.1691 6.08699 14.3561 4.47699C14.8991 3.74799 15.8061 3.46799 16.6681 3.75399C17.5441 4.04499 18.1101 4.82399 18.1101 5.73999V10.84H20.0231C21.0681 7.43099 23.6561 4.66499 27.1301 3.42899C27.9731 1.64499 29.0401 0.419986 29.1141 0.336986C29.4611 -0.0560139 30.0531 -0.110014 30.4681 0.203986C31.1281 0.706986 31.6861 1.33299 32.0951 1.85999C32.2741 1.71399 32.4741 1.57799 32.6891 1.46799C33.1471 1.23999 33.6961 1.38799 33.9741 1.81199C34.0101 1.86699 34.4161 2.49299 34.8461 3.42199C38.3331 4.65599 40.9301 7.42399 41.9771 10.839H43.8901V5.73899C43.8901 4.82299 44.4561 4.04399 45.3321 3.75299C46.1901 3.46399 47.1011 3.74699 47.6411 4.47099C48.8321 6.08599 49.6521 8.17399 50.1381 10.839H50.8611C54.6761 10.839 57.7811 13.947 57.7811 17.769V18.62C57.7811 22.441 54.6771 25.55 50.8611 25.55C48.9011 25.55 47.0201 24.712 45.6991 23.251L44.4441 21.85H42.4901V23.05C42.4901 23.492 42.4591 23.928 42.4101 24.361L43.1571 24.647C44.1711 25.032 44.9801 25.834 45.3741 26.845C45.7681 27.858 45.7131 28.996 45.2241 29.969L42.4641 35.438L44.1101 36.268C45.2531 36.836 46.2151 37.677 46.9461 38.695L48.2811 33.445C48.5601 32.337 49.2401 31.376 50.1951 30.739L58.7951 25.009C59.5461 24.505 60.4911 24.536 61.2061 25.095ZM21.5101 23.06C21.5101 28.293 25.7671 32.55 31.0001 32.55C33.5371 32.55 35.9221 31.564 37.7131 29.774C39.5041 27.983 40.4901 25.595 40.4901 23.05V22.328C39.5521 23.097 38.3541 23.56 37.0501 23.56H36.8601V23.89C36.8601 25.588 35.4781 26.97 33.7801 26.97H28.2201C26.5221 26.97 25.1401 25.588 25.1401 23.89V23.56H24.9501C23.6461 23.56 22.4481 23.097 21.5101 22.328V23.06ZM42.3971 12.84C42.4521 13.301 42.4901 13.766 42.4901 14.24V18.11V19.849H44.8891C45.1731 19.849 45.4441 19.97 45.6341 20.182L47.1851 21.912C48.1241 22.951 49.4641 23.549 50.8601 23.549C53.5731 23.549 55.7801 21.337 55.7801 18.619V17.77C55.7801 15.052 53.5731 12.84 50.8601 12.84H50.4271C50.5571 13.992 50.6371 15.241 50.6721 16.624C50.6791 16.939 50.9451 17.195 51.2661 17.195C51.8191 17.195 52.2661 17.642 52.2661 18.195C52.2661 18.748 51.8191 19.195 51.2661 19.195C49.8701 19.195 48.7051 18.063 48.6721 16.672C48.6291 14.901 48.5071 13.369 48.2991 11.989C48.2991 11.986 48.3001 11.983 48.2991 11.979C47.8931 9.27499 47.1311 7.14999 46.0351 5.66299C45.8901 5.67599 45.8901 5.71799 45.8901 5.73999V11.84C45.8901 11.845 45.8871 11.849 45.8871 11.855V17.283C45.8871 17.836 45.4401 18.283 44.8871 18.283C44.3341 18.283 43.8871 17.836 43.8871 17.283V12.84H42.3971ZM28.1041 7.57899C28.1041 9.17599 29.4041 10.475 31.0001 10.475C32.5961 10.475 33.8961 9.17599 33.8961 7.57899C33.8961 6.31199 33.3541 4.90199 32.8711 3.92499C32.8481 3.95599 32.8281 3.98499 32.8121 4.00799C32.6211 4.29599 32.2881 4.45299 31.9481 4.45499C31.6021 4.44399 31.2851 4.25499 31.1121 3.95499C31.1061 3.94499 30.6661 3.19199 29.9941 2.47199C29.2511 3.53699 28.1041 5.51699 28.1041 7.57899ZM21.5101 18.11C21.5101 20.012 23.0531 21.559 24.9501 21.559H26.1391C26.6921 21.559 27.1391 22.006 27.1391 22.559V23.889C27.1391 24.485 27.6231 24.969 28.2191 24.969H28.3431V23.834C28.3431 23.281 28.7901 22.834 29.3431 22.834C29.8961 22.834 30.3431 23.281 30.3431 23.834V24.969H31.6551V23.834C31.6551 23.281 32.1021 22.834 32.6551 22.834C33.2081 22.834 33.6551 23.281 33.6551 23.834V24.969H33.7791C34.3751 24.969 34.8591 24.485 34.8591 23.889V22.559C34.8591 22.006 35.3061 21.559 35.8591 21.559H37.0481C38.9451 21.559 40.4881 20.012 40.4881 18.11V14.24C40.4881 10.766 38.6361 7.67199 35.7241 6.01299C35.8301 6.52399 35.8941 7.05199 35.8941 7.57899C35.8941 10.278 33.6981 12.475 30.9981 12.475C28.2981 12.475 26.1021 10.279 26.1021 7.57899C26.1021 7.04499 26.1631 6.52299 26.2621 6.01699C23.3571 7.67699 21.5091 10.771 21.5091 14.241L21.5101 18.11ZM19.5101 19.85V18.11V14.24C19.5101 13.766 19.5471 13.3 19.6031 12.84H18.1131V17.282C18.1131 17.835 17.6661 18.282 17.1131 18.282C16.5601 18.282 16.1131 17.835 16.1131 17.282V11.854C16.1131 11.849 16.1101 11.845 16.1101 11.839V5.73899C16.1101 5.71699 16.1101 5.67499 16.0381 5.64999C14.8681 7.14899 14.1061 9.27399 13.7011 11.978C13.7011 11.981 13.7021 11.984 13.7011 11.988C13.4931 13.368 13.3711 14.9 13.3281 16.672C13.2951 18.063 12.1311 19.194 10.7341 19.194C10.1811 19.194 9.73411 18.747 9.73411 18.194C9.73411 17.641 10.1811 17.194 10.7341 17.194C11.0541 17.194 11.3211 16.938 11.3281 16.624C11.3621 15.24 11.4431 13.991 11.5731 12.839H11.1401C8.42711 12.839 6.22011 15.051 6.22011 17.769V18.62C6.22011 21.338 8.42711 23.55 11.1401 23.55C12.5361 23.55 13.8751 22.952 14.8181 21.909L16.3661 20.182C16.5561 19.97 16.8271 19.849 17.1111 19.849L19.5101 19.85ZM11.5751 50.497L13.7391 41.633L11.7811 33.936C11.6231 33.313 11.2361 32.767 10.6901 32.399L2.09511 26.671L2.00711 26.731C3.09411 29.658 3.46911 32.657 3.12211 35.645C2.98411 36.897 2.69711 38.187 2.26811 39.476C2.08311 40.011 2.27611 40.593 2.72311 40.868C4.45111 41.941 5.92611 43.306 7.11511 44.929C8.77911 47.188 9.50411 49.476 9.81811 50.998C9.83211 51.06 9.87411 51.114 9.93911 51.144C9.98311 51.164 10.0671 51.187 10.1691 51.128C10.6281 50.878 11.0991 50.676 11.5751 50.497ZM50.6871 60L46.2591 41.867C45.8471 40.202 44.7381 38.811 43.2151 38.055L40.6701 36.772C40.4341 36.653 40.2531 36.444 40.1701 36.192C40.0871 35.94 40.1081 35.666 40.2281 35.429L43.4381 29.069C43.6761 28.595 43.7021 28.062 43.5101 27.569C43.3191 27.077 42.9411 26.703 42.4461 26.514L42.0131 26.348C41.4761 28.159 40.4981 29.817 39.1281 31.187C36.9581 33.355 34.0711 34.55 31.0001 34.55C25.8071 34.55 21.4131 31.085 19.9951 26.347L19.5581 26.514C19.0601 26.703 18.6821 27.077 18.4911 27.57C18.3001 28.063 18.3251 28.596 18.5641 29.071L21.7731 35.43C21.8931 35.666 21.9141 35.942 21.8301 36.194C21.7471 36.446 21.5671 36.655 21.3291 36.774L18.7791 38.054C17.2601 38.813 16.1541 40.203 15.7411 41.87L11.3131 60H50.6871ZM59.9921 26.731C59.9911 26.731 59.9051 26.671 59.9041 26.671L51.3041 32.401C50.7631 32.762 50.3771 33.306 50.2191 33.934L48.2601 41.632L50.4241 50.495C50.8991 50.673 51.3681 50.874 51.8181 51.121C51.9321 51.183 52.0161 51.159 52.0581 51.142C52.1231 51.113 52.1651 51.059 52.1821 50.985C52.4941 49.477 53.2151 47.192 54.8701 44.927C56.0711 43.301 57.5511 41.937 59.2701 40.868C59.7201 40.592 59.9131 40.01 59.7321 39.483C59.2991 38.185 59.0121 36.895 58.8741 35.637C58.5301 32.657 58.9051 29.658 59.9921 26.731ZM53.4491 34.062C53.1781 33.782 52.7651 33.685 52.3971 33.813C52.0281 33.943 51.7681 34.276 51.7331 34.666L50.9211 43.607C50.8711 44.158 51.2761 44.644 51.8261 44.694C51.8571 44.697 51.8881 44.698 51.9181 44.698C52.4301 44.698 52.8651 44.307 52.9131 43.789L53.5271 37.025L56.0631 39.655C56.4481 40.053 57.0811 40.065 57.4771 39.68C57.8741 39.297 57.8861 38.663 57.5021 38.266L53.4491 34.062ZM32.3721 17.052C32.3721 15.291 33.8041 13.86 35.5641 13.86C37.3241 13.86 38.7571 15.292 38.7571 17.052C38.7571 18.812 37.3241 20.244 35.5641 20.244C33.8041 20.244 32.3721 18.812 32.3721 17.052ZM34.3721 17.052C34.3721 17.709 34.9071 18.244 35.5641 18.244C36.2221 18.244 36.7571 17.709 36.7571 17.052C36.7571 16.395 36.2221 15.86 35.5641 15.86C34.9071 15.859 34.3721 16.395 34.3721 17.052ZM23.2421 17.052C23.2421 15.291 24.6741 13.86 26.4341 13.86C28.1941 13.86 29.6261 15.292 29.6261 17.052C29.6261 18.812 28.1941 20.244 26.4341 20.244C24.6741 20.244 23.2421 18.812 23.2421 17.052ZM25.2421 17.052C25.2421 17.709 25.7771 18.244 26.4341 18.244C27.0911 18.244 27.6261 17.709 27.6261 17.052C27.6261 16.395 27.0911 15.86 26.4341 15.86C25.7771 15.86 25.2421 16.395 25.2421 17.052ZM31.0001 21.244C31.5521 21.244 32.0001 20.796 32.0001 20.244C32.0001 19.692 31.5521 19.244 31.0001 19.244C30.4481 19.244 30.0001 19.692 30.0001 20.244C30.0001 20.797 30.4471 21.244 31.0001 21.244Z" fill="#772e25"/>
</svg>
