<svg width="54" height="63" viewBox="0 0 54 63" fill="none" xmlns="http://www.w3.org/2000/svg">
<path d="M30.1035 37.0449C30.0959 36.9457 30.1279 36.8476 30.1926 36.772C30.2572 36.6964 30.3491 36.6495 30.4483 36.6415C31.0777 36.5927 31.6924 36.5318 32.2925 36.4589C32.3414 36.453 32.3909 36.4568 32.4383 36.4701C32.4857 36.4833 32.53 36.5058 32.5688 36.5361C32.6075 36.5665 32.6398 36.6042 32.664 36.6471C32.6881 36.69 32.7036 36.7372 32.7095 36.7861C32.7154 36.8349 32.7116 36.8845 32.6984 36.9319C32.6851 36.9793 32.6627 37.0236 32.6323 37.0623C32.6019 37.101 32.5642 37.1334 32.5213 37.1575C32.4784 37.1817 32.4312 37.1972 32.3823 37.2031C31.773 37.2773 31.1478 37.3395 30.5069 37.3896L30.4771 37.3906C30.3828 37.3904 30.292 37.3548 30.2228 37.2907C30.1536 37.2266 30.111 37.1389 30.1035 37.0449ZM21.1006 37.206C21.71 37.2802 22.3369 37.3417 22.9771 37.3915L23.0064 37.3925C23.1032 37.3923 23.1963 37.3546 23.266 37.2873C23.3357 37.2201 23.3766 37.1284 23.3803 37.0316C23.3839 36.9348 23.35 36.8404 23.2856 36.768C23.2212 36.6957 23.1313 36.6511 23.0347 36.6435C22.4053 36.5957 21.7905 36.5351 21.1905 36.4619C21.0918 36.45 20.9924 36.4778 20.9142 36.5391C20.836 36.6005 20.7854 36.6904 20.7735 36.7891C20.7615 36.8877 20.7893 36.9871 20.8507 37.0653C20.912 37.1435 21.0019 37.1941 21.1006 37.206ZM25.7993 37.5253C26.1069 37.5312 26.4165 37.5341 26.7281 37.5341C27.0484 37.5331 27.3667 37.5299 27.6831 37.5243C27.7826 37.5225 27.8772 37.4813 27.9463 37.4097C28.0153 37.3381 28.0531 37.242 28.0513 37.1425C28.0495 37.0431 28.0082 36.9484 27.9366 36.8793C27.865 36.8103 27.7689 36.7725 27.6695 36.7743C27.0537 36.787 26.4287 36.788 25.814 36.7753C25.764 36.7715 25.7138 36.7782 25.6666 36.7952C25.6194 36.8121 25.5763 36.8389 25.5402 36.8736C25.5041 36.9084 25.4758 36.9504 25.457 36.997C25.4383 37.0435 25.4297 37.0934 25.4317 37.1435C25.4307 37.1927 25.4395 37.2416 25.4575 37.2875C25.4754 37.3333 25.5022 37.3751 25.5364 37.4106C25.5705 37.4461 25.6113 37.4745 25.6565 37.4941C25.7016 37.5138 25.7501 37.5244 25.7993 37.5253ZM45.7383 59.746V60.0097H50.6812C50.9464 60.0097 51.2008 60.1151 51.3883 60.3026C51.5758 60.4901 51.6812 60.7445 51.6812 61.0097C51.6812 61.2749 51.5758 61.5293 51.3883 61.7168C51.2008 61.9043 50.9464 62.0097 50.6812 62.0097H2.00002C1.86869 62.0097 1.73864 61.9839 1.6173 61.9337C1.49595 61.8834 1.3857 61.8098 1.29283 61.7169C1.19997 61.624 1.12631 61.5138 1.07607 61.3924C1.02583 61.2711 0.999985 61.141 1.00002 61.0097C0.996877 60.0292 1.35238 59.0815 1.99957 58.345C2.64675 57.6085 3.54094 57.134 4.51365 57.0111C5.48637 56.8881 6.47047 57.1252 7.28056 57.6775C8.09065 58.2298 8.67079 59.0593 8.9117 60.0097H9.6387V57.5929C8.61079 57.3482 7.71187 56.7272 7.11921 55.8524C6.52655 54.9777 6.28316 53.9126 6.43704 52.8672L7.0762 48.4551C7.20015 47.5987 7.62848 46.8156 8.28272 46.2492C8.93697 45.6828 9.77336 45.3711 10.6387 45.3711C11.504 45.3711 12.3404 45.6828 12.9947 46.2492C13.6489 46.8156 14.0772 47.5987 14.2012 48.4551L14.8409 52.8672C14.9943 53.9126 14.7507 54.9775 14.158 55.8522C13.5653 56.7269 12.6665 57.3479 11.6387 57.5929V60.0097H15.2391C15.4634 59.1454 15.9673 58.3795 16.6723 57.8314C17.3773 57.2833 18.2438 56.9837 19.1367 56.9795C19.2525 56.9795 19.3667 56.9843 19.48 56.9931C19.5126 56.6095 19.4859 56.2231 19.4009 55.8476L17.8886 49.7605C17.4357 49.654 16.9832 49.5478 16.5566 49.4277C16.13 49.3046 15.7587 49.0384 15.5052 48.6738C15.2517 48.3093 15.1314 47.8686 15.1645 47.4258L15.3064 45.4718C14.8661 45.5813 14.4065 45.5885 13.9629 45.493C13.5194 45.3974 13.1036 45.2015 12.7474 44.9204C12.3913 44.6393 12.1042 44.2804 11.9082 43.8711C11.7122 43.4619 11.6125 43.0133 11.6167 42.5595V40.6103L12.8799 23.666C13.0147 21.9714 13.7808 20.3891 15.0265 19.2324C16.2723 18.0757 17.9069 17.4288 19.6069 17.4199H22.9365C23.0867 17.4161 23.2326 17.3692 23.3567 17.2846C23.126 17.1389 22.9113 16.9691 22.7163 16.7783L21.5278 15.6025C21.1296 15.2122 20.8133 14.7464 20.5976 14.2322C20.3818 13.718 20.2709 13.166 20.2715 12.6084V12.2849C19.4861 12.2715 18.7373 11.9504 18.1862 11.3908C17.635 10.8311 17.3255 10.0775 17.3242 9.29197V9.03416C17.3249 8.3967 17.5784 7.78554 18.0291 7.33479C18.4799 6.88403 19.091 6.63051 19.7285 6.62986H20.2451C20.2549 6.62986 20.2645 6.63186 20.2743 6.632C20.3046 3.31309 22.952 1 26.7368 1C30.5224 1 33.1702 3.31415 33.1994 6.63409C33.2093 6.63397 33.2186 6.62988 33.2285 6.62988H33.7446C34.3821 6.63054 34.9932 6.88406 35.444 7.33481C35.8947 7.78556 36.1483 8.39672 36.1489 9.03418V9.29199C36.1476 10.0774 35.8382 10.8309 35.2872 11.3906C34.7361 11.9503 33.9875 12.2714 33.2022 12.2849V12.6474C33.2027 13.7428 32.7741 14.7948 32.0084 15.5781L30.9019 16.7206C30.6773 16.9457 30.4259 17.1424 30.1534 17.3063C30.2691 17.377 30.4012 17.4161 30.5367 17.4199H33.8668C35.5664 17.4287 37.2008 18.0752 38.4466 19.2316C39.6923 20.3879 40.4586 21.9697 40.5938 23.664L41.854 40.5361L41.8569 42.5595C41.8612 43.0134 41.7615 43.4622 41.5654 43.8716C41.3693 44.2809 41.082 44.6399 40.7257 44.921C40.3693 45.2021 39.9533 45.3979 39.5096 45.4933C39.0658 45.5887 38.6061 45.5812 38.1657 45.4713L38.3091 47.4326C38.328 47.7176 38.2832 48.0033 38.1779 48.2689C38.7436 47.9199 39.3857 47.7137 40.0489 47.6679C40.5342 46.8338 41.2301 46.1418 42.0669 45.6613C42.9037 45.1807 43.8521 44.9284 44.8171 44.9296C45.7821 44.9308 46.7299 45.1854 47.5655 45.668C48.4012 46.1507 49.0954 46.8443 49.5786 47.6796C50.6374 47.7836 51.6156 48.2907 52.3108 49.0959C53.006 49.9011 53.3651 50.9428 53.3136 52.0053C53.2622 53.0679 52.8042 54.07 52.0344 54.8043C51.2647 55.5386 50.2421 55.9488 49.1783 55.9501C49.1261 55.9501 49.074 55.9462 49.0225 55.9384L48.0998 55.7928C47.0719 56.9606 45.7383 58.8492 45.7383 59.746ZM8.94094 54.9453C9.15794 55.1787 9.42072 55.3648 9.71287 55.4921C10.005 55.6194 10.3203 55.685 10.6389 55.685C10.9576 55.685 11.2729 55.6194 11.565 55.4921C11.8572 55.3648 12.1199 55.1787 12.3369 54.9453C12.5478 54.7019 12.7038 54.416 12.7943 54.1069C12.8848 53.7979 12.9077 53.473 12.8614 53.1543L12.2217 48.7422C12.1668 48.3615 11.9765 48.0134 11.6858 47.7616C11.3951 47.5098 11.0233 47.3712 10.6387 47.3712C10.2541 47.3712 9.88235 47.5098 9.59162 47.7616C9.30088 48.0134 9.11062 48.3615 9.0557 48.7422L8.41654 53.1543C8.37021 53.473 8.39307 53.7979 8.48356 54.1069C8.57405 54.416 8.73005 54.7019 8.94094 54.9453ZM45.8038 55.4308L44.7383 55.2627L43.6859 55.4289C44.155 55.7796 44.5761 56.1904 44.9384 56.6507C45.2242 56.2063 45.5252 55.7901 45.8038 55.4308ZM43.7522 59.5559C43.7505 59.532 43.7383 59.5116 43.7383 59.4873V58.7803C43.7383 57.6172 41.6256 56.3682 40.6026 55.9453C40.5888 55.9396 40.5804 55.9276 40.567 55.9214L40.465 55.9375C40.4133 55.9461 40.3611 55.9504 40.3087 55.9502C39.2083 55.9489 38.1534 55.5112 37.3753 54.7332C36.5972 53.9551 36.1595 52.9002 36.1582 51.7998C36.1606 50.9507 36.4269 50.1233 36.9202 49.4323L36.9116 49.4355C36.4897 49.5539 36.0436 49.6609 35.5956 49.7674L34.0669 55.873C33.9851 56.2414 33.9602 56.6201 33.9932 56.996C34.9416 56.9187 35.8869 57.1786 36.6626 57.7299C37.4382 58.2812 37.9944 59.0885 38.2332 60.0097H43.7383V59.746C43.7383 59.6841 43.7476 59.6192 43.7522 59.5559ZM26.0923 57.9062L26.6636 59.4414C26.7021 59.5606 26.7284 59.6835 26.7422 59.808C26.7559 59.6829 26.7821 59.5594 26.8203 59.4394L27.3897 57.9111C27.625 57.2699 27.6793 56.5762 27.5464 55.9062L26.7364 52.4284L25.9209 55.9267C25.7937 56.5897 25.8531 57.275 26.0923 57.9062ZM29.2656 58.6035L28.7423 60.0097H36.0982C35.9232 59.6987 35.669 59.4395 35.3613 59.2585C35.0537 59.0776 34.7036 58.9813 34.3467 58.9795C34.0971 58.9799 33.85 59.029 33.6192 59.124C33.4935 59.1762 33.3586 59.2021 33.2225 59.2003C33.0865 59.1984 32.9522 59.1688 32.828 59.1132C32.7039 59.0576 32.5923 58.9772 32.5003 58.877C32.4083 58.7767 32.3378 58.6587 32.293 58.5303C31.9455 57.5273 31.8858 56.4472 32.1207 55.4121L33.4262 50.1959C31.7574 50.4632 30.0737 50.6275 28.3846 50.688L29.501 55.4834C29.7127 56.5252 29.6312 57.6053 29.2656 58.6035ZM38.1582 51.7998C38.1589 52.3576 38.376 52.8933 38.7638 53.2943C39.1516 53.6952 39.6798 53.93 40.2373 53.9492L44.582 53.2627C44.6853 53.2451 44.7908 53.2451 44.894 53.2627L49.249 53.9492C49.8106 53.9293 50.342 53.6899 50.7289 53.2824C51.1158 52.8748 51.3273 52.3318 51.318 51.7699C51.3088 51.2081 51.0794 50.6723 50.6793 50.2778C50.2791 49.8832 49.7402 49.6615 49.1782 49.6601C48.9499 49.6923 48.7172 49.652 48.5129 49.545C48.3087 49.4379 48.1431 49.2695 48.0396 49.0634C47.7695 48.4298 47.3189 47.8896 46.7439 47.5101C46.169 47.1307 45.4951 46.9288 44.8063 46.9297C44.1174 46.9305 43.444 47.134 42.87 47.5148C42.296 47.8956 41.8467 48.4369 41.5781 49.0713C41.4961 49.2661 41.3541 49.4296 41.1728 49.5383C40.9915 49.647 40.7803 49.6951 40.5698 49.6758C40.4878 49.6689 40.398 49.6601 40.3086 49.6601C39.7399 49.6594 39.1942 49.8843 38.791 50.2854C38.3879 50.6865 38.1603 51.2311 38.1582 51.7998ZM36.3123 20.117L37.807 40.5638C37.8089 40.5858 37.9864 43.0171 37.9864 43.0171C38.0676 43.1787 38.1919 43.3149 38.3455 43.4106C38.499 43.5063 38.676 43.5578 38.857 43.5596C39.1221 43.5593 39.3763 43.4538 39.5638 43.2664C39.7512 43.0789 39.8567 42.8247 39.857 42.5596V40.6103L38.5996 23.8144C38.5388 23.0609 38.2996 22.3327 37.9019 21.6899C37.5042 21.047 36.9593 20.5079 36.3123 20.117ZM33.2285 8.62986C33.2195 8.62986 33.2111 8.63334 33.2022 8.63364V10.2798C33.4565 10.2679 33.6966 10.1588 33.8728 9.97495C34.049 9.79112 34.1479 9.54661 34.149 9.29197V9.03416C34.1488 8.92697 34.1062 8.82421 34.0304 8.74842C33.9546 8.67263 33.8518 8.62999 33.7447 8.62986H33.2285ZM20.2715 10.2798V8.63376C20.2625 8.63345 20.2542 8.62985 20.2452 8.62985H19.7286C19.6214 8.62998 19.5186 8.67262 19.4428 8.74841C19.367 8.8242 19.3244 8.92696 19.3243 9.03415V9.29196C19.3255 9.54664 19.4244 9.79115 19.6007 9.97498C19.7769 10.1588 20.0171 10.2679 20.2715 10.2798ZM22.9346 14.1806L24.1231 15.3564C24.4932 15.7181 24.9904 15.9204 25.5079 15.9199H28.0528C28.3159 15.9202 28.5763 15.8681 28.819 15.7665C29.0616 15.6648 29.2816 15.5158 29.4659 15.3281L30.5723 14.1855C30.9754 13.775 31.2015 13.2228 31.2022 12.6474V6.68844C31.2022 4.14059 28.9595 2.99997 26.7369 2.99997C24.5142 2.99997 22.2715 4.1406 22.2715 6.68845V12.6084C22.2717 12.9014 22.3304 13.1915 22.4443 13.4615C22.5582 13.7315 22.7249 13.976 22.9346 14.1806ZM15.6167 42.5596C15.6167 42.5596 15.6487 40.5461 15.6494 40.5361L16.7998 24.9765C16.8095 24.8456 16.8449 24.7179 16.9039 24.6006C16.963 24.4833 17.0446 24.3788 17.144 24.2931C17.2434 24.2074 17.3588 24.142 17.4835 24.1009C17.6081 24.0597 17.7397 24.0435 17.8706 24.0532C18.0016 24.0629 18.1293 24.0983 18.2466 24.1573C18.3638 24.2164 18.4683 24.2979 18.5541 24.3974C18.6398 24.4968 18.7051 24.6122 18.7463 24.7368C18.7875 24.8615 18.8037 24.9931 18.794 25.124L18.3234 31.4888C21.6309 30.0732 29.7356 25.9787 31.0524 19.4199H30.5366C30.0265 19.42 29.5261 19.2801 29.0901 19.0154C28.654 18.7507 28.2989 18.3714 28.0636 17.9188L28.0527 17.9199H25.5078C25.476 17.9199 25.4451 17.9114 25.4133 17.9106C25.1788 18.3653 24.8237 18.7467 24.3868 19.0129C23.9499 19.2792 23.4482 19.42 22.9365 19.4199H19.607C18.4108 19.4267 17.2607 19.8822 16.3843 20.6964C15.5078 21.5105 14.9689 22.6239 14.874 23.8163L13.6138 40.6846L13.6167 42.5596C13.6167 42.8248 13.7221 43.0791 13.9096 43.2667C14.0972 43.4542 14.3515 43.5596 14.6167 43.5596C14.8819 43.5596 15.1363 43.4542 15.3238 43.2667C15.5114 43.0791 15.6167 42.8248 15.6167 42.5596ZM17.4453 43.6357L17.1592 47.5713C17.6265 47.6504 18.1768 47.7871 18.7446 47.914C21.0454 48.3943 23.3867 48.6543 25.7368 48.6907V46C25.7368 45.7348 25.8422 45.4804 26.0297 45.2929C26.2173 45.1053 26.4716 45 26.7368 45C27.0021 45 27.2564 45.1053 27.4439 45.2929C27.6315 45.4804 27.7368 45.7348 27.7368 46V48.69C30.1021 48.6505 32.4586 48.3901 34.7754 47.9121C35.3228 47.7881 35.8574 47.6533 36.3721 47.5097L36.0853 43.7011C35.9349 43.3393 35.8573 42.9514 35.857 42.5596C35.857 42.5596 35.8402 40.5725 35.8462 40.5252L35.5564 36.6775C35.4301 36.7043 35.3083 36.7331 35.1797 36.7588C35.0821 36.7782 34.9807 36.758 34.8979 36.7027C34.8151 36.6474 34.7577 36.5615 34.7383 36.4638C34.7189 36.3662 34.739 36.2648 34.7943 36.1821C34.8497 36.0993 34.9356 36.0419 35.0332 36.0224C35.1922 35.9908 35.344 35.9558 35.4996 35.9224L34.2599 19.4581C34.1283 19.4469 34.0009 19.4199 33.8667 19.4199H33.0869C31.6816 27.9296 20.7685 32.6936 18.1586 33.7176L17.9948 35.9338C18.1433 35.9651 18.2878 35.9986 18.4395 36.0283C18.5309 36.0462 18.6124 36.0975 18.6681 36.1722C18.7238 36.2469 18.7496 36.3397 18.7407 36.4324C18.7317 36.5252 18.6886 36.6113 18.6196 36.6739C18.5507 36.7366 18.4609 36.7714 18.3677 36.7715C18.3433 36.7716 18.3189 36.7693 18.2949 36.7646C18.1736 36.7407 18.0584 36.7135 17.9389 36.6886L17.6462 40.6486L17.6167 42.5751C17.6131 42.9107 17.5518 43.2431 17.4354 43.5578C17.4356 43.5846 17.4473 43.6085 17.4453 43.6357ZM17.3772 60.0097H24.7411L24.2198 58.6084C23.8469 57.6182 23.7589 56.5434 23.9658 55.5058L25.0883 50.6877C23.4028 50.6282 21.7226 50.4635 20.0576 50.1946L21.3476 55.3886C21.5886 56.4284 21.5303 57.5152 21.1796 58.5234C21.1344 58.651 21.0638 58.7682 20.9719 58.8677C20.88 58.9673 20.7689 59.0471 20.6452 59.1024C20.5216 59.1576 20.3879 59.1872 20.2525 59.1892C20.1171 59.1912 19.9826 59.1657 19.8574 59.1142C19.6281 59.023 19.3834 58.9773 19.1367 58.9794C18.7787 58.9814 18.4276 59.0777 18.1187 59.2586C17.8098 59.4395 17.5541 59.6985 17.3772 60.0097ZM6.79006 60.0097C6.61357 59.6971 6.35717 59.4369 6.04711 59.2559C5.73704 59.0748 5.38445 58.9794 5.02541 58.9794C4.66637 58.9794 4.31378 59.0748 4.00371 59.2559C3.69365 59.4369 3.43725 59.6971 3.26076 60.0097H6.79006Z" fill="#772E25" stroke="#772E25" stroke-width="0.1"/>
</svg>
