<svg width="53" height="61" viewBox="0 0 53 61" fill="none" xmlns="http://www.w3.org/2000/svg">
<path d="M29.1035 36.0449C29.0959 35.9457 29.1279 35.8476 29.1926 35.772C29.2572 35.6964 29.3491 35.6495 29.4483 35.6415C30.0777 35.5927 30.6924 35.5318 31.2925 35.4589C31.3414 35.453 31.3909 35.4568 31.4383 35.4701C31.4857 35.4833 31.53 35.5058 31.5688 35.5361C31.6075 35.5665 31.6398 35.6042 31.664 35.6471C31.6881 35.69 31.7036 35.7372 31.7095 35.7861C31.7154 35.8349 31.7116 35.8845 31.6984 35.9319C31.6851 35.9793 31.6627 36.0236 31.6323 36.0623C31.6019 36.101 31.5642 36.1334 31.5213 36.1575C31.4784 36.1817 31.4312 36.1972 31.3823 36.2031C30.773 36.2773 30.1478 36.3395 29.5069 36.3896L29.4771 36.3906C29.3828 36.3904 29.292 36.3548 29.2228 36.2907C29.1536 36.2266 29.111 36.1389 29.1035 36.0449ZM20.1006 36.206C20.71 36.2802 21.3369 36.3417 21.9771 36.3915L22.0064 36.3925C22.1032 36.3923 22.1963 36.3546 22.266 36.2873C22.3357 36.2201 22.3766 36.1284 22.3803 36.0316C22.3839 35.9348 22.35 35.8404 22.2856 35.768C22.2212 35.6957 22.1313 35.6511 22.0347 35.6435C21.4053 35.5957 20.7905 35.5351 20.1905 35.4619C20.0918 35.45 19.9924 35.4778 19.9142 35.5391C19.836 35.6005 19.7854 35.6904 19.7735 35.7891C19.7615 35.8877 19.7893 35.9871 19.8507 36.0653C19.912 36.1435 20.0019 36.1941 20.1006 36.206ZM24.7993 36.5253C25.1069 36.5312 25.4165 36.5341 25.7281 36.5341C26.0484 36.5331 26.3667 36.5299 26.6831 36.5243C26.7826 36.5225 26.8772 36.4813 26.9463 36.4097C27.0153 36.3381 27.0531 36.242 27.0513 36.1425C27.0495 36.0431 27.0082 35.9484 26.9366 35.8793C26.865 35.8103 26.7689 35.7725 26.6695 35.7743C26.0537 35.787 25.4287 35.788 24.814 35.7753C24.764 35.7715 24.7138 35.7782 24.6666 35.7952C24.6194 35.8121 24.5763 35.8389 24.5402 35.8736C24.5041 35.9084 24.4758 35.9504 24.457 35.997C24.4383 36.0435 24.4297 36.0934 24.4317 36.1435C24.4307 36.1927 24.4395 36.2416 24.4575 36.2875C24.4754 36.3333 24.5022 36.3751 24.5364 36.4106C24.5705 36.4461 24.6113 36.4745 24.6565 36.4941C24.7016 36.5138 24.7501 36.5244 24.7993 36.5253ZM44.7383 58.746V59.0097H49.6812C49.9464 59.0097 50.2008 59.1151 50.3883 59.3026C50.5758 59.4901 50.6812 59.7445 50.6812 60.0097C50.6812 60.2749 50.5758 60.5293 50.3883 60.7168C50.2008 60.9043 49.9464 61.0097 49.6812 61.0097H1.00002C0.868689 61.0097 0.738637 60.9839 0.617295 60.9337C0.495954 60.8834 0.385701 60.8098 0.292835 60.7169C0.199969 60.624 0.126311 60.5138 0.076069 60.3924C0.0258269 60.2711 -1.47961e-05 60.141 2.06779e-05 60.0097C-0.00312345 59.0292 0.352385 58.0815 0.999569 57.345C1.64675 56.6085 2.54094 56.134 3.51365 56.0111C4.48637 55.8881 5.47047 56.1252 6.28056 56.6775C7.09065 57.2298 7.67079 58.0593 7.9117 59.0097H8.6387V56.5929C7.61079 56.3482 6.71187 55.7272 6.11921 54.8524C5.52655 53.9777 5.28316 52.9126 5.43704 51.8672L6.0762 47.4551C6.20015 46.5987 6.62848 45.8156 7.28272 45.2492C7.93697 44.6828 8.77336 44.3711 9.6387 44.3711C10.504 44.3711 11.3404 44.6828 11.9947 45.2492C12.6489 45.8156 13.0772 46.5987 13.2012 47.4551L13.8409 51.8672C13.9943 52.9126 13.7507 53.9775 13.158 54.8522C12.5653 55.7269 11.6665 56.3479 10.6387 56.5929V59.0097H14.2391C14.4634 58.1454 14.9673 57.3795 15.6723 56.8314C16.3773 56.2833 17.2438 55.9837 18.1367 55.9795C18.2525 55.9795 18.3667 55.9843 18.48 55.9931C18.5126 55.6095 18.4859 55.2231 18.4009 54.8476L16.8886 48.7605C16.4357 48.654 15.9832 48.5478 15.5566 48.4277C15.13 48.3046 14.7587 48.0384 14.5052 47.6738C14.2517 47.3093 14.1314 46.8686 14.1645 46.4258L14.3064 44.4718C13.8661 44.5813 13.4065 44.5885 12.9629 44.493C12.5194 44.3974 12.1036 44.2015 11.7474 43.9204C11.3913 43.6393 11.1042 43.2804 10.9082 42.8711C10.7122 42.4619 10.6125 42.0133 10.6167 41.5595V39.6103L11.8799 22.666C12.0147 20.9714 12.7808 19.3891 14.0265 18.2324C15.2723 17.0757 16.9069 16.4288 18.6069 16.4199H21.9365C22.0867 16.4161 22.2326 16.3692 22.3567 16.2846C22.126 16.1389 21.9113 15.9691 21.7163 15.7783L20.5278 14.6025C20.1296 14.2122 19.8133 13.7464 19.5976 13.2322C19.3818 12.718 19.2709 12.166 19.2715 11.6084V11.2849C18.4861 11.2715 17.7373 10.9504 17.1862 10.3908C16.635 9.83107 16.3255 9.07746 16.3242 8.29197V8.03416C16.3249 7.3967 16.5784 6.78554 17.0291 6.33479C17.4799 5.88403 18.091 5.63051 18.7285 5.62986H19.2451C19.2549 5.62986 19.2645 5.63186 19.2743 5.632C19.3046 2.31309 21.952 0 25.7368 0C29.5224 0 32.1702 2.31415 32.1994 5.63409C32.2093 5.63397 32.2186 5.62988 32.2285 5.62988H32.7446C33.3821 5.63054 33.9932 5.88406 34.444 6.33481C34.8947 6.78556 35.1483 7.39672 35.1489 8.03418V8.29199C35.1476 9.07739 34.8382 9.83093 34.2872 10.3906C33.7361 10.9503 32.9875 11.2714 32.2022 11.2849V11.6474C32.2027 12.7428 31.7741 13.7948 31.0084 14.5781L29.9019 15.7206C29.6773 15.9457 29.4259 16.1424 29.1534 16.3063C29.2691 16.377 29.4012 16.4161 29.5367 16.4199H32.8668C34.5664 16.4287 36.2008 17.0752 37.4466 18.2316C38.6923 19.3879 39.4586 20.9697 39.5938 22.664L40.854 39.5361L40.8569 41.5595C40.8612 42.0134 40.7615 42.4622 40.5654 42.8716C40.3693 43.2809 40.082 43.6399 39.7257 43.921C39.3693 44.2021 38.9533 44.3979 38.5096 44.4933C38.0658 44.5887 37.6061 44.5812 37.1657 44.4713L37.3091 46.4326C37.328 46.7176 37.2832 47.0033 37.1779 47.2689C37.7436 46.9199 38.3857 46.7137 39.0489 46.6679C39.5342 45.8338 40.2301 45.1418 41.0669 44.6613C41.9037 44.1807 42.8521 43.9284 43.8171 43.9296C44.7821 43.9308 45.7299 44.1854 46.5655 44.668C47.4012 45.1507 48.0954 45.8443 48.5786 46.6796C49.6374 46.7836 50.6156 47.2907 51.3108 48.0959C52.006 48.9011 52.3651 49.9428 52.3136 51.0053C52.2622 52.0679 51.8042 53.07 51.0344 53.8043C50.2647 54.5386 49.2421 54.9488 48.1783 54.9501C48.1261 54.9501 48.074 54.9462 48.0225 54.9384L47.0998 54.7928C46.0719 55.9606 44.7383 57.8492 44.7383 58.746ZM7.94094 53.9453C8.15794 54.1787 8.42072 54.3648 8.71287 54.4921C9.00502 54.6194 9.32027 54.685 9.63894 54.685C9.95761 54.685 10.2729 54.6194 10.565 54.4921C10.8572 54.3648 11.1199 54.1787 11.3369 53.9453C11.5478 53.7019 11.7038 53.416 11.7943 53.1069C11.8848 52.7979 11.9077 52.473 11.8614 52.1543L11.2217 47.7422C11.1668 47.3615 10.9765 47.0134 10.6858 46.7616C10.3951 46.5098 10.0233 46.3712 9.6387 46.3712C9.25408 46.3712 8.88235 46.5098 8.59162 46.7616C8.30088 47.0134 8.11062 47.3615 8.0557 47.7422L7.41654 52.1543C7.37021 52.473 7.39307 52.7979 7.48356 53.1069C7.57405 53.416 7.73005 53.7019 7.94094 53.9453ZM44.8038 54.4308L43.7383 54.2627L42.6859 54.4289C43.155 54.7796 43.5761 55.1904 43.9384 55.6507C44.2242 55.2063 44.5252 54.7901 44.8038 54.4308ZM42.7522 58.5559C42.7505 58.532 42.7383 58.5116 42.7383 58.4873V57.7803C42.7383 56.6172 40.6256 55.3682 39.6026 54.9453C39.5888 54.9396 39.5804 54.9276 39.567 54.9214L39.465 54.9375C39.4133 54.9461 39.3611 54.9504 39.3087 54.9502C38.2083 54.9489 37.1534 54.5112 36.3753 53.7332C35.5972 52.9551 35.1595 51.9002 35.1582 50.7998C35.1606 49.9507 35.4269 49.1233 35.9202 48.4323L35.9116 48.4355C35.4897 48.5539 35.0436 48.6609 34.5956 48.7674L33.0669 54.873C32.9851 55.2414 32.9602 55.6201 32.9932 55.996C33.9416 55.9187 34.8869 56.1786 35.6626 56.7299C36.4382 57.2812 36.9944 58.0885 37.2332 59.0097H42.7383V58.746C42.7383 58.6841 42.7476 58.6192 42.7522 58.5559ZM25.0923 56.9062L25.6636 58.4414C25.7021 58.5606 25.7284 58.6835 25.7422 58.808C25.7559 58.6829 25.7821 58.5594 25.8203 58.4394L26.3897 56.9111C26.625 56.2699 26.6793 55.5762 26.5464 54.9062L25.7364 51.4284L24.9209 54.9267C24.7937 55.5897 24.8531 56.275 25.0923 56.9062ZM28.2656 57.6035L27.7423 59.0097H35.0982C34.9232 58.6987 34.669 58.4395 34.3613 58.2585C34.0537 58.0776 33.7036 57.9813 33.3467 57.9795C33.0971 57.9799 32.85 58.029 32.6192 58.124C32.4935 58.1762 32.3586 58.2021 32.2225 58.2003C32.0865 58.1984 31.9522 58.1688 31.828 58.1132C31.7039 58.0576 31.5923 57.9772 31.5003 57.877C31.4083 57.7767 31.3378 57.6587 31.293 57.5303C30.9455 56.5273 30.8858 55.4472 31.1207 54.4121L32.4262 49.1959C30.7574 49.4632 29.0737 49.6275 27.3846 49.688L28.501 54.4834C28.7127 55.5252 28.6312 56.6053 28.2656 57.6035ZM37.1582 50.7998C37.1589 51.3576 37.376 51.8933 37.7638 52.2943C38.1516 52.6952 38.6798 52.93 39.2373 52.9492L43.582 52.2627C43.6853 52.2451 43.7908 52.2451 43.894 52.2627L48.249 52.9492C48.8106 52.9293 49.342 52.6899 49.7289 52.2824C50.1158 51.8748 50.3273 51.3318 50.318 50.7699C50.3088 50.2081 50.0794 49.6723 49.6793 49.2778C49.2791 48.8832 48.7402 48.6615 48.1782 48.6601C47.9499 48.6923 47.7172 48.652 47.5129 48.545C47.3087 48.4379 47.1431 48.2695 47.0396 48.0634C46.7695 47.4298 46.3189 46.8896 45.7439 46.5101C45.169 46.1307 44.4951 45.9288 43.8063 45.9297C43.1174 45.9305 42.444 46.134 41.87 46.5148C41.296 46.8956 40.8467 47.4369 40.5781 48.0713C40.4961 48.2661 40.3541 48.4296 40.1728 48.5383C39.9915 48.647 39.7803 48.6951 39.5698 48.6758C39.4878 48.6689 39.398 48.6601 39.3086 48.6601C38.7399 48.6594 38.1942 48.8843 37.791 49.2854C37.3879 49.6865 37.1603 50.2311 37.1582 50.7998ZM35.3123 19.117L36.807 39.5638C36.8089 39.5858 36.9864 42.0171 36.9864 42.0171C37.0676 42.1787 37.1919 42.3149 37.3455 42.4106C37.499 42.5063 37.676 42.5578 37.857 42.5596C38.1221 42.5593 38.3763 42.4538 38.5638 42.2664C38.7512 42.0789 38.8567 41.8247 38.857 41.5596V39.6103L37.5996 22.8144C37.5388 22.0609 37.2996 21.3327 36.9019 20.6899C36.5042 20.047 35.9593 19.5079 35.3123 19.117ZM32.2285 7.62986C32.2195 7.62986 32.2111 7.63334 32.2022 7.63364V9.27976C32.4565 9.26791 32.6966 9.15879 32.8728 8.97495C33.049 8.79112 33.1479 8.54661 33.149 8.29197V8.03416C33.1488 7.92697 33.1062 7.82421 33.0304 7.74842C32.9546 7.67263 32.8518 7.62999 32.7447 7.62986H32.2285ZM19.2715 9.27976V7.63376C19.2625 7.63345 19.2542 7.62985 19.2452 7.62985H18.7286C18.6214 7.62998 18.5186 7.67262 18.4428 7.74841C18.367 7.8242 18.3244 7.92696 18.3243 8.03415V8.29196C18.3255 8.54664 18.4244 8.79115 18.6007 8.97498C18.7769 9.1588 19.0171 9.26791 19.2715 9.27976ZM21.9346 13.1806L23.1231 14.3564C23.4932 14.7181 23.9904 14.9204 24.5079 14.9199H27.0528C27.3159 14.9202 27.5763 14.8681 27.819 14.7665C28.0616 14.6648 28.2816 14.5158 28.4659 14.3281L29.5723 13.1855C29.9754 12.775 30.2015 12.2228 30.2022 11.6474V5.68844C30.2022 3.14059 27.9595 1.99997 25.7369 1.99997C23.5142 1.99997 21.2715 3.1406 21.2715 5.68845V11.6084C21.2717 11.9014 21.3304 12.1915 21.4443 12.4615C21.5582 12.7315 21.7249 12.976 21.9346 13.1806ZM14.6167 41.5596C14.6167 41.5596 14.6487 39.5461 14.6494 39.5361L15.7998 23.9765C15.8095 23.8456 15.8449 23.7179 15.9039 23.6006C15.963 23.4833 16.0446 23.3788 16.144 23.2931C16.2434 23.2074 16.3588 23.142 16.4835 23.1009C16.6081 23.0597 16.7397 23.0435 16.8706 23.0532C17.0016 23.0629 17.1293 23.0983 17.2466 23.1573C17.3638 23.2164 17.4683 23.2979 17.5541 23.3974C17.6398 23.4968 17.7051 23.6122 17.7463 23.7368C17.7875 23.8615 17.8037 23.9931 17.794 24.124L17.3234 30.4888C20.6309 29.0732 28.7356 24.9787 30.0524 18.4199H29.5366C29.0265 18.42 28.5261 18.2801 28.0901 18.0154C27.654 17.7507 27.2989 17.3714 27.0636 16.9188L27.0527 16.9199H24.5078C24.476 16.9199 24.4451 16.9114 24.4133 16.9106C24.1788 17.3653 23.8237 17.7467 23.3868 18.0129C22.9499 18.2792 22.4482 18.42 21.9365 18.4199H18.607C17.4108 18.4267 16.2607 18.8822 15.3843 19.6964C14.5078 20.5105 13.9689 21.6239 13.874 22.8163L12.6138 39.6846L12.6167 41.5596C12.6167 41.8248 12.7221 42.0791 12.9096 42.2667C13.0972 42.4542 13.3515 42.5596 13.6167 42.5596C13.8819 42.5596 14.1363 42.4542 14.3238 42.2667C14.5114 42.0791 14.6167 41.8248 14.6167 41.5596ZM16.4453 42.6357L16.1592 46.5713C16.6265 46.6504 17.1768 46.7871 17.7446 46.914C20.0454 47.3943 22.3867 47.6543 24.7368 47.6907V45C24.7368 44.7348 24.8422 44.4804 25.0297 44.2929C25.2173 44.1053 25.4716 44 25.7368 44C26.0021 44 26.2564 44.1053 26.4439 44.2929C26.6315 44.4804 26.7368 44.7348 26.7368 45V47.69C29.1021 47.6505 31.4586 47.3901 33.7754 46.9121C34.3228 46.7881 34.8574 46.6533 35.3721 46.5097L35.0853 42.7011C34.9349 42.3393 34.8573 41.9514 34.857 41.5596C34.857 41.5596 34.8402 39.5725 34.8462 39.5252L34.5564 35.6775C34.4301 35.7043 34.3083 35.7331 34.1797 35.7588C34.0821 35.7782 33.9807 35.758 33.8979 35.7027C33.8151 35.6474 33.7577 35.5615 33.7383 35.4638C33.7189 35.3662 33.739 35.2648 33.7943 35.1821C33.8497 35.0993 33.9356 35.0419 34.0332 35.0224C34.1922 34.9908 34.344 34.9558 34.4996 34.9224L33.2599 18.4581C33.1283 18.4469 33.0009 18.4199 32.8667 18.4199H32.0869C30.6816 26.9296 19.7685 31.6936 17.1586 32.7176L16.9948 34.9338C17.1433 34.9651 17.2878 34.9986 17.4395 35.0283C17.5309 35.0462 17.6124 35.0975 17.6681 35.1722C17.7238 35.2469 17.7496 35.3397 17.7407 35.4324C17.7317 35.5252 17.6886 35.6113 17.6196 35.6739C17.5507 35.7366 17.4609 35.7714 17.3677 35.7715C17.3433 35.7716 17.3189 35.7693 17.2949 35.7646C17.1736 35.7407 17.0584 35.7135 16.9389 35.6886L16.6462 39.6486L16.6167 41.5751C16.6131 41.9107 16.5518 42.2431 16.4354 42.5578C16.4356 42.5846 16.4473 42.6085 16.4453 42.6357ZM16.3772 59.0097H23.7411L23.2198 57.6084C22.8469 56.6182 22.7589 55.5434 22.9658 54.5058L24.0883 49.6877C22.4028 49.6282 20.7226 49.4635 19.0576 49.1946L20.3476 54.3886C20.5886 55.4284 20.5303 56.5152 20.1796 57.5234C20.1344 57.651 20.0638 57.7682 19.9719 57.8677C19.88 57.9673 19.7689 58.0471 19.6452 58.1024C19.5216 58.1576 19.3879 58.1872 19.2525 58.1892C19.1171 58.1912 18.9826 58.1657 18.8574 58.1142C18.6281 58.023 18.3834 57.9773 18.1367 57.9794C17.7787 57.9814 17.4276 58.0777 17.1187 58.2586C16.8098 58.4395 16.5541 58.6985 16.3772 59.0097ZM5.79006 59.0097C5.61357 58.6971 5.35717 58.4369 5.04711 58.2559C4.73704 58.0748 4.38445 57.9794 4.02541 57.9794C3.66637 57.9794 3.31378 58.0748 3.00371 58.2559C2.69365 58.4369 2.43725 58.6971 2.26076 59.0097H5.79006Z" fill="#772e25"/>
</svg>
