<svg width="62" height="62" viewBox="0 0 62 62" fill="none" xmlns="http://www.w3.org/2000/svg">
<path d="M26 22H28V23.171C28 23.438 27.896 23.69 27.707 23.879L26.914 24.672C26.324 25.261 26 26.045 26 26.879C26 28.6 27.4 30 29.121 30H32.879C34.6 30 36 28.6 36 26.879C36 26.045 35.676 25.261 35.086 24.672L34.293 23.879C34.104 23.69 34 23.438 34 23.171V22H36C38.206 22 40 20.206 40 18C40 16.897 39.103 16 38 16H36C33.794 16 32 17.794 32 20V23.171C32 23.972 32.312 24.726 32.879 25.293L33.672 26.086C33.884 26.298 34 26.579 34 26.879C34 27.497 33.497 28 32.879 28H29.121C28.503 28 28 27.497 28 26.879C28 26.579 28.116 26.298 28.328 26.086L29.121 25.293C29.687 24.727 30 23.973 30 23.171V20C30 17.794 28.206 16 26 16H24C22.897 16 22 16.897 22 18C22 20.206 23.794 22 26 22ZM36 18H38C38 19.103 37.103 20 36 20H34C34 18.897 34.897 18 36 18ZM26 18C27.103 18 28 18.897 28 20H26C24.897 20 24 19.103 24 18H26Z" fill="#772E25"/>
<path d="M62 51.952C62 48.52 60.77 45.195 58.537 42.59C56.585 40.313 54.015 38.724 51.102 37.995L48.888 37.441C48.954 36.98 49 36.511 49 36.031C49 34.575 48.464 33.224 47.58 32.168C49.879 31.018 51.676 28.988 52.499 26.521C52.831 25.521 53 24.481 53 23.43V13.269L46.419 15.462C45.733 15.691 45.077 15.992 44.45 16.347C43.592 13.554 41.759 11.155 39.249 9.595L40.366 2.888L34.218 6.987L33.178 1.784C32.97 0.75 32.054 0 31 0C29.946 0 29.03 0.75 28.823 1.784L27.783 6.986L21.635 2.887L22.752 9.594C20.242 11.154 18.409 13.553 17.551 16.346C16.923 15.991 16.267 15.69 15.582 15.461L9 13.269V23.43C9 24.481 9.169 25.521 9.502 26.522C10.325 28.988 12.121 31.017 14.42 32.168C13.536 33.224 13 34.575 13 36.031C13 36.511 13.046 36.979 13.112 37.441L10.897 37.995C7.986 38.724 5.416 40.312 3.464 42.59C1.23 45.195 0 48.521 0 51.952V58H10.685C11.811 60.361 14.215 62 17 62H24.395C25.804 62 27.181 61.762 28.506 61.315C28.872 61.732 29.403 62 30 62H32C32.597 62 33.128 61.732 33.495 61.315C34.819 61.762 36.196 62 37.605 62H45C47.785 62 50.188 60.361 51.315 58H62V51.952ZM35.88 51.942C35.867 51.88 35.863 51.818 35.848 51.755C35.418 49.984 33.992 48.567 32.213 48.145C30.683 47.784 29.11 48.121 27.901 49.076C26.976 49.807 26.356 50.818 26.115 51.942C22.918 51.562 20.252 49.159 19.607 45.94L19.492 45.363C20.576 45.768 21.745 46 22.969 46H39.031C40.255 46 41.423 45.768 42.508 45.362L42.393 45.939C41.748 49.159 39.08 51.563 35.88 51.942ZM39.031 44H22.969C18.575 44 15 40.425 15 36.031C15 34.554 15.816 33.235 17.038 32.534C17.028 32.69 17 32.844 17 33V36.031C17 39.322 19.678 42 22.969 42H39.031C42.322 42 45 39.322 45 36.031V33C45 32.844 44.972 32.69 44.962 32.534C46.184 33.235 47 34.554 47 36.031C47 40.425 43.425 44 39.031 44ZM26 39.586L25.409 38.995C24.956 38.542 24.57 38.041 24.24 37.51C24.823 37.62 25.41 37.712 26 37.784V39.586ZM28 37.954C28.471 37.978 28.943 38 29.416 38H30V40H28V37.954ZM32 38H32.584C33.057 38 33.529 37.978 34 37.954V40H32V38ZM36 37.785C36.59 37.713 37.177 37.62 37.76 37.511C37.43 38.042 37.044 38.543 36.591 38.996L36 39.586V37.785ZM41 33.178C41 31.6 40.627 30.019 39.921 28.605L39.784 28.333C40.655 28.666 41.43 29.24 42 30C42.645 30.859 43 31.925 43 33V36.031C43 38.22 41.22 40 39.031 40H38.392C40.078 38.122 41 35.721 41 33.178ZM39 33.178C39 33.888 38.901 34.581 38.728 35.251C36.726 35.74 34.664 36 32.584 36H29.416C27.336 36 25.274 35.74 23.272 35.251C23.099 34.581 23 33.888 23 33.178C23 33.154 23.004 33.131 23.004 33.107C25.092 33.689 27.241 34 29.416 34H32.584C34.759 34 36.908 33.689 38.996 33.107C38.996 33.131 39 33.154 39 33.178ZM22.079 28.605C21.373 30.019 21 31.6 21 33.178C21 35.721 21.922 38.122 23.607 40H22.968C20.78 40 19 38.22 19 36.031V33C19 31.925 19.355 30.859 20 30C20.57 29.24 21.345 28.666 22.216 28.332L22.079 28.605ZM17 26.738C16.161 26.286 15.5 25.54 15.194 24.624C15.065 24.238 15 23.836 15 23.43V21.808C15.914 22.434 16.617 23.343 17 24.4V26.738ZM45 24.401C45.383 23.344 46.086 22.435 47 21.809V23.431C47 23.837 46.935 24.239 46.807 24.624C46.5 25.54 45.839 26.286 45 26.738V24.401ZM47.052 17.359L51 16.043V23.43C51 24.266 50.866 25.094 50.602 25.888C49.85 28.141 48.08 29.937 45.853 30.738C45.582 30.589 45.295 30.468 45.001 30.362V28.925L45.053 28.908C46.767 28.337 48.132 26.971 48.705 25.255C48.9 24.666 49 24.051 49 23.43V18.818L47.684 19.256C46.673 19.593 45.764 20.155 45 20.871V19.924C45 19.427 44.959 18.93 44.898 18.437C45.573 17.992 46.286 17.614 47.052 17.359ZM37.635 7.112L37.153 10H34.82L34.642 9.107L37.635 7.112ZM32.951 10.856C32.557 11.564 31.818 12 31 12C30.183 12 29.443 11.564 29.049 10.856L29.22 10H32.78L32.951 10.856ZM32.38 8H29.62L30.02 6H31.98L32.38 8ZM31.216 2.177L31.58 4H30.42L30.784 2.177C30.825 1.972 31.175 1.973 31.216 2.177ZM27.359 9.107L27.18 10H24.847L24.366 7.112L27.359 9.107ZM19.139 18.252C19.602 15.476 21.193 13.046 23.516 11.489C23.871 11.807 24.337 12 24.847 12H27.413C28.182 13.239 29.519 14 31 14C32.481 14 33.818 13.239 34.588 12H37.154C37.664 12 38.13 11.807 38.485 11.489C40.808 13.046 42.399 15.477 42.862 18.253C42.953 18.803 43 19.365 43 19.924V28.109C41.693 26.778 39.884 26 38 26H36.382L38.132 29.499C38.387 30.01 38.58 30.551 38.724 31.105C36.728 31.687 34.67 32 32.584 32H29.416C27.33 32 25.272 31.687 23.276 31.104C23.42 30.551 23.613 30.01 23.868 29.499L25.618 26H24C22.116 26 20.307 26.778 19 28.11V19.925C19 19.365 19.047 18.803 19.139 18.252ZM11.399 25.89C11.134 25.094 11 24.266 11 23.43V16.043L14.948 17.359C15.713 17.614 16.426 17.992 17.102 18.438C17.041 18.931 17 19.428 17 19.924V20.871C16.237 20.155 15.328 19.593 14.316 19.256L13 18.818V23.43C13 24.051 13.1 24.665 13.297 25.256C13.869 26.972 15.235 28.337 16.948 28.908L17 28.926V30.363C16.706 30.469 16.418 30.59 16.147 30.739C13.92 29.937 12.151 28.141 11.399 25.89ZM17 60C14.243 60 12 57.757 12 55V51H10V55C10 55.34 10.033 55.672 10.08 56H2V51.952C2 48.997 3.059 46.135 4.982 43.89C6.662 41.929 8.875 40.562 11.381 39.934L13.591 39.382C14.286 41.321 15.56 42.982 17.211 44.155L17.646 46.332C18.476 50.477 21.956 53.559 26.097 53.955C26.328 55.161 26.986 56.237 27.999 56.997V59.374C26.84 59.781 25.632 60 24.395 60H17ZM32 56.939V60H30V56.92C30 56.329 29.712 55.776 29.21 55.404C28.722 55.043 28.385 54.551 28.19 54H30V52H28.19C28.376 51.475 28.69 51.001 29.142 50.645C29.68 50.219 30.319 49.999 30.994 49.999C31.243 49.999 31.497 50.029 31.753 50.09C32.713 50.318 33.519 51.072 33.833 52H32V54H33.829C33.638 54.546 33.288 55.031 32.799 55.396C32.292 55.778 32 56.341 32 56.939ZM60 56H51.92C51.967 55.672 52 55.34 52 55V51H50V55C50 57.757 47.757 60 45 60H37.605C36.368 60 35.16 59.781 33.999 59.374L33.998 56.997C35.024 56.23 35.683 55.15 35.91 53.953C40.047 53.554 43.523 50.474 44.352 46.332L44.787 44.155C46.438 42.982 47.712 41.321 48.407 39.382L50.616 39.934C53.124 40.562 55.337 41.929 57.016 43.89C58.941 46.135 60 48.997 60 51.952V56Z" fill="#772E25"/>
<path d="M19 58C19.5523 58 20 57.5523 20 57C20 56.4477 19.5523 56 19 56C18.4477 56 18 56.4477 18 57C18 57.5523 18.4477 58 19 58Z" fill="#772E25"/>
<path d="M43 58C43.5523 58 44 57.5523 44 57C44 56.4477 43.5523 56 43 56C42.4477 56 42 56.4477 42 57C42 57.5523 42.4477 58 43 58Z" fill="#772E25"/>
</svg>
