<svg width="59" height="63" viewBox="0 0 59 63" fill="none" xmlns="http://www.w3.org/2000/svg">
<path d="M53.8401 15.9255H50.8401C48.6341 15.9255 46.8401 17.7195 46.8401 19.9255V23.4255C46.8401 24.6775 47.4381 25.8735 48.4411 26.6255L50.6901 28.3125L49.1411 33.7325C48.9691 34.3375 48.8841 34.9615 48.8611 35.5875L45.4421 31.4845C44.7331 30.6355 43.8611 29.9705 42.8901 29.4815C44.0221 28.2165 44.8401 26.6915 44.8401 24.9255C44.8401 21.4745 42.9071 19.9015 41.8401 19.2965V12.9255C41.8401 6.30854 36.4571 0.925537 29.8401 0.925537C23.2231 0.925537 17.8401 6.30854 17.8401 12.9255V19.2965C16.7731 19.9005 14.8401 21.4745 14.8401 24.9255C14.8401 26.6915 15.6581 28.2165 16.7901 29.4815C15.8191 29.9705 14.9471 30.6355 14.2381 31.4855L10.8191 35.5885C10.7951 34.9615 10.7111 34.3385 10.5391 33.7315L8.99009 28.3125L11.2401 26.6255C12.2421 25.8735 12.8401 24.6775 12.8401 23.4255V19.9255C12.8401 17.7195 11.0461 15.9255 8.84009 15.9255H5.84009C3.08309 15.9255 0.840088 18.1685 0.840088 20.9255V46.6835C0.840088 49.5735 3.19209 51.9255 6.08209 51.9255C7.48209 51.9255 8.79909 51.3805 9.78909 50.3905L15.2601 44.9195C15.7641 46.0715 16.6881 46.9965 17.8401 47.5025V50.8035C17.8401 51.7435 18.1111 52.6255 18.5721 53.3865C16.2251 55.5125 14.8401 58.5675 14.8401 61.7565V62.9255H29.8401H44.8401V61.7565C44.8401 58.5675 43.4551 55.5125 41.1081 53.3855C41.5691 52.6245 41.8401 51.7425 41.8401 50.8025V47.5015C42.9911 46.9965 43.9161 46.0715 44.4201 44.9185L49.8911 50.3895C50.8811 51.3795 52.1981 51.9245 53.5981 51.9245C56.4881 51.9255 58.8401 49.5735 58.8401 46.6835V20.9255C58.8401 18.1685 56.5971 15.9255 53.8401 15.9255ZM19.1561 20.8735L19.8401 20.6465V12.9255C19.8401 7.41154 24.3261 2.92554 29.8401 2.92554C35.3541 2.92554 39.8401 7.41154 39.8401 12.9255V20.6465L40.5241 20.8745C40.5471 20.8815 42.8401 21.6835 42.8401 24.9255C42.8401 28.4485 37.5331 31.2195 35.4881 31.9885L36.1911 33.8615C36.3661 33.7955 38.4951 32.9795 40.5971 31.4885C40.7301 31.8535 40.8401 32.3275 40.8401 32.9255C40.8401 34.0465 40.0491 34.7995 38.7601 35.9355C37.9301 36.6655 37.0161 37.4705 36.3871 38.5315C33.2061 36.5645 32.8401 33.9985 32.8401 32.9255C32.8401 31.3405 33.4231 30.7575 34.3911 29.7895L35.0681 29.1125L34.4221 28.4075C34.0521 28.0025 33.9161 27.4185 33.8671 26.8265C36.2381 25.4375 37.8401 22.8685 37.8401 19.9255V11.9255H32.4451C30.2851 11.9255 28.1921 11.2915 26.3941 10.0935L25.8401 9.72354L21.8401 12.3905V19.9255C21.8401 22.8685 23.4421 25.4375 25.8141 26.8275C25.7651 27.4185 25.6291 28.0025 25.2581 28.4085L24.6141 29.1155L25.2901 29.7925C26.2571 30.7575 26.8401 31.3405 26.8401 32.9255C26.8401 33.9985 26.4741 36.5645 23.2931 38.5305C22.6641 37.4695 21.7501 36.6655 20.9201 35.9345C19.6311 34.7995 18.8401 34.0465 18.8401 32.9255C18.8401 32.3275 18.9501 31.8535 19.0821 31.4885C21.1841 32.9795 23.3131 33.7965 23.4881 33.8625L24.1911 31.9895C22.1471 31.2225 16.8401 28.4585 16.8401 24.9255C16.8401 21.7385 19.0701 20.9045 19.1561 20.8735ZM23.8401 19.9255V13.4605L25.8561 12.1165C27.8501 13.3025 30.1141 13.9255 32.4451 13.9255H35.8401V19.9255C35.8401 23.2345 33.1491 25.9255 29.8401 25.9255C26.5311 25.9255 23.8401 23.2345 23.8401 19.9255ZM56.8401 46.6835C56.8401 48.4715 55.3861 49.9255 53.5981 49.9255C52.7321 49.9255 51.9171 49.5885 51.3051 48.9765L44.8401 42.5115V41.2685C44.8401 39.4905 44.1481 37.8195 42.8901 36.5615L42.5471 36.2185L41.1331 37.6325L41.4761 37.9755C42.3561 38.8555 42.8401 40.0245 42.8401 41.2685V42.9255C42.8401 44.5795 41.4941 45.9255 39.8401 45.9255H31.8401V47.9255H39.8401V50.8025C39.8401 52.1815 38.9051 53.3785 37.5681 53.7135L36.5981 53.9555L37.0821 55.8945L38.0521 55.6525C38.6831 55.4945 39.2521 55.2125 39.7551 54.8505C41.4911 56.4155 42.5901 58.5985 42.8021 60.9255H29.8401H16.8781C17.0891 58.5985 18.1891 56.4165 19.9251 54.8505C20.4281 55.2125 20.9971 55.4955 21.6281 55.6525L22.5981 55.8945L23.0821 53.9555L22.1121 53.7135C20.7751 53.3785 19.8401 52.1815 19.8401 50.8025V47.9255H27.8401V45.9255H19.8401C18.1861 45.9255 16.8401 44.5795 16.8401 42.9255V41.2685C16.8401 40.0245 17.3241 38.8555 18.2041 37.9755L18.5471 37.6325L17.1331 36.2185L16.7901 36.5615C15.5321 37.8195 14.8401 39.4895 14.8401 41.2685V42.5115L8.37509 48.9765C7.76309 49.5885 6.94809 49.9255 6.08209 49.9255C4.29409 49.9255 2.84009 48.4715 2.84009 46.6835V20.9255C2.84009 19.2715 4.18609 17.9255 5.84009 17.9255H8.84009C9.94309 17.9255 10.8401 18.8225 10.8401 19.9255V23.4255C10.8401 24.0515 10.5411 24.6505 10.0401 25.0265L6.69009 27.5385L8.61609 34.2785C8.76509 34.8025 8.84009 35.3415 8.84009 35.8815V40.0975C8.84009 41.6315 8.21809 43.1335 7.13309 44.2185L8.54709 45.6325C10.0041 44.1755 10.8401 42.1575 10.8401 40.0975V38.6875L15.7761 32.7655C16.1211 32.3505 16.5241 31.9995 16.9581 31.6965C16.8871 32.0665 16.8401 32.4725 16.8401 32.9255C16.8401 35.0075 18.3061 36.2975 19.5991 37.4365C20.5871 38.3065 21.5201 39.1275 21.8921 40.2425L22.2561 41.3365L23.2871 40.8205C28.2991 38.3145 28.8401 34.4645 28.8401 32.9255C28.8401 30.9585 28.1191 29.8735 27.2831 28.9705C27.5081 28.5385 27.6401 28.0825 27.7211 27.6315C28.3981 27.8175 29.1061 27.9255 29.8401 27.9255C30.5741 27.9255 31.2821 27.8175 31.9581 27.6315C32.0391 28.0815 32.1721 28.5385 32.3961 28.9705C31.5621 29.8725 30.8401 30.9575 30.8401 32.9255C30.8401 34.4645 31.3811 38.3145 36.3931 40.8205L37.4241 41.3365L37.7881 40.2425C38.1601 39.1285 39.0931 38.3065 40.0811 37.4365C41.3741 36.2975 42.8401 35.0075 42.8401 32.9255C42.8401 32.4725 42.7931 32.0665 42.7231 31.6965C43.1571 31.9995 43.5591 32.3505 43.9051 32.7645L48.8401 38.6875V40.0975C48.8401 42.1585 49.6761 44.1755 51.1331 45.6325L52.5471 44.2185C51.4621 43.1335 50.8401 41.6315 50.8401 40.0975V35.8815C50.8401 35.3415 50.9151 34.8025 51.0651 34.2795L52.9911 27.5385L49.6411 25.0255C49.1391 24.6505 48.8401 24.0515 48.8401 23.4255V19.9255C48.8401 18.8225 49.7371 17.9255 50.8401 17.9255H53.8401C55.4941 17.9255 56.8401 19.2715 56.8401 20.9255V46.6835Z" fill="#772e25"/>
<path d="M36.8401 43.9255C37.3924 43.9255 37.8401 43.4778 37.8401 42.9255C37.8401 42.3733 37.3924 41.9255 36.8401 41.9255C36.2878 41.9255 35.8401 42.3733 35.8401 42.9255C35.8401 43.4778 36.2878 43.9255 36.8401 43.9255Z" fill="#772e25"/>
<path d="M29.8401 56.9255C30.3924 56.9255 30.8401 56.4778 30.8401 55.9255C30.8401 55.3733 30.3924 54.9255 29.8401 54.9255C29.2878 54.9255 28.8401 55.3733 28.8401 55.9255C28.8401 56.4778 29.2878 56.9255 29.8401 56.9255Z" fill="#772e25"/>
<path d="M22.8401 43.9255C23.3924 43.9255 23.8401 43.4778 23.8401 42.9255C23.8401 42.3733 23.3924 41.9255 22.8401 41.9255C22.2878 41.9255 21.8401 42.3733 21.8401 42.9255C21.8401 43.4778 22.2878 43.9255 22.8401 43.9255Z" fill="#772e25"/>
<path d="M33.629 21.5835L33.734 21.3725L31.945 20.4775L31.84 20.6895C31.459 21.4515 30.693 21.9255 29.84 21.9255C28.987 21.9255 28.221 21.4515 27.84 20.6895L27.735 20.4785L25.946 21.3735L26.051 21.5845C26.773 23.0285 28.225 23.9255 29.84 23.9255C31.455 23.9255 32.907 23.0285 33.629 21.5835Z" fill="#772e25"/>
</svg>
