<svg width="62" height="62" viewBox="0 0 62 62" fill="none" xmlns="http://www.w3.org/2000/svg">
<path d="M25 27H37C37.6 27 38 26.6 38 26C38 22.1 34.9 19 31 19C27.1 19 24 22.1 24 26C24 26.6 24.4 27 25 27ZM31 21C33.4 21 35.4 22.7 35.9 25H26.1C26.6 22.7 28.6 21 31 21Z" fill="#772E25" stroke="#772E25" stroke-width="0.2"/>
<path d="M30 14V13C30 12.4 29.6 12 29 12H23C22.4 12 22 12.4 22 13V14C22 16.2 23.8 18 26 18C28.2 18 30 16.2 30 14ZM26 16C24.9 16 24 15.1 24 14H28C28 15.1 27.1 16 26 16Z" fill="#772E25" stroke="#772E25" stroke-width="0.2"/>
<path d="M40 14V13C40 12.4 39.6 12 39 12H33C32.4 12 32 12.4 32 13V14C32 16.2 33.8 18 36 18C38.2 18 40 16.2 40 14ZM36 16C34.9 16 34 15.1 34 14H38C38 15.1 37.1 16 36 16Z" fill="#772E25" stroke="#772E25" stroke-width="0.2"/>
<path d="M55 38C54.4 38 54 38.4 54 39V40C54 40.6 53.6 41 53 41C52.4 41 52 40.6 52 40V38C52 36.3 50.7 35 49 35C47.3 35 46 36.3 46 38V41C46 42.1 45.1 43 44 43H43C42.4 43 42 43.4 42 44V47H39C38.4 47 38 47.4 38 48C38 48.6 38.4 49 39 49H43C44.7 49 46 50.3 46 52V53H31C30.4 53 30 53.4 30 54C30 54.6 30.4 55 31 55H46C47.7 55 49 56.3 49 58V59H13V58C13 56.3 14.3 55 16 55H27C27.6 55 28 54.6 28 54C28 53.4 27.6 53 27 53H16V52C16 50.3 17.3 49 19 49H26.2C26.6 50.2 27.7 51 29 51C30.3 51 31.4 50.2 31.8 49H35C35.6 49 36 48.6 36 48C36 47.4 35.6 47 35 47H31.8C31.4 45.8 30.3 45 29 45C27.7 45 26.6 45.8 26.2 47H20V44C20 43.4 19.6 43 19 43H18C16.9 43 16 42.1 16 41V38C16 36.3 14.7 35 13 35C11.3 35 10 36.3 10 38V40C10 40.6 9.6 41 9 41C8.4 41 8 40.6 8 40V34C8 32.3 6.7 31 5 31C3.9 31 3 30.1 3 29C3 27.9 3.9 27 5 27H18V28C18 28.6 18.4 29 19 29C19.6 29 20 28.6 20 28V14.3C20 11.3 21.2 8.3 23.4 6.2C25.5 4.1 28.2 3 31 3C33.9 3 36.7 4.1 38.8 6.2C40.9 8.3 42 11 42 14V20C42 20.6 42.4 21 43 21C43.6 21 44 20.6 44 20V14C44 10.5 42.6 7.3 40.2 4.8C37.8 2.4 34.5 1 31 1C27.7 1 24.5 2.4 22 4.8C19.5 7.3 18 10.8 18 14.3V25H5C2.8 25 1 26.8 1 29C1 31.2 2.8 33 5 33C5.6 33 6 33.4 6 34V40C6 41.7 7.3 43 9 43C10.7 43 12 41.7 12 40V38C12 37.4 12.4 37 13 37C13.6 37 14 37.4 14 38V41C14 43.2 15.8 45 18 45V47.1C15.7 47.6 14 49.6 14 52V53.4C12.2 54.2 11 55.9 11 58V60C11 60.6 11.4 61 12 61H50C50.6 61 51 60.6 51 60V58C51 56 49.8 54.2 48 53.4V52C48 49.6 46.3 47.6 44 47.1V45C46.2 45 48 43.2 48 41V38C48 37.4 48.4 37 49 37C49.6 37 50 37.4 50 38V40C50 41.7 51.3 43 53 43C54.7 43 56 41.7 56 40V39C56 38.4 55.6 38 55 38ZM29 47C29.6 47 30 47.4 30 48C30 48.6 29.6 49 29 49C28.4 49 28 48.6 28 48C28 47.4 28.4 47 29 47Z" fill="#772E25" stroke="#772E25" stroke-width="0.2"/>
<path d="M57 25H44V24C44 23.4 43.6 23 43 23C42.4 23 42 23.4 42 24V33.9C42 34.5 41.6 35 41.1 35C40.8 35 40.5 34.9 40.3 34.7C40.1 34.5 40 34.3 40 34V32.1C40 30.5 38.8 29.1 37.3 29C36.4 28.9 35.5 29.2 34.9 29.9C34.3 30.4 34 31.2 34 32V33C34 33.6 33.6 34 33 34C31.3 34 30 35.3 30 37V39.9C30 40.5 29.6 41 29.1 41C28.8 41 28.5 40.9 28.3 40.7C28.1 40.5 28 40.3 28 40V34.1C28 32.5 26.8 31.1 25.3 31C24.4 30.9 23.5 31.2 22.9 31.9C22.3 32.4 22 33.2 22 34V35.9C22 36.5 21.6 37 21.1 37C20.8 37 20.5 36.9 20.3 36.7C20.1 36.5 20 36.3 20 36V34C20 33.4 19.6 33 19 33C18.4 33 18 33.4 18 34V36C18 36.8 18.3 37.6 18.9 38.1C19.5 38.7 20.4 39.1 21.3 39C22.8 38.9 24 37.5 24 35.9V34C24 33.7 24.1 33.5 24.3 33.3C24.5 33.1 24.8 33 25.1 33C25.6 33 26 33.5 26 34.1V40C26 40.8 26.3 41.6 26.9 42.1C27.5 42.7 28.2 43 29 43C29.1 43 29.2 43 29.3 43C30.8 42.9 32 41.5 32 39.9V37C32 36.4 32.4 36 33 36C34.7 36 36 34.7 36 33V32C36 31.7 36.1 31.5 36.3 31.3C36.5 31.1 36.8 31 37.1 31C37.6 31 38 31.5 38 32.1V34C38 34.8 38.3 35.6 38.9 36.1C39.5 36.7 40.4 37.1 41.3 37C42.8 36.9 44 35.5 44 33.9V27H57C58.1 27 59 27.9 59 29C59 30.1 58.1 31 57 31C55.3 31 54 32.3 54 34V35C54 35.6 54.4 36 55 36C55.6 36 56 35.6 56 35V34C56 33.4 56.4 33 57 33C59.2 33 61 31.2 61 29C61 26.8 59.2 25 57 25Z" fill="#772E25" stroke="#772E25" stroke-width="0.2"/>
<path d="M53 45C51.3 45 50 46.3 50 48C50 49.7 51.3 51 53 51C54.7 51 56 49.7 56 48C56 46.3 54.7 45 53 45ZM53 49C52.4 49 52 48.6 52 48C52 47.4 52.4 47 53 47C53.6 47 54 47.4 54 48C54 48.6 53.6 49 53 49Z" fill="#772E25" stroke="#772E25" stroke-width="0.2"/>
<path d="M36 44V39C36 38.4 35.6 38 35 38C34.4 38 34 38.4 34 39V44C34 44.6 34.4 45 35 45C35.6 45 36 44.6 36 44Z" fill="#772E25" stroke="#772E25" stroke-width="0.2"/>
<path d="M24 44V42C24 41.4 23.6 41 23 41C22.4 41 22 41.4 22 42V44C22 44.6 22.4 45 23 45C23.6 45 24 44.6 24 44Z" fill="#772E25" stroke="#772E25" stroke-width="0.2"/>
<path d="M39 43C39.6 43 40 42.6 40 42V40C40 39.4 39.6 39 39 39C38.4 39 38 39.4 38 40V42C38 42.6 38.4 43 39 43Z" fill="#772E25" stroke="#772E25" stroke-width="0.2"/>
</svg>
