<svg width="60" height="60" viewBox="0 0 60 60" fill="none" xmlns="http://www.w3.org/2000/svg">
<path d="M24 26H36C36.6 26 37 25.6 37 25C37 21.1 33.9 18 30 18C26.1 18 23 21.1 23 25C23 25.6 23.4 26 24 26ZM30 20C32.4 20 34.4 21.7 34.9 24H25.1C25.6 21.7 27.6 20 30 20Z" fill="#772e25"/>
<path d="M29 13V12C29 11.4 28.6 11 28 11H22C21.4 11 21 11.4 21 12V13C21 15.2 22.8 17 25 17C27.2 17 29 15.2 29 13ZM25 15C23.9 15 23 14.1 23 13H27C27 14.1 26.1 15 25 15Z" fill="#772e25"/>
<path d="M39 13V12C39 11.4 38.6 11 38 11H32C31.4 11 31 11.4 31 12V13C31 15.2 32.8 17 35 17C37.2 17 39 15.2 39 13ZM35 15C33.9 15 33 14.1 33 13H37C37 14.1 36.1 15 35 15Z" fill="#772e25"/>
<path d="M54 37C53.4 37 53 37.4 53 38V39C53 39.6 52.6 40 52 40C51.4 40 51 39.6 51 39V37C51 35.3 49.7 34 48 34C46.3 34 45 35.3 45 37V40C45 41.1 44.1 42 43 42H42C41.4 42 41 42.4 41 43V46H38C37.4 46 37 46.4 37 47C37 47.6 37.4 48 38 48H42C43.7 48 45 49.3 45 51V52H30C29.4 52 29 52.4 29 53C29 53.6 29.4 54 30 54H45C46.7 54 48 55.3 48 57V58H12V57C12 55.3 13.3 54 15 54H26C26.6 54 27 53.6 27 53C27 52.4 26.6 52 26 52H15V51C15 49.3 16.3 48 18 48H25.2C25.6 49.2 26.7 50 28 50C29.3 50 30.4 49.2 30.8 48H34C34.6 48 35 47.6 35 47C35 46.4 34.6 46 34 46H30.8C30.4 44.8 29.3 44 28 44C26.7 44 25.6 44.8 25.2 46H19V43C19 42.4 18.6 42 18 42H17C15.9 42 15 41.1 15 40V37C15 35.3 13.7 34 12 34C10.3 34 9 35.3 9 37V39C9 39.6 8.6 40 8 40C7.4 40 7 39.6 7 39V33C7 31.3 5.7 30 4 30C2.9 30 2 29.1 2 28C2 26.9 2.9 26 4 26H17V27C17 27.6 17.4 28 18 28C18.6 28 19 27.6 19 27V13.3C19 10.3 20.2 7.3 22.4 5.2C24.5 3.1 27.2 2 30 2C32.9 2 35.7 3.1 37.8 5.2C39.9 7.3 41 10 41 13V19C41 19.6 41.4 20 42 20C42.6 20 43 19.6 43 19V13C43 9.5 41.6 6.3 39.2 3.8C36.8 1.4 33.5 0 30 0C26.7 0 23.5 1.4 21 3.8C18.5 6.3 17 9.8 17 13.3V24H4C1.8 24 0 25.8 0 28C0 30.2 1.8 32 4 32C4.6 32 5 32.4 5 33V39C5 40.7 6.3 42 8 42C9.7 42 11 40.7 11 39V37C11 36.4 11.4 36 12 36C12.6 36 13 36.4 13 37V40C13 42.2 14.8 44 17 44V46.1C14.7 46.6 13 48.6 13 51V52.4C11.2 53.2 10 54.9 10 57V59C10 59.6 10.4 60 11 60H49C49.6 60 50 59.6 50 59V57C50 55 48.8 53.2 47 52.4V51C47 48.6 45.3 46.6 43 46.1V44C45.2 44 47 42.2 47 40V37C47 36.4 47.4 36 48 36C48.6 36 49 36.4 49 37V39C49 40.7 50.3 42 52 42C53.7 42 55 40.7 55 39V38C55 37.4 54.6 37 54 37ZM28 46C28.6 46 29 46.4 29 47C29 47.6 28.6 48 28 48C27.4 48 27 47.6 27 47C27 46.4 27.4 46 28 46Z" fill="#772e25"/>
<path d="M56 24H43V23C43 22.4 42.6 22 42 22C41.4 22 41 22.4 41 23V32.9C41 33.5 40.6 34 40.1 34C39.8 34 39.5 33.9 39.3 33.7C39.1 33.5 39 33.3 39 33V31.1C39 29.5 37.8 28.1 36.3 28C35.4 27.9 34.5 28.2 33.9 28.9C33.3 29.4 33 30.2 33 31V32C33 32.6 32.6 33 32 33C30.3 33 29 34.3 29 36V38.9C29 39.5 28.6 40 28.1 40C27.8 40 27.5 39.9 27.3 39.7C27.1 39.5 27 39.3 27 39V33.1C27 31.5 25.8 30.1 24.3 30C23.4 29.9 22.5 30.2 21.9 30.9C21.3 31.4 21 32.2 21 33V34.9C21 35.5 20.6 36 20.1 36C19.8 36 19.5 35.9 19.3 35.7C19.1 35.5 19 35.3 19 35V33C19 32.4 18.6 32 18 32C17.4 32 17 32.4 17 33V35C17 35.8 17.3 36.6 17.9 37.1C18.5 37.7 19.4 38.1 20.3 38C21.8 37.9 23 36.5 23 34.9V33C23 32.7 23.1 32.5 23.3 32.3C23.5 32.1 23.8 32 24.1 32C24.6 32 25 32.5 25 33.1V39C25 39.8 25.3 40.6 25.9 41.1C26.5 41.7 27.2 42 28 42C28.1 42 28.2 42 28.3 42C29.8 41.9 31 40.5 31 38.9V36C31 35.4 31.4 35 32 35C33.7 35 35 33.7 35 32V31C35 30.7 35.1 30.5 35.3 30.3C35.5 30.1 35.8 30 36.1 30C36.6 30 37 30.5 37 31.1V33C37 33.8 37.3 34.6 37.9 35.1C38.5 35.7 39.4 36.1 40.3 36C41.8 35.9 43 34.5 43 32.9V26H56C57.1 26 58 26.9 58 28C58 29.1 57.1 30 56 30C54.3 30 53 31.3 53 33V34C53 34.6 53.4 35 54 35C54.6 35 55 34.6 55 34V33C55 32.4 55.4 32 56 32C58.2 32 60 30.2 60 28C60 25.8 58.2 24 56 24Z" fill="#772e25"/>
<path d="M52 44C50.3 44 49 45.3 49 47C49 48.7 50.3 50 52 50C53.7 50 55 48.7 55 47C55 45.3 53.7 44 52 44ZM52 48C51.4 48 51 47.6 51 47C51 46.4 51.4 46 52 46C52.6 46 53 46.4 53 47C53 47.6 52.6 48 52 48Z" fill="#772e25"/>
<path d="M35 43V38C35 37.4 34.6 37 34 37C33.4 37 33 37.4 33 38V43C33 43.6 33.4 44 34 44C34.6 44 35 43.6 35 43Z" fill="#772e25"/>
<path d="M23 43V41C23 40.4 22.6 40 22 40C21.4 40 21 40.4 21 41V43C21 43.6 21.4 44 22 44C22.6 44 23 43.6 23 43Z" fill="#772e25"/>
<path d="M38 42C38.6 42 39 41.6 39 41V39C39 38.4 38.6 38 38 38C37.4 38 37 38.4 37 39V41C37 41.6 37.4 42 38 42Z" fill="#772e25"/>
</svg>
