<svg width="59" height="54" viewBox="0 0 59 54" fill="none" xmlns="http://www.w3.org/2000/svg">
<path d="M27.501 10.4705V10.4577C27.5552 10.4499 27.6084 10.4355 27.6593 10.4147C27.886 10.3254 28.1153 10.2459 28.3446 10.1774C28.4388 10.1587 28.5281 10.1208 28.607 10.0661C28.6873 10.0104 28.755 9.93843 28.8058 9.85491C28.8565 9.7714 28.889 9.67818 28.9013 9.58128C28.9136 9.48439 28.9054 9.38601 28.8772 9.2925C28.8489 9.19899 28.8013 9.11246 28.7374 9.03851C28.6735 8.96455 28.5948 8.90482 28.5063 8.86317C28.4178 8.82151 28.3216 8.79886 28.2238 8.79666C28.1278 8.7945 28.0324 8.8121 27.9436 8.84833C27.6759 8.92843 27.4068 9.0213 27.1433 9.12556L27.1433 9.12556L27.143 9.12565C26.9923 9.18571 26.8673 9.29622 26.7893 9.43828C26.7114 9.58034 26.6854 9.74506 26.7159 9.90416C26.7465 10.0633 26.8316 10.2067 26.9565 10.31C27.0815 10.4133 27.2386 10.4699 27.4008 10.4703L27.501 10.4705Z" fill="#772e25" stroke="#772e25" stroke-width="0.2"/>
<mask id="path-2-outside-1_263_2316" maskUnits="userSpaceOnUse" x="0" y="0" width="37" height="54" fill="#772e25">
<rect fill="white" width="37" height="54"/>
<path d="M4.96778 30.271C5.55107 31.7629 6.43746 33.1184 7.57126 34.2522C9.02096 35.7012 10.9429 36.5849 12.9892 36.7434C13.1874 36.7576 13.3785 36.7647 13.5595 36.7647C17.5175 36.7647 19.14 33.6366 19.5478 32.6413C19.5644 32.6025 19.5764 32.5619 19.5835 32.5204C20.1438 32.3995 21.1518 32.2559 21.9702 32.4166C22.2155 32.5446 22.4678 32.6711 22.7316 32.792C30.9598 36.5557 32.8204 41.6076 32.6679 46.2998C32.0942 45.5627 31.386 44.9404 30.5805 44.4656C29.9532 43.1119 28.1567 40.0976 24.4169 39.4407C22.5821 39.1379 20.6985 39.4621 19.0716 40.3606C17.0356 41.4683 12.0411 43.847 9.66145 42.0413C9.56032 41.9646 9.43734 41.9219 9.31031 41.9195C9.18327 41.9171 9.05876 41.9551 8.95479 42.0279C8.85081 42.1007 8.77275 42.2046 8.7319 42.3246C8.69106 42.4446 8.68954 42.5744 8.72756 42.6953C8.75038 42.765 9.27934 44.4158 10.8064 46.1661C12.2122 47.7757 14.7657 49.7834 18.9561 50.1957C19.3588 50.2365 19.7633 50.257 20.168 50.2569C21.5271 50.2666 22.8762 50.0256 24.1474 49.5459C25.1725 49.1492 25.9752 48.6544 26.5327 48.0757C26.5904 48.0199 26.6363 47.9531 26.6675 47.8792C26.6988 47.8053 26.7148 47.726 26.7147 47.6458C26.7145 47.5656 26.6982 47.4863 26.6666 47.4126C26.635 47.3388 26.5889 47.2722 26.531 47.2166C26.4731 47.161 26.4045 47.1177 26.3294 47.0891C26.2543 47.0605 26.1742 47.0473 26.0938 47.0502C26.0135 47.0532 25.9346 47.0722 25.8618 47.1062C25.789 47.1402 25.7238 47.1885 25.6701 47.2482C25.2338 47.7003 24.5751 48.1013 23.7139 48.434C22.2339 48.9854 20.6452 49.1841 19.0745 49.0141C13.9915 48.5122 11.5435 45.5348 10.5112 43.729C13.3941 44.4314 17.3236 42.6768 19.6462 41.4156C21.0337 40.6453 22.6417 40.3657 24.2087 40.6222C26.4899 41.0218 27.9243 42.4266 28.784 43.7063C27.8962 43.4595 26.9781 43.338 26.0565 43.3451H26.0308C24.3752 43.3636 22.7352 43.6671 21.1832 44.2423C21.0359 44.3017 20.9183 44.417 20.8563 44.5629C20.7942 44.7088 20.7928 44.8732 20.8524 45.0201C20.912 45.167 21.0276 45.2842 21.1738 45.3461C21.3201 45.408 21.485 45.4094 21.6323 45.35C23.049 44.8322 24.5435 44.5582 26.0522 44.5395H26.0622C29.0735 44.5395 31.2335 45.7964 32.4911 48.2634C32.3898 48.9957 32.2515 49.7137 32.0961 50.409C32.0041 50.8114 32.0041 51.2294 32.0961 51.6318C32.1881 52.0342 32.3698 52.4108 32.6277 52.7337C32.8856 53.0566 33.213 53.3174 33.5858 53.4968C33.9585 53.6763 34.367 53.7698 34.7809 53.7703H36.1624C36.3213 53.7703 36.4736 53.7074 36.5859 53.5954C36.6982 53.4834 36.7613 53.3315 36.7613 53.1731C36.7613 53.0147 36.6982 52.8628 36.5859 52.7509C36.4736 52.6389 36.3213 52.5759 36.1624 52.5759H34.7809C34.5481 52.5765 34.3182 52.5246 34.1083 52.4242C33.8985 52.3237 33.7141 52.1773 33.5689 51.9958C33.4214 51.8121 33.3173 51.5975 33.2644 51.368C33.2116 51.1386 33.2114 50.9002 33.2638 50.6706C34.5199 45.077 34.8479 37.0206 23.2263 31.7085C23.0296 31.6137 22.8371 31.5189 22.6489 31.4241C22.5772 31.356 22.4894 31.3071 22.3937 31.2819H22.3737C18.9889 29.4776 17.0541 26.7646 16.6178 23.2057C16.4085 21.3983 16.572 19.5673 17.0983 17.8253C18.8748 12.4805 21.4683 8.96846 24.8061 7.38733C28.3221 5.72232 32.0776 6.51857 34.6055 7.47833C34.6796 7.50974 34.7592 7.52593 34.8397 7.52595C34.9202 7.52597 34.9998 7.5098 35.0739 7.47843C35.148 7.44705 35.215 7.4011 35.2708 7.34333C35.3267 7.28556 35.3703 7.21715 35.3991 7.14219C35.4279 7.06722 35.4412 6.98725 35.4382 6.90704C35.4353 6.82683 35.4162 6.74803 35.3821 6.67536C35.3479 6.60268 35.2994 6.53761 35.2395 6.48404C35.1795 6.43047 35.1094 6.3895 35.0332 6.36358C32.2857 5.3185 28.1895 4.46254 24.2942 6.30955C20.7469 7.98878 17.9966 11.5861 16.1188 16.9935C13.052 16.4816 11.7787 12.0027 11.7659 11.9544C11.7218 11.8041 11.6202 11.6772 11.4831 11.6009C11.346 11.5245 11.1844 11.505 11.0329 11.5464C10.8815 11.5877 10.7525 11.6868 10.6735 11.8221C10.5946 11.9575 10.5722 12.1183 10.611 12.27C10.6495 12.4122 11.2298 14.4654 12.6071 16.1248C11.7089 16.038 10.6267 15.647 9.73844 14.4754C9.03655 13.5249 8.67277 12.368 8.70475 11.188C8.72329 10.2183 8.8901 8.72105 9.16243 7.07878C9.3942 5.72995 9.42495 4.35438 9.25368 2.99658C11.0872 4.51657 14.3865 7.95466 13.541 12.4449C13.5265 12.5221 13.5274 12.6013 13.5435 12.6781C13.5597 12.7548 13.5909 12.8277 13.6353 12.8925C13.6798 12.9572 13.7365 13.0126 13.8024 13.0555C13.8683 13.0984 13.942 13.1279 14.0194 13.1424C14.0967 13.1568 14.1761 13.156 14.2531 13.1398C14.3301 13.1237 14.4032 13.0926 14.4681 13.0483C14.533 13.004 14.5886 12.9474 14.6316 12.8817C14.6746 12.816 14.7042 12.7424 14.7187 12.6653C15.2363 9.90121 14.4335 7.0731 12.3947 4.48813C10.8662 2.54869 8.81881 1.02302 8.37682 1.00027C8.28023 0.997379 8.18436 1.01779 8.09737 1.05977C8.01037 1.10175 7.93483 1.16405 7.87716 1.24139C7.81949 1.31872 7.7814 1.4088 7.76612 1.50396C7.75084 1.59913 7.75883 1.69656 7.7894 1.78799C7.7894 1.80789 8.49374 3.86108 7.99186 6.8783C7.7067 8.5746 7.53704 10.1358 7.5185 11.1596C7.4816 12.6068 7.93019 14.025 8.79315 15.1892C9.28077 15.8608 9.92305 16.4057 10.6659 16.7781C11.4088 17.1505 12.2305 17.3395 13.0619 17.3291C13.3204 17.3296 13.5787 17.312 13.8347 17.2765C14.4104 17.7024 15.0728 17.997 15.7752 18.1395C15.3567 19.825 15.2418 21.5712 15.4359 23.2967C15.721 25.6982 16.7946 28.8107 20.0582 31.2208C19.6978 31.2689 19.3407 31.3392 18.9889 31.4312L18.9518 31.4426C15.3389 32.7223 12.4845 30.2881 12.3576 30.1786C12.2377 30.0796 12.0839 30.0311 11.9288 30.0433C11.7737 30.0555 11.6294 30.1275 11.5265 30.2439C11.4236 30.3604 11.3703 30.5122 11.3777 30.6672C11.3851 30.8222 11.4528 30.9682 11.5663 31.0743C11.6789 31.1725 13.809 33.0067 16.826 33.0067C17.2513 33.0064 17.6759 32.9698 18.0949 32.8972C17.3977 34.1058 15.9178 35.7552 13.0733 35.5461C11.3137 35.4071 9.66171 34.6456 8.41532 33.3991C7.39814 32.3817 6.60343 31.165 6.08131 29.8259C6.01288 29.6553 5.95299 29.479 5.90452 29.3297C5.63077 28.4936 4.73823 26.0821 3.14991 24.5806C5.33271 24.3779 7.53299 24.6799 9.57973 25.4631C11.6265 26.2463 13.4646 27.4897 14.9511 29.0965C15.0616 29.2034 15.2091 29.2637 15.363 29.265C15.5169 29.2663 15.6654 29.2084 15.7777 29.1034C15.8899 28.9984 15.9573 28.8543 15.9659 28.7011C15.9745 28.5478 15.9235 28.3972 15.8237 28.2804C9.55024 21.6189 1.77403 23.5512 1.4461 23.6365C1.32729 23.6678 1.221 23.7347 1.14164 23.8283C1.06228 23.9218 1.01371 24.0375 1.0025 24.1595C0.991289 24.2815 1.01799 24.404 1.07898 24.5104C1.13998 24.6168 1.2323 24.7019 1.34344 24.7541C3.36948 25.7025 4.55003 29.0411 4.76532 29.7008C4.82092 29.8714 4.88794 30.0691 4.96778 30.271Z"/>
</mask>
<path d="M4.96778 30.271C5.55107 31.7629 6.43746 33.1184 7.57126 34.2522C9.02096 35.7012 10.9429 36.5849 12.9892 36.7434C13.1874 36.7576 13.3785 36.7647 13.5595 36.7647C17.5175 36.7647 19.14 33.6366 19.5478 32.6413C19.5644 32.6025 19.5764 32.5619 19.5835 32.5204C20.1438 32.3995 21.1518 32.2559 21.9702 32.4166C22.2155 32.5446 22.4678 32.6711 22.7316 32.792C30.9598 36.5557 32.8204 41.6076 32.6679 46.2998C32.0942 45.5627 31.386 44.9404 30.5805 44.4656C29.9532 43.1119 28.1567 40.0976 24.4169 39.4407C22.5821 39.1379 20.6985 39.4621 19.0716 40.3606C17.0356 41.4683 12.0411 43.847 9.66145 42.0413C9.56032 41.9646 9.43734 41.9219 9.31031 41.9195C9.18327 41.9171 9.05876 41.9551 8.95479 42.0279C8.85081 42.1007 8.77275 42.2046 8.7319 42.3246C8.69106 42.4446 8.68954 42.5744 8.72756 42.6953C8.75038 42.765 9.27934 44.4158 10.8064 46.1661C12.2122 47.7757 14.7657 49.7834 18.9561 50.1957C19.3588 50.2365 19.7633 50.257 20.168 50.2569C21.5271 50.2666 22.8762 50.0256 24.1474 49.5459C25.1725 49.1492 25.9752 48.6544 26.5327 48.0757C26.5904 48.0199 26.6363 47.9531 26.6675 47.8792C26.6988 47.8053 26.7148 47.726 26.7147 47.6458C26.7145 47.5656 26.6982 47.4863 26.6666 47.4126C26.635 47.3388 26.5889 47.2722 26.531 47.2166C26.4731 47.161 26.4045 47.1177 26.3294 47.0891C26.2543 47.0605 26.1742 47.0473 26.0938 47.0502C26.0135 47.0532 25.9346 47.0722 25.8618 47.1062C25.789 47.1402 25.7238 47.1885 25.6701 47.2482C25.2338 47.7003 24.5751 48.1013 23.7139 48.434C22.2339 48.9854 20.6452 49.1841 19.0745 49.0141C13.9915 48.5122 11.5435 45.5348 10.5112 43.729C13.3941 44.4314 17.3236 42.6768 19.6462 41.4156C21.0337 40.6453 22.6417 40.3657 24.2087 40.6222C26.4899 41.0218 27.9243 42.4266 28.784 43.7063C27.8962 43.4595 26.9781 43.338 26.0565 43.3451H26.0308C24.3752 43.3636 22.7352 43.6671 21.1832 44.2423C21.0359 44.3017 20.9183 44.417 20.8563 44.5629C20.7942 44.7088 20.7928 44.8732 20.8524 45.0201C20.912 45.167 21.0276 45.2842 21.1738 45.3461C21.3201 45.408 21.485 45.4094 21.6323 45.35C23.049 44.8322 24.5435 44.5582 26.0522 44.5395H26.0622C29.0735 44.5395 31.2335 45.7964 32.4911 48.2634C32.3898 48.9957 32.2515 49.7137 32.0961 50.409C32.0041 50.8114 32.0041 51.2294 32.0961 51.6318C32.1881 52.0342 32.3698 52.4108 32.6277 52.7337C32.8856 53.0566 33.213 53.3174 33.5858 53.4968C33.9585 53.6763 34.367 53.7698 34.7809 53.7703H36.1624C36.3213 53.7703 36.4736 53.7074 36.5859 53.5954C36.6982 53.4834 36.7613 53.3315 36.7613 53.1731C36.7613 53.0147 36.6982 52.8628 36.5859 52.7509C36.4736 52.6389 36.3213 52.5759 36.1624 52.5759H34.7809C34.5481 52.5765 34.3182 52.5246 34.1083 52.4242C33.8985 52.3237 33.7141 52.1773 33.5689 51.9958C33.4214 51.8121 33.3173 51.5975 33.2644 51.368C33.2116 51.1386 33.2114 50.9002 33.2638 50.6706C34.5199 45.077 34.8479 37.0206 23.2263 31.7085C23.0296 31.6137 22.8371 31.5189 22.6489 31.4241C22.5772 31.356 22.4894 31.3071 22.3937 31.2819H22.3737C18.9889 29.4776 17.0541 26.7646 16.6178 23.2057C16.4085 21.3983 16.572 19.5673 17.0983 17.8253C18.8748 12.4805 21.4683 8.96846 24.8061 7.38733C28.3221 5.72232 32.0776 6.51857 34.6055 7.47833C34.6796 7.50974 34.7592 7.52593 34.8397 7.52595C34.9202 7.52597 34.9998 7.5098 35.0739 7.47843C35.148 7.44705 35.215 7.4011 35.2708 7.34333C35.3267 7.28556 35.3703 7.21715 35.3991 7.14219C35.4279 7.06722 35.4412 6.98725 35.4382 6.90704C35.4353 6.82683 35.4162 6.74803 35.3821 6.67536C35.3479 6.60268 35.2994 6.53761 35.2395 6.48404C35.1795 6.43047 35.1094 6.3895 35.0332 6.36358C32.2857 5.3185 28.1895 4.46254 24.2942 6.30955C20.7469 7.98878 17.9966 11.5861 16.1188 16.9935C13.052 16.4816 11.7787 12.0027 11.7659 11.9544C11.7218 11.8041 11.6202 11.6772 11.4831 11.6009C11.346 11.5245 11.1844 11.505 11.0329 11.5464C10.8815 11.5877 10.7525 11.6868 10.6735 11.8221C10.5946 11.9575 10.5722 12.1183 10.611 12.27C10.6495 12.4122 11.2298 14.4654 12.6071 16.1248C11.7089 16.038 10.6267 15.647 9.73844 14.4754C9.03655 13.5249 8.67277 12.368 8.70475 11.188C8.72329 10.2183 8.8901 8.72105 9.16243 7.07878C9.3942 5.72995 9.42495 4.35438 9.25368 2.99658C11.0872 4.51657 14.3865 7.95466 13.541 12.4449C13.5265 12.5221 13.5274 12.6013 13.5435 12.6781C13.5597 12.7548 13.5909 12.8277 13.6353 12.8925C13.6798 12.9572 13.7365 13.0126 13.8024 13.0555C13.8683 13.0984 13.942 13.1279 14.0194 13.1424C14.0967 13.1568 14.1761 13.156 14.2531 13.1398C14.3301 13.1237 14.4032 13.0926 14.4681 13.0483C14.533 13.004 14.5886 12.9474 14.6316 12.8817C14.6746 12.816 14.7042 12.7424 14.7187 12.6653C15.2363 9.90121 14.4335 7.0731 12.3947 4.48813C10.8662 2.54869 8.81881 1.02302 8.37682 1.00027C8.28023 0.997379 8.18436 1.01779 8.09737 1.05977C8.01037 1.10175 7.93483 1.16405 7.87716 1.24139C7.81949 1.31872 7.7814 1.4088 7.76612 1.50396C7.75084 1.59913 7.75883 1.69656 7.7894 1.78799C7.7894 1.80789 8.49374 3.86108 7.99186 6.8783C7.7067 8.5746 7.53704 10.1358 7.5185 11.1596C7.4816 12.6068 7.93019 14.025 8.79315 15.1892C9.28077 15.8608 9.92305 16.4057 10.6659 16.7781C11.4088 17.1505 12.2305 17.3395 13.0619 17.3291C13.3204 17.3296 13.5787 17.312 13.8347 17.2765C14.4104 17.7024 15.0728 17.997 15.7752 18.1395C15.3567 19.825 15.2418 21.5712 15.4359 23.2967C15.721 25.6982 16.7946 28.8107 20.0582 31.2208C19.6978 31.2689 19.3407 31.3392 18.9889 31.4312L18.9518 31.4426C15.3389 32.7223 12.4845 30.2881 12.3576 30.1786C12.2377 30.0796 12.0839 30.0311 11.9288 30.0433C11.7737 30.0555 11.6294 30.1275 11.5265 30.2439C11.4236 30.3604 11.3703 30.5122 11.3777 30.6672C11.3851 30.8222 11.4528 30.9682 11.5663 31.0743C11.6789 31.1725 13.809 33.0067 16.826 33.0067C17.2513 33.0064 17.6759 32.9698 18.0949 32.8972C17.3977 34.1058 15.9178 35.7552 13.0733 35.5461C11.3137 35.4071 9.66171 34.6456 8.41532 33.3991C7.39814 32.3817 6.60343 31.165 6.08131 29.8259C6.01288 29.6553 5.95299 29.479 5.90452 29.3297C5.63077 28.4936 4.73823 26.0821 3.14991 24.5806C5.33271 24.3779 7.53299 24.6799 9.57973 25.4631C11.6265 26.2463 13.4646 27.4897 14.9511 29.0965C15.0616 29.2034 15.2091 29.2637 15.363 29.265C15.5169 29.2663 15.6654 29.2084 15.7777 29.1034C15.8899 28.9984 15.9573 28.8543 15.9659 28.7011C15.9745 28.5478 15.9235 28.3972 15.8237 28.2804C9.55024 21.6189 1.77403 23.5512 1.4461 23.6365C1.32729 23.6678 1.221 23.7347 1.14164 23.8283C1.06228 23.9218 1.01371 24.0375 1.0025 24.1595C0.991289 24.2815 1.01799 24.404 1.07898 24.5104C1.13998 24.6168 1.2323 24.7019 1.34344 24.7541C3.36948 25.7025 4.55003 29.0411 4.76532 29.7008C4.82092 29.8714 4.88794 30.0691 4.96778 30.271Z" fill="#772e25"/>
<path d="M4.96778 30.271C5.55107 31.7629 6.43746 33.1184 7.57126 34.2522C9.02096 35.7012 10.9429 36.5849 12.9892 36.7434C13.1874 36.7576 13.3785 36.7647 13.5595 36.7647C17.5175 36.7647 19.14 33.6366 19.5478 32.6413C19.5644 32.6025 19.5764 32.5619 19.5835 32.5204C20.1438 32.3995 21.1518 32.2559 21.9702 32.4166C22.2155 32.5446 22.4678 32.6711 22.7316 32.792C30.9598 36.5557 32.8204 41.6076 32.6679 46.2998C32.0942 45.5627 31.386 44.9404 30.5805 44.4656C29.9532 43.1119 28.1567 40.0976 24.4169 39.4407C22.5821 39.1379 20.6985 39.4621 19.0716 40.3606C17.0356 41.4683 12.0411 43.847 9.66145 42.0413C9.56032 41.9646 9.43734 41.9219 9.31031 41.9195C9.18327 41.9171 9.05876 41.9551 8.95479 42.0279C8.85081 42.1007 8.77275 42.2046 8.7319 42.3246C8.69106 42.4446 8.68954 42.5744 8.72756 42.6953C8.75038 42.765 9.27934 44.4158 10.8064 46.1661C12.2122 47.7757 14.7657 49.7834 18.9561 50.1957C19.3588 50.2365 19.7633 50.257 20.168 50.2569C21.5271 50.2666 22.8762 50.0256 24.1474 49.5459C25.1725 49.1492 25.9752 48.6544 26.5327 48.0757C26.5904 48.0199 26.6363 47.9531 26.6675 47.8792C26.6988 47.8053 26.7148 47.726 26.7147 47.6458C26.7145 47.5656 26.6982 47.4863 26.6666 47.4126C26.635 47.3388 26.5889 47.2722 26.531 47.2166C26.4731 47.161 26.4045 47.1177 26.3294 47.0891C26.2543 47.0605 26.1742 47.0473 26.0938 47.0502C26.0135 47.0532 25.9346 47.0722 25.8618 47.1062C25.789 47.1402 25.7238 47.1885 25.6701 47.2482C25.2338 47.7003 24.5751 48.1013 23.7139 48.434C22.2339 48.9854 20.6452 49.1841 19.0745 49.0141C13.9915 48.5122 11.5435 45.5348 10.5112 43.729C13.3941 44.4314 17.3236 42.6768 19.6462 41.4156C21.0337 40.6453 22.6417 40.3657 24.2087 40.6222C26.4899 41.0218 27.9243 42.4266 28.784 43.7063C27.8962 43.4595 26.9781 43.338 26.0565 43.3451H26.0308C24.3752 43.3636 22.7352 43.6671 21.1832 44.2423C21.0359 44.3017 20.9183 44.417 20.8563 44.5629C20.7942 44.7088 20.7928 44.8732 20.8524 45.0201C20.912 45.167 21.0276 45.2842 21.1738 45.3461C21.3201 45.408 21.485 45.4094 21.6323 45.35C23.049 44.8322 24.5435 44.5582 26.0522 44.5395H26.0622C29.0735 44.5395 31.2335 45.7964 32.4911 48.2634C32.3898 48.9957 32.2515 49.7137 32.0961 50.409C32.0041 50.8114 32.0041 51.2294 32.0961 51.6318C32.1881 52.0342 32.3698 52.4108 32.6277 52.7337C32.8856 53.0566 33.213 53.3174 33.5858 53.4968C33.9585 53.6763 34.367 53.7698 34.7809 53.7703H36.1624C36.3213 53.7703 36.4736 53.7074 36.5859 53.5954C36.6982 53.4834 36.7613 53.3315 36.7613 53.1731C36.7613 53.0147 36.6982 52.8628 36.5859 52.7509C36.4736 52.6389 36.3213 52.5759 36.1624 52.5759H34.7809C34.5481 52.5765 34.3182 52.5246 34.1083 52.4242C33.8985 52.3237 33.7141 52.1773 33.5689 51.9958C33.4214 51.8121 33.3173 51.5975 33.2644 51.368C33.2116 51.1386 33.2114 50.9002 33.2638 50.6706C34.5199 45.077 34.8479 37.0206 23.2263 31.7085C23.0296 31.6137 22.8371 31.5189 22.6489 31.4241C22.5772 31.356 22.4894 31.3071 22.3937 31.2819H22.3737C18.9889 29.4776 17.0541 26.7646 16.6178 23.2057C16.4085 21.3983 16.572 19.5673 17.0983 17.8253C18.8748 12.4805 21.4683 8.96846 24.8061 7.38733C28.3221 5.72232 32.0776 6.51857 34.6055 7.47833C34.6796 7.50974 34.7592 7.52593 34.8397 7.52595C34.9202 7.52597 34.9998 7.5098 35.0739 7.47843C35.148 7.44705 35.215 7.4011 35.2708 7.34333C35.3267 7.28556 35.3703 7.21715 35.3991 7.14219C35.4279 7.06722 35.4412 6.98725 35.4382 6.90704C35.4353 6.82683 35.4162 6.74803 35.3821 6.67536C35.3479 6.60268 35.2994 6.53761 35.2395 6.48404C35.1795 6.43047 35.1094 6.3895 35.0332 6.36358C32.2857 5.3185 28.1895 4.46254 24.2942 6.30955C20.7469 7.98878 17.9966 11.5861 16.1188 16.9935C13.052 16.4816 11.7787 12.0027 11.7659 11.9544C11.7218 11.8041 11.6202 11.6772 11.4831 11.6009C11.346 11.5245 11.1844 11.505 11.0329 11.5464C10.8815 11.5877 10.7525 11.6868 10.6735 11.8221C10.5946 11.9575 10.5722 12.1183 10.611 12.27C10.6495 12.4122 11.2298 14.4654 12.6071 16.1248C11.7089 16.038 10.6267 15.647 9.73844 14.4754C9.03655 13.5249 8.67277 12.368 8.70475 11.188C8.72329 10.2183 8.8901 8.72105 9.16243 7.07878C9.3942 5.72995 9.42495 4.35438 9.25368 2.99658C11.0872 4.51657 14.3865 7.95466 13.541 12.4449C13.5265 12.5221 13.5274 12.6013 13.5435 12.6781C13.5597 12.7548 13.5909 12.8277 13.6353 12.8925C13.6798 12.9572 13.7365 13.0126 13.8024 13.0555C13.8683 13.0984 13.942 13.1279 14.0194 13.1424C14.0967 13.1568 14.1761 13.156 14.2531 13.1398C14.3301 13.1237 14.4032 13.0926 14.4681 13.0483C14.533 13.004 14.5886 12.9474 14.6316 12.8817C14.6746 12.816 14.7042 12.7424 14.7187 12.6653C15.2363 9.90121 14.4335 7.0731 12.3947 4.48813C10.8662 2.54869 8.81881 1.02302 8.37682 1.00027C8.28023 0.997379 8.18436 1.01779 8.09737 1.05977C8.01037 1.10175 7.93483 1.16405 7.87716 1.24139C7.81949 1.31872 7.7814 1.4088 7.76612 1.50396C7.75084 1.59913 7.75883 1.69656 7.7894 1.78799C7.7894 1.80789 8.49374 3.86108 7.99186 6.8783C7.7067 8.5746 7.53704 10.1358 7.5185 11.1596C7.4816 12.6068 7.93019 14.025 8.79315 15.1892C9.28077 15.8608 9.92305 16.4057 10.6659 16.7781C11.4088 17.1505 12.2305 17.3395 13.0619 17.3291C13.3204 17.3296 13.5787 17.312 13.8347 17.2765C14.4104 17.7024 15.0728 17.997 15.7752 18.1395C15.3567 19.825 15.2418 21.5712 15.4359 23.2967C15.721 25.6982 16.7946 28.8107 20.0582 31.2208C19.6978 31.2689 19.3407 31.3392 18.9889 31.4312L18.9518 31.4426C15.3389 32.7223 12.4845 30.2881 12.3576 30.1786C12.2377 30.0796 12.0839 30.0311 11.9288 30.0433C11.7737 30.0555 11.6294 30.1275 11.5265 30.2439C11.4236 30.3604 11.3703 30.5122 11.3777 30.6672C11.3851 30.8222 11.4528 30.9682 11.5663 31.0743C11.6789 31.1725 13.809 33.0067 16.826 33.0067C17.2513 33.0064 17.6759 32.9698 18.0949 32.8972C17.3977 34.1058 15.9178 35.7552 13.0733 35.5461C11.3137 35.4071 9.66171 34.6456 8.41532 33.3991C7.39814 32.3817 6.60343 31.165 6.08131 29.8259C6.01288 29.6553 5.95299 29.479 5.90452 29.3297C5.63077 28.4936 4.73823 26.0821 3.14991 24.5806C5.33271 24.3779 7.53299 24.6799 9.57973 25.4631C11.6265 26.2463 13.4646 27.4897 14.9511 29.0965C15.0616 29.2034 15.2091 29.2637 15.363 29.265C15.5169 29.2663 15.6654 29.2084 15.7777 29.1034C15.8899 28.9984 15.9573 28.8543 15.9659 28.7011C15.9745 28.5478 15.9235 28.3972 15.8237 28.2804C9.55024 21.6189 1.77403 23.5512 1.4461 23.6365C1.32729 23.6678 1.221 23.7347 1.14164 23.8283C1.06228 23.9218 1.01371 24.0375 1.0025 24.1595C0.991289 24.2815 1.01799 24.404 1.07898 24.5104C1.13998 24.6168 1.2323 24.7019 1.34344 24.7541C3.36948 25.7025 4.55003 29.0411 4.76532 29.7008C4.82092 29.8714 4.88794 30.0691 4.96778 30.271Z" stroke="#772e25" stroke-width="0.4" mask="url(#path-2-outside-1_263_2316)"/>
<path d="M21.9085 23.9123C22.0949 23.4161 22.3613 22.9533 22.6975 22.5421C22.683 22.5093 22.6709 22.4754 22.6612 22.4409L22.6599 22.4363L22.66 22.4362C22.435 21.4606 22.3964 20.018 23.5177 18.7378L23.5178 18.7377C24.2583 17.8935 25.3399 17.3885 26.3641 16.9102L26.3765 16.9044L26.3766 16.9044C27.8244 16.229 29.1396 15.6101 29.6323 14.2119L21.9085 23.9123ZM21.9085 23.9123C21.1448 22.3694 20.9134 20.6155 21.2543 18.9244L21.2544 18.9239L21.9085 23.9123ZM40.2774 51.6959C40.2414 51.821 40.1653 51.9309 40.0608 52.009C39.9563 52.087 39.8291 52.1288 39.6986 52.1281M40.2774 51.6959L20.0441 22.5358C20.3412 23.8062 20.9076 24.9985 21.7052 26.0324C21.7482 26.1384 21.821 26.2297 21.9148 26.2955C22.9224 27.5176 24.2229 28.4664 25.696 29.0539C41.5064 35.377 40.3473 46.7719 39.1154 51.3774C39.0952 51.4534 39.0903 51.5326 39.1008 51.6105C39.1114 51.6884 39.1373 51.7635 39.1771 51.8314C39.2168 51.8993 39.2696 51.9587 39.3324 52.0062C39.3952 52.0537 39.4669 52.0884 39.5431 52.1082C39.5938 52.1218 39.6461 52.1285 39.6986 52.1281M40.2774 51.6959C40.7864 49.792 41.418 46.2145 40.4499 42.2504L40.2774 51.6959ZM39.6986 52.1281L39.698 52.2281C39.6981 52.2281 39.6983 52.2281 39.6984 52.2281M39.6986 52.1281L39.6993 52.2281C39.699 52.2281 39.6987 52.2281 39.6984 52.2281M19.8848 18.6475C19.9078 18.5313 19.9337 18.4138 19.9593 18.2976L19.9593 18.2973L19.9595 18.2967C20.6895 15.0728 22.3642 12.3117 24.6786 10.5253C24.7506 10.4668 24.8335 10.4232 24.9226 10.3971C25.0121 10.3708 25.106 10.3627 25.1987 10.3732C25.2915 10.3837 25.3811 10.4127 25.4625 10.4583C25.5438 10.504 25.6152 10.5654 25.6723 10.6391C25.7295 10.7127 25.7713 10.797 25.7953 10.8871C25.8192 10.9771 25.8248 11.0711 25.8118 11.1633C25.7987 11.2556 25.7673 11.3443 25.7193 11.4242C25.6716 11.5037 25.6085 11.5729 25.5336 11.6278C23.4807 13.2126 21.9822 15.6874 21.3222 18.6025C21.3222 18.6025 21.3222 18.6025 21.3222 18.6025L19.8848 18.6475ZM19.8848 18.6475C19.6253 19.9406 19.6464 21.2742 19.9468 22.5586C20.2461 23.8387 20.8159 25.0403 21.618 26.0831C21.667 26.1971 21.7457 26.2959 21.846 26.3692C22.8631 27.5994 24.1743 28.5547 25.6589 29.1468C33.5421 32.2996 37.1813 36.7101 38.7026 40.8939C40.2254 45.082 39.6319 49.0593 39.0188 51.3515L39.0188 51.3517C38.9952 51.4404 38.9894 51.533 39.0018 51.624C39.0141 51.715 39.0444 51.8026 39.0908 51.8819C39.1372 51.9612 39.1988 52.0305 39.2721 52.086C39.3452 52.1413 39.4285 52.1816 39.5172 52.2048C39.5763 52.2206 39.6372 52.2285 39.6984 52.2281M19.8848 18.6475L39.6984 52.2281M47.8758 34.659C47.876 34.6588 47.8761 34.6586 47.8762 34.6585L47.8763 34.6584L47.9581 34.7158L47.8749 34.6604C47.8752 34.6599 47.8755 34.6595 47.8758 34.659ZM47.8758 34.659C47.8731 34.6628 47.8588 34.6832 47.8306 34.7176C47.7993 34.7558 47.7509 34.8115 47.6826 34.8813C47.5459 35.0207 47.3294 35.2163 47.0109 35.4392C46.3741 35.885 45.3286 36.4412 43.6966 36.8771M47.8758 34.659L43.6966 36.8771M43.6966 36.8771C43.1469 37.0214 42.6199 37.2404 42.1304 37.5276C42.158 36.8314 42.3542 35.9315 43.005 35.0627C43.713 34.1174 44.9668 33.1986 47.1538 32.6229L47.1538 32.6228C50.5908 31.7165 52.5713 30.5814 53.7051 29.6153C53.5827 30.798 53.3385 32.3257 52.8536 33.8422C52.3332 35.4698 51.5379 37.0767 50.3258 38.2322C49.0136 39.4821 47.3408 40.0518 45.3433 39.9352L45.3433 39.9352L45.3403 39.9351C45.1591 39.93 44.9829 39.9954 44.8491 40.1175C44.7153 40.2397 44.6342 40.409 44.6232 40.5897C44.6122 40.7704 44.672 40.9482 44.79 41.0857C44.9081 41.2231 45.075 41.3093 45.2555 41.3262L45.2555 41.3262L45.2593 41.3265C45.4659 41.3379 45.6688 41.3451 45.8708 41.3451C47.9993 41.3451 49.8238 40.6395 51.2907 39.2401C53.3043 37.3205 54.2866 34.4423 54.7666 32.0165C55.2473 29.5876 55.2277 27.5949 55.2255 27.4303L55.2255 27.4298C55.2226 27.2615 55.1586 27.0999 55.0456 26.9749C54.9326 26.85 54.7781 26.77 54.6107 26.7498C54.4433 26.7296 54.2742 26.7705 54.1346 26.8649C53.995 26.9593 53.8943 27.101 53.8511 27.2638L53.8498 27.269C53.8493 27.2704 53.8487 27.2722 53.8479 27.2743C53.8469 27.2772 53.8456 27.2808 53.8439 27.2851C53.8376 27.3016 53.827 27.3268 53.811 27.3601C53.7791 27.4264 53.7257 27.524 53.6416 27.6468C53.4735 27.8923 53.1825 28.2387 52.694 28.6377C51.7169 29.4359 49.9487 30.445 46.7935 31.2749L46.7934 31.2749C43.5663 32.1251 42.0176 33.6956 41.3024 35.2002C40.6097 36.6576 40.7062 38.0379 40.7901 38.608C40.4116 39.0253 40.0908 39.4908 39.8359 39.9922C37.7641 34.7329 33.1674 30.656 26.1751 27.8605L26.1749 27.8605C24.9277 27.3642 23.8236 26.5673 22.9612 25.5414C23.0082 24.9179 23.2939 23.3181 24.9507 22.5374C25.0365 22.499 25.4456 22.3136 25.9035 22.0698C26.3597 21.827 26.8771 21.5197 27.1659 21.2384L27.166 21.2383C27.2984 21.1089 27.3739 20.9323 27.3757 20.7473C27.3776 20.5623 27.3057 20.3842 27.176 20.2521C27.0462 20.1201 26.8692 20.0449 26.6839 20.043C26.4987 20.0412 26.3202 20.1128 26.1878 20.2422L26.1878 20.2422C26.0464 20.3805 25.7375 20.5744 25.3823 20.7691C25.031 20.9618 24.6464 21.149 24.3636 21.2745L24.3636 21.2744L24.3617 21.2753C24.2103 21.3464 24.0626 21.4248 23.919 21.5102C23.901 21.2036 23.9387 20.8957 24.0307 20.6017C24.1386 20.2571 24.3186 19.9393 24.5588 19.6692L24.5593 19.6686C25.1027 19.0481 25.9881 18.633 26.9491 18.1824L26.9502 18.1819C27.9785 17.702 29.1175 17.1702 29.9658 16.2729C30.0951 17.2013 30.1182 18.4258 29.726 19.633C29.3051 20.9286 28.4044 22.2091 26.6292 23.0858C26.485 23.1537 26.3683 23.2688 26.2987 23.4121C26.2289 23.5557 26.2106 23.7188 26.2468 23.8742C26.2831 24.0297 26.3716 24.168 26.4977 24.2661C26.6235 24.364 26.7791 24.4159 26.9385 24.4134M43.6966 36.8771L29.6323 14.2119C29.6806 14.0745 29.7708 13.9558 29.8901 13.8722C30.0093 13.7887 30.1517 13.7444 30.2973 13.7456M26.9385 24.4134C26.9382 24.4134 26.9379 24.4134 26.9375 24.4134L26.9378 24.3134L26.9395 24.4134C26.9392 24.4134 26.9389 24.4134 26.9385 24.4134ZM26.9385 24.4134C27.0459 24.4136 27.1518 24.3885 27.2477 24.3403C30.3008 22.8289 31.2349 20.3079 31.4018 18.1639C31.4852 17.0933 31.3777 16.1156 31.2485 15.4018C31.1838 15.0447 31.1136 14.7531 31.0589 14.5482C31.0316 14.4458 31.0081 14.3651 30.9911 14.3087C30.9826 14.2806 30.9758 14.2585 30.9709 14.243C30.9659 14.2269 30.9641 14.2214 30.9639 14.2208L30.9642 14.2207L30.9615 14.2131C30.9129 14.076 30.8228 13.9574 30.7037 13.8736C30.5847 13.79 30.4427 13.7453 30.2973 13.7456M30.2973 13.7456C30.2974 13.7456 30.2976 13.7456 30.2978 13.7456L30.297 13.8455L30.2967 13.7456C30.2969 13.7456 30.2971 13.7456 30.2973 13.7456Z" fill="#772e25" stroke="#772e25" stroke-width="0.2"/>
<path d="M47.1452 1.88129L47.1459 1.88127C49.6062 1.82418 52.0249 2.52084 54.0759 3.87732C56.1269 5.23381 57.7115 7.18491 58.616 9.46755L58.6162 9.46793C58.9049 10.2053 58.9174 11.0217 58.6515 11.7675C57.9161 13.8398 56.7715 14.905 56.7141 14.9572L47.1452 1.88129ZM47.1452 1.88129C44.7082 1.95511 42.3511 2.76459 40.3853 4.2028C38.4502 5.6185 36.9839 7.57782 36.1733 9.82879L47.1452 1.88129ZM57.3307 11.303L57.3312 11.3018C57.4867 10.8715 57.4805 10.3995 57.3137 9.97343C56.5326 7.99925 55.1749 6.30453 53.4165 5.10899C51.658 3.91346 49.58 3.27225 47.4518 3.26851C47.4517 3.26851 47.4517 3.26851 47.4517 3.26851L47.4513 3.26851H47.4508H47.4503H47.4497H47.4492H47.4487H47.4481H47.4476H47.4471H47.4465H47.446H47.4455H47.4449H47.4444H47.4439H47.4433H47.4428H47.4423H47.4417H47.4412H47.4407H47.4401H47.4396H47.4391H47.4385H47.438H47.4375H47.4369H47.4364H47.4359H47.4353H47.4348H47.4342H47.4337H47.4332H47.4326H47.4321H47.4316H47.431H47.4305H47.43H47.4294H47.4289H47.4284H47.4278H47.4273H47.4268H47.4262H47.4257H47.4252H47.4246H47.4241H47.4236H47.423H47.4225H47.422H47.4215H47.4209H47.4204H47.4199H47.4193H47.4188H47.4183H47.4177H47.4172H47.4167H47.4161H47.4156H47.4151H47.4145H47.414H47.4135H47.4129H47.4124H47.4119H47.4113H47.4108H47.4103H47.4097H47.4092H47.4087H47.4081H47.4076H47.4071H47.4065H47.406H47.4055H47.4049H47.4044H47.4039H47.4033H47.4028H47.4023H47.4018H47.4012H47.4007H47.4002H47.3996H47.3991H47.3986H47.398H47.3975H47.397H47.3964H47.3959H47.3954H47.3948H47.3943H47.3938H47.3932H47.3927H47.3922H47.3917H47.3911H47.3906H47.3901H47.3895H47.389H47.3885H47.3879H47.3874H47.3869H47.3863H47.3858H47.3853H47.3847H47.3842H47.3837H47.3832H47.3826H47.3821H47.3816H47.381H47.3805H47.38H47.3794H47.3789H47.3784H47.3778H47.3773H47.3768H47.3763H47.3757H47.3752H47.3747H47.3741H47.3736H47.3731H47.3725H47.372H47.3715H47.3709H47.3704H47.3699H47.3694H47.3688H47.3683H47.3678H47.3672H47.3667H47.3662H47.3656H47.3651H47.3646H47.3641H47.3635H47.363H47.3625H47.3619H47.3614H47.3609H47.3603H47.3598H47.3593H47.3588H47.3582H47.3577H47.3572H47.3566H47.3561H47.3556H47.355H47.3545H47.354H47.3535H47.3529H47.3524H47.3519H47.3513H47.3508H47.3503H47.3497H47.3492H47.3487H47.3482H47.3476H47.3471H47.3466H47.346H47.3455H47.345H47.3445H47.3439H47.3434H47.3429H47.3423H47.3418H47.3413H47.3407H47.3402H47.3397H47.3392H47.3386H47.3381H47.3376H47.337H47.3365H47.336H47.3355H47.3349H47.3344H47.3339H47.3333H47.3328H47.3323H47.3318H47.3312H47.3307H47.3302H47.3296H47.3291H47.3286H47.3281H47.3275H47.327H47.3265H47.3259H47.3254H47.3249H47.3243H47.3238H47.3233H47.3228H47.3222H47.3217H47.3212H47.3206H47.3201H47.3196H47.3191H47.3185H47.318H47.3175H47.3169H47.3164H47.3159H47.3154H47.3148H47.3143H47.3138H47.3133H47.3127H47.3122H47.3117H47.3111H47.3106H47.3101H47.3096H47.309H47.3085H47.308H47.3074H47.3069H47.3064H47.3059H47.3053H47.3048H47.3043H47.3037H47.3032H47.3027H47.3022H47.3016H47.3011H47.3006H47.3H47.2995H47.299H47.2985H47.2979H47.2974H47.2969H47.2964H47.2958H47.2953H47.2948H47.2942H47.2937H47.2932H47.2927H47.2921H47.2916H47.2911H47.2905H47.29H47.2895H47.289H47.2884H47.2879H47.2874H47.2869H47.2863H47.2858H47.2853H47.2847H47.2842H47.2837H47.2832H47.2826H47.2821H47.2816H47.2811H47.2805H47.28H47.2795H47.2789H47.2784H47.2779H47.2774H47.2768H47.2763H47.2758H47.2752H47.2747H47.2742H47.2737H47.2731H47.2726H47.2721H47.2716H47.271H47.2705H47.27H47.2694H47.2689H47.2684H47.2679H47.2673H47.2668H47.2663H47.2658H47.2652H47.2647H47.2642H47.2637H47.2631H47.2626H47.2621H47.2615H47.261H47.2605H47.26H47.2594H47.2589H47.2584H47.2579H47.2573H47.2568H47.2563H47.2557H47.2552H47.2547H47.2542H47.2536H47.2531H47.2526H47.2521H47.2515H47.251H47.2505H47.2499H47.2494H47.2489H47.2484H47.2478H47.2473H47.2468H47.2463H47.2457H47.2452H47.2447H47.2442H47.2436H47.2431H47.2426H47.242H47.2415H47.241H47.2405H47.2399H47.2394H47.2389H47.2384H47.2378H47.2373H47.2368H47.2363H47.2357H47.2352H47.2347H47.2341H47.2336H47.2331H47.2326H47.232H47.2315H47.231H47.2305H47.2299H47.2294H47.2289H47.2284H47.2278H47.2273H47.2268H47.2262H47.2257H47.2252H47.2247H47.2241H47.2236H47.2231H47.2226H47.222H47.2215H47.221H47.2205H47.2199H47.2194H47.2189H47.2184H47.2178H47.2173H47.2168H47.2162H47.2157H47.2152H47.2147H47.2141H47.2136H47.2131H47.2126H47.212H47.2115H47.211H47.2105H47.2099H47.2094H47.2089H47.2083H47.2078H47.2073H47.2068H47.2062H47.2057H47.2052H47.2047H47.2041H47.2036H47.2031H47.2026H47.202H47.2015H47.201H47.2005H47.1999H47.1994H47.1989H47.1983H47.1978H47.1973H47.1968H47.1962H47.1957H47.1952H47.1947H47.1941H47.1936H47.1931H47.1926H47.192H47.1915H47.191H47.1905H47.1899H47.1894H47.1889H47.1883H47.1878H47.1873H47.1868H47.1862H47.1857H47.1852H47.1847H47.1841H47.1836H47.1831H47.1826H47.1822C41.5773 3.41002 36.9547 8.07289 36.8728 13.6606L36.8728 13.6606C36.8423 15.7018 37.4063 17.7081 38.4963 19.4361C39.5863 21.1642 41.1555 22.5399 43.0139 23.3964C44.8722 24.253 46.9398 24.5536 48.966 24.2618C50.9922 23.97 52.89 23.0984 54.4293 21.7526C54.7963 21.4297 55.0237 20.9779 55.0643 20.4917C55.1297 19.6843 55.1286 18.873 55.0608 18.066L52.4364 19.8208L52.4358 19.8211C52.3551 19.8743 52.2643 19.9101 52.1691 19.9264C52.0738 19.9428 51.9762 19.9392 51.8824 19.916C51.7886 19.8927 51.7007 19.8503 51.6241 19.7915C51.5475 19.7326 51.484 19.6585 51.4376 19.5738L51.4376 19.5737L50.3545 17.5904L49.1831 18.5426L49.1827 18.543C49.1081 18.6029 49.022 18.6471 48.9298 18.6727C48.8376 18.6983 48.7412 18.7049 48.6465 18.6922C48.6463 18.6921 48.6462 18.6921 48.6461 18.6921L48.6595 18.593C48.4 18.5603 42.4716 17.6915 41.3453 12.8728L57.3307 11.303ZM57.3307 11.303C57.0556 12.0953 56.6541 12.8378 56.1418 13.5022L53.0093 11.1773L53.009 11.1771C52.8772 11.0799 52.7154 11.0318 52.5517 11.0412C52.3881 11.0506 52.2328 11.1168 52.113 11.2285L52.1128 11.2287L50.3301 12.8995L48.8951 11.7359C48.7707 11.6347 48.6152 11.5791 48.4546 11.5784H48.4542H40.3572C40.1719 11.5784 39.9942 11.6518 39.8631 11.7825C39.7321 11.9133 39.6584 12.0906 39.6584 12.2756C39.6584 12.4606 39.7321 12.638 39.8631 12.7687C39.9942 12.8994 40.1719 12.9728 40.3572 12.9728H41.2664L57.3307 11.303Z" fill="#772e25" stroke="#772e25" stroke-width="0.2"/>
</svg>
