<svg width="60" height="55" viewBox="0 0 60 55" fill="none" xmlns="http://www.w3.org/2000/svg">
<path d="M27.401 10.3646C27.4768 10.3651 27.5519 10.3506 27.622 10.3219C27.853 10.2309 28.0868 10.1499 28.3207 10.0802C28.403 10.0645 28.4812 10.0317 28.55 9.98393C28.6188 9.93618 28.6768 9.87454 28.7203 9.80301C28.7637 9.73148 28.7916 9.65165 28.8021 9.56869C28.8127 9.48573 28.8056 9.40149 28.7814 9.32142C28.7572 9.24135 28.7165 9.16724 28.6617 9.10388C28.607 9.04053 28.5395 8.98934 28.4637 8.95364C28.3879 8.91794 28.3054 8.89852 28.2215 8.89664C28.1377 8.89475 28.0544 8.91045 27.9771 8.9427C27.7104 9.02233 27.4424 9.11475 27.18 9.21855C27.0509 9.27002 26.9438 9.36472 26.877 9.48638C26.8102 9.60805 26.788 9.7491 26.8141 9.88532C26.8403 10.0215 26.9131 10.1444 27.0202 10.2329C27.1273 10.3214 27.262 10.37 27.401 10.3703V10.3646Z" fill="white" stroke="#772E25" stroke-width="1.4"/>
<path d="M4.96778 30.271C5.55107 31.7629 6.43746 33.1184 7.57126 34.2522C9.02096 35.7012 10.9429 36.5849 12.9892 36.7434C13.1874 36.7576 13.3785 36.7647 13.5595 36.7647C17.5175 36.7647 19.14 33.6366 19.5478 32.6413C19.5644 32.6025 19.5764 32.5619 19.5835 32.5204C20.1438 32.3995 21.1518 32.2559 21.9702 32.4166C22.2155 32.5446 22.4678 32.6711 22.7316 32.792C30.9598 36.5557 32.8204 41.6076 32.6679 46.2998C32.0942 45.5627 31.386 44.9404 30.5805 44.4656C29.9532 43.1119 28.1567 40.0976 24.4169 39.4407C22.5821 39.1379 20.6985 39.4621 19.0716 40.3606C17.0356 41.4683 12.0411 43.847 9.66145 42.0413C9.56032 41.9646 9.43734 41.9219 9.31031 41.9195C9.18327 41.9171 9.05876 41.9551 8.95479 42.0279C8.85081 42.1007 8.77275 42.2046 8.7319 42.3246C8.69106 42.4446 8.68954 42.5744 8.72756 42.6953C8.75038 42.765 9.27934 44.4158 10.8064 46.1661C12.2122 47.7757 14.7657 49.7834 18.9561 50.1957C19.3588 50.2365 19.7633 50.257 20.168 50.2569C21.5271 50.2666 22.8762 50.0256 24.1474 49.5459C25.1725 49.1492 25.9752 48.6544 26.5327 48.0757C26.5904 48.0199 26.6363 47.9531 26.6675 47.8792C26.6988 47.8053 26.7148 47.726 26.7147 47.6458C26.7145 47.5656 26.6982 47.4863 26.6666 47.4126C26.635 47.3388 26.5889 47.2722 26.531 47.2166C26.4731 47.161 26.4045 47.1177 26.3294 47.0891C26.2543 47.0605 26.1742 47.0473 26.0938 47.0502C26.0135 47.0532 25.9346 47.0722 25.8618 47.1062C25.789 47.1402 25.7238 47.1885 25.6701 47.2482C25.2338 47.7003 24.5751 48.1013 23.7139 48.434C22.2339 48.9854 20.6452 49.1841 19.0745 49.0141C13.9915 48.5122 11.5435 45.5348 10.5112 43.729C13.3941 44.4314 17.3236 42.6768 19.6462 41.4156C21.0337 40.6453 22.6417 40.3657 24.2087 40.6222C26.4899 41.0218 27.9243 42.4266 28.784 43.7063C27.8962 43.4595 26.9781 43.338 26.0565 43.3451H26.0308C24.3752 43.3636 22.7352 43.6671 21.1832 44.2423C21.0359 44.3017 20.9183 44.417 20.8563 44.5629C20.7942 44.7088 20.7928 44.8732 20.8524 45.0201C20.912 45.167 21.0276 45.2842 21.1738 45.3461C21.3201 45.408 21.485 45.4094 21.6323 45.35C23.049 44.8322 24.5435 44.5582 26.0522 44.5395H26.0622C29.0735 44.5395 31.2335 45.7964 32.4911 48.2634C32.3898 48.9957 32.2515 49.7137 32.0961 50.409C32.0041 50.8114 32.0041 51.2294 32.0961 51.6318C32.1881 52.0342 32.3698 52.4108 32.6277 52.7337C32.8856 53.0566 33.213 53.3174 33.5858 53.4968C33.9585 53.6763 34.367 53.7698 34.7809 53.7703H36.1624C36.3213 53.7703 36.4736 53.7074 36.5859 53.5954C36.6982 53.4834 36.7613 53.3315 36.7613 53.1731C36.7613 53.0147 36.6982 52.8628 36.5859 52.7509C36.4736 52.6389 36.3213 52.5759 36.1624 52.5759H34.7809C34.5481 52.5765 34.3182 52.5246 34.1083 52.4242C33.8985 52.3237 33.7141 52.1773 33.569 51.9958C33.4214 51.8121 33.3173 51.5975 33.2644 51.368C33.2116 51.1386 33.2114 50.9002 33.2638 50.6706C34.5199 45.077 34.8479 37.0206 23.2263 31.7085C23.0296 31.6137 22.8371 31.5189 22.6489 31.4241C22.5772 31.356 22.4894 31.3071 22.3937 31.2819H22.3737C18.9889 29.4776 17.0541 26.7646 16.6178 23.2057C16.4085 21.3983 16.572 19.5673 17.0983 17.8253C18.8748 12.4805 21.4683 8.96846 24.8061 7.38733C28.3221 5.72232 32.0776 6.51857 34.6055 7.47833C34.6796 7.50974 34.7592 7.52593 34.8397 7.52595C34.9202 7.52597 34.9998 7.5098 35.0739 7.47843C35.148 7.44705 35.215 7.4011 35.2708 7.34333C35.3267 7.28556 35.3703 7.21715 35.3991 7.14219C35.4279 7.06722 35.4412 6.98725 35.4382 6.90704C35.4353 6.82683 35.4162 6.74803 35.3821 6.67536C35.3479 6.60268 35.2994 6.53761 35.2395 6.48404C35.1795 6.43047 35.1094 6.3895 35.0332 6.36358C32.2857 5.3185 28.1895 4.46253 24.2942 6.30955C20.7469 7.98878 17.9966 11.5861 16.1188 16.9935C13.052 16.4816 11.7787 12.0027 11.7659 11.9544C11.7218 11.8041 11.6202 11.6772 11.4831 11.6009C11.346 11.5245 11.1844 11.505 11.0329 11.5464C10.8815 11.5877 10.7525 11.6868 10.6735 11.8221C10.5946 11.9575 10.5722 12.1183 10.611 12.2701C10.6495 12.4122 11.2298 14.4654 12.6071 16.1248C11.7089 16.038 10.6267 15.647 9.73844 14.4754C9.03655 13.5249 8.67277 12.368 8.70475 11.188C8.72329 10.2183 8.8901 8.72105 9.16243 7.07878C9.3942 5.72995 9.42495 4.35438 9.25368 2.99658C11.0872 4.51657 14.3865 7.95466 13.541 12.4449C13.5265 12.5221 13.5274 12.6013 13.5435 12.6781C13.5597 12.7548 13.5909 12.8277 13.6353 12.8925C13.6798 12.9572 13.7365 13.0126 13.8024 13.0555C13.8683 13.0984 13.942 13.1279 14.0194 13.1424C14.0967 13.1568 14.1761 13.156 14.2531 13.1398C14.3301 13.1237 14.4032 13.0926 14.4681 13.0483C14.533 13.004 14.5886 12.9474 14.6316 12.8817C14.6746 12.816 14.7042 12.7424 14.7187 12.6653C15.2363 9.90121 14.4335 7.0731 12.3947 4.48813C10.8662 2.54869 8.81881 1.02302 8.37682 1.00027C8.28023 0.997379 8.18436 1.01779 8.09737 1.05977C8.01038 1.10175 7.93483 1.16405 7.87716 1.24139C7.81949 1.31872 7.7814 1.4088 7.76612 1.50396C7.75084 1.59913 7.75883 1.69656 7.7894 1.78799C7.7894 1.80789 8.49374 3.86108 7.99186 6.8783C7.7067 8.5746 7.53704 10.1358 7.5185 11.1596C7.4816 12.6068 7.93019 14.025 8.79315 15.1892C9.28077 15.8608 9.92305 16.4057 10.6659 16.7781C11.4088 17.1505 12.2305 17.3395 13.0619 17.3291C13.3204 17.3296 13.5787 17.312 13.8347 17.2765C14.4104 17.7024 15.0728 17.997 15.7752 18.1395C15.3567 19.825 15.2418 21.5712 15.4359 23.2967C15.721 25.6982 16.7946 28.8107 20.0582 31.2208C19.6978 31.2689 19.3407 31.3392 18.9889 31.4312L18.9518 31.4426C15.3389 32.7223 12.4845 30.2881 12.3576 30.1786C12.2377 30.0796 12.0839 30.0311 11.9288 30.0433C11.7737 30.0555 11.6294 30.1275 11.5265 30.2439C11.4236 30.3604 11.3703 30.5122 11.3777 30.6672C11.3851 30.8222 11.4528 30.9682 11.5663 31.0743C11.6789 31.1725 13.809 33.0067 16.826 33.0067C17.2513 33.0064 17.6759 32.9698 18.0949 32.8972C17.3977 34.1058 15.9178 35.7552 13.0733 35.5461C11.3137 35.4071 9.66171 34.6456 8.41532 33.3991C7.39814 32.3817 6.60343 31.165 6.08131 29.8259C6.01288 29.6553 5.95299 29.479 5.90452 29.3297C5.63077 28.4936 4.73823 26.0821 3.14991 24.5806C5.33271 24.3779 7.53299 24.6799 9.57973 25.4631C11.6265 26.2463 13.4646 27.4897 14.9511 29.0965C15.0616 29.2034 15.2091 29.2637 15.363 29.265C15.5169 29.2663 15.6654 29.2084 15.7777 29.1034C15.8899 28.9984 15.9573 28.8543 15.9659 28.7011C15.9745 28.5478 15.9235 28.3972 15.8237 28.2804C9.55024 21.6189 1.77403 23.5512 1.4461 23.6365C1.32729 23.6678 1.221 23.7347 1.14164 23.8283C1.06228 23.9218 1.01371 24.0375 1.0025 24.1595C0.991289 24.2815 1.01799 24.404 1.07898 24.5104C1.13998 24.6168 1.2323 24.7019 1.34344 24.7541C3.36948 25.7025 4.55003 29.0411 4.76532 29.7008C4.82092 29.8714 4.88794 30.0691 4.96778 30.271Z" fill="white" stroke="#772E25" stroke-width="1.4"/>
<path d="M26.6726 23.1759C26.5486 23.2341 26.4484 23.3329 26.3886 23.4558C26.3289 23.5788 26.3132 23.7185 26.3442 23.8515C26.3752 23.9846 26.4511 24.1031 26.5591 24.1871C26.6671 24.2712 26.8008 24.3158 26.9378 24.3134C27.0299 24.3137 27.1208 24.2922 27.203 24.2508C33.2298 21.2677 30.8858 14.3162 30.8673 14.2465C30.8256 14.129 30.7483 14.0273 30.6462 13.9554C30.544 13.8836 30.422 13.8452 30.297 13.8456C30.172 13.8445 30.0498 13.8824 29.9475 13.9541C29.8452 14.0257 29.768 14.1275 29.7266 14.2451C29.2176 15.6897 27.8574 16.3239 26.4188 16.995C25.3866 17.477 24.3201 17.9747 23.5929 18.8036C22.5008 20.0506 22.5364 21.4554 22.7574 22.4138C22.7713 22.4633 22.791 22.511 22.8159 22.556C22.4176 23.0299 22.1154 23.5766 21.9262 24.1655C21.0675 22.5533 20.7955 20.6943 21.1563 18.9046C21.1772 18.7984 21.2 18.6904 21.2247 18.5804C21.8891 15.6457 23.399 13.1488 25.4735 11.5478C25.5381 11.5007 25.5925 11.4411 25.6336 11.3727C25.6747 11.3043 25.7016 11.2283 25.7128 11.1493C25.7239 11.0703 25.7191 10.9899 25.6986 10.9128C25.6781 10.8357 25.6423 10.7635 25.5933 10.7004C25.5444 10.6373 25.4832 10.5846 25.4135 10.5455C25.3438 10.5064 25.267 10.4816 25.1875 10.4726C25.108 10.4636 25.0275 10.4705 24.9508 10.493C24.874 10.5156 24.8026 10.5532 24.7407 10.6037C22.4466 12.3739 20.7827 15.1139 20.057 18.3188C20.0313 18.4354 20.0057 18.552 19.9829 18.6671C19.7262 19.9463 19.7471 21.2654 20.0441 22.5358C20.3412 23.8062 20.9076 24.9985 21.7052 26.0324C21.7482 26.1384 21.821 26.2297 21.9148 26.2955C22.9224 27.5176 24.2229 28.4664 25.696 29.0539C41.5064 35.377 40.3473 46.7719 39.1154 51.3774C39.0952 51.4534 39.0903 51.5326 39.1008 51.6105C39.1114 51.6884 39.1373 51.7635 39.1771 51.8314C39.2168 51.8993 39.2696 51.9587 39.3324 52.0062C39.3952 52.0537 39.4669 52.0884 39.5431 52.1082C39.5938 52.1218 39.6461 52.1285 39.6986 52.1281C39.8291 52.1288 39.9563 52.087 40.0608 52.009C40.1653 51.9309 40.2414 51.821 40.2774 51.6959C40.7864 49.792 41.418 46.2145 40.4499 42.2504C40.4628 42.1451 40.8848 38.9701 44.0315 38.1269C47.8312 37.1131 48.9234 35.4254 48.969 35.3557C49.0518 35.2229 49.0788 35.0629 49.0441 34.9104C49.0094 34.7579 48.9158 34.6251 48.7836 34.541C48.6504 34.4566 48.4894 34.4277 48.3351 34.4604C48.1808 34.4931 48.0454 34.5848 47.9581 34.7158C47.9481 34.7301 47.0071 36.0965 43.7221 36.9738C43.1229 37.131 42.5513 37.3784 42.0269 37.7075C42.0269 36.2429 42.7212 33.6864 47.1283 32.5262C50.7569 31.5692 52.7473 30.3592 53.8295 29.3724C53.6028 31.8067 52.8528 35.9614 50.3948 38.3047C49.0602 39.5758 47.3593 40.1531 45.3375 40.0351C45.1822 40.0307 45.0312 40.0868 44.9165 40.1914C44.8018 40.296 44.7324 40.441 44.723 40.5957C44.7136 40.7505 44.7648 40.9028 44.8659 41.0205C44.967 41.1382 45.1101 41.2121 45.2648 41.2266C45.4701 41.238 45.6712 41.2451 45.8708 41.2451C47.9752 41.2451 49.7746 40.5484 51.2217 39.1677C55.2039 35.3713 55.1298 27.7543 55.1255 27.4316C55.123 27.2874 55.0683 27.1491 54.9715 27.042C54.8746 26.9349 54.7423 26.8664 54.5987 26.8491C54.4552 26.8318 54.3103 26.8668 54.1906 26.9477C54.071 27.0286 53.9847 27.15 53.9478 27.2894C53.9478 27.3136 53.1494 29.7066 46.8189 31.3716C40.4129 33.0594 40.7294 37.5852 40.8962 38.6402C40.4581 39.1158 40.0969 39.6564 39.8254 40.2427C37.808 34.9135 33.2084 30.7801 26.1379 27.9534C24.8628 27.446 23.7354 26.6282 22.8587 25.5746C22.8971 24.9717 23.1638 23.2683 24.9089 22.4465C25.0743 22.3725 26.5414 21.7071 27.0961 21.1668C27.2095 21.0559 27.2741 20.9047 27.2758 20.7463C27.2774 20.5879 27.2158 20.4353 27.1046 20.3222C26.9935 20.2091 26.8418 20.1446 26.6829 20.143C26.5241 20.1414 26.3712 20.2028 26.2577 20.3137C25.9526 20.6123 24.9745 21.1128 24.4042 21.3659C24.2075 21.4583 24.017 21.5632 23.8339 21.6801C23.7887 21.3077 23.8232 20.9299 23.9353 20.5718C24.0474 20.2137 24.2344 19.8834 24.484 19.6027C25.0444 18.9629 25.9526 18.5392 26.9079 18.0913C27.9986 17.5822 29.1891 17.0249 30.0332 16.0495C30.3454 17.9647 30.2756 21.3971 26.6726 23.1759Z" fill="white" stroke="#772E25" stroke-width="1.4"/>
<path d="M47.1482 1.98125C44.7314 2.05445 42.3938 2.85723 40.4443 4.2835C38.4948 5.70977 37.0252 7.69239 36.2295 9.96934C34.406 9.03801 32.5881 8.556 30.8244 8.53894C30.6656 8.53894 30.5133 8.60185 30.401 8.71385C30.2887 8.82584 30.2256 8.97774 30.2256 9.13612C30.2256 9.29451 30.2887 9.4464 30.401 9.5584C30.5133 9.67039 30.6656 9.73331 30.8244 9.73331C32.4669 9.74895 34.1736 10.2224 35.9016 11.1395C35.495 12.8763 35.4869 14.6822 35.878 16.4225C36.269 18.1628 37.0492 19.7925 38.1603 21.19C39.2713 22.5875 40.6845 23.7168 42.2944 24.4934C43.9042 25.2701 45.6692 25.6741 47.4576 25.6754C50.3392 25.6761 53.1225 24.6309 55.288 22.7349C55.9066 22.193 56.2909 21.4332 56.3602 20.6149C56.4576 19.3342 56.4121 18.0466 56.2247 16.7759C56.2108 16.6757 56.1717 16.5806 56.1109 16.4997C56.0501 16.4187 55.9697 16.3545 55.8772 16.313C55.7847 16.2715 55.6832 16.2541 55.5821 16.2624C55.4811 16.2708 55.3838 16.3046 55.2994 16.3607L52.2639 18.3812L51.0905 16.2341C51.0485 16.157 50.9899 16.0901 50.919 16.0381C50.8481 15.9862 50.7665 15.9505 50.6801 15.9337C50.5938 15.9169 50.5047 15.9192 50.4194 15.9407C50.3341 15.9622 50.2546 16.0021 50.1865 16.0578L48.5754 17.3674C47.5388 17.1626 43.5652 16.1716 42.5871 12.8728H48.2489L49.9869 14.2876C50.0993 14.3791 50.2412 14.4268 50.3862 14.4219C50.5313 14.4169 50.6695 14.3596 50.7754 14.2606L52.6389 12.5145L55.8854 14.9217C55.997 15.0045 56.134 15.046 56.273 15.039C56.4119 15.032 56.5441 14.9769 56.6467 14.8833C56.6952 14.8393 57.8287 13.7871 58.5573 11.7339C58.8151 11.0108 58.803 10.2193 58.5231 9.50439C57.6261 7.24081 56.0547 5.30595 54.0208 3.96073C51.9868 2.61551 49.5881 1.92463 47.1482 1.98125ZM57.4252 11.3358C57.1358 12.1692 56.7083 12.9482 56.1605 13.6406L52.9497 11.2576C52.8366 11.1742 52.6978 11.133 52.5574 11.141C52.4171 11.1491 52.2839 11.2059 52.1812 11.3016L50.3348 13.0321L48.832 11.8135C48.7253 11.7267 48.5919 11.679 48.4542 11.6784H40.3572C40.1984 11.6784 40.0461 11.7414 39.9338 11.8533C39.8215 11.9653 39.7584 12.1172 39.7584 12.2756C39.7584 12.434 39.8215 12.5859 39.9338 12.6979C40.0461 12.8099 40.1984 12.8728 40.3572 12.8728H41.3453C42.4716 17.6915 48.4 18.5603 48.6595 18.593C48.741 18.604 48.8238 18.5984 48.903 18.5764C48.9822 18.5544 49.056 18.5165 49.12 18.465L50.3847 17.437L51.5253 19.5258C51.5651 19.5983 51.6195 19.6617 51.6851 19.7122C51.7507 19.7627 51.826 19.799 51.9065 19.8189C51.9869 19.8388 52.0705 19.8419 52.1522 19.8279C52.2338 19.8139 52.3117 19.7832 52.3808 19.7376L55.1454 17.8892C55.2282 18.7572 55.2344 19.6307 55.1639 20.4998C55.1213 21.0119 54.8817 21.4878 54.4952 21.8278C52.9413 23.1863 51.0256 24.0662 48.9802 24.3608C46.9349 24.6553 44.8479 24.3519 42.972 23.4872C41.0961 22.6226 39.512 21.2339 38.4117 19.4895C37.3114 17.745 36.7421 15.7198 36.7728 13.6591C36.8555 8.01711 41.5221 3.3107 47.181 3.16851C47.2708 3.16851 47.3606 3.16851 47.4519 3.16851C49.6001 3.17228 51.6977 3.8195 53.4727 5.02629C55.2477 6.23309 56.6182 7.94379 57.4067 9.93664C57.5824 10.3854 57.589 10.8825 57.4252 11.3358Z" fill="white" stroke="#772E25" stroke-width="1.4"/>
</svg>
