<svg width="51" height="63" viewBox="0 0 51 63" fill="none" xmlns="http://www.w3.org/2000/svg">
<path fill-rule="evenodd" clip-rule="evenodd" d="M12.8898 41.0466C13.3843 41.0466 13.7854 40.6455 13.7854 40.1509C13.7854 39.6555 13.3843 39.2544 12.8898 39.2544C12.3952 39.2544 11.9941 39.6555 11.9941 40.1509C11.9941 40.6455 12.3952 41.0466 12.8898 41.0466Z" fill="#772E25"/>
<path fill-rule="evenodd" clip-rule="evenodd" d="M16.5105 42.4247C16.5105 43.2764 17.2004 43.9663 18.0521 43.9663C18.9047 43.9663 19.5947 43.2764 19.5947 42.4247C19.5947 41.5731 18.9047 40.8831 18.0521 40.8831C17.2004 40.8831 16.5105 41.5731 16.5105 42.4247Z" fill="#772E25"/>
<path fill-rule="evenodd" clip-rule="evenodd" d="M17.0027 35.6676C16.4231 35.6676 15.9529 36.1378 15.9529 36.7175C15.9529 37.2971 16.4231 37.7673 17.0027 37.7673C17.5824 37.7673 18.0526 37.2971 18.0526 36.7175C18.0526 36.1378 17.5824 35.6676 17.0027 35.6676Z" fill="#772E25"/>
<path fill-rule="evenodd" clip-rule="evenodd" d="M45.5503 36.7298C45.5503 37.3094 46.0205 37.7797 46.6002 37.7797C47.1798 37.7797 47.65 37.3094 47.65 36.7298C47.65 36.1502 47.1798 35.6799 46.6002 35.6799C46.0205 35.6799 45.5503 36.1502 45.5503 36.7298Z" fill="#772E25"/>
<path fill-rule="evenodd" clip-rule="evenodd" d="M46.6746 41.7189C46.6746 42.536 47.3374 43.1988 48.1545 43.1988C48.9725 43.1988 49.6344 42.536 49.6344 41.7189C49.6344 40.9009 48.9725 40.239 48.1545 40.239C47.3374 40.239 46.6746 40.9009 46.6746 41.7189Z" fill="#772E25"/>
<path fill-rule="evenodd" clip-rule="evenodd" d="M42.2366 40.8636C42.2366 41.3226 42.6087 41.6947 43.0677 41.6947C43.5267 41.6947 43.8988 41.3226 43.8988 40.8636C43.8988 40.4046 43.5267 40.0325 43.0677 40.0325C42.6087 40.0325 42.2366 40.4046 42.2366 40.8636Z" fill="#772E25"/>
<path fill-rule="evenodd" clip-rule="evenodd" d="M30.6721 42.2271C28.5256 42.2271 26.5165 43.0835 25.2086 44.5185C25.1516 44.4979 25.0964 44.4727 25.0385 44.4531C25.1469 42.2337 25.405 35.8896 24.8487 35.3053L24.5682 35.0118H24.4514L19.7499 31.8631C17.0257 30.0504 15.3999 27.0073 15.3999 23.7241V14.6511C15.3999 14.322 15.5486 14.0172 15.8094 13.8162C16.074 13.6115 16.4114 13.5432 16.7293 13.6274C17.4005 13.8097 17.9718 14.1902 18.3803 14.7287C18.7944 15.2756 19.0235 15.9449 19.0235 16.6134V23.4632L24.8786 25.0534C26.5305 25.5022 27.9001 26.4642 28.7331 27.7627L30.3074 26.7531C29.223 25.0637 27.4682 23.8194 25.3685 23.2491L23.4118 22.7181V6.1465C23.4118 4.33938 24.8824 2.86975 26.6895 2.86975C27.8132 2.86975 28.8453 3.43442 29.4492 4.38145L30.9422 6.71958C31.2704 7.29453 31.2685 7.97979 30.9357 8.55287C30.6029 9.12595 30.0092 9.46811 29.3464 9.46811C28.6882 9.46811 28.0768 9.1138 27.7206 8.49397L26.409 6.49053L24.845 7.51516L26.1276 9.46998C26.5764 10.2562 27.2962 10.8321 28.1273 11.1228L28.8958 15.8907C29.0155 16.5255 29.5035 17.0126 30.1382 17.1304C30.2336 17.1481 30.329 17.1575 30.4234 17.1575C30.9572 17.1575 31.4602 16.877 31.7864 16.3451L35.4586 8.94365C36.128 7.48711 37.6575 6.59337 39.2477 6.7336C40.5584 6.84392 41.7045 7.60584 42.3309 8.80248L42.918 9.82524C43.2209 10.4217 43.1872 11.1126 42.8264 11.6735C42.4693 12.2307 41.8579 12.5373 41.2006 12.5177C40.5434 12.4887 39.9479 12.1082 39.631 11.4949L38.827 10.0608L37.1966 10.9751L37.9847 12.3803C38.0239 12.4569 38.0725 12.5252 38.1165 12.5981L36.7001 16.0796C36.5842 16.3647 36.616 16.6882 36.7852 16.9453C36.9544 17.2023 37.2386 17.3594 37.5462 17.3669L38.6559 17.3912L36.3206 19.7265C34.8902 21.1559 34.8902 23.4819 36.3206 24.9123C37.0348 25.6275 37.9744 25.9846 38.913 25.9846C39.7039 25.9846 40.4864 25.7153 41.1427 25.2086L41.1399 27.9347C41.1399 30.9245 40.0563 32.9905 37.1405 35.5559L36.8189 35.8391L36.9161 44.5961C36.7151 44.6307 36.5188 44.6746 36.3253 44.7233C35.0379 43.1686 32.9447 42.2271 30.6721 42.2271ZM43.9305 17.3014C44.6307 18.0026 44.6307 19.1432 43.9305 19.8434L40.1835 23.5904C39.4823 24.2897 38.3437 24.2906 37.6425 23.5904C36.9423 22.8892 36.9423 21.7496 37.6425 21.0484L41.3885 17.3014C42.0635 16.6274 43.2555 16.6265 43.9305 17.3014ZM43.3387 50.3998H45.2085C45.2085 49.8997 45.1281 49.4163 44.9906 48.9517C46.9081 49.0751 48.4254 50.3316 48.4254 51.8769H50.2951C50.2951 49.22 47.7812 47.0586 44.6915 47.0586C44.4671 47.0586 44.2446 47.0698 44.024 47.0922C42.8666 45.6301 40.9632 44.6372 38.7849 44.5017L38.698 36.6712C41.755 33.888 43.0096 31.3311 43.0096 27.9357L43.0143 23.4043L45.2524 21.1653C46.6818 19.7359 46.6818 17.4099 45.2524 15.9795C44.0305 14.7576 41.9953 14.6221 40.5855 15.5616L38.9438 15.5261L39.5786 13.9667C40.0507 14.2117 40.5733 14.3622 41.1202 14.3856C42.4534 14.4426 43.679 13.8069 44.3998 12.6841C45.1234 11.5566 45.1926 10.1711 44.5615 8.9371L43.9707 7.905C43.0638 6.16893 41.3568 5.03493 39.4047 4.87039C37.0236 4.67407 34.7575 5.99411 33.7712 8.13778L30.5786 14.581L30.0448 11.2659C31.0918 11.0696 32.0014 10.4413 32.553 9.49149C33.2233 8.33504 33.228 6.95236 32.5418 5.75291L31.0254 3.37459C30.0756 1.88813 28.4545 1 26.6895 1C23.8512 1 21.542 3.30821 21.542 6.1465V22.2096L20.8932 22.0338V16.6134C20.8932 15.5392 20.5296 14.4688 19.8705 13.5984C19.2189 12.7392 18.2765 12.1091 17.2098 11.8212C16.3198 11.5884 15.3934 11.7754 14.667 12.3363C13.9443 12.8944 13.5302 13.7377 13.5302 14.6511V23.7241C13.5302 27.6346 15.4682 31.2601 18.7122 33.4178L23.2865 36.4823C23.3314 37.764 23.2688 41.9364 23.1828 44.0754C22.9584 44.0567 22.7321 44.0399 22.504 44.0399C20.4034 44.0399 18.5224 44.8457 17.251 46.1115C16.9247 46.0611 16.5947 46.0265 16.2609 46.0265C13.9443 46.0265 11.9138 47.2297 11.0686 49.0246H1V50.8944H12.4223L12.6149 50.2119C12.972 48.9358 14.38 48.0028 16.0113 47.914C15.7346 48.5525 15.5757 49.2396 15.5757 49.9595H17.4454C17.4454 47.7261 19.7144 45.9096 22.504 45.9096C24.2195 45.9096 25.806 46.6024 26.7484 47.7616L28.2002 46.5837C27.8431 46.1433 27.4168 45.7582 26.9466 45.4225C27.8992 44.5858 29.2379 44.0969 30.6721 44.0969C32.1501 44.0969 33.5103 44.6055 34.4564 45.4674C32.5876 46.5294 31.3517 48.3431 31.3517 50.3998H33.2215C33.2215 48.1664 35.4904 46.3499 38.2801 46.3499C41.0698 46.3499 43.3387 48.1664 43.3387 50.3998Z" fill="#772E25" stroke="#772E25" stroke-width="0.5"/>
<path fill-rule="evenodd" clip-rule="evenodd" d="M30.0142 38.0621H31.8839V34.7097H30.0142V38.0621Z" fill="#772E25"/>
<path fill-rule="evenodd" clip-rule="evenodd" d="M35.8684 56.7952H38.3542V54.9255H35.8684V56.7952Z" fill="#772E25"/>
<path fill-rule="evenodd" clip-rule="evenodd" d="M39.6733 56.7952H50.1598V54.9255H39.6733V56.7952Z" fill="#772E25"/>
<path fill-rule="evenodd" clip-rule="evenodd" d="M4.7959 62.9999H25.1024V61.1302H4.7959V62.9999Z" fill="#772E25"/>
<path fill-rule="evenodd" clip-rule="evenodd" d="M28.1267 62.9999H32.0354V61.1302H28.1267V62.9999Z" fill="#772E25"/>
<path fill-rule="evenodd" clip-rule="evenodd" d="M8.95142 56.3099H14.1951V54.4402H8.95142V56.3099Z" fill="#772E25"/>
<path fill-rule="evenodd" clip-rule="evenodd" d="M27.7454 22.9564H34.0614V21.0866H27.7454V22.9564Z" fill="#772E25"/>
</svg>
