<svg width="50" height="62" viewBox="0 0 50 62" fill="none" xmlns="http://www.w3.org/2000/svg">
<path fill-rule="evenodd" clip-rule="evenodd" d="M11.8898 40.0466C12.3843 40.0466 12.7854 39.6455 12.7854 39.1509C12.7854 38.6555 12.3843 38.2544 11.8898 38.2544C11.3952 38.2544 10.9941 38.6555 10.9941 39.1509C10.9941 39.6455 11.3952 40.0466 11.8898 40.0466Z" fill="#772e25"/>
<path fill-rule="evenodd" clip-rule="evenodd" d="M15.5105 41.4247C15.5105 42.2764 16.2004 42.9663 17.0521 42.9663C17.9047 42.9663 18.5947 42.2764 18.5947 41.4247C18.5947 40.5731 17.9047 39.8831 17.0521 39.8831C16.2004 39.8831 15.5105 40.5731 15.5105 41.4247Z" fill="#772e25"/>
<path fill-rule="evenodd" clip-rule="evenodd" d="M16.0027 34.6676C15.4231 34.6676 14.9529 35.1378 14.9529 35.7175C14.9529 36.2971 15.4231 36.7673 16.0027 36.7673C16.5824 36.7673 17.0526 36.2971 17.0526 35.7175C17.0526 35.1378 16.5824 34.6676 16.0027 34.6676Z" fill="#772e25"/>
<path fill-rule="evenodd" clip-rule="evenodd" d="M44.5503 35.7298C44.5503 36.3094 45.0205 36.7797 45.6002 36.7797C46.1798 36.7797 46.65 36.3094 46.65 35.7298C46.65 35.1502 46.1798 34.6799 45.6002 34.6799C45.0205 34.6799 44.5503 35.1502 44.5503 35.7298Z" fill="#772e25"/>
<path fill-rule="evenodd" clip-rule="evenodd" d="M45.6746 40.7189C45.6746 41.536 46.3374 42.1988 47.1545 42.1988C47.9725 42.1988 48.6344 41.536 48.6344 40.7189C48.6344 39.9009 47.9725 39.239 47.1545 39.239C46.3374 39.239 45.6746 39.9009 45.6746 40.7189Z" fill="#772e25"/>
<path fill-rule="evenodd" clip-rule="evenodd" d="M41.2366 39.8636C41.2366 40.3226 41.6087 40.6947 42.0677 40.6947C42.5267 40.6947 42.8988 40.3226 42.8988 39.8636C42.8988 39.4046 42.5267 39.0325 42.0677 39.0325C41.6087 39.0325 41.2366 39.4046 41.2366 39.8636Z" fill="#772e25"/>
<path fill-rule="evenodd" clip-rule="evenodd" d="M29.6721 41.2271C27.5256 41.2271 25.5165 42.0835 24.2086 43.5185C24.1516 43.4979 24.0964 43.4727 24.0385 43.4531C24.1469 41.2337 24.405 34.8896 23.8487 34.3053L23.5682 34.0118H23.4514L18.7499 30.8631C16.0257 29.0504 14.3999 26.0073 14.3999 22.724V13.6511C14.3999 13.322 14.5486 13.0172 14.8094 12.8162C15.074 12.6115 15.4114 12.5432 15.7293 12.6274C16.4005 12.8097 16.9718 13.1902 17.3803 13.7287C17.7944 14.2756 18.0235 14.9449 18.0235 15.6134V22.4632L23.8786 24.0534C25.5305 24.5022 26.9001 25.4642 27.7331 26.7627L29.3075 25.7531C28.223 24.0637 26.4682 22.8194 24.3685 22.2491L22.4118 21.7181V5.1465C22.4118 3.33938 23.8824 1.86975 25.6895 1.86975C26.8132 1.86975 27.8453 2.43442 28.4492 3.38145L29.9422 5.71958C30.2704 6.29453 30.2685 6.97979 29.9357 7.55287C29.6029 8.12595 29.0092 8.46811 28.3464 8.46811C27.6882 8.46811 27.0768 8.1138 26.7206 7.49397L25.409 5.49053L23.845 6.51516L25.1276 8.46998C25.5764 9.25622 26.2962 9.8321 27.1273 10.1228L27.8958 14.8907C28.0155 15.5255 28.5035 16.0126 29.1382 16.1304C29.2336 16.1481 29.329 16.1575 29.4234 16.1575C29.9572 16.1575 30.4602 15.877 30.7864 15.3451L34.4586 7.94365C35.128 6.48711 36.6575 5.59337 38.2477 5.7336C39.5584 5.84392 40.7045 6.60584 41.3309 7.80248L41.918 8.82524C42.2209 9.42169 42.1872 10.1126 41.8264 10.6735C41.4693 11.2307 40.8579 11.5373 40.2006 11.5177C39.5434 11.4887 38.9479 11.1082 38.631 10.4949L37.827 9.06083L36.1966 9.97514L36.9847 11.3803C37.0239 11.4569 37.0725 11.5252 37.1165 11.5981L35.7001 15.0796C35.5842 15.3647 35.616 15.6882 35.7852 15.9453C35.9544 16.2023 36.2386 16.3594 36.5462 16.3669L37.6559 16.3912L35.3206 18.7265C33.8902 20.1559 33.8902 22.4819 35.3206 23.9123C36.0348 24.6275 36.9744 24.9846 37.913 24.9846C38.7039 24.9846 39.4864 24.7153 40.1427 24.2086L40.1399 26.9347C40.1399 29.9245 39.0563 31.9906 36.1405 34.5559L35.8189 34.8391L35.9161 43.5961C35.7151 43.6307 35.5188 43.6746 35.3253 43.7233C34.0379 42.1686 31.9447 41.2271 29.6721 41.2271ZM42.9305 16.3014C43.6307 17.0026 43.6307 18.1432 42.9305 18.8434L39.1835 22.5904C38.4823 23.2897 37.3437 23.2906 36.6425 22.5904C35.9423 21.8892 35.9423 20.7496 36.6425 20.0484L40.3885 16.3014C41.0635 15.6274 42.2555 15.6265 42.9305 16.3014ZM42.3387 49.3998H44.2085C44.2085 48.8997 44.1281 48.4163 43.9906 47.9517C45.9081 48.0751 47.4254 49.3316 47.4254 50.8769H49.2951C49.2951 48.22 46.7812 46.0586 43.6915 46.0586C43.4671 46.0586 43.2446 46.0698 43.024 46.0922C41.8666 44.6301 39.9632 43.6372 37.7849 43.5017L37.698 35.6712C40.755 32.888 42.0096 30.3311 42.0096 26.9357L42.0143 22.4043L44.2524 20.1653C45.6818 18.7359 45.6818 16.4099 44.2524 14.9795C43.0305 13.7576 40.9953 13.6221 39.5855 14.5616L37.9438 14.5261L38.5786 12.9667C39.0507 13.2117 39.5733 13.3622 40.1202 13.3856C41.4534 13.4426 42.679 12.8069 43.3998 11.6841C44.1234 10.5566 44.1926 9.17114 43.5615 7.9371L42.9707 6.905C42.0638 5.16893 40.3568 4.03493 38.4047 3.87039C36.0236 3.67407 33.7575 4.99411 32.7712 7.13778L29.5786 13.581L29.0448 10.2659C30.0918 10.0696 31.0014 9.44132 31.553 8.49149C32.2233 7.33504 32.228 5.95236 31.5418 4.75291L30.0254 2.37459C29.0756 0.888133 27.4545 0 25.6895 0C22.8512 0 20.542 2.30821 20.542 5.1465V21.2096L19.8932 21.0338V15.6134C19.8932 14.5392 19.5296 13.4688 18.8705 12.5984C18.2189 11.7392 17.2765 11.1091 16.2098 10.8212C15.3198 10.5884 14.3934 10.7754 13.667 11.3363C12.9443 11.8944 12.5302 12.7377 12.5302 13.6511V22.724C12.5302 26.6346 14.4682 30.2601 17.7122 32.4178L22.2865 35.4823C22.3314 36.764 22.2688 40.9364 22.1828 43.0754C21.9584 43.0567 21.7321 43.0399 21.504 43.0399C19.4034 43.0399 17.5224 43.8457 16.251 45.1115C15.9247 45.0611 15.5947 45.0265 15.2609 45.0265C12.9443 45.0265 10.9138 46.2297 10.0686 48.0246H0V49.8944H11.4223L11.6149 49.2119C11.972 47.9358 13.38 47.0028 15.0113 46.914C14.7346 47.5525 14.5757 48.2396 14.5757 48.9595H16.4454C16.4454 46.7261 18.7144 44.9096 21.504 44.9096C23.2195 44.9096 24.806 45.6024 25.7484 46.7616L27.2002 45.5837C26.8431 45.1433 26.4168 44.7582 25.9466 44.4225C26.8992 43.5858 28.238 43.0969 29.6721 43.0969C31.1501 43.0969 32.5103 43.6055 33.4564 44.4674C31.5876 45.5294 30.3517 47.3431 30.3517 49.3998H32.2215C32.2215 47.1664 34.4904 45.3499 37.2801 45.3499C40.0698 45.3499 42.3387 47.1664 42.3387 49.3998Z" fill="#772e25"/>
<path fill-rule="evenodd" clip-rule="evenodd" d="M29.0142 37.0621H30.8839V33.7097H29.0142V37.0621Z" fill="#772e25"/>
<path fill-rule="evenodd" clip-rule="evenodd" d="M34.8684 55.7952H37.3542V53.9255H34.8684V55.7952Z" fill="#772e25"/>
<path fill-rule="evenodd" clip-rule="evenodd" d="M38.6733 55.7952H49.1598V53.9255H38.6733V55.7952Z" fill="#772e25"/>
<path fill-rule="evenodd" clip-rule="evenodd" d="M3.7959 61.9999H24.1024V60.1302H3.7959V61.9999Z" fill="#772e25"/>
<path fill-rule="evenodd" clip-rule="evenodd" d="M27.1267 61.9999H31.0354V60.1302H27.1267V61.9999Z" fill="#772e25"/>
<path fill-rule="evenodd" clip-rule="evenodd" d="M7.95142 55.3099H13.1951V53.4402H7.95142V55.3099Z" fill="#772e25"/>
<path fill-rule="evenodd" clip-rule="evenodd" d="M26.7454 21.9564H33.0614V20.0866H26.7454V21.9564Z" fill="#772e25"/>
</svg>
